<svg width="41" height="41" viewBox="0 0 41 41" fill="none" xmlns="http://www.w3.org/2000/svg">
<g clip-path="url(#clip0_1_164)">
<circle cx="20.5" cy="20.5" r="19.5" stroke="url(#paint0_linear_1_164)" stroke-width="2"/>
<circle cx="20.5965" cy="20.5965" r="15.4284" fill="#E0BEBE"/>
<mask id="mask0_1_164" style="mask-type:alpha" maskUnits="userSpaceOnUse" x="5" y="5" width="32" height="32">
<circle cx="20.5965" cy="20.5965" r="15.4284" fill="#C4C4C4"/>
</mask>
<g mask="url(#mask0_1_164)">
<path fill-rule="evenodd" clip-rule="evenodd" d="M24.4107 30.5469C23.0978 29.5469 19.8016 29.097 18.4004 30.06C17.0162 31.0272 16.8654 32.5911 16.2204 34.0296C15.612 33.7426 14.6072 34.1537 14.4307 34.7186C14.212 34.985 14.2022 35.7334 14.0511 36.0914C7.48569 37.1369 6.48901 42.2576 5.69876 48.071C4.65324 53.97 2.27999 59.8562 3.31015 65.9264C3.17597 66.1208 3.07024 66.3098 2.97231 66.5341C2.73767 66.9332 3.03977 67.4983 3.51281 67.4764C4.12507 67.4226 4.73129 67.3491 5.34631 67.3261C7.05142 67.267 8.75829 67.274 10.4639 67.2957L10.6965 67.2987C19.2933 67.4057 27.8896 67.6167 36.4867 67.6728C36.7986 67.6731 36.9513 67.3934 36.9097 67.1172C36.8258 66.5616 36.748 66.0055 36.6668 65.4496C38.7002 65.9868 40.8619 66.122 42.8896 65.506C43.0315 65.3615 42.5591 65.4398 42.4842 65.4179C44.3503 64.1423 43.793 61.4548 43.6277 59.5194C42.5998 52.887 42.2375 45.5487 38.266 39.8891C36.548 37.5795 34.0291 35.7508 31.1347 35.3394L31.0544 35.3284C30.2081 35.2153 29.2649 35.1791 28.5249 34.7186C27.6927 34.0538 27.338 32.8257 26.4624 32.8144C26.1734 32.8106 25.7802 33.1764 25.357 33.4249C25.3253 32.8783 25.031 32.4171 24.966 31.9934L24.9607 31.9572C24.8928 31.4632 24.9857 31.0189 24.4107 30.5469ZM10.3008 48.2462C12.1459 46.964 16.9123 47.6083 17.0213 47.68C17.2614 47.8381 17.3649 47.8522 17.4948 48.0574C17.6232 48.0745 17.7513 48.0921 17.8795 48.1103C18.1363 48.1943 17.9459 48.5103 17.6491 48.3975C17.8276 49.1676 17.3025 49.7154 17.0933 50.4767C17.0253 50.7239 17.0907 51.1685 17.0933 51.4213C17.0729 51.7433 16.7169 52.1237 16.7763 52.4469C16.9873 53.5954 18.1317 54.7159 17.6491 55.8299C17.3297 56.4593 16.3682 56.7801 15.729 56.994C14.4046 57.5023 12.0973 56.9749 11.3277 55.8299C10.9173 55.2194 10.4418 53.6792 10.1971 53.2014L10.1429 52.4436C10.009 50.5598 9.89017 48.5317 10.3008 48.2462Z" fill="white"/>
<path fill-rule="evenodd" clip-rule="evenodd" d="M26.7841 32.7031C26.6567 32.5903 26.4682 32.7321 26.549 32.8846C26.731 33.2273 26.9176 33.5518 27.1618 33.8546C27.3098 34.0384 27.4684 34.2121 27.629 34.3838C27.2166 34.7405 26.8629 35.1836 26.5291 35.599C26.1019 36.13 25.6983 36.6836 25.2187 37.1694C24.746 37.6488 24.2233 37.9839 23.5912 38.2072L23.4635 38.2515C22.8286 38.4745 22.1499 38.7756 21.7922 39.377C21.7217 39.4956 21.8637 39.6421 21.9832 39.5681C22.6051 39.1829 23.3357 39.1054 24.0126 38.8509C24.6667 38.6052 25.2366 38.2268 25.7404 37.7437C26.2431 37.2616 26.6653 36.713 27.1059 36.176C27.5414 35.6451 28.0102 35.1914 28.5253 34.7423C29.3202 35.2773 30.2276 35.5101 31.1502 35.7387L31.2509 35.7637C32.1747 35.9925 33.0935 36.2581 33.9601 36.6566C34.7242 37.0078 35.4757 37.4272 36.0981 37.9987C36.7588 38.6054 37.273 39.3801 37.7437 40.1376C38.7964 41.8326 39.5366 43.6895 40.1882 45.5691C40.8659 47.5239 41.4327 49.5181 41.8904 51.5359C42.1231 52.5622 42.3121 53.5959 42.4675 54.6369C42.5423 55.1382 42.6087 55.6406 42.667 56.1441C42.7293 56.6819 42.7436 57.235 42.9085 57.7518C42.9792 57.9734 43.1461 58.0655 43.3132 58.0575L43.3471 58.4822C43.3921 59.0481 43.434 59.6143 43.4482 60.1837C43.4717 61.1308 43.461 62.0752 43.3929 63.02L43.3833 63.1489C43.3298 63.8387 43.2102 64.6136 42.6918 65.1186C42.155 65.6415 41.3293 65.8061 40.6057 65.8154C38.9204 65.8373 37.2981 65.0408 35.8067 64.3419C34.2708 63.6222 32.7769 62.8234 31.3187 61.9568C30.5761 61.5155 29.8415 61.0596 29.1163 60.5903C28.7605 60.36 28.4071 60.1258 28.0564 59.8879C27.8556 59.7515 27.665 59.6022 27.4606 59.4811C27.5608 59.3877 27.6056 59.2412 27.5215 59.113C28.1128 58.5995 28.3588 57.6836 28.3876 56.9422C28.4108 56.344 28.3228 55.7474 28.2534 55.1548C28.2183 54.8557 28.175 54.5574 28.1301 54.26C28.1123 54.1425 28.0988 54.0166 28.078 53.8925C29.6743 54.7701 31.3153 55.5518 32.9998 56.2459C33.8632 56.6018 34.7377 56.9218 35.6243 57.2151L35.804 57.2743C36.644 57.5494 37.5042 57.8092 38.3726 57.9663C38.419 57.9749 38.4567 57.9062 38.4071 57.8845C37.5609 57.5109 36.6852 57.1957 35.8262 56.8516L35.6851 56.7942C35.7013 56.7932 35.7181 56.7909 35.7356 56.7869C36.2394 56.6653 36.7393 56.4777 37.2334 56.3199C37.6919 56.1734 38.2072 56.0815 38.6358 55.8604C38.6688 55.8433 38.6503 55.7975 38.6182 55.7952C38.1364 55.7617 37.6134 55.9022 37.1411 55.985L36.9637 56.016C36.6664 56.0684 36.3625 56.1248 36.0667 56.1983C36.056 56.0993 36.0007 55.9996 35.9219 55.9412C35.0551 55.299 35.1431 54.0023 35.0504 53.0459L34.9817 52.3357C34.8608 51.093 34.7328 49.8504 34.5385 48.6171C34.5281 48.5513 34.4263 48.5702 34.4259 48.6324C34.4158 50.1613 34.5312 51.6831 34.589 53.2095L34.598 53.46C34.6299 54.402 34.655 55.3801 35.248 56.1049C35.1651 56.0563 35.053 56.0563 34.9858 56.1363C34.9032 56.2345 34.8556 56.3448 34.8571 56.453C34.3212 56.2285 33.7877 55.9979 33.2568 55.7625C31.5499 55.006 29.8788 54.1593 28.2518 53.2435C28.0767 53.1448 27.9102 53.2223 27.8236 53.3522L27.8113 53.3505C27.8093 53.3502 27.807 53.35 27.8047 53.35L27.7924 53.3495C27.7919 53.3495 27.7914 53.3495 27.7911 53.3495C27.562 53.2236 27.2501 53.3132 27.0535 53.4967C27.0477 53.5023 27.0427 53.5083 27.0376 53.5141C26.7889 53.4023 26.5566 53.2515 26.3456 53.0605C25.9143 52.6692 25.5488 52.1856 25.2301 51.7005C24.6435 50.807 24.145 49.8136 23.3525 49.0783C22.7085 48.4809 21.9102 48.1088 21.0727 47.8754C21.0762 47.851 21.0669 47.8248 21.05 47.8074C21.007 47.7634 20.9762 47.748 20.9206 47.7749C20.9163 47.777 20.9136 47.78 20.9118 47.7833L20.8302 47.6435C20.7854 47.5678 20.7396 47.4912 20.7237 47.4713C20.6288 47.3515 20.5309 47.2327 20.4315 47.1164C20.263 46.9192 20.0712 46.7249 19.8489 46.5882C19.3623 46.2891 18.8505 46.4583 18.3502 46.6219C18.0479 46.7206 17.7465 46.8226 17.4449 46.923L17.4137 46.9331C17.1887 47.0053 16.9253 47.0688 16.8249 47.3072C16.7848 47.4016 16.7788 47.4995 16.7974 47.5944C14.6601 47.0509 12.2863 47.3006 10.2006 47.9388C10.1205 47.9635 10.0407 48.0292 10.0238 48.1158C9.78491 49.3418 9.67842 50.5991 9.78642 51.8458C9.87982 52.9222 10.1182 53.9768 10.5674 54.9622L10.593 55.0178C11.015 55.9309 11.6841 57.0567 12.706 57.343C13.323 57.5157 14.0055 57.414 14.6349 57.3823C15.2464 57.3513 15.8715 57.347 16.4775 57.2508C17.017 57.165 17.4897 56.9231 17.8231 56.4843C18.1108 56.1056 18.2621 55.6479 18.3862 55.1928C18.4431 55.2109 18.4995 55.2303 18.5549 55.2519C18.7895 55.3436 18.9879 55.4914 19.1677 55.6653C19.5468 56.0326 19.8408 56.4787 20.2376 56.8292C20.5966 57.1466 21.0059 57.3933 21.4447 57.5832C22.3543 57.9764 23.3301 58.1335 24.2923 58.3417L24.3595 58.3563C25.0838 58.5154 25.8229 58.7105 26.4624 59.0879C26.4747 59.1989 26.5253 59.3034 26.6064 59.3718C26.4936 59.4778 26.446 59.6455 26.545 59.8028C26.8219 60.2424 27.2985 60.4924 27.7264 60.7733L27.7544 60.7917C28.1754 61.0709 28.6001 61.3446 29.0282 61.6127C29.8986 62.158 30.7872 62.6731 31.6884 63.1655C33.1378 63.9577 34.6183 64.7049 36.1256 65.3826C36.0351 65.828 36.0682 66.2869 36.0002 66.7353L35.9898 66.7993C35.9607 66.9657 36 67.1046 36.1145 67.2134L36.1266 67.2245L36.1264 67.223L36.1371 67.233L36.1407 67.236L36.1395 67.235C36.1527 67.2471 36.1664 67.2584 36.1803 67.268L36.1979 67.2793C36.3082 67.3463 36.4503 67.3456 36.5632 67.2864L36.5761 67.2793L36.5978 67.267C36.7471 67.1809 36.85 66.9682 36.7881 66.7993C36.6359 66.3839 36.5784 65.9403 36.4379 65.5221L36.5494 65.572L36.6963 65.6362C38.2854 66.3234 40.0506 66.9025 41.7821 66.4337C42.5471 66.2268 43.2622 65.7885 43.6449 65.0745C44.0216 64.3719 44.0748 63.5559 44.0948 62.7743C44.1195 61.8095 44.0678 60.8302 43.9407 59.8736C43.8553 59.2316 43.7521 58.5776 43.5928 57.9422C43.6747 57.8699 43.7349 57.7662 43.7508 57.6378C43.826 57.0308 43.6945 56.3999 43.6139 55.7965C43.5353 55.2069 43.4484 54.6185 43.3501 54.0322C43.1516 52.848 42.9211 51.666 42.6526 50.4956C42.1749 48.4124 41.5441 46.3664 40.7846 44.369L40.718 44.1951C40.0162 42.3696 39.2036 40.5832 38.0721 38.9795C37.5308 38.2122 36.9586 37.5166 36.1938 36.9635C35.4772 36.4457 34.669 36.0726 33.8349 35.7876C33 35.5023 32.1417 35.311 31.2684 35.1922C30.3814 35.0713 29.4451 34.9973 28.6177 34.6333C28.7224 34.4457 28.6325 34.1922 28.4564 34.0757C27.8636 33.684 27.3153 33.1742 26.7841 32.7031ZM7.80665 49.7414C7.78173 49.7036 7.72282 49.7275 7.73365 49.7721C8.02215 50.9538 8.29279 52.138 8.46951 53.3422C8.78848 55.5158 8.72982 57.7176 8.70364 59.9073L8.70238 60.0204C8.68904 61.1998 8.67041 62.3793 8.63139 63.5582C8.61175 64.1541 8.57273 64.7558 8.59388 65.3519C8.60546 65.6754 8.69156 65.9813 8.72227 66.3008C8.74896 66.5802 8.72504 66.8637 8.7117 67.1437C8.70288 67.3297 8.97729 67.3216 8.99592 67.1437L9.01984 66.9133C9.0508 66.6218 9.08907 66.332 9.18473 66.0531C9.29953 65.7175 9.35467 65.3879 9.39445 65.0355C9.45537 64.4955 9.48256 63.9502 9.50622 63.4067L9.52234 63.0305C9.62052 60.7582 9.61724 58.4754 9.45789 56.2056L9.4463 56.0434C9.28871 53.898 9.01506 51.5797 7.80665 49.7414ZM13.9526 36.2188C14.0279 36.1879 14.0017 36.0741 13.9182 36.094L13.7666 36.13C12.6551 36.3963 11.564 36.6848 10.5268 37.1803C9.48885 37.6762 8.61024 38.4164 7.91188 39.3264C6.55444 41.0957 5.99052 43.2459 5.54518 45.3939C5.05049 47.781 4.59985 50.1766 4.10063 52.5627L4.00798 53.0073C3.54602 55.2298 3.10999 57.4535 2.78876 59.7021L2.76559 59.8653C2.44159 62.1779 2.24673 64.5702 2.60019 66.8889C2.67018 67.3476 3.43324 67.2333 3.40328 66.7801C3.31718 65.47 3.2555 64.1667 3.31517 62.8538C3.37483 61.5404 3.49794 60.2328 3.68147 58.931C3.83604 57.8354 4.06614 56.7534 4.27006 55.6666L4.30203 55.4949C4.47247 54.5705 4.64844 53.647 4.82391 52.7236L5.08623 51.3407C5.47947 49.2703 5.88026 47.1979 6.33315 45.1406L6.35984 45.0195C6.80317 43.04 7.45647 40.9666 8.78596 39.3947C10.1351 37.7996 12.0663 36.9962 13.9526 36.2188ZM18.8547 57.2146C18.8223 57.1421 18.7087 57.1501 18.674 57.2146C18.5373 57.4668 18.5219 57.7888 18.4962 58.0738L18.4935 58.103C18.4605 58.4507 18.4315 58.7996 18.4137 59.1483C18.3799 59.8101 18.3636 60.471 18.3658 61.1339C18.3679 61.8128 18.3814 62.4913 18.4182 63.1695L18.428 63.351C18.4615 63.9404 18.5176 64.5977 18.7973 65.113C18.8993 65.3003 19.176 65.2452 19.2349 65.0559C19.428 64.4356 19.3288 63.7002 19.2792 63.065L19.2407 62.5693C19.2027 62.0736 19.1664 61.5779 19.1377 61.0815C19.0982 60.4025 19.0657 59.723 19.0342 59.0438C19.0242 58.823 19.0131 58.6025 19.0015 58.3817L18.9836 58.0509C18.9683 57.774 18.9695 57.4704 18.8547 57.2146ZM40.5628 58.0935L40.4774 58.0109C40.215 57.7541 39.8834 57.3583 39.4956 57.383C39.3409 57.3928 39.2423 57.5212 39.2744 57.6735C39.3429 57.9988 39.6748 58.1677 39.9136 58.3664C40.1753 58.5839 40.4219 58.8165 40.6681 59.0514C40.8864 59.2596 41.0964 59.4736 41.3014 59.6946L41.3781 59.7777C41.4515 59.8577 41.9747 60.3313 41.9182 60.4541L41.9151 60.4597C41.8994 60.4831 41.9256 60.5153 41.9517 60.5072C42.1776 60.4357 42.1635 60.2421 42.0781 60.0458C41.914 59.6687 41.6266 59.3197 41.3756 58.9977C41.1252 58.6763 40.8543 58.3772 40.5628 58.0935ZM18.036 48.6357C18.2108 48.2226 18.8545 48.2311 19.2198 48.256C20.1399 48.3182 21.1353 48.5511 21.954 48.9813C22.8029 49.4272 23.3747 50.1419 23.8862 50.9322L23.9101 50.9694C24.4089 51.7448 24.889 52.6627 25.6699 53.1956C26.0674 53.4673 26.5319 53.7155 27.0145 53.8228C27.0475 53.8812 27.1011 53.9272 27.1716 53.9438L27.2043 53.9514C27.3418 53.9819 27.5552 54.0153 27.7395 53.9952C27.7383 54.0856 27.7393 54.1752 27.737 54.2605C27.7305 54.5058 27.7277 54.7517 27.7277 54.9969C27.7277 55.5105 27.7554 56.0253 27.7337 56.5389C27.7149 56.9933 27.6507 57.4681 27.4326 57.8742C27.2728 58.1723 27.0616 58.3694 26.8068 58.5577C26.1799 58.1755 25.471 57.9424 24.7517 57.7672C23.8817 57.5555 22.9908 57.4142 22.1406 57.127C21.7315 56.9885 21.338 56.8078 20.9815 56.5618C20.6031 56.301 20.3141 55.9478 20.0168 55.6024L19.9705 55.5488C19.6671 55.2006 19.3358 54.8675 18.9071 54.6787C18.5378 54.5163 18.0511 54.4874 17.7282 54.2356C17.5595 54.104 17.5454 53.9131 17.5275 53.7175C17.7342 53.747 17.9532 53.6996 18.1594 53.6755L18.2661 53.6629C18.461 53.6397 18.6513 53.6143 18.8432 53.5647C18.8789 53.5554 18.8789 53.5018 18.8432 53.4925C18.6166 53.4341 18.3918 53.4091 18.1594 53.3817L18.1048 53.3749C17.8943 53.3474 17.6733 53.3057 17.4671 53.352C17.4301 53.2113 17.3765 53.0766 17.3017 52.9419C17.1962 52.7526 16.9971 52.5381 16.9701 52.317C16.9621 52.2511 16.9777 52.173 17.0086 52.1146L17.0195 52.0947C17.0326 52.0713 17.0479 52.0477 17.0706 52.0331C17.0731 52.0361 17.0784 52.0394 17.09 52.0429C17.2488 52.093 17.3873 52.0152 17.4608 51.8953C17.7727 51.9341 18.1133 51.921 18.4061 51.9341L18.7019 51.9485C19.0181 51.9628 19.3484 51.9691 19.6457 51.9054C19.687 51.8964 19.6996 51.8274 19.6581 51.8095C19.2928 51.6534 18.85 51.6036 18.4587 51.5434C18.2405 51.5099 18.0204 51.4842 17.8014 51.4548C17.6556 51.4352 17.5008 51.4027 17.3498 51.3949C16.9709 50.9231 17.1751 50.1787 17.7022 49.9755C17.8943 50.0601 18.067 50.011 18.2767 49.9929C18.4862 49.975 18.6961 49.9627 18.9066 49.9637C19.328 49.9654 19.7744 50.0765 20.1918 50.0286C20.2598 50.0208 20.3227 49.9304 20.2552 49.8753C19.9358 49.6145 19.4781 49.5296 19.0725 49.474L18.9884 49.4627C18.8525 49.4448 18.6873 49.4189 18.5159 49.4035C18.4771 49.3277 18.4074 49.2706 18.3029 49.2562C18.2719 49.252 18.2407 49.2497 18.2095 49.2469L18.21 49.2439C17.955 49.2316 17.9661 48.8008 18.036 48.6357ZM35.485 56.6927C35.4895 56.6995 35.4944 56.7063 35.4996 56.7126L35.5077 56.7219L35.4658 56.7051L35.485 56.6927ZM13.5884 47.7125C14.6613 47.5972 15.7355 47.6216 16.8115 47.6526C16.8976 47.9341 17.1972 48.174 17.4872 48.183C17.2601 48.5292 17.2365 48.9977 17.3961 49.3647C17.0575 49.4994 16.766 49.7416 16.589 50.0865C16.3435 50.5643 16.3757 51.0963 16.6182 51.5379C16.4112 51.7254 16.2889 52.03 16.3012 52.317C16.3148 52.637 16.5057 52.9104 16.664 53.1755C16.8352 53.462 16.841 53.7143 16.8936 54.0352C16.9706 54.505 17.2871 54.7897 17.6947 54.9677L17.673 55.0531C17.568 55.4622 17.4371 55.8937 17.137 56.1927C16.7509 56.5777 16.1517 56.5741 15.6414 56.5983L15.6167 56.5996C15.1495 56.623 14.6822 56.6504 14.2152 56.6769L13.8648 56.6965C13.327 56.7259 12.8105 56.7295 12.3714 56.374C11.6547 55.7932 11.1632 54.8325 10.8523 53.9819C10.1993 52.1964 10.1915 50.2371 10.4913 48.3774C11.4963 48.0534 12.5391 47.8253 13.5884 47.7125ZM22.5099 50.6749L22.5021 50.6754C22.2811 50.7005 22.1295 50.8795 22.0754 51.0918C21.9968 51.4002 22.0354 51.6791 21.8465 51.9575C21.6522 52.244 21.5329 52.4734 21.5047 52.8271C21.4928 52.9726 21.4984 53.1179 21.4659 53.2603L21.4425 53.36C21.4176 53.4665 21.3969 53.569 21.4095 53.6833C21.4208 53.7875 21.4714 53.8688 21.5759 53.9023C21.9165 54.0113 22.1796 53.7601 22.2675 53.4426C22.3435 53.1685 22.242 52.8417 22.3493 52.5841C22.4087 52.4414 22.5182 52.3221 22.5801 52.1783C22.6416 52.0358 22.6723 51.887 22.6821 51.7322C22.7007 51.4394 22.4419 51.0875 22.5862 50.8221C22.6172 50.7655 22.5822 50.6731 22.5099 50.6749ZM27.0336 47.6526C26.803 47.6058 26.5414 47.4983 26.3139 47.5876C26.1971 47.6337 26.1391 47.7762 26.2381 47.8754C26.4095 48.0473 26.6588 48.0569 26.8896 48.0974L26.91 48.101C27.1832 48.1516 27.4568 48.1996 27.7307 48.245C28.2462 48.3303 28.7628 48.4058 29.2813 48.47C29.8138 48.536 30.3478 48.5946 30.8825 48.639L31.0895 48.6558C31.5412 48.6921 32.0112 48.7193 32.4544 48.65C32.5189 48.64 32.5085 48.5461 32.4544 48.5297C31.9689 48.3827 31.4363 48.3434 30.9343 48.281C30.4006 48.2148 29.8679 48.1448 29.3365 48.0619C28.8059 47.9789 28.2761 47.89 27.7483 47.7916C27.5097 47.7473 27.2715 47.7009 27.0336 47.6526ZM18.7122 47.1806C18.9147 47.1088 19.1372 47.0028 19.3565 47.0383C19.7349 47.0995 20.0712 47.4681 20.3708 47.7107L20.2202 47.6815C19.4514 47.5338 18.4328 47.3744 17.7873 47.8636C17.7856 47.8608 17.7843 47.858 17.7825 47.8553C17.7304 47.776 17.67 47.7143 17.604 47.6466C17.5977 47.6405 17.5917 47.6345 17.5857 47.6282L17.5502 47.5904L17.6315 47.5622C17.8057 47.5005 18.0121 47.421 18.0446 47.4094L18.0469 47.4086C18.2689 47.3334 18.4912 47.2589 18.7122 47.1806ZM25.0309 31.0547C25.0627 30.6476 24.429 30.6509 24.3978 31.0547C24.3293 31.9363 24.5277 32.8096 24.9544 33.5827C24.9577 33.5883 24.961 33.5933 24.9645 33.5986C24.6974 33.7376 24.4272 33.871 24.1513 33.9901C23.7981 34.1426 23.4384 34.2814 23.0723 34.3992C22.741 34.5059 22.3329 34.548 22.0545 34.7697C21.4672 35.2378 21.6877 36.2085 21.8007 36.8379L21.8183 36.9371C21.8747 37.2608 21.9153 37.5931 21.7788 37.904C21.6331 38.2359 21.3385 38.4821 21.0754 38.7197L21.0223 38.7678C20.7894 38.98 20.5233 39.2381 20.3527 39.5258C20.1966 39.2033 19.9841 38.9398 19.7593 38.6429C19.5989 38.4312 19.713 38.3612 19.8283 38.1545C19.939 37.9554 19.9932 37.7432 19.9587 37.5158C19.8947 37.0964 19.5594 36.7936 19.2258 36.5657C18.8318 36.2971 18.3923 36.098 17.9849 35.848C17.1481 35.3342 16.3332 34.7468 15.5988 34.0946C15.5787 34.0767 15.5435 34.1003 15.5598 34.1248C16.1399 35.0074 16.8198 35.77 17.6556 36.4175C17.9945 36.6798 18.3507 36.8975 18.709 37.1264L18.8122 37.1926C18.9559 37.2857 19.1354 37.4106 19.2006 37.5692C19.2661 37.7288 19.1264 37.8494 19.0514 37.9818C18.8127 38.4018 18.9277 38.7937 19.2107 39.15L19.2238 39.1663C19.505 39.513 19.718 39.8352 19.82 40.2781C20.039 41.2294 19.7339 42.2201 19.4146 43.113L19.402 43.1483C19.2293 43.6296 19.0458 44.1074 18.8958 44.5963L18.8545 44.7315C18.7185 45.1817 18.6073 45.6252 18.7598 46.088C18.8117 46.2453 19.0262 46.2826 19.1153 46.1343C19.4295 45.6122 19.5078 44.9838 19.7049 44.4098C19.8967 43.8502 20.1173 43.3008 20.3028 42.7389C20.5415 42.0156 20.7013 41.237 20.6147 40.4782C20.6172 40.4737 20.62 40.4696 20.622 40.4649L20.683 40.3319C20.8486 39.9717 21.0087 39.6572 21.3103 39.37C21.6248 39.0704 21.9661 38.8053 22.2133 38.4428C22.7508 37.6553 22.4185 36.7792 22.3536 35.9182L22.3463 35.8125C22.3344 35.6338 22.3279 35.3908 22.4447 35.267C22.5759 35.1277 22.884 35.0922 23.0582 35.0306C23.5084 34.8712 23.9522 34.6854 24.3749 34.4624C24.7772 34.2501 25.1669 34.0155 25.5297 33.7408L25.7134 33.6024C26.0037 33.3834 26.3045 33.1442 26.4992 32.8459C26.5216 32.8116 26.4833 32.7562 26.4428 32.7726C26.118 32.9045 25.8214 33.1142 25.5178 33.2965C25.513 33.2854 25.5075 33.2741 25.5012 33.263C25.1256 32.5825 24.971 31.8285 25.0309 31.0547ZM14.6603 35.7166C14.5312 35.3616 13.9416 35.3891 13.965 35.8107C13.9831 36.1347 14.1206 36.427 14.2462 36.7211L14.2598 36.7525C14.3894 37.0589 14.5392 37.3467 14.7187 37.6276C15.0614 38.1644 15.4626 38.6626 15.8914 39.1328C16.2801 39.5591 16.7904 39.8199 17.3782 39.7766C17.6259 39.7582 17.8759 39.6953 18.0929 39.5714C18.3507 39.4244 18.6307 38.9828 18.9597 39.0898C18.9914 39.1001 19.0211 39.0535 18.9937 39.0314C18.6141 38.7255 18.1831 39.1998 17.8195 39.3141C17.2717 39.4863 16.7096 39.296 16.3569 38.8529C15.9888 38.3904 15.6499 37.8726 15.3408 37.3688C15.1835 37.113 15.0402 36.8477 14.9163 36.5743C14.7915 36.2981 14.763 35.998 14.6603 35.7166ZM15.5435 33.5329C15.5593 33.4838 15.4984 33.4372 15.4556 33.4652C15.2059 33.6276 14.9899 33.8423 14.7598 34.0306C14.5042 34.2393 14.2472 34.444 13.9859 34.6454C13.6052 34.9389 14.0468 35.4794 14.3819 35.1587C14.8406 34.7199 15.3431 34.1462 15.5435 33.5329ZM16.9132 31.8152C16.8118 31.4242 16.2124 31.5856 16.2997 31.972L16.3025 31.9836C16.4681 32.6221 16.2325 33.2718 15.7292 33.6857L15.7109 33.7008C15.3924 33.9556 15.8435 34.4009 16.1585 34.1487C16.8465 33.5978 17.1328 32.6621 16.9132 31.8152Z" fill="black"/>
<path fill-rule="evenodd" clip-rule="evenodd" d="M19.5667 11.5519C11.5613 11.8055 11.0787 15.6094 11.0787 21.9887C11.0787 28.368 15.2313 32.388 16.7604 33.0899C18.2896 33.7917 22.3161 36.8067 25.9496 35.4173C29.5832 34.0279 28.531 28.1581 28.531 25.6358C28.531 23.1137 27.5719 11.2984 19.5667 11.5519Z" fill="#C8A97C"/>
<path fill-rule="evenodd" clip-rule="evenodd" d="M16.3191 30.9947C17.7894 31.8157 19.4726 31.8477 21.0538 31.3308C22.0022 31.0219 22.8717 30.5439 23.6856 29.9726C24.3935 29.4749 25.0254 28.9233 25.6513 28.3375C26.1666 27.2004 26.6256 26.0655 26.8406 24.8284C27.0331 23.7179 27.0586 22.5649 26.8353 21.4566C25.1833 20.0972 23.5414 18.7266 21.9017 17.3517C21.0667 16.6515 20.2296 15.955 19.3822 15.2697C18.9519 14.9217 18.526 14.5684 18.0972 14.2188C18.0265 14.1614 17.9563 14.1039 17.8855 14.0464C17.0006 14.6945 16.0518 15.25 15.1729 15.9087C14.713 16.254 14.2656 16.6217 13.8396 17.0084C13.6163 17.2112 13.3981 17.4203 13.1853 17.6348C12.9907 17.8306 12.8029 18.1115 12.527 18.1855C12.4892 18.1956 12.4535 18.1977 12.42 18.1929C12.051 21.4258 11.7886 24.9167 13.3699 27.8526C14.0599 29.1336 15.038 30.2785 16.3191 30.9947ZM25.8826 32.1828C26.0851 31.9972 25.7835 31.6971 25.5818 31.8817C24.3157 33.042 22.6605 33.657 20.9884 33.9417C20.7187 33.9878 20.8338 34.3979 21.1016 34.3521C22.8473 34.055 24.563 33.3922 25.8826 32.1828ZM27.402 33.9629C27.6436 33.8332 27.4284 33.4659 27.1872 33.5953C26.2009 34.1248 25.1188 34.3997 24.0212 34.5855C23.7513 34.631 23.8666 35.0411 24.1345 34.9958C25.2691 34.8037 26.3826 34.5099 27.402 33.9629ZM23.3873 16.0306C22.5686 15.2958 21.689 14.5966 20.7598 14.0065C19.8195 13.4095 18.7923 13.0525 17.6824 13.044C17.7602 13.1063 17.8339 13.1754 17.9089 13.2398C18.1184 13.4191 18.3276 13.5995 18.5366 13.7793C18.9547 14.1396 19.3739 14.4992 19.7865 14.8653C20.5992 15.5868 21.4146 16.3046 22.2257 17.0277C23.7846 18.4175 25.3099 19.8375 26.8023 21.2986C26.7942 21.263 26.7859 21.2273 26.7774 21.1917C26.2832 19.1272 24.9393 17.4241 23.3873 16.0306ZM16.9707 13.1339C16.9654 13.1179 16.9616 13.1025 16.9596 13.0876C14.8295 13.3654 13.0504 14.9333 12.4621 16.9979C12.5132 17.0691 12.5414 17.1538 12.5308 17.2436C12.5255 17.2889 12.5202 17.3347 12.5147 17.3799C12.5877 17.3076 12.6627 17.24 12.7264 17.1756C12.9386 16.9606 13.1561 16.7514 13.3797 16.5477C13.8364 16.1311 14.3109 15.7416 14.8109 15.3782C15.6804 14.7461 16.622 14.1651 17.6584 13.8618C17.5905 13.8059 17.5223 13.7501 17.4538 13.6947C17.2488 13.5281 17.059 13.3909 16.9707 13.1339ZM13.1519 10.9264C14.4597 9.49666 16.2708 8.44953 18.1781 8.0856C19.9992 7.7376 21.8846 7.96695 23.6051 8.6432C27.2053 10.0585 30.0461 13.1707 31.3764 16.777C32.1518 18.8782 32.406 21.1816 32.173 23.4057C31.9412 25.6196 31.2748 27.906 30.0621 29.7896C29.9509 29.9621 29.8291 30.1275 29.7015 30.2876C29.7584 30.9379 29.9754 31.575 30.3169 32.1296C30.3352 32.1593 30.3546 32.1886 30.3737 32.2178C30.7234 32.4796 31.0861 32.7253 31.4401 32.979C31.747 33.1991 32.0506 33.4246 32.3392 33.6681C32.6116 33.8979 32.9279 34.154 33.1122 34.4644C33.2633 34.7184 33.3251 35.064 33.1188 35.3065C32.8703 35.5985 32.4491 35.4956 32.1124 35.4956C32.0836 35.4956 32.0548 35.4963 32.0261 35.4966C31.925 35.56 31.8208 35.6176 31.7199 35.671C30.7003 36.2118 29.677 36.7465 28.6527 37.2785C26.6125 38.3388 24.5806 39.442 22.4984 40.4183C21.5336 40.8712 20.5007 41.2669 19.4199 41.2654C18.4061 41.2637 17.4898 40.8609 16.6983 40.2486C15.7962 39.551 15.042 38.6651 14.3104 37.7968C14.0179 37.4491 13.7311 37.0977 13.4497 36.741C12.9094 36.5607 12.3732 36.5081 11.8913 36.856C11.5047 37.1355 10.9951 36.7556 10.986 36.3361C10.983 36.1874 10.9893 36.0403 11.0052 35.8956C11.1021 35.0016 11.5394 34.193 12.0318 33.4428C12.3009 33.0324 12.5844 32.6296 12.8694 32.2306C12.9366 32.1364 13.0023 32.0423 13.0663 31.9466C11.921 30.2599 11.0127 28.3896 10.4543 26.4353C9.86752 24.3787 9.66813 22.2462 9.79904 20.1153C9.99993 16.8494 10.8957 13.3931 13.1519 10.9264Z" fill="#783A3A"/>
<path fill-rule="evenodd" clip-rule="evenodd" d="M17.1572 28.6716C17.5147 28.5259 17.8339 28.2824 18.067 27.9715C18.1481 27.8632 18.1692 27.7492 18.1521 27.6447C18.133 27.5274 18.0635 27.4209 17.9688 27.3497C17.8739 27.2782 17.7551 27.2427 17.6403 27.2608C17.5406 27.2764 17.4412 27.331 17.3626 27.4443L17.3463 27.467C17.2076 27.6548 17.0268 27.8086 16.8209 27.9081C16.6225 28.0037 16.4007 28.0483 16.1708 28.0224C15.7336 27.973 15.432 27.7364 15.1115 27.4149C15.072 27.3743 15.0322 27.3326 14.9921 27.29C14.967 27.2515 14.932 27.2266 14.8932 27.2137C14.8499 27.1991 14.8011 27.2001 14.7565 27.2157C14.7132 27.2306 14.6747 27.2593 14.649 27.2973C14.6243 27.3333 14.6105 27.3779 14.615 27.4292C14.6442 27.762 14.8184 28.0594 15.0657 28.2927C15.3401 28.552 15.7041 28.7313 16.0467 28.7942C16.4244 28.8635 16.809 28.8139 17.1572 28.6716ZM15.8687 23.5339C15.4669 23.7781 14.8552 24.3475 15.2872 24.953C15.7957 25.487 16.5281 24.875 16.8888 24.598C17.2234 24.3835 17.5993 24.9354 17.2889 25.1859C14.6815 27.1171 13.6234 23.5978 15.6656 23.2469C15.8904 23.2081 15.974 23.4584 15.8687 23.5339ZM20.5412 21.2875C20.4969 20.7365 19.6578 20.6113 19.5745 21.1566C19.4997 21.645 19.5879 22.0936 19.8076 22.5334C20.0178 22.9536 20.546 22.7577 20.586 22.3751C20.6394 21.8623 20.5689 21.6301 20.5412 21.2875ZM14.1553 21.0435C14.0385 20.8903 13.8696 20.7857 13.6672 20.8448C13.035 21.0296 13.2213 21.9275 13.4434 22.3643C13.564 22.6017 13.9539 22.6618 14.1302 22.4529C14.4174 22.1122 14.5549 21.4317 14.1898 21.0961C14.18 21.0787 14.1689 21.0612 14.1553 21.0435ZM19.8164 18.8763L19.7168 18.8588C19.4079 18.8054 19.0237 18.754 18.8052 19.0025C18.6894 19.1342 18.6493 19.3791 18.8052 19.5052C19.0793 19.7271 19.3822 19.6411 19.7105 19.6599C19.9811 19.6754 20.2412 19.7202 20.502 19.7948C21.0737 19.9583 21.5397 20.2567 22.0281 20.5845C22.0923 20.6275 22.1577 20.5455 22.127 20.4855C21.8451 19.9331 21.2988 19.4793 20.7514 19.2027C20.4594 19.055 20.1397 18.9325 19.8164 18.8763ZM14.7316 18.6288L14.6553 18.6445C13.8235 18.8184 12.743 19.1658 12.349 19.9831C12.3342 20.0986 12.35 20.1234 12.3629 20.1396L12.3671 20.145C12.3777 20.1588 12.3863 20.1778 12.4364 20.1936C12.4502 20.1902 12.4643 20.1867 12.4784 20.183C12.6589 20.1357 12.8017 20.0705 12.9401 20.0028L13.0899 19.9289C13.2639 19.8436 13.4393 19.7614 13.6254 19.7007C14.0224 19.5712 14.4305 19.48 14.8451 19.4313C14.935 19.4207 15.0213 19.3904 15.0898 19.3384C15.1545 19.289 15.2039 19.2207 15.2265 19.1299C15.2557 19.0123 15.2474 18.9233 15.1845 18.8173C15.1369 18.7377 15.0692 18.6825 14.9911 18.6508C14.9118 18.6185 14.8215 18.6108 14.7316 18.6288Z" fill="black"/>
<path fill-rule="evenodd" clip-rule="evenodd" d="M11.1086 23.8579C11.7544 24.5255 12.8321 24.7171 13.6913 24.3591C15.8974 23.4369 14.8177 20.5611 13.1163 19.7888C12.9038 19.7358 12.6199 19.6101 12.3611 19.5816C12.3377 19.5701 12.2868 19.6033 12.2249 19.5719C10.3491 19.7814 9.92186 22.6945 11.1086 23.8579ZM18.2238 24.0288C18.9479 24.9897 20.2945 25.2863 21.3946 24.8394C23.568 23.9832 22.7971 21.4331 21.3101 20.4333C18.169 19.2526 16.8719 22.257 18.2238 24.0288ZM22.9351 21.8995C22.9371 21.8985 22.9391 21.8982 22.9411 21.8972C22.9298 21.8922 22.9182 21.8871 22.9069 21.8819C22.9104 21.8917 22.9147 21.9012 22.9182 21.9111C22.9238 21.907 22.9288 21.9025 22.9351 21.8995ZM9.61346 20.8608C9.79069 20.8611 10.047 20.8903 10.1937 21.0133C10.5558 19.7921 11.8918 18.6618 13.0539 19.486C13.969 19.7804 14.648 20.4333 15.0339 21.3013C15.7297 20.8872 16.8239 21.064 17.4273 21.6117C17.8226 20.3053 18.7951 19.8479 19.9526 19.7804C21.2162 19.5733 22.4754 20.8009 22.8684 21.7857C23.1952 21.7484 23.6833 21.6445 23.9907 21.8461C25.9856 21.3228 29.4734 21.0343 29.8789 21.325C30.1679 21.436 30.3265 22.1185 29.9228 22.1553C29.5711 22.1052 29.9639 21.6553 29.6093 21.6062C27.7199 21.4889 25.8859 21.8695 24.0164 22.0294C23.8495 22.2539 23.3102 22.329 23.0225 22.2388C23.4756 23.9092 22.4976 25.0459 21.0321 25.3862C18.7626 25.9076 16.7884 23.877 17.3817 21.7645C16.6942 21.4224 15.9035 21.4371 15.1547 21.6173C16.4062 26.2246 8.98887 26.0179 10.1472 21.1712C9.37631 21.5548 9.20889 20.9382 9.61346 20.8608Z" fill="#783A3A"/>
</g>
</g>
<defs>
<linearGradient id="paint0_linear_1_164" x1="20.5" y1="0" x2="20.5" y2="41" gradientUnits="userSpaceOnUse">
<stop stop-color="#833AB4"/>
<stop offset="0.5" stop-color="#FD1D1D"/>
<stop offset="1" stop-color="#FCB045"/>
</linearGradient>
<clipPath id="clip0_1_164">
<rect width="41" height="41" fill="white"/>
</clipPath>
</defs>
</svg>
