<svg width="41" height="41" viewBox="0 0 41 41" fill="none" xmlns="http://www.w3.org/2000/svg">
<circle cx="20.5" cy="20.5" r="19.5" stroke="url(#paint0_linear_1_127)" stroke-width="2"/>
<mask id="mask0_1_127" style="mask-type:alpha" maskUnits="userSpaceOnUse" x="5" y="5" width="31" height="31">
<circle cx="20.5" cy="20.5" r="15.4278" fill="#C4C4C4"/>
</mask>
<g mask="url(#mask0_1_127)">
<path fill-rule="evenodd" clip-rule="evenodd" d="M32.1501 43.0116C31.686 41.2109 31.259 40.4474 30.4344 39.8215C29.663 39.2359 28.5372 38.7443 26.8944 38.3851C25.1832 38.0858 25.1346 37.1962 24.7055 35.7667C24.5805 35.3369 23.9601 35.2224 23.6927 35.5322C23.6548 35.4916 23.6155 35.4543 23.5747 35.4206C23.6112 35.2156 23.3128 34.628 23.3228 34.4319C23.4267 32.3854 22.7574 31.3577 21.0871 30.9755C20.7238 30.8926 18.2562 30.8437 17.902 30.9415C16.3534 31.3698 14.8291 32.7293 15.0625 34.3671C14.5763 35.0026 14.1006 35.3903 13.3506 35.595C11.6818 35.807 10.0131 35.9953 8.34375 36.1566C5.07607 36.6694 2.01236 38.3994 -0.0816123 40.9223C-0.27476 41.1552 -0.330546 41.4713 -0.160086 41.7197C-0.293616 42.2916 -1.04526 43.6794 -0.45384 44.0714C-1.42638 46.3978 -3.66402 50.8945 -3.6682 52.1792C-3.68585 57.5761 -3.10298 64.6009 2.22151 67.5874C2.4347 67.7971 2.4652 68.029 2.55752 68.3408C2.7916 69.3235 3.64176 70.0255 4.57226 69.9683C9.15615 70.0701 13.5959 69.5108 18.1798 69.4838C20.2015 69.4717 22.6326 69.7737 24.3887 69.9746C26.1447 70.1758 27.9173 69.9978 29.6025 69.4838C29.7447 69.7076 30.0321 69.838 30.3235 69.7737C32.0704 69.4266 33.4834 68.3497 34.7138 67.1727C35.0899 66.4885 36.5583 64.5392 35.9747 63.8605C36.5039 61.6233 36.4761 59.2194 35.5361 57.089C35.6692 56.6985 35.4265 56.2692 35.5361 55.8659C35.6153 55.5742 35.8187 55.4535 35.9208 55.1646C36.0647 54.7577 35.9082 54.2122 35.7461 53.7973C35.6798 53.5906 35.8684 53.368 35.9208 53.1567C36.1696 52.1615 35.6001 52.2492 35.1897 51.5837C35.1958 51.5817 35.3024 51.1065 35.3019 51.1091C35.3649 50.7698 35.2074 50.3354 35.07 50.0523C34.9772 49.861 34.7783 49.7413 34.5807 49.7632C34.7799 49.0876 35.0314 48.5252 35.3019 47.8743C35.7806 46.7271 36.3864 45.6282 37.0736 44.5896C37.3549 44.1644 36.977 43.6718 36.5215 43.6428C35.0476 43.549 33.5898 43.3368 32.1501 43.0116Z" fill="#F4C2C2"/>
<path fill-rule="evenodd" clip-rule="evenodd" d="M27.8483 51.6886C27.2587 51.4572 26.6239 51.3294 25.9859 51.2797C26.3292 51.2197 26.6738 51.1615 27.0212 51.1318C27.2635 51.1108 27.4881 51.1131 27.6703 51.2969C27.7918 51.4194 27.8488 51.5772 27.9287 51.7222C27.9025 51.7103 27.8753 51.6992 27.8483 51.6886ZM34.1761 49.5265C33.2107 49.5756 32.2442 49.8053 31.3707 50.2212C31.0132 50.3916 30.6896 50.6379 30.5948 51.0428C30.5466 51.2495 30.5585 51.4633 30.5839 51.672C30.6031 51.8303 30.6079 52.0322 30.7455 52.1394C30.7687 52.1572 30.7939 52.1711 30.8199 52.1815C30.4977 52.3269 30.1909 52.5016 29.9182 52.6816C29.6691 52.8462 29.413 53.0998 29.2978 53.3859C29.2882 53.3534 29.2786 53.3231 29.2691 53.2944C29.0732 52.7146 28.7712 52.2399 28.2955 51.9208C28.3797 51.883 28.4377 51.7935 28.4107 51.67C28.2978 51.1537 27.8211 50.705 27.2826 50.737C26.693 50.7715 26.0598 50.9863 25.5266 51.2576C25.3322 51.2533 25.1384 51.2558 24.9468 51.2644C24.9138 51.2654 24.9153 51.3102 24.9468 51.314C25.1023 51.3337 25.2576 51.3556 25.4132 51.3811C25.783 51.4403 26.1515 51.5154 26.512 51.6087C26.9443 51.7206 27.3918 51.8328 27.7961 52.0284C28.5799 52.4083 29.0651 53.4015 28.9655 54.2657C28.9489 54.4074 28.8942 54.8357 28.6976 54.7915C28.5315 54.7542 28.4654 54.4074 28.4074 54.2788C28.2519 53.938 27.9718 53.7151 27.6358 53.5644C27.241 53.3869 26.8188 53.2672 26.4097 53.1275C26.178 53.0481 25.9463 52.9687 25.7142 52.8901C25.4767 52.8084 25.2508 52.696 24.998 52.7529C24.845 52.7877 24.8273 52.97 24.9133 53.0743C25.0436 53.2337 25.2375 53.2805 25.4255 53.3461C25.6736 53.4323 25.9214 53.5188 26.1689 53.605C26.5518 53.7381 26.9529 53.8505 27.3262 54.0136L27.3146 54.0403C27.2841 54.0318 27.2483 54.062 27.2544 54.0993C27.3104 54.4442 27.388 54.8427 27.3018 55.1878C27.2337 55.4616 26.9932 55.7648 26.6814 55.6844C26.7303 55.6396 26.7485 55.5624 26.7154 55.4911C26.5919 55.2266 24.9728 54.1835 24.8286 54.571C24.8238 54.5848 24.8387 54.5949 24.8503 54.5929C24.9733 54.5672 25.1795 54.7772 25.278 54.8437C25.4202 54.9395 25.5644 55.0333 25.7051 55.1319C25.8591 55.2395 26.0091 55.3524 26.1556 55.4691C26.2708 55.5609 26.3575 55.6562 26.4896 55.7026C26.4202 55.7356 26.3655 55.7969 26.3421 55.8753C26.2824 56.0792 26.1674 56.2524 25.9678 56.3424C25.7583 56.4361 25.5223 56.3769 25.302 56.4001C25.0015 56.4303 24.7396 56.573 24.5208 56.7772C24.061 57.2065 23.8306 57.9633 23.1878 58.1662C22.8036 58.2872 22.3776 58.2108 21.9888 58.1559C21.5548 58.0946 21.132 58.0462 20.6946 58.1102C20.2762 58.1715 19.8804 58.3164 19.498 58.4932C19.1395 58.659 18.7433 58.8466 18.4254 59.0936C18.3598 58.8917 18.2938 58.692 18.2436 58.4858C18.1256 57.9983 18.0616 57.5017 18.0462 57.0008C18.0319 56.5241 18.0583 56.0452 18.0994 55.5705C18.1196 55.3333 18.1516 55.0973 18.1718 54.8601C18.1771 54.8006 18.1879 54.7366 18.1957 54.6728C18.7637 54.3375 19.3601 54.0807 19.9613 53.8165C19.9628 53.816 19.9646 53.815 19.9661 53.8145C19.9848 53.8059 20.0029 53.7978 20.0216 53.7898C20.0211 53.7887 20.0203 53.7877 20.0193 53.7867C20.0881 53.7446 20.136 53.6887 20.1648 53.6256C21.0312 53.0509 21.7557 52.2661 22.2956 51.3508C22.522 50.9672 22.7398 50.5691 23.0358 50.2331C23.3511 49.8744 23.7255 49.6614 24.1888 49.5504C24.7305 49.4206 25.2886 49.3427 25.8435 49.2984C26.1467 49.2747 26.4853 49.2371 26.8155 49.2389C27.0457 49.2404 27.2708 49.26 27.4775 49.317C27.7838 49.4012 27.9628 49.6341 28.1548 49.8696C28.3386 50.0954 28.5214 50.3221 28.6928 50.5575C28.8551 50.7806 29.0087 51.0113 29.1418 51.2533C29.2217 51.3982 29.2958 51.5475 29.358 51.7012C29.38 51.7557 29.4087 51.8174 29.4221 51.8739C29.4352 51.9309 29.4107 51.9911 29.4748 51.9911C29.2111 51.9949 29.2136 52.4164 29.4758 52.4008C30.5015 52.3413 29.0321 50.338 28.8173 50.0586C28.5133 49.6634 28.1997 49.1476 27.7129 48.9638C27.7059 48.9613 27.6986 48.9585 27.6915 48.9565C27.8332 48.8222 27.9451 48.6613 28.0522 48.4977C28.1624 48.3293 28.294 48.1365 28.3303 47.9366C28.353 47.8093 28.1949 47.7369 28.1198 47.8481C28.0107 48.0107 27.958 48.2164 27.8765 48.3949C27.7934 48.5761 27.6923 48.747 27.6124 48.9298C27.42 48.8706 27.2123 48.8436 27.0008 48.8345C27.2678 48.4733 27.7235 47.7763 27.7785 47.6868C28.0308 47.2723 28.2711 46.8451 28.5007 46.4173C28.7488 45.9537 28.9613 45.4709 29.1987 45.0021C29.3336 44.7364 29.4695 44.4682 29.619 44.2103C29.6706 44.122 29.7261 44.0336 29.7889 43.9531C29.8012 43.937 29.8166 43.9239 29.831 43.9088C29.8476 43.8997 29.8645 43.8896 29.8741 43.8843C29.9603 43.8349 29.9908 43.7197 30.0513 43.6466C30.1483 43.5291 30.2623 43.5153 30.4082 43.5135C30.7193 43.5102 31.0314 43.5226 31.342 43.5312C31.7982 43.5438 32.2543 43.5619 32.71 43.5859C32.8479 43.5934 32.9853 43.601 33.1234 43.6093C33.7864 43.6489 34.4489 43.7006 35.1099 43.7641C35.6947 43.8198 36.2793 43.911 36.8646 43.9547C36.0721 45.838 35.1936 47.6873 34.1986 49.4723C34.1885 49.4902 34.1809 49.5083 34.1761 49.5265ZM29.7793 54.3786C29.6515 54.4371 29.5274 54.5102 29.412 54.5931C29.4312 54.4638 29.4359 54.3274 29.4304 54.1903C29.5259 54.2927 29.6477 54.3514 29.7793 54.3786ZM35.2357 51.1388C35.2266 51.1398 35.218 51.1446 35.2137 51.1537C35.037 51.5185 35.1109 51.9261 35.3995 52.2122C35.5508 52.3614 35.8805 52.5298 35.8699 52.7749C35.8608 52.973 35.6451 53.1394 35.553 53.3027C35.4673 53.4552 35.4353 53.6226 35.5041 53.7877C35.5919 53.9992 35.8374 54.0834 35.9216 54.2911C36.028 54.5548 35.855 54.873 35.7335 55.1026C35.6206 55.3151 35.4746 55.5276 35.3778 55.7525C34.7285 56.0888 34.1477 56.6045 33.648 57.1284C33.101 57.7011 32.6319 58.3749 31.7632 58.358C31.6765 58.3563 31.6104 58.4022 31.5709 58.4654C31.3291 58.4768 31.0868 58.4816 30.8451 58.4826C30.4201 58.4846 29.9951 58.4803 29.5706 58.4672C29.5408 58.3643 29.5627 58.2247 29.561 58.1377C29.5557 57.8582 29.5532 57.5788 29.5413 57.2993C29.538 57.2214 29.535 57.1432 29.5317 57.0653C29.6845 57.3419 29.9827 57.4677 30.3225 57.4485C30.869 57.4165 31.4186 57.327 31.9596 57.2466C32.2447 57.2045 32.529 57.1563 32.8129 57.1052C33.0463 57.0638 33.3753 57.0744 33.5384 56.8874C33.5767 56.8438 33.5787 56.7639 33.5185 56.7346C33.3571 56.6552 33.2555 56.6993 33.0781 56.7333C32.862 56.7754 32.6452 56.8155 32.4279 56.8528C32.0107 56.9252 31.5928 56.9922 31.1736 57.0515C30.9351 57.085 30.6959 57.118 30.4569 57.1442C30.2482 57.1667 30.0127 57.1969 29.8443 57.0399C29.505 56.7223 29.6953 56.1901 29.9099 55.8692C29.9141 55.8629 29.9141 55.8571 29.9126 55.8516C30.1148 55.8042 30.3167 55.749 30.5181 55.7099C30.9053 55.6353 31.2951 55.5725 31.6855 55.5165C32.4874 55.4021 33.2949 55.3265 34.1013 55.2501C34.3009 55.2309 34.3029 54.9166 34.1013 54.9352C32.9427 55.0414 31.7786 55.1419 30.6359 55.3653C30.3492 55.4207 30.0649 55.4835 29.7821 55.5543C29.6484 55.5874 29.505 55.639 29.3651 55.6408C29.3565 55.6408 29.348 55.6408 29.3394 55.6401C29.0651 55.6317 29.0253 55.3968 29.176 55.2012C29.1947 55.1772 29.2139 55.1533 29.2335 55.1303C29.4997 54.8127 29.8315 54.6007 30.1735 54.3811C30.5565 54.329 30.9384 54.2127 31.3132 54.1275C32.2389 53.9165 33.1645 53.7056 34.0907 53.4951C34.2722 53.4537 34.1951 53.1744 34.0133 53.2155C33.3102 53.3748 32.6074 53.5341 31.9044 53.6935L30.8753 53.9269C30.6699 53.973 30.413 54.0663 30.1713 54.0998C30.052 54.1165 29.9366 54.1185 29.8322 54.094C29.4949 54.0141 29.478 53.5926 29.6232 53.3423C29.7863 53.061 30.0941 52.885 30.3674 52.726C30.8408 52.4494 31.3447 52.2505 31.8368 52.0214C31.924 52.0022 32.0115 51.9831 32.0987 51.9639C32.6069 51.852 33.1872 51.7973 33.6657 51.5921C33.8089 51.5313 33.7305 51.3055 33.5888 51.3087C33.2177 51.3165 32.8295 51.4486 32.4668 51.527C32.0743 51.6122 31.6813 51.6969 31.2888 51.7816C31.2492 51.7902 31.016 51.8648 30.981 51.8484C30.9585 51.8376 30.9505 51.76 30.9432 51.7088C30.919 51.5404 30.9016 51.3634 30.9275 51.1945C30.985 50.8159 31.3009 50.6379 31.6205 50.4925C32.3319 50.1691 33.1124 49.9666 33.8888 49.8855C34.0678 49.8668 34.2467 49.8552 34.4267 49.8494C34.638 49.8429 34.8122 49.8055 34.9193 50.014C35.0874 50.3422 35.1802 50.7642 35.2357 51.1388ZM34.2475 63.038C34.0925 62.5018 34.1346 61.9291 34.0284 61.3818C33.9735 61.0995 33.8986 60.8196 33.8169 60.5439C33.7511 60.3213 33.6412 60.0846 33.6286 59.8524C33.6279 59.8368 33.6463 59.8279 33.6586 59.835C33.8774 59.9603 34.0453 60.2313 34.1701 60.4438C34.3196 60.6981 34.4335 60.9646 34.5255 61.2447C34.7088 61.8028 34.8593 62.4758 34.6228 63.038C34.5525 63.2056 34.3055 63.2389 34.2475 63.038ZM29.4561 55.9332C29.5872 55.9204 29.7183 55.8954 29.8491 55.8662C29.7026 56.0089 29.5675 56.181 29.4924 56.3716C29.4806 56.2251 29.4657 56.0792 29.446 55.9337C29.4493 55.9337 29.4528 55.9337 29.4561 55.9332ZM28.1969 67.0988C27.966 66.9375 27.7976 66.7121 27.6018 66.513C27.4089 66.3174 27.7102 66.0159 27.903 66.2117C28.0701 66.3814 28.2153 66.5934 28.412 66.7308C28.5068 66.7968 28.5506 66.9161 28.4884 67.0222C28.4337 67.116 28.2915 67.1646 28.1969 67.0988ZM26.9085 60.9001C27.3303 60.7176 27.7452 60.5189 28.1866 60.3876C28.4503 60.3089 28.562 60.7203 28.2998 60.7985C27.8932 60.9195 27.512 61.1 27.1236 61.2681C26.8743 61.3757 26.6575 61.0085 26.9085 60.9001ZM22.4547 60.7723C22.3513 60.5179 22.7638 60.408 22.8653 60.6591C22.9826 60.948 23.1167 61.2295 23.2336 61.5182C23.3365 61.7728 22.9243 61.8827 22.8227 61.6316C22.7058 61.3427 22.5717 61.0614 22.4547 60.7723ZM18.0586 65.8561C17.9898 65.9478 17.8753 65.9975 17.7669 65.9327C17.6764 65.8782 17.621 65.7338 17.6905 65.641C17.8937 65.3703 18.0994 65.1028 18.3374 64.8613C18.5305 64.6657 18.8315 64.9672 18.6386 65.1628C18.4261 65.3783 18.2398 65.6143 18.0586 65.8561ZM17.4299 37.3314C17.6255 37.465 17.7969 37.6273 17.9638 37.7945C18.1582 37.9886 17.8567 38.2898 17.6626 38.0957C17.5219 37.955 17.3797 37.8121 17.2149 37.6994C17.1196 37.6344 17.0767 37.5131 17.1385 37.4078C17.1937 37.3135 17.3349 37.2666 17.4299 37.3314ZM23.8255 44.1904C23.7151 44.4117 23.6155 44.6287 23.6092 44.8806C23.6024 45.1548 23.1764 45.1551 23.1832 44.8806C23.1913 44.5511 23.3128 44.2655 23.4577 43.9751C23.5803 43.7293 23.9478 43.9456 23.8255 44.1904ZM26.1722 38.6818C26.4013 38.529 26.6144 38.8983 26.3875 39.0498C26.2035 39.1723 26.0192 39.2954 25.8352 39.4179C25.6063 39.5706 25.3933 39.2013 25.6201 39.0498C25.8042 38.9273 25.9882 38.8046 26.1722 38.6818ZM15.994 48.313C15.9549 48.5837 15.5445 48.468 15.5831 48.1998C15.6431 47.7851 15.7162 47.376 15.8286 46.9721C15.9023 46.7079 16.3132 46.8209 16.2395 47.0853C16.1271 47.4891 16.0538 47.8983 15.994 48.313ZM14.5002 53.1953C14.2259 53.1895 14.2259 52.7633 14.5002 52.7691C14.7485 52.7744 14.9925 52.8396 15.2317 52.8996C15.4982 52.9662 15.3845 53.3771 15.1185 53.3105C14.9161 53.2599 14.7101 53.1999 14.5002 53.1953ZM13.9488 63.0307C13.8546 63.0763 13.758 63.1177 13.6627 63.1613C13.4719 63.2485 13.2813 63.336 13.0907 63.4234C12.6937 63.6057 12.2972 63.7887 11.9007 63.9722C11.1071 64.3395 10.3075 64.6942 9.51202 65.0577C8.70086 65.4283 7.89182 65.8039 7.08379 66.1815C6.70311 66.3592 6.31954 66.5306 5.93675 66.7036C5.60942 66.8518 5.20482 67.1104 4.8455 67.1349C4.82702 67.1361 4.82085 67.1127 4.83138 67.1006C4.96713 66.9463 5.18367 66.8563 5.3621 66.756C5.54433 66.6534 5.72999 66.5568 5.91479 66.459C6.30006 66.2548 6.6858 66.0522 7.07479 65.8553C7.8529 65.4613 8.63247 65.0703 9.41222 64.6798C10.2074 64.2813 11.0017 63.8805 11.8039 63.4963C12.1815 63.3153 12.5596 63.1348 12.938 62.9551C13.1429 62.8578 13.3479 62.7605 13.5531 62.6634C13.6416 62.6216 13.7293 62.5762 13.8198 62.5386C13.94 62.489 14.0315 62.499 14.1556 62.4683C14.358 62.4184 14.4455 62.6758 14.2902 62.7879C14.1624 62.8802 14.0951 62.9593 13.9488 63.0307ZM11.1044 67.4011C11.0607 67.2947 11.1522 67.1654 11.2532 67.1389C11.3742 67.1069 11.4712 67.1805 11.5153 67.2876C11.6321 67.572 11.7986 67.8326 12.0126 68.053C12.2039 68.2499 11.9029 68.5513 11.7113 68.3545C11.443 68.0782 11.2502 67.7555 11.1044 67.4011ZM9.01189 60.5595C8.81768 60.3651 9.119 60.0639 9.31318 60.2583L9.86535 60.8106C10.0596 61.0047 9.75818 61.3062 9.56408 61.1118L9.01189 60.5595ZM3.34688 59.659C2.94992 59.7755 2.48689 59.8824 2.21623 60.2212C2.20302 60.2378 2.18081 60.2167 2.18875 60.2C2.53524 59.4816 3.52894 59.2295 4.2169 58.9777C4.70353 58.7994 5.20281 58.652 5.7063 58.5199C5.65598 57.9454 5.79475 57.3295 5.84303 56.7578C5.8945 56.1473 5.93643 55.5352 5.95795 54.9229C5.97993 54.2982 5.98525 53.6693 5.96471 53.0443C5.94426 52.4219 5.86347 51.8069 5.8281 51.1865C5.8247 51.1265 5.90819 51.1235 5.92622 51.1731C6.13529 51.7489 6.22461 52.3866 6.29267 52.9939C6.36275 53.6193 6.38602 54.243 6.37707 54.872C6.36782 55.5188 6.33021 56.1639 6.2786 56.8087C6.25415 57.1142 6.22577 57.4195 6.199 57.7248C6.17853 57.958 6.16905 58.1891 6.12155 58.4148C6.42522 58.3401 6.72958 58.2696 7.03299 58.201C8.00047 57.9827 8.97198 57.78 9.93543 57.5438C10.4083 57.4278 10.8745 57.2892 11.3453 57.1659C11.7887 57.0497 12.2566 56.9091 12.7116 56.8571C12.8742 56.8387 12.8949 57.0608 12.7872 57.1364C12.4174 57.3963 11.9261 57.5771 11.4987 57.7225C11.0699 57.8685 10.6241 57.9736 10.1846 58.0818C9.26801 58.3071 8.3427 58.4916 7.41879 58.6837C6.49615 58.8756 5.57178 59.0659 4.65954 59.3026C4.2202 59.4165 3.78238 59.531 3.34688 59.659ZM1.17151 48.2562C0.934301 48.3954 0.720154 48.0271 0.956509 47.8882C1.26579 47.7064 1.59539 47.5701 1.92767 47.437C2.18265 47.3349 2.29238 47.7473 2.04095 47.8481C1.74233 47.9676 1.44941 48.0931 1.17151 48.2562ZM0.312533 64.0912C0.0746908 64.2293 -0.139632 63.8608 0.0975299 63.7232C0.43061 63.5301 0.795352 63.4013 1.14053 63.2324C1.38609 63.1119 1.60177 63.4796 1.35551 63.6004C1.01041 63.7693 0.645613 63.8981 0.312533 64.0912ZM-0.073787 55.1026C0.15619 55.3212 0.463104 55.424 0.752523 55.5387C1.00484 55.6388 0.894169 56.0507 0.639235 55.9496C0.278678 55.8067 -0.0885849 55.6761 -0.375054 55.4039C-0.574353 55.2145 -0.272531 54.9135 -0.073787 55.1026ZM2.47038 42.8951C2.7232 42.9945 2.61248 43.4064 2.35712 43.3063C2.07388 43.1951 1.78141 43.1104 1.49816 42.9993C1.24542 42.9002 1.35609 42.488 1.61145 42.5884C1.89467 42.6995 2.18716 42.784 2.47038 42.8951ZM6.95853 38.0463C7.22715 38.0012 7.34155 38.4118 7.07181 38.4574C6.73712 38.5139 6.40757 38.5802 6.09017 38.703C5.83383 38.802 5.72387 38.3899 5.97688 38.2921C6.29436 38.1691 6.62391 38.103 6.95853 38.0463ZM8.44149 49.8519C8.19518 49.7307 8.41129 49.3634 8.6565 49.4839C8.91488 49.6109 9.18262 49.7093 9.46455 49.7693C9.73303 49.8265 9.61871 50.2374 9.35129 50.1804C9.03397 50.1126 8.73207 49.9949 8.44149 49.8519ZM9.84215 43.2019C10.1074 43.1293 10.2195 43.5407 9.95544 43.6131C9.49077 43.7404 9.01237 43.8067 8.54427 43.9199C8.27751 43.9847 8.16465 43.5735 8.43101 43.509C8.89908 43.3955 9.37753 43.3295 9.84215 43.2019ZM15.7838 41.1152C16.0535 41.1651 15.9386 41.576 15.6706 41.5263C15.3852 41.4734 15.0961 41.4726 14.8069 41.4724C14.5324 41.4724 14.5329 41.0461 14.8069 41.0461C15.1354 41.0464 15.4598 41.0552 15.7838 41.1152ZM35.1621 43.3421C34.466 43.2753 33.7688 43.2221 33.0708 43.1823C33.0382 43.1805 33.0062 43.1785 32.9737 43.1767C32.9699 43.1694 32.9651 43.1624 32.9603 43.155C32.7325 42.8203 32.5648 42.4858 32.4194 42.1074C32.2802 41.7474 32.1456 41.3761 31.9316 41.0511C31.6873 40.6808 31.3576 40.3909 30.9963 40.1399C30.7773 40.2873 30.5739 40.46 30.3878 40.643C30.1919 40.8354 29.8904 40.5341 30.0863 40.3415C30.2517 40.1789 30.4284 40.0287 30.6149 39.8931C30.3994 39.762 30.1796 39.639 29.9653 39.5164C29.1614 39.0579 28.3386 38.6336 27.4989 38.2459C27.1084 38.0652 26.7134 37.9049 26.3154 37.7423C26.1014 37.6551 25.8899 37.5426 25.6758 37.4415C25.6912 37.29 25.6461 37.1206 25.5299 37.0211C25.4442 36.948 25.3776 36.9207 25.2753 36.8693C25.2526 36.8612 25.2387 36.8564 25.2322 36.8537C25.237 36.8547 25.2508 36.859 25.2738 36.8665C25.3282 36.8915 25.3323 36.8842 25.2866 36.8446C25.2838 36.7584 25.1139 36.5761 25.0751 36.4871C24.9398 36.1819 24.8977 35.8589 24.698 35.5809C24.4227 35.1977 23.9604 35.053 23.5296 35.1829C23.485 34.722 23.4731 34.2411 23.2994 33.8297C23.2946 33.8186 23.2793 33.8138 23.2725 33.8259C23.0912 34.1344 23.0758 34.478 23.062 34.834C23.0486 35.168 23.0615 35.5096 23.1051 35.8416C23.0773 35.8627 23.0491 35.8831 23.0199 35.9028C22.8825 35.9933 22.7345 36.0631 22.579 36.1148C22.2828 36.2129 21.9725 36.2555 21.6619 36.2703C20.8603 36.3087 20.0344 36.2277 19.2462 36.0904C18.4488 35.9512 17.2265 35.7422 16.5171 35.3432C16.049 35.0803 15.6171 34.7588 15.1793 34.4478C15.3381 33.9363 15.3787 33.3862 15.2189 32.9542C15.1997 32.9025 15.1188 32.8929 15.1031 32.9542C15.0031 33.3666 14.9738 33.7813 14.8407 34.1886C14.8385 34.1947 14.8364 34.201 14.8342 34.2068C14.7928 34.1785 14.7512 34.1508 14.7096 34.1231C14.6138 34.0598 14.4833 34.1072 14.4258 34.1977C13.5059 35.6474 12.0494 35.7306 10.5199 35.9895C8.84594 36.2729 7.1636 36.5789 5.55416 37.1335C4.01501 37.6641 2.54404 38.4368 1.37878 39.5906C1.115 39.852 0.868305 40.1303 0.635454 40.4209C0.860743 40.4494 1.08417 40.4935 1.30469 40.5629C1.56582 40.645 1.4536 41.0562 1.19143 40.974C0.907983 40.8848 0.621413 40.8406 0.331893 40.8187C-0.45988 41.9024 -1.07724 43.1311 -1.6111 44.3403C-2.63507 46.659 -3.30159 49.1285 -3.6083 51.6425C-3.4399 51.5414 -3.26846 51.4454 -3.09276 51.3559C-2.84864 51.2316 -2.63331 51.5996 -2.8777 51.7239C-3.14912 51.8621 -3.41273 52.0143 -3.66817 52.1792C-3.77974 53.2798 -3.82297 54.3872 -3.79678 55.4931C-3.73447 58.1294 -3.3787 60.8428 -2.57399 63.3581C-2.17935 64.5926 -1.65635 65.817 -0.877207 66.8601C-0.524641 67.3325 -0.124153 67.7588 0.347725 68.1142C0.57619 68.2869 0.817989 68.4409 1.07307 68.5708C1.40167 68.7392 1.82986 68.7946 2.1132 69.0326C2.2064 69.111 2.27829 69.2143 2.33262 69.331C2.30121 69.5526 2.29748 69.775 2.35818 69.9966C2.37736 70.0659 2.42954 70.1223 2.49398 70.1493C2.49506 70.1685 2.49506 70.1871 2.49506 70.2053C2.49506 70.2138 2.50784 70.2161 2.50943 70.2075C2.5121 70.1909 2.51475 70.1745 2.51742 70.1574C2.53819 70.1644 2.56002 70.1675 2.58238 70.1675C3.39137 70.1707 4.20137 70.1508 5.01142 70.1233C4.94878 69.9315 4.88092 69.7412 4.81581 69.5491C4.72732 69.2884 5.13895 69.1775 5.22663 69.4359C5.30283 69.6603 5.38252 69.8829 5.4534 70.108C6.32133 70.0757 7.18901 70.0369 8.05512 70.0084C9.89731 69.9469 11.7388 69.9267 13.5816 69.8879C16.4432 69.8272 19.3256 69.7029 22.1915 69.8244C22.2906 69.6141 22.4015 69.4084 22.5069 69.201C22.6309 68.9559 22.9984 69.1717 22.8747 69.416C22.8016 69.5602 22.7259 69.7026 22.6538 69.8466C23.2344 69.8768 23.8142 69.9166 24.3927 69.9711C25.3801 70.0636 26.358 70.2282 27.3444 70.3306C28.3472 70.4349 29.3283 70.4163 30.323 70.2507C30.502 70.2209 30.6074 70.1128 30.6512 69.9784C30.6528 69.9779 30.6538 69.9769 30.6548 69.9751C30.7059 69.9156 30.7538 69.866 30.8035 69.8229C30.8625 69.7845 30.9265 69.752 31.0016 69.7233C31.1415 69.6698 31.2875 69.6373 31.4357 69.6156C31.5986 69.5912 31.7637 69.5889 31.9268 69.5688C32.0639 69.5511 32.1983 69.5249 32.3324 69.4931C32.5736 69.4357 32.8028 69.3603 33.0307 69.2607C33.2293 69.174 33.4088 69.0492 33.5782 68.9133C33.9286 68.657 34.2321 68.33 34.4973 67.99C34.6518 67.7913 34.7973 67.5851 34.9294 67.3706C35.1595 66.9985 35.3554 66.6123 35.5535 66.2228C35.6254 66.1074 35.6909 65.9892 35.7509 65.8687C35.3637 65.7545 34.973 65.6614 34.5623 65.6549C34.2881 65.6503 34.2881 65.2241 34.5623 65.2286C35.0332 65.2362 35.4784 65.3461 35.9208 65.4772C35.9425 65.4199 35.9632 65.3622 35.9823 65.3037C36.035 65.1817 36.0786 65.0564 36.1149 64.9296C36.1361 64.8722 36.1575 64.8147 36.1787 64.7572C36.2266 64.5578 36.2745 64.3582 36.3232 64.1583C36.4195 63.8386 36.4956 63.5142 36.5515 63.1855C36.5984 62.9692 36.6347 62.7511 36.6592 62.5305C36.7338 61.9961 36.7943 61.463 36.7986 60.9228C36.7923 60.5897 36.7709 60.2572 36.7348 59.9263C36.7194 59.7017 36.6932 59.4778 36.6582 59.2557C36.6123 58.9252 36.5669 58.5983 36.4908 58.2721C36.4338 58.0515 36.3769 57.8309 36.3199 57.6104C36.1777 57.1506 36.0098 56.6998 35.8165 56.2592C35.8059 56.2317 35.7522 56.1707 35.7197 56.1702C35.6952 56.1697 35.6609 56.1921 35.6723 56.2221C35.6733 56.2246 35.6743 56.2279 35.6755 56.2304C35.6642 56.2055 35.6536 56.1798 35.6425 56.1548C35.6329 56.1314 35.5956 56.0845 35.5669 56.085C35.5651 56.085 35.5636 56.085 35.5616 56.0855C35.5689 56.0802 35.576 56.0734 35.5828 56.0653C35.7741 55.839 35.8981 55.541 36.035 55.2788C36.1485 55.0625 36.2553 54.8346 36.2864 54.5901C36.3133 54.3753 36.2768 54.1638 36.1419 53.9902C35.9886 53.7925 35.7 53.6998 35.8603 53.4141C36.0423 53.0892 36.3103 52.8074 36.0436 52.4381C35.9077 52.25 35.6924 52.1467 35.5329 51.9831C35.3491 51.794 35.2616 51.5409 35.2664 51.2825C35.2778 51.2888 35.2926 51.2858 35.2979 51.2697C35.4522 50.8031 35.3405 50.2906 35.1822 49.8361C35.096 49.5895 34.9132 49.5217 34.701 49.5096C35.6211 47.7112 36.4822 45.8844 37.2498 44.0154C37.2753 43.9542 37.3002 43.8929 37.3254 43.8316C37.3628 43.7399 37.2839 43.6179 37.1928 43.5977C36.5291 43.4522 35.8379 43.4059 35.1621 43.3421Z" fill="#142739"/>
<path fill-rule="evenodd" clip-rule="evenodd" d="M28.0712 22.7328C27.7057 18.2748 26.5925 14.3263 21.3625 14.158C19.0022 14.1791 16.5928 14.6807 14.4223 15.6088C9.1469 18.2549 7.47308 27.9239 12.121 31.8161C12.0933 31.8317 12.0865 31.8773 12.1193 31.8993C13.0794 32.5453 14.1468 33.0772 15.2159 33.5239C18.0632 34.7284 21.4154 35.2515 24.3192 33.9449C28.7511 32.0586 28.8174 26.8094 28.0712 22.7328Z" fill="#F4C2C2"/>
<path fill-rule="evenodd" clip-rule="evenodd" d="M36.7941 20.6549C36.9764 20.4908 37.112 20.2756 37.1808 20.0342C37.2436 19.8142 37.2479 19.5739 37.1813 19.3544C37.11 19.1189 36.956 18.9314 36.9908 18.6863C36.9945 18.6623 36.9993 18.6372 37.0066 18.6122C37.1397 18.1508 37.4675 17.8178 37.3502 17.3064C37.3172 17.162 37.2549 17.032 37.168 16.9297C37.1776 16.8189 37.1861 16.707 37.1932 16.5951C37.3853 16.1449 37.3785 15.61 37.1733 15.1667C37.1483 14.9397 37.1105 14.7149 37.0573 14.4938C37.0818 14.2983 37.0477 14.083 36.985 13.912C36.8745 13.6111 36.7379 13.3145 36.5899 13.0229C36.6073 12.9432 36.5995 12.8589 36.5557 12.7839C36.4755 12.6477 36.3699 12.5279 36.2617 12.4108C36.1854 12.2743 36.1085 12.1388 36.0321 12.0052C35.9968 11.9438 35.9577 11.8756 35.9146 11.8034C36.0318 11.5857 36.0946 11.3736 35.9706 11.1176C35.9239 11.0214 35.7959 10.9505 35.6903 10.9568C35.5751 10.9637 35.4586 10.9688 35.3416 10.9732C35.1228 10.7091 34.875 10.4719 34.6096 10.3354C34.3406 10.1074 34.0678 9.88365 33.8026 9.65508C33.7275 9.59007 33.6519 9.52508 33.577 9.46007C33.5763 9.45848 33.5758 9.45634 33.5753 9.45475C33.5198 9.25283 33.4575 9.05356 33.3953 8.85325C33.3565 8.7291 33.3446 8.5991 33.2239 8.53144C32.9713 8.39024 32.5831 8.36788 32.2934 8.34391C32.2647 8.31832 32.2359 8.29329 32.2072 8.26771C32.3388 7.91713 32.3153 7.54472 32.1497 7.19362C32.0933 7.07428 31.8971 7.02046 31.7895 7.09932C31.5414 7.28152 31.247 7.34601 30.9556 7.31936C30.5273 6.99009 28.8003 5.50117 28.5333 5.34402C28.53 5.33838 28.5275 5.33273 28.524 5.32713C28.374 5.08748 28.1917 4.89503 27.9868 4.74073C27.9575 4.71021 27.9283 4.67963 27.8991 4.64905C27.9248 4.46636 27.9926 4.28995 28.1015 4.14238C28.1133 4.12532 28.1264 4.10881 28.1398 4.09282C28.3306 3.86587 28.0977 3.57391 27.8315 3.69271C27.8123 3.70124 27.7932 3.70976 27.774 3.71881C27.5693 3.81014 27.3427 3.90938 27.1068 3.99315C27.0205 3.96081 26.9326 3.93149 26.8524 3.89922L25.9931 3.55359C25.8514 3.49669 25.7019 3.44847 25.565 3.38162C25.5174 3.06414 25.1992 2.85592 24.869 2.86678C24.8882 2.80583 24.9166 2.74664 24.9567 2.69055C24.9683 2.67404 24.9812 2.65803 24.9945 2.6426C25.1644 2.44492 24.9376 2.07839 24.6946 2.25419C24.6777 2.26644 24.66 2.27869 24.6429 2.29095C24.5756 2.33831 24.5065 2.38275 24.4367 2.42581C24.3247 2.37701 24.199 2.36587 24.0671 2.41749C23.7755 2.53176 23.5065 2.64797 23.2496 2.82711C23.2393 2.83439 23.2284 2.84052 23.2178 2.8474C23.0903 2.69332 22.8879 2.59027 22.7056 2.59141C22.7018 2.59141 22.6991 2.59133 22.6958 2.59128C22.5594 2.38356 22.3096 2.26284 22.0683 2.29218C22.0847 1.99409 21.7863 1.72806 21.5148 1.69572C21.1974 1.65801 20.9115 1.84231 20.8162 2.15195C20.7898 2.23816 20.7633 2.32442 20.7368 2.41069C20.4903 2.28626 20.2304 2.19094 19.9586 2.14337C19.3403 2.035 18.7355 2.15041 18.1396 2.32218C18.0798 2.33935 18.0204 2.35697 17.9609 2.37456C17.8759 2.27605 17.7963 2.17519 17.7201 2.08103C17.5885 1.91854 17.2727 2.04854 17.2941 2.25739C17.3087 2.40151 17.2502 2.50519 17.156 2.57888C17.0526 2.594 16.9525 2.59859 16.8018 2.59554C16.6024 2.59151 16.5116 2.58525 16.3032 2.50396C16.2061 2.46614 16.0851 2.36667 16.0286 2.27738C15.8116 1.93495 15.2603 1.84274 14.9976 2.16921C14.7213 2.04821 14.3724 2.21509 14.2192 2.45036C14.139 2.57338 13.9714 2.64218 13.7606 2.70131C13.6026 2.74563 13.4407 2.77921 13.2781 2.80855C13.2058 2.71026 13.0533 2.64434 12.9413 2.72678C12.8655 2.78276 12.7919 2.84026 12.7193 2.89918C12.1596 2.97634 11.6027 2.97909 11.0691 2.76076C10.6172 2.57588 10.2023 3.0808 10.2769 3.50468C10.1461 3.57282 10.0041 3.61817 9.87481 3.68956C9.5928 3.84545 9.36126 4.09187 9.22012 4.38139C9.19481 4.43321 9.17197 4.48585 9.15019 4.53876C9.04479 4.6246 8.94056 4.71273 8.83884 4.8057C8.66949 4.71885 8.50067 4.63201 8.33129 4.54517C8.20454 4.48015 7.99098 4.52545 7.96594 4.69379C7.92496 4.97086 7.82536 5.20049 7.68316 5.39283C7.22088 5.63576 6.77618 5.90854 6.35066 6.2117C5.86124 6.36514 5.34091 6.45466 4.91325 6.55534C4.76678 6.58998 4.6869 6.78126 4.76946 6.90859C4.85678 7.04338 4.94413 7.17817 5.03094 7.31296C4.78756 7.55057 4.55909 7.79885 4.34338 8.05568C3.74317 8.76958 3.24096 9.55226 2.79147 10.3813C2.6136 10.4532 2.4357 10.5246 2.25783 10.5965C2.08634 10.6658 2.00912 10.865 2.14812 11.0115C2.21415 11.0813 2.27328 11.1549 2.32388 11.2321C2.07197 11.6493 1.77532 12.0297 1.36043 12.279C1.23422 12.3547 1.13943 12.4735 1.08884 12.6083C1.04568 12.6371 1.00308 12.6679 0.961005 12.6994C0.843836 12.7878 0.773001 12.9807 0.910412 13.0953C1.00681 13.1762 1.09736 13.2721 1.17404 13.3781C1.19055 13.4384 1.20759 13.4991 1.22464 13.5593C0.839046 13.9141 0.518445 14.3265 0.277729 14.789C0.220733 14.7799 0.162148 14.7858 0.114756 14.8209C-0.315578 15.139 -0.328359 15.6457 -0.155252 16.0985C-0.259641 16.781 -0.192536 17.4806 0.00877917 18.1418C-0.25591 18.406 -0.415152 18.7875 -0.480139 19.1551C-0.594636 19.8008 -0.602627 20.794 -0.632449 21.453C-0.921111 21.7317 -1.12669 22.0924 -1.24118 22.4802C-1.33758 22.5282 -1.43398 22.5761 -1.53038 22.6241C-1.61611 22.6667 -1.67896 22.7791 -1.67364 22.8739C-1.64913 23.3327 -1.46007 23.695 -1.20922 24.0231C-1.12028 24.2762 -0.988746 24.5096 -0.816194 24.7334C-0.696882 24.8867 -0.580267 25.0339 -0.477467 25.1996C-0.466829 25.2159 -0.460427 25.2316 -0.455637 25.2422C-0.496122 25.2858 -0.529674 25.3584 -0.558966 25.41C-0.805001 25.8436 -0.808732 26.3518 -0.459367 26.7297C-0.590905 26.8373 -0.595166 27.0546 -0.479081 27.188C0.276645 28.0516 0.906681 29.1016 1.95533 29.5604C1.96012 29.5684 1.96438 29.5763 1.96811 29.5843C1.7556 30.0958 1.72686 30.3617 1.90048 30.8901C1.90153 30.8949 1.90312 30.8992 1.90474 30.904C1.9974 31.181 2.16781 31.6249 2.47513 31.7112C2.57206 31.7384 2.66737 31.7507 2.76165 31.75C3.00557 31.9852 3.24895 32.2206 3.49234 32.4561C3.51364 32.5728 3.52695 32.6905 3.53121 32.8092C3.53815 33.0079 3.72507 33.169 3.92638 33.1102C3.99722 33.0896 4.38919 32.7087 4.46108 32.7107C4.49731 32.747 4.53245 32.7833 4.56761 32.8198C4.69701 32.9557 4.87649 33.17 4.89142 33.3121C4.92018 33.5801 5.0959 33.8872 5.37978 33.9414C5.48628 34.0495 5.65672 34.082 5.7872 33.9408C5.79572 33.9318 5.80424 33.9227 5.81329 33.9149C5.82713 33.9131 5.84046 33.9116 5.8543 33.9101C5.91715 34.0976 5.97999 34.2852 6.04337 34.472C6.16744 34.8408 6.64144 35.0778 6.97802 34.8627C7.03235 34.895 7.08561 34.9298 7.13888 34.9643C7.21982 35.016 7.30183 35.0687 7.38597 35.1183C7.39079 35.1322 7.39558 35.1461 7.39984 35.1594C7.45416 35.3251 7.67995 35.414 7.81898 35.3187C7.86211 35.3326 7.9063 35.3437 7.95105 35.3528C8.18591 35.3992 8.42237 35.3863 8.64925 35.3079C8.81169 35.2527 8.96667 35.1466 9.14134 35.1322C9.15226 35.1312 9.1635 35.132 9.17459 35.1317C9.31709 35.4239 9.64276 35.6754 9.89941 35.7609C10.2356 35.8731 10.5796 35.833 10.8857 35.6959C10.9684 35.861 11.0721 36.0175 11.196 36.162C11.2647 36.2419 11.3888 36.225 11.4596 36.162C11.5942 36.0427 11.7278 35.923 11.8614 35.8027C11.958 35.7657 12.0555 35.7208 12.1571 35.6795C12.4752 35.5494 12.8241 35.4955 13.1183 35.3077C13.258 35.2184 13.3893 35.1047 13.4977 34.9729C13.7016 34.8552 13.8889 34.7085 14.0576 34.5403C14.1418 34.5408 14.2295 34.5211 14.3147 34.478C14.6712 34.2968 14.8585 33.928 14.8751 33.5509C15.1637 32.8715 15.3341 32.147 15.381 31.4054C15.3959 31.1619 15.3987 30.9163 15.38 30.6728C15.3672 30.5012 15.3241 30.3867 15.259 30.2317C15.2371 30.181 15.2174 30.1346 15.202 30.0834C15.2058 29.9193 15.2078 29.7555 15.2101 29.5919C15.2542 29.4537 15.3331 29.3254 15.4428 29.2173C15.6127 29.0499 15.6903 28.7025 15.5361 28.4958C15.4352 28.3622 15.3351 28.2284 15.2346 28.0947C15.2628 27.5207 15.4002 26.6077 15.0954 26.5119C15.1078 26.4264 15.134 26.3423 15.1489 26.2576C15.2202 25.8507 15.1776 25.4867 14.9613 25.1307C14.9159 25.0569 14.8776 24.9913 14.8464 24.9273C14.8267 24.8101 14.8068 24.6929 14.7871 24.5756C14.7569 24.3951 14.7269 24.2129 14.7014 24.0296C14.688 23.7962 14.6759 23.5628 14.6626 23.3289C14.6502 23.1137 14.6364 22.8984 14.622 22.6827C14.628 22.5862 14.6364 22.4898 14.6487 22.3934C14.7216 21.8185 14.9565 21.6059 15.3634 21.2063C15.4274 21.1962 15.4907 21.185 15.5529 21.1722C15.8433 21.112 16.1469 21.0188 16.4456 21.0523C16.77 21.0886 17.0602 21.2287 17.3755 21.0497C17.468 20.9964 17.6722 20.8494 17.6896 20.7327C17.6909 20.7252 17.6924 20.7188 17.6944 20.7141C17.7163 20.7108 17.7446 20.7082 17.7622 20.7076C18.0125 20.6991 18.2515 20.7977 18.5041 20.7705C18.8028 20.7386 19.07 20.6059 19.246 20.4093C19.4711 20.4647 19.7013 20.4897 19.9349 20.4588C20.1311 20.4333 20.3068 20.3693 20.4805 20.2745C20.6065 20.2063 20.5667 20.1866 20.7041 20.242C21.0166 20.3688 21.2995 20.5361 21.6514 20.4493C21.8342 20.4045 21.9917 20.3059 22.1246 20.1733C22.1558 20.1424 22.209 20.096 22.2448 20.0523C22.4119 20.137 22.8327 20.3283 22.902 20.3454C23.0981 20.3933 23.3056 20.3859 23.4964 20.3219C23.6363 20.275 23.808 20.1472 23.931 20.121C24.0901 20.087 24.4437 20.3086 24.6338 20.3848C24.9673 20.5185 25.3205 20.5516 25.658 20.4136C25.7742 20.3661 25.9999 20.177 26.0868 20.1786C26.228 20.3528 26.622 21.306 26.7402 21.6539C27.2189 23.0604 27.3432 27.4522 27.1221 28.5727C27.1136 28.6057 27.1045 28.6382 27.0954 28.6713C26.8239 29.6456 26.5411 30.6365 26.0868 31.5445C25.658 32.4001 25.0654 33.1705 24.2148 33.6378C23.3328 34.1226 22.2975 34.2499 21.3058 34.1844C20.6672 34.1428 20.0393 34.0145 19.4217 33.8536C19.0988 33.7699 18.7789 33.6767 18.4602 33.5796C18.3213 33.5375 18.1802 33.4982 18.0438 33.449C17.8031 33.3623 17.677 33.3553 17.4464 33.4667C17.2364 33.568 17.1827 33.8667 17.2918 34.0548C17.4698 34.3618 17.7957 34.383 18.1104 34.4725C18.431 34.5638 18.7527 34.651 19.0766 34.7294C19.697 34.8786 20.3274 34.9931 20.9634 35.046C22.1021 35.1413 23.2753 34.9943 24.3116 34.4972C24.4289 34.4407 24.5418 34.3805 24.6509 34.3155C24.6106 34.3719 24.5695 34.4284 24.5279 34.4843C24.413 34.6394 24.4982 34.9031 24.6595 34.9878C24.7107 35.0145 24.7619 35.0399 24.8133 35.0652C24.8203 35.0815 24.8277 35.0982 24.8362 35.1146C24.9837 35.4108 25.2928 35.5857 25.6074 35.6613C25.9815 35.7508 26.3999 35.6873 26.7803 35.6762C27.1327 35.6656 27.4854 35.6548 27.8373 35.6442C27.9205 35.6422 28.0034 35.6394 28.0866 35.6366C28.5053 35.624 28.9233 35.6117 29.3412 35.5988C29.7141 35.5877 29.6967 35.6165 30.0466 35.4672C30.2026 35.4002 30.3304 35.3054 30.4378 35.1791C30.5051 35.1493 30.5699 35.1151 30.6324 35.0762C30.8326 34.9517 31.0105 34.7843 31.1744 34.6001C31.453 34.6878 31.8434 34.6064 31.8976 34.2562C31.9851 33.6963 32.7126 33.4571 33.0524 33.0523C33.3267 32.7255 33.5226 32.2978 33.5125 31.8871C34.2037 31.5523 34.5798 30.6708 34.6675 29.9226C34.7086 29.5757 34.7023 29.2044 34.7613 28.8518C34.7875 28.8235 34.811 28.7938 34.8306 28.7618C35.0041 28.4809 35.1553 28.1915 35.2887 27.8953C35.4697 27.7648 35.6875 27.6844 35.9154 27.671C36.4758 27.6387 36.5811 26.8827 36.047 26.7005C36.0444 26.6992 36.0422 26.6987 36.0396 26.6977C36.1843 26.3354 36.1722 25.9066 35.9963 25.5633C36.0038 25.5263 36.0107 25.4894 36.0177 25.4521C36.3174 25.1297 36.4896 24.6818 36.4705 24.2454C36.6073 24.1489 36.7606 24.0742 36.9285 24.0279C37.1876 23.9565 37.1894 23.6401 36.9976 23.4984C36.9204 23.4414 36.8564 23.3748 36.8032 23.3012C36.9358 22.9027 36.8836 22.4419 36.6126 22.1147C36.7846 21.8942 36.9567 21.6736 37.1287 21.453C37.2426 21.307 37.3028 21.0593 37.1287 20.9208C37.0172 20.8318 36.9061 20.7433 36.7941 20.6549Z" fill="black"/>
<path fill-rule="evenodd" clip-rule="evenodd" d="M24.2373 28.9339C24.42 28.6115 24.9653 28.664 25.0488 29.0401C25.2176 29.8026 24.3086 30.5069 23.6182 30.5246C22.9322 30.542 22.1624 29.9577 22.2617 29.2198C22.2862 29.0373 22.5299 29.0595 22.6131 29.1739L22.6454 29.2178C22.871 29.521 23.1687 29.8349 23.5874 29.761C23.7611 29.7305 23.9187 29.6219 24.0235 29.4825C24.1501 29.3138 24.1362 29.1127 24.2373 28.9339ZM19.8747 23.3547C19.9677 23.3291 20.0615 23.339 20.1439 23.374C20.3277 23.4078 20.4815 23.5612 20.5354 23.7364C20.5397 23.7516 20.5445 23.7664 20.5498 23.7813L20.5579 23.8035L20.5359 23.7473C20.546 23.8025 20.5911 23.8607 20.6073 23.9162C20.6272 23.9845 20.632 24.0619 20.6252 24.137C20.6836 24.1378 20.7421 24.1398 20.8006 24.1448L20.8571 24.1499C21.1724 24.1791 21.5188 24.2331 21.7059 24.5056C21.8107 24.6588 21.7122 24.9346 21.5193 24.9641C21.2224 25.0097 20.9665 24.8454 20.6703 24.8123C20.3905 24.7811 20.0978 24.799 19.8215 24.8497C19.2513 24.9538 18.7275 25.1852 18.1716 25.3301L18.096 25.3493L18.0962 25.349C18.001 25.372 17.8928 25.2396 17.9871 25.162C18.4323 24.7962 19.0022 24.4998 19.5636 24.3193C19.482 24.1889 19.4565 24.0175 19.5125 23.8779C19.521 23.8489 19.5319 23.8206 19.5432 23.7927L19.5669 23.7349C19.5692 23.7077 19.5745 23.6808 19.582 23.6544L19.583 23.6463L19.5838 23.6468C19.6256 23.5109 19.7348 23.3933 19.8747 23.3547ZM25.5542 23.3757C25.6759 23.2539 25.8471 23.2719 25.9742 23.3678L25.991 23.381C26.1108 23.4342 26.2099 23.5505 26.2749 23.6583C26.3425 23.7702 26.3873 23.8842 26.3891 24.0074C26.6838 24.0084 26.9661 24.0969 27.1826 24.3349C27.2525 24.4118 27.3001 24.5303 27.2618 24.6344L27.2389 24.6964C27.1663 24.893 26.8396 25.0065 26.7284 24.775L26.7233 24.7637C26.6054 24.4889 26.1526 24.5179 25.9119 24.5459C25.744 24.5656 25.5784 24.6074 25.4163 24.654C25.3593 24.6704 25.3028 24.6883 25.2461 24.7067L25.1897 24.7249C25.1597 24.7347 25.0026 24.8199 25.1002 24.7997C25.1264 24.7944 25.1463 24.8325 25.1196 24.8454C25.0031 24.9011 24.8788 24.7902 24.8867 24.6651C24.9 24.4481 25.2449 24.3288 25.4107 24.254L25.4206 24.2494C25.4841 24.2202 25.5509 24.192 25.6195 24.1657C25.5809 24.1083 25.5489 24.0442 25.5224 23.9757C25.4972 23.9109 25.4806 23.8479 25.4712 23.7791C25.4622 23.7453 25.4622 23.7117 25.4712 23.678L25.4728 23.6683C25.468 23.6461 25.4657 23.6231 25.466 23.5999L25.4652 23.5909H25.466C25.4692 23.5097 25.5015 23.4284 25.5542 23.3757ZM23.6088 25.6883C24.0767 25.8328 24.8483 26.2268 24.6046 26.8348C24.2643 27.3929 23.3615 26.9828 22.9242 26.8023C22.5312 26.672 22.3265 27.223 22.7066 27.3892C25.8466 28.6319 25.835 25.3521 23.7228 25.4002C23.4901 25.4055 23.4828 25.6402 23.6088 25.6883ZM19.4545 21.4118L19.5344 21.3885C19.9488 21.2683 20.3721 21.0609 20.7404 21.3846C20.8848 21.5117 20.9146 21.7759 20.8112 21.9344C20.5755 22.2957 20.2261 22.2405 19.8457 22.2713C19.5558 22.2947 19.2705 22.3799 19 22.4863C18.7791 22.5733 18.5739 22.6958 18.3806 22.8324C18.1903 22.9667 18.0604 23.1766 17.8653 23.2975C17.794 23.3419 17.7113 23.2963 17.6858 23.2244C17.5948 22.9695 17.7484 22.6519 17.8784 22.4346C18.0373 22.1696 18.2785 21.9529 18.5376 21.7889C18.8217 21.6093 19.1356 21.5056 19.4545 21.4118ZM25.496 21.1375C26.1967 21.1372 26.8711 21.5272 27.2631 22.0988C27.3962 22.293 27.2986 22.5807 27.1073 22.6925C26.8928 22.8181 26.6636 22.7277 26.5222 22.5478L26.5139 22.5369C26.289 22.2374 25.9991 22.0016 25.6558 21.848C25.4881 21.7731 25.3029 21.7123 25.1216 21.6814L25.0629 21.6714C24.9807 21.6576 24.8857 21.6445 24.8113 21.6573C24.7715 21.6625 24.7349 21.6757 24.7014 21.6957C24.7175 21.7311 24.6757 21.7737 24.6371 21.7525C24.4629 21.6568 24.4843 21.4862 24.628 21.3535C24.8317 21.1658 25.233 21.1375 25.496 21.1375Z" fill="black"/>
<path fill-rule="evenodd" clip-rule="evenodd" d="M23.938 27.7615C23.3459 27.4945 22.2823 27.7275 21.8961 27.82C20.9984 28.0353 20.0955 28.5009 19.8164 29.2299C19.5018 30.0517 20.1295 30.3103 20.2218 30.268C20.8432 30.3118 21.583 29.9211 22.2342 29.82C22.763 29.7376 23.3207 29.6655 23.8157 29.3844C24.1775 29.5836 24.9942 29.691 25.6535 29.8651C26.2148 30.0131 26.4581 30.3343 26.9784 30.266C27.6023 30.1843 27.347 28.8719 26.6517 28.3403C25.8909 27.7582 24.604 27.5223 23.938 27.7615ZM25.111 33.3729C24.5927 33.4995 24.5579 32.3633 24.4999 31.9617C24.4545 31.6481 24.1987 30.8395 23.5503 30.8745C22.9017 30.9093 22.6579 31.5869 22.6909 32.0081C22.7124 32.2816 22.964 33.6658 22.1606 33.841C21.6483 33.839 21.0557 33.8045 20.517 33.7052C19.883 33.5615 19.0587 33.0586 18.8409 34.049C18.7625 34.4054 21.555 35.4645 22.7943 35.5603C24.0512 35.8151 25.5216 35.4234 26.4165 34.4614C26.6199 34.2426 27.1932 33.3343 27.2343 33.112C27.32 32.6444 27.1213 32.3436 26.5431 32.5083C26.1344 32.7266 25.444 33.2917 25.111 33.3729Z" fill="black"/>
<path fill-rule="evenodd" clip-rule="evenodd" d="M28.646 26.01C27.9994 26.6785 26.9202 26.8703 26.0599 26.5119C23.8508 25.5885 24.932 22.7089 26.6356 21.9355C26.8484 21.8825 27.1327 21.7566 27.3919 21.728C27.4153 21.7165 27.4662 21.7498 27.5283 21.7183C29.4065 21.9281 29.8343 24.8451 28.646 26.01ZM21.5213 26.1811C20.7963 27.1434 19.4479 27.4403 18.3463 26.9929C16.1701 26.1355 16.9419 23.582 18.431 22.5809C21.5763 21.3986 22.875 24.407 21.5213 26.1811ZM16.8038 24.049C16.8018 24.048 16.7998 24.0478 16.7978 24.0467C16.8091 24.0417 16.8207 24.0367 16.832 24.0314C16.8285 24.0412 16.8242 24.0508 16.8207 24.0606C16.8151 24.0566 16.8101 24.052 16.8038 24.049ZM30.1431 23.0089C29.9657 23.0093 29.709 23.0385 29.5621 23.1617C29.1996 21.9388 27.8618 20.807 26.6981 21.6323C25.7818 21.9271 25.1019 22.5809 24.7155 23.45C24.0187 23.0354 22.9232 23.2125 22.3189 23.7609C21.9231 22.4527 20.9493 21.9947 19.7903 21.9271C18.525 21.7198 17.2641 22.949 16.8706 23.9351C16.5434 23.8978 16.0546 23.7937 15.7468 23.9956C13.7493 23.4716 10.2569 23.1826 9.85079 23.4738C9.5614 23.5849 9.40259 24.2683 9.8068 24.3051C10.159 24.255 9.76569 23.8045 10.1208 23.7553C12.0127 23.6379 13.8491 24.019 15.7211 24.1791C15.8882 24.4039 16.4282 24.4791 16.7163 24.3888C16.2626 26.0614 17.2419 27.1996 18.7093 27.5404C20.9819 28.0625 22.9587 26.0291 22.3645 23.9139C23.053 23.5713 23.8448 23.586 24.5945 23.7664C23.3414 28.3798 30.7686 28.1729 29.6087 23.3198C30.3806 23.7039 30.5482 23.0864 30.1431 23.0089Z" fill="black"/>
</g>
<defs>
<linearGradient id="paint0_linear_1_127" x1="20.5" y1="0" x2="20.5" y2="41" gradientUnits="userSpaceOnUse">
<stop stop-color="#833AB4"/>
<stop offset="0.5" stop-color="#FD1D1D"/>
<stop offset="1" stop-color="#FCB045"/>
</linearGradient>
</defs>
</svg>
