<svg width="41" height="41" viewBox="0 0 41 41" fill="none" xmlns="http://www.w3.org/2000/svg">
<g clip-path="url(#clip0_1_107)">
<circle cx="20.5" cy="20.5" r="19.5" stroke="url(#paint0_linear_1_107)" stroke-width="2"/>
<circle cx="20.5965" cy="20.2519" r="15.4284" fill="#45FCF1"/>
<mask id="mask0_1_107" style="mask-type:alpha" maskUnits="userSpaceOnUse" x="5" y="4" width="32" height="32">
<circle r="15.4284" transform="matrix(-1 0 0 1 20.5965 20.252)" fill="#C4C4C4"/>
</mask>
<g mask="url(#mask0_1_107)">
<path fill-rule="evenodd" clip-rule="evenodd" d="M3.96792 59.4026C5.53225 59.4077 7.05221 59.4611 8.62091 59.4663C14.9976 59.4876 21.433 59.457 27.8328 59.1981C29.6416 59.1252 30.0931 59.127 31.8941 59.0136C32.9576 59.0094 36.1518 58.9216 35.9919 57.4726C35.9213 54.7745 35.2534 52.087 35.043 49.3958C34.6393 44.3367 34.2955 39.1192 32.2681 34.3873C31.7988 33.2572 30.791 32.5182 29.7933 31.8537C28.7928 31.1368 28.5473 30.3408 27.6238 29.531C27.4286 29.3597 26.3198 29.2901 25.7232 28.8557C24.8549 28.2234 24.4243 27.1884 24.1003 27.0121C23.862 26.8825 23.8663 25.9881 23.3885 25.6715C22.7473 25.2466 20.7042 24.9307 19.9608 24.8717C19.2473 24.8149 18.0063 24.9341 17.3369 25.1954C16.2206 25.6312 15.7753 26.4626 15.2837 27.5337C8.78848 29.5417 2.85176 32.9421 1.008 39.8008C-0.582034 45.5531 -0.640124 51.7203 -0.0257672 57.6199C0.0969183 58.0512 0.010947 58.7274 0.383465 59.0136C-0.911517 59.088 3.79221 59.3552 3.96792 59.4026Z" fill="white"/>
<path fill-rule="evenodd" clip-rule="evenodd" d="M33.5106 53.7228C33.3876 53.6615 33.2595 53.5913 33.1191 53.5862C32.8781 53.5779 32.8777 53.2028 33.1191 53.2112C33.3297 53.2186 33.5146 53.3065 33.6998 53.3989C33.916 53.5068 33.7259 53.8302 33.5106 53.7228ZM33.1191 43.1627C33.2836 43.1628 33.4494 43.1836 33.5758 43.2987C33.6509 43.3672 33.645 43.4948 33.5758 43.564C33.5018 43.638 33.3854 43.6322 33.3105 43.564C33.335 43.5862 33.3108 43.5642 33.3019 43.5592C33.2998 43.5581 33.2986 43.5573 33.2981 43.5568C33.2962 43.5564 33.2943 43.556 33.2913 43.5552C33.2717 43.5503 33.2523 43.5454 33.2325 43.5419C33.2322 43.5428 33.1906 43.5391 33.1809 43.5387C33.1602 43.538 33.1397 43.5379 33.1191 43.5379C33.0174 43.5378 32.9316 43.4521 32.9316 43.3503C32.9316 43.249 33.0178 43.1627 33.1191 43.1627ZM31.3557 47.3711C31.302 47.6067 30.9405 47.5063 30.9941 47.2712C31.072 46.9296 31.0578 46.5792 30.9941 46.2363C30.9502 46.0002 31.3117 45.8998 31.3557 46.1368C31.4322 46.5481 31.4493 46.9608 31.3557 47.3711ZM30.882 33.8879C30.6027 33.8215 30.3264 33.8136 30.0407 33.8135C29.799 33.8134 29.7994 33.4383 30.0407 33.4384C30.3594 33.4384 30.6705 33.4522 30.9817 33.5261C31.2168 33.582 31.1167 33.9436 30.882 33.8879ZM29.9461 43.026C29.7841 42.945 29.6221 42.864 29.4601 42.7829C29.2439 42.6748 29.4341 42.3514 29.6494 42.459L30.1354 42.7021C30.3515 42.8102 30.1614 43.1337 29.9461 43.026ZM29.8786 50.4141C29.6731 50.7106 29.3842 50.8946 29.0375 50.9866C28.8036 51.0484 28.7047 50.6864 28.9378 50.6246C29.1858 50.5591 29.406 50.4392 29.5548 50.2249C29.6916 50.0274 30.0165 50.2152 29.8786 50.4141ZM28.5827 37.2052C28.5271 37.1013 28.4434 37.0573 28.3396 37.055C28.0982 37.0495 28.0982 36.6743 28.3396 36.6799C28.5763 36.6852 28.7934 36.8041 28.9065 37.0158C29.0204 37.2289 28.6965 37.4182 28.5827 37.2052ZM26.2039 39.7553C26.1366 39.8285 26.0063 39.8267 25.9387 39.7553C25.8973 39.7116 25.8625 39.6627 25.8351 39.6092C25.8247 39.5889 25.8149 39.5683 25.8035 39.5485C25.7984 39.5398 25.7927 39.531 25.7869 39.5226C25.7849 39.5209 25.7809 39.5166 25.7766 39.5122C25.7046 39.436 25.7064 39.3234 25.7766 39.2469C25.8439 39.1736 25.9743 39.1755 26.0419 39.2469C26.0832 39.2906 26.1181 39.3394 26.1454 39.3929C26.1558 39.4132 26.1656 39.4339 26.1771 39.4537C26.1822 39.4624 26.1879 39.4711 26.1937 39.4796C26.1956 39.4813 26.1997 39.4855 26.2039 39.49C26.276 39.5662 26.2742 39.6787 26.2039 39.7553ZM26.0039 45.2952C25.7597 45.4067 25.4918 45.4067 25.2475 45.2952C25.155 45.2529 25.1331 45.1191 25.1803 45.0382C25.235 44.9448 25.3448 44.929 25.4368 44.9713C25.5476 45.0219 25.704 45.0219 25.8146 44.9713C25.9071 44.929 26.0159 44.9439 26.0712 45.0382C26.1187 45.1195 26.096 45.2529 26.0039 45.2952ZM25.3377 49.2165C25.2957 49.3155 25.2051 49.3684 25.0991 49.3726C24.9942 49.3763 24.916 49.2834 24.9116 49.1849C24.9088 49.1212 24.9432 49.0669 24.9925 49.0334C24.9926 49.0297 24.9927 49.0264 24.9927 49.0227C24.9927 48.9177 25.0786 48.8396 25.1802 48.8354C25.2814 48.8308 25.3678 48.9246 25.3677 49.0227C25.3677 49.0892 25.3636 49.1547 25.3377 49.2165ZM24.3701 55.4502C24.0707 55.4549 23.7783 55.5264 23.479 55.5311C23.2371 55.5352 23.2379 55.1602 23.479 55.156C23.7783 55.1514 24.0707 55.0798 24.3701 55.0752C24.6119 55.071 24.6112 55.4465 24.3701 55.4502ZM23.1255 31.4085C22.9503 31.5755 22.7338 31.6577 22.5205 31.762C22.3043 31.8677 22.1143 31.544 22.3312 31.4381C22.5119 31.3497 22.7121 31.2844 22.8603 31.1433C23.0352 30.9767 23.3007 31.2417 23.1255 31.4085ZM22.6552 35.7328C22.5323 35.6714 22.4041 35.6012 22.2638 35.5964C22.0227 35.5879 22.0224 35.2127 22.2638 35.2212C22.4744 35.2285 22.6592 35.3163 22.8445 35.4088C23.0608 35.5168 22.8706 35.8403 22.6552 35.7328ZM20.4006 53.0885C20.3452 52.9844 20.2615 52.9403 20.1576 52.9379C19.9162 52.9328 19.9161 52.5573 20.1576 52.5629C20.3943 52.5685 20.6114 52.6875 20.7245 52.8989C20.8384 53.1122 20.5145 53.3014 20.4006 53.0885ZM19.6199 44.9416C19.5453 44.8732 19.5505 44.7459 19.6199 44.6762C19.7009 44.5953 19.7819 44.5142 19.863 44.4332C19.937 44.3591 20.0533 44.3645 20.1281 44.4332C20.2028 44.5017 20.1976 44.6288 20.1281 44.6985C20.0471 44.7794 19.9661 44.8607 19.8851 44.9416C19.811 45.0159 19.6948 45.0103 19.6199 44.9416ZM18.6994 57.6381C18.4288 57.6321 18.1752 57.5544 17.9204 57.4694C17.6922 57.3937 17.7906 57.0312 18.0201 57.1079C18.2416 57.1813 18.464 57.2575 18.6994 57.2631C18.9407 57.2686 18.9408 57.6437 18.6994 57.6381ZM17.4842 49.6157C17.2398 49.6087 17.037 49.4842 16.8655 49.3173C16.6921 49.1491 16.9576 48.8837 17.1308 49.0524C17.2289 49.1477 17.3421 49.2365 17.4842 49.2407C17.7255 49.2472 17.7257 49.6222 17.4842 49.6157ZM18.2388 39.2985C18.2417 39.3984 18.2839 39.5054 18.3459 39.571C18.5117 39.7466 18.2468 40.0122 18.0807 39.8363C17.9437 39.6912 17.8695 39.497 17.8637 39.2985C17.8568 39.0566 18.2319 39.0576 18.2388 39.2985ZM15.3781 31.1275C15.2996 30.9737 15.1967 30.7935 15.0403 30.7086C14.8278 30.5932 15.0174 30.2694 15.2296 30.3846C15.4422 30.5 15.5944 30.7276 15.7019 30.9381C15.8116 31.1529 15.4879 31.3425 15.3781 31.1275ZM14.8919 35.0291C14.8049 35.0266 14.7185 35.0117 14.6347 34.9889C14.5988 34.9792 14.5633 34.968 14.5274 34.9582C14.5121 34.9541 14.4467 34.9459 14.4869 34.948C14.3853 34.9426 14.2994 34.8665 14.2994 34.7605C14.2994 34.663 14.3856 34.5674 14.4869 34.5729C14.6261 34.5804 14.7527 34.65 14.8919 34.6539C15.1331 34.6607 15.1333 35.0359 14.8919 35.0291ZM13.6768 41.0257H13.2717C13.03 41.0257 13.0304 40.6506 13.2717 40.6506H13.6768C13.9185 40.6506 13.9181 41.0257 13.6768 41.0257ZM13.2043 57.6125C13.0815 57.6739 12.9367 57.7324 12.8372 57.8263C12.6618 57.9922 12.3963 57.7273 12.572 57.561C12.6987 57.4411 12.8607 57.3658 13.015 57.2886C13.106 57.2431 13.2177 57.2635 13.2716 57.356C13.3203 57.4392 13.2949 57.5675 13.2043 57.6125ZM12.2993 52.8724C12.2836 52.8678 12.267 52.865 12.2511 52.8627C12.1873 52.8543 12.1206 52.8571 12.0565 52.8571C11.8148 52.8571 11.8152 52.4816 12.0565 52.4821C12.2468 52.4821 12.4447 52.4848 12.5942 52.6178C12.6702 52.6856 12.6628 52.8148 12.5942 52.8831C12.5197 52.9579 12.4046 52.9505 12.3291 52.8831C12.337 52.8905 12.3097 52.8752 12.2993 52.8724ZM12.0566 46.497C12.1112 46.3845 12.112 46.3115 12.1121 46.1865C12.1123 45.9449 12.4873 45.9453 12.4871 46.1865C12.487 46.3678 12.4601 46.5221 12.3805 46.6866C12.3361 46.7781 12.2062 46.8018 12.124 46.7539C12.0318 46.7 12.0125 46.588 12.0566 46.497ZM10.9723 37.6966C10.7547 37.7706 10.5606 37.8753 10.369 38.0018C10.1668 38.1353 9.97912 37.8103 10.1797 37.6779C10.3983 37.5336 10.6244 37.4193 10.8725 37.3348C11.102 37.2568 11.1996 37.6193 10.9723 37.6966ZM9.70726 31.3824C9.54568 31.387 9.37889 31.4489 9.23487 31.5189C9.01841 31.6241 8.82848 31.3004 9.04559 31.1949C9.25132 31.095 9.47639 31.0137 9.70726 31.0073C9.94915 31.0005 9.94812 31.3757 9.70726 31.3824ZM9.14021 48.2378C9.07664 48.241 9.02231 48.2067 8.98862 48.1569C8.98513 48.1569 8.98165 48.1569 8.97816 48.1569C8.87309 48.1569 8.79525 48.071 8.79065 47.9692C8.7861 47.8683 8.88011 47.7819 8.97816 47.7819C9.04439 47.7819 9.11005 47.7861 9.17158 47.8116C9.27089 47.8539 9.32368 47.9446 9.32772 48.0505C9.33172 48.1555 9.23859 48.2336 9.14021 48.2378ZM8.21793 35.2655C7.98757 35.3408 7.8898 34.9784 8.1182 34.9037C8.3863 34.8161 8.6603 34.7482 8.92834 34.6606C9.15866 34.5853 9.25648 34.9477 9.02803 35.0224C8.75998 35.11 8.48598 35.1778 8.21793 35.2655ZM7.37684 42.3467C7.30537 42.577 6.94349 42.4781 7.01515 42.247C7.08435 42.0238 7.08932 41.7993 7.08946 41.5675C7.0896 41.3257 7.46462 41.3261 7.46448 41.5675C7.46435 41.8313 7.45552 42.0928 7.37684 42.3467ZM4.86932 50.8281C4.85565 50.9215 4.78158 50.9889 4.68464 50.9931C4.58598 50.9977 4.49355 50.9039 4.49713 50.8058C4.504 50.6167 4.65792 50.4629 4.84669 50.4559C4.95166 50.4522 5.02979 50.5451 5.0342 50.6436C5.03852 50.7394 4.95854 50.8142 4.86932 50.8281ZM3.60036 40.0466C3.40216 40.1128 3.19043 40.1758 3.03508 40.3225C2.85951 40.4883 2.59397 40.2234 2.76986 40.0572C2.97471 39.8638 3.23825 39.7725 3.50068 39.6849C3.73048 39.6081 3.82812 39.9706 3.60036 40.0466ZM2.74031 47.3348C2.68584 47.4278 2.57552 47.4445 2.48378 47.4022C2.36077 47.3446 2.22494 47.3469 2.09231 47.3465C1.85065 47.3465 1.85103 46.9714 2.09231 46.9714C2.29692 46.9714 2.48564 46.991 2.67311 47.0779C2.76531 47.1211 2.78775 47.2535 2.74031 47.3348ZM2.25435 56.1793C2.14933 56.1835 2.07125 56.0906 2.06684 55.9921C2.06252 55.8963 2.14245 55.8215 2.23177 55.8076C2.24534 55.7142 2.31946 55.6468 2.41635 55.6421C2.5151 55.638 2.60749 55.7318 2.60391 55.8299C2.59699 56.0186 2.44317 56.1728 2.25435 56.1793ZM36.4223 57.5981C36.3586 57.3686 36.2128 57.1836 36.1027 56.9773C36.0657 56.9076 36.0528 56.8643 36.0328 56.8137C36.0056 56.8681 35.9528 56.909 35.8735 56.909C35.7212 56.909 35.5431 56.8992 35.401 56.9643C35.3086 57.0065 35.1998 56.9917 35.1445 56.8969C35.097 56.8155 35.1197 56.6826 35.2117 56.6403C35.4212 56.5446 35.6463 56.5339 35.8735 56.5335C35.9296 56.5335 35.9721 56.5544 36.0021 56.5855C36.0889 55.3963 36.0868 54.2062 36.0046 53.016C35.917 51.7441 35.7154 50.4977 35.5044 49.242C35.4022 48.6333 35.2696 48.0184 35.2953 47.3985C35.3211 46.7828 35.5851 46.2088 35.398 45.5912C35.323 45.3435 35.1946 45.1168 35.1111 44.8718C35.0216 44.6083 35.0295 44.3481 35.0703 44.0751C35.1542 43.5194 35.2934 42.9703 35.0707 42.4277C34.9723 42.1871 34.8129 41.9723 34.7361 41.7238C34.6404 41.4147 34.6536 41.0728 34.6376 40.7525C34.6052 40.1063 34.5968 39.4558 34.5433 38.811C34.5195 38.5221 34.4675 38.2483 34.3488 37.9833C34.2349 37.7282 34.0657 37.4961 33.9902 37.2255C33.9152 36.9591 33.9086 36.6782 33.8683 36.4057C33.8261 36.1178 33.76 35.8341 33.6709 35.5574C33.3268 34.4862 32.6963 33.524 31.9513 32.6897C31.1595 31.8029 30.213 31.1351 29.2083 30.5128C28.68 30.1855 28.1518 29.8583 27.6239 29.531C27.6126 29.5924 27.5735 29.6488 27.4983 29.674C27.3001 29.7402 27.0884 29.8031 26.933 29.9499C26.7575 30.1156 26.4919 29.8507 26.6678 29.6846C26.8512 29.5113 27.0819 29.4201 27.3166 29.3399C27.076 29.1883 26.8329 29.0312 26.5614 28.9436C26.3237 28.8667 25.9731 28.9338 25.7804 28.7593C25.629 28.6219 25.5811 28.3673 25.523 28.1806C25.4504 27.9489 25.3876 27.7046 25.2952 27.4795C25.2324 27.3257 25.1409 27.178 25.0256 27.0589C24.975 26.8638 24.8821 26.6855 24.7181 26.5772C24.2887 26.293 23.7612 26.5754 23.5723 26.9805C23.4162 26.9801 23.2517 27.0143 23.0998 27.0237C22.7875 27.0434 22.4749 27.0523 22.1622 27.0514C21.5504 27.0495 20.9381 27.0096 20.3314 26.9285C19.2467 26.7831 18.1942 26.49 17.1276 26.2616C17.1215 26.2475 17.1145 26.2335 17.1061 26.2194C16.8763 25.834 16.3039 25.8991 15.9434 26.045C15.7887 26.1073 15.6312 26.1861 15.5426 26.3325C15.4488 26.3957 15.3677 26.4727 15.3138 26.5538C15.2022 26.7212 15.116 27.0589 14.8895 27.087C14.7404 27.1053 14.589 27.0767 14.4376 27.0983C14.2482 27.1245 14.0785 27.1911 13.9036 27.2671C12.5722 27.8453 11.1958 28.4882 9.7509 28.7124C9.41198 28.7649 9.06693 28.8193 8.77253 29.0093C8.53343 29.1636 8.34866 29.3755 8.15134 29.5767C7.95913 29.7728 7.80066 29.8595 7.52643 29.8947C7.19355 29.9374 6.90524 30.0292 6.66197 30.2713C6.45991 30.4724 6.32816 30.7294 6.16969 30.9629C6.00839 31.2012 5.77166 31.3353 5.52601 31.4737C4.94516 31.801 4.40418 32.1964 3.933 32.6705C2.94055 33.6703 2.33953 34.9552 1.73382 36.2074C1.07889 37.5617 0.466632 38.9325 0.0421121 40.3788C-0.374275 41.7988 -0.621969 43.2596 -0.73629 44.7338C-0.856652 46.2813 -0.873846 47.8344 -0.974225 49.3824C-1.02395 50.1557 -1.06206 50.9299 -1.10063 51.7037C-1.13827 52.4681 -1.19311 53.234 -1.18428 53.9994C-1.16708 55.479 -0.871524 56.9633 -0.354293 58.3486C-0.225102 58.693 -0.0824333 59.0332 0.069994 59.3678C0.203833 59.6619 0.660743 59.6289 0.804202 59.3678C0.837011 59.3078 0.862801 59.246 0.884364 59.1833C1.25939 59.1865 1.63818 59.1573 2.01089 59.1921C2.66911 59.2535 3.32869 59.2878 3.98877 59.3287C5.29491 59.4096 6.60336 59.4635 7.90992 59.5383C8.03669 59.5453 8.16342 59.5527 8.29015 59.5602C7.35904 56.6775 7.47982 53.5607 7.33246 50.5628C7.32061 50.3207 7.69578 50.322 7.70753 50.5628C7.8555 53.5737 7.72951 56.6984 8.69352 59.5857C9.06753 59.6113 9.44102 59.642 9.81326 59.6875C10.1142 59.7233 10.4167 59.766 10.7204 59.7512C11.065 59.7349 11.4016 59.6559 11.7377 59.5876C12.3486 59.463 12.937 59.5193 13.5501 59.5959C14.206 59.6777 14.8642 59.7233 15.5243 59.7521C18.1674 59.8678 20.8284 59.9733 23.4706 59.7967C24.1101 59.754 24.7481 59.694 25.3833 59.6122C26.0378 59.5286 26.6852 59.3873 27.3392 59.3069C27.9838 59.2284 28.5764 59.4444 29.2135 59.4844C29.8632 59.5248 30.5304 59.3896 31.174 59.3115C31.3841 59.286 31.5942 59.2614 31.8045 59.2367C31.5338 57.3811 31.3799 55.5111 31.2304 53.642C31.2111 53.4008 31.5863 53.4031 31.6054 53.642C31.7537 55.4967 31.9042 57.3523 32.1745 59.1935C33.2891 59.0639 34.4048 58.9328 35.5077 58.7306C35.8218 58.6735 36.134 58.5801 36.322 58.2999C36.4612 58.0921 36.4894 57.8375 36.4223 57.5981Z" fill="#CF6262"/>
<path fill-rule="evenodd" clip-rule="evenodd" d="M27.9997 18.2399C27.8987 17.3529 28.0293 15.4988 28.0381 15.3861C28.0934 14.6741 27.7599 11.862 27.1293 12.1211C26.0716 11.2835 24.6628 11.0985 23.3454 11.0102C20.6091 10.8266 17.6981 11.248 15.5852 13.0901C14.5403 14.0467 13.523 15.4381 13.6048 16.8868C12.6554 18.26 11.317 20.1437 12.4999 21.7491C12.902 22.262 13.541 22.453 14.0462 22.8414C15.0621 23.6612 15.6995 24.8376 16.7252 25.6524C19.4424 28.095 24.0563 28.6052 26.7259 25.827C28.7903 23.815 28.4565 20.8049 28.0934 18.2399C27.8493 16.5155 28.1965 19.9704 27.9997 18.2399Z" fill="white"/>
<path fill-rule="evenodd" clip-rule="evenodd" d="M19.6901 7.24852C20.4219 7.10079 21.1733 7.00886 21.9207 7.03652L21.9783 7.03879C22.5406 7.06124 23.2527 7.11096 23.7432 7.43808C23.7714 7.40973 23.8168 7.39518 23.858 7.41484C24.4409 7.69316 25.082 7.89443 25.6958 8.09435C26.3068 8.29334 26.9406 8.42472 27.5809 8.47765C27.8218 8.49759 28.028 8.75783 27.8755 8.99121C27.8392 9.04684 27.8038 9.10302 27.7686 9.15934C27.8275 9.15321 27.8864 9.14684 27.9453 9.1409C28.139 9.12138 28.3326 9.32827 28.3211 9.51699C28.3139 9.63568 28.3011 9.75293 28.2822 9.86883C28.356 9.86729 28.4293 9.87836 28.5002 9.90833C28.8592 10.0599 28.8342 10.4876 28.8073 10.8129C28.7701 11.2645 28.6012 11.7427 28.2878 12.0807C28.5219 12.3238 28.6875 12.6142 28.7863 12.9591C28.8581 13.2109 28.8979 13.4791 28.8782 13.7413L28.8719 13.8198C28.8476 14.1043 28.7992 14.4192 28.5946 14.6239C28.4896 14.7294 28.3602 14.7678 28.2369 14.7557C28.3114 15.4112 28.3593 16.0706 28.4043 16.7276L28.4254 17.0417C28.5258 18.5602 28.6012 20.0885 28.5815 21.6095C28.5631 23.0309 28.2824 24.4106 27.4109 25.5648C26.6171 26.6157 25.4775 27.3904 24.1883 27.6849C23.4935 27.8439 22.7842 27.8552 22.081 27.7539C21.7401 27.7046 21.397 27.6291 21.0735 27.51C20.7154 27.3778 20.458 27.1831 20.217 26.8914C20.1031 26.7531 20.1579 26.4586 20.3849 26.4862C20.7281 26.5279 21.0414 26.5781 21.3705 26.6796L21.4176 26.6945C21.7453 26.7995 22.0847 26.8778 22.4274 26.9111C23.1292 26.9791 23.8418 26.9107 24.5141 26.6977C25.6088 26.3507 26.5516 25.5774 27.1558 24.6057C27.8731 23.454 27.9542 22.1465 27.9439 20.8221C27.9328 19.3689 27.8855 17.9148 27.8084 16.4631L27.7952 16.2211C27.7544 15.4741 27.7151 14.7266 27.6805 13.979C27.6696 13.7446 27.6532 13.5082 27.6237 13.2742C27.3532 13.1157 27.1109 12.8972 26.9528 12.6275C26.6354 12.7588 26.3017 12.8535 25.9946 12.929C25.2832 13.1041 24.5446 13.1465 23.8206 13.0369C23.6252 13.1177 23.4261 13.1886 23.2238 13.2496C23.1691 13.2739 23.1145 13.2977 23.0599 13.3211C22.5722 13.5298 22.0776 13.7066 21.563 13.836L21.4365 13.8675C21.1656 13.9344 20.8714 14.0001 20.5831 14.0208C20.5358 14.0391 20.4847 14.0545 20.4289 14.0682C20.1664 14.1319 19.8939 14.1521 19.6249 14.1296C19.3628 14.1076 19.1734 13.8426 19.3178 13.5945C19.4233 13.4135 19.5297 13.2329 19.6371 13.0528C19.2634 13.2085 18.8776 13.338 18.4885 13.4477C18.0957 13.5584 17.6972 13.6517 17.2982 13.7375C17.0848 13.783 16.8707 13.8233 16.6578 13.8688C16.5054 13.9012 16.2715 13.9181 16.1472 14.0184C16.0099 14.1287 15.971 14.3857 15.9189 14.5442C15.8505 14.75 15.7862 14.9568 15.7276 15.166C15.611 15.5834 15.5153 16.0068 15.4412 16.4345C15.3672 16.8627 15.3174 17.2951 15.2898 17.7289C15.2622 18.1622 15.2743 18.5983 15.2298 19.0298C15.2059 19.2586 14.9603 19.3763 14.7788 19.2164C14.7575 19.1977 14.7361 19.1787 14.7148 19.1595L14.6832 19.1306C14.528 18.9899 14.3775 18.8408 14.2533 18.6729C14.2308 18.642 14.2092 18.6096 14.1891 18.5768C14.1858 18.5768 14.183 18.5758 14.1797 18.5735L14.1453 18.5475C13.7661 18.2653 13.1327 17.8972 12.7629 18.3662C12.6451 18.5156 12.5848 18.7059 12.5348 18.8894L12.4469 19.2178C12.3901 19.4323 12.3366 19.6479 12.3054 19.8673C12.2345 20.3588 12.2702 20.9253 12.6082 21.3192C12.7433 21.4768 12.9294 21.5893 13.137 21.6189C13.2528 21.6348 13.3673 21.6151 13.4821 21.6006C13.5988 21.5861 13.7113 21.6095 13.8281 21.5983C14.0137 21.58 14.0949 21.8023 14.0255 21.942C13.9879 22.0171 13.9438 22.0817 13.8937 22.1366C13.934 22.1713 13.9725 22.2088 14.0095 22.2483C14.1192 22.2834 14.2176 22.3589 14.2912 22.4588C14.3508 22.5395 14.3817 22.6272 14.3869 22.7196C14.3934 22.7425 14.3991 22.766 14.4043 22.7899L14.5048 22.9532C14.527 22.989 14.549 23.0244 14.5711 23.0591C14.8271 23.4624 15.1112 23.8038 15.4642 24.1255C15.8041 24.435 16.173 24.7122 16.4923 25.0442L16.5299 25.0836C16.8276 25.3974 17.1414 25.7772 17.0249 26.2335C16.9949 26.3507 16.8312 26.4351 16.7244 26.3559C16.3808 26.1008 16.2077 25.6965 15.9162 25.387C15.6161 25.0681 15.2837 24.7816 14.9827 24.4636C14.6982 24.1635 14.4736 23.8235 14.3044 23.4493C14.2368 23.5238 14.1384 23.5768 14.002 23.5975C13.7676 23.6326 13.5491 23.4952 13.4469 23.2921C13.3813 23.3212 13.3143 23.3475 13.2467 23.3681C12.8914 23.4769 12.6678 23.0816 12.8019 22.7894C12.8735 22.6328 12.9631 22.4968 13.0742 22.3824C12.7268 22.3346 12.3733 22.1549 12.145 21.9308C11.5722 21.3675 11.4934 20.521 11.6223 19.7684C11.6908 19.3693 11.8089 18.9655 11.9622 18.5908C11.9889 18.5256 12.0176 18.46 12.0489 18.3952C12.0316 18.3948 12.0138 18.3873 12.0025 18.3727C11.8989 18.2311 11.7729 18.1153 11.6959 17.9568C11.6251 17.8114 11.5464 17.6641 11.4906 17.5127C11.3758 17.2027 11.3195 16.8528 11.282 16.525C11.2046 15.854 11.2346 15.1871 11.3373 14.5202C11.5121 13.3844 11.9344 12.2974 12.5566 11.3437C12.5227 11.3259 12.4902 11.3044 12.46 11.279L12.4451 11.2659L12.4208 11.244C12.2432 11.0833 12.2586 10.782 12.4208 10.6193L12.472 10.5679C12.5369 10.5034 12.5928 10.4523 12.6976 10.3822C12.7131 10.3718 12.7289 10.362 12.7449 10.3529C12.69 10.2516 12.671 10.133 12.7092 10.0022C12.8423 9.54655 13.4977 9.56267 13.9131 9.76139C14.3727 9.35109 14.8823 8.99493 15.4346 8.70652C16.7502 8.01995 18.2376 7.54115 19.6901 7.24852ZM12.89 19.2492C13.1357 19.169 13.462 19.3374 13.6827 19.4387C13.9626 19.5672 14.2008 19.7571 14.4315 19.9578C14.5463 20.0582 14.5669 20.2223 14.5383 20.3626C14.5355 20.3766 14.5327 20.3911 14.5294 20.4057C14.4989 20.5553 14.332 20.673 14.1844 20.6688C13.8754 20.6604 13.7282 20.3935 13.5533 20.1675C13.5327 20.2041 13.5069 20.2378 13.475 20.2631L13.4535 20.28C13.3809 20.3353 13.3009 20.3795 13.205 20.3752C13.137 20.3719 13.0719 20.3546 13.0119 20.3232C12.8618 20.2439 12.7958 20.0498 12.8365 19.8917C12.8618 19.7923 12.92 19.7144 12.9959 19.6605L12.9676 19.6411C12.907 19.599 12.8518 19.5545 12.8088 19.4889L12.799 19.4734H12.8028C12.7559 19.3927 12.7864 19.283 12.89 19.2492Z" fill="#CF6262"/>
<path fill-rule="evenodd" clip-rule="evenodd" d="M24.4608 23.9686C24.1154 24.0687 23.7447 24.0776 23.3927 23.9743C23.0734 23.8806 22.7456 23.6743 22.5106 23.4013C22.3018 23.1588 22.1666 22.8642 22.1719 22.5496C22.1725 22.5137 22.1854 22.4837 22.2051 22.4604C22.2264 22.4354 22.2561 22.4182 22.2879 22.4107C22.3206 22.403 22.3552 22.4057 22.3847 22.4191C22.4114 22.4312 22.4342 22.4518 22.4485 22.4819C22.4846 22.5293 22.5206 22.5761 22.5567 22.6216C22.8471 22.9803 23.1283 23.2483 23.5649 23.3445C23.8018 23.3966 24.0384 23.3735 24.2555 23.2939C24.4879 23.2087 24.698 23.0588 24.8626 22.8671C24.937 22.7805 25.0248 22.7451 25.1107 22.7445C25.2081 22.7439 25.3043 22.7891 25.3767 22.8614C25.448 22.9325 25.4957 23.029 25.5 23.1301C25.5038 23.2187 25.4749 23.3114 25.398 23.394C25.1445 23.6662 24.8161 23.8656 24.4608 23.9686ZM24.4501 19.4763C24.8041 19.6916 25.3435 20.1935 24.9627 20.7272C24.5144 21.1977 23.869 20.6582 23.5509 20.4142C23.256 20.2251 22.9247 20.7115 23.1983 20.9322C25.4966 22.6344 26.4293 19.5326 24.6292 19.2232C24.431 19.1891 24.3574 19.4097 24.4501 19.4763ZM21.1385 18.5292C21.0247 18.4564 20.8908 18.4314 20.7425 18.4989C20.6266 18.5516 20.4233 18.7274 20.2818 18.9585C20.185 19.1166 20.1163 19.3021 20.1307 19.4953C20.134 19.5401 20.1174 19.5732 20.0912 19.5977C20.0706 19.617 20.0408 19.6312 20.0057 19.6356C19.976 19.6394 19.9427 19.636 19.9157 19.6276C19.8642 19.6115 19.837 19.5781 19.8267 19.5508C19.7276 19.2876 19.7703 18.9939 19.8813 18.7289C20.0312 18.3713 20.3033 18.0718 20.4816 17.9752C20.7867 17.8099 21.1466 17.8023 21.4521 17.9707C21.7121 18.1141 21.8748 18.3455 22.0365 18.5814C22.0709 18.6315 22.105 18.6813 22.1403 18.7302C22.211 18.8282 22.218 18.9254 22.1906 19.0087C22.1603 19.101 22.083 19.1789 21.9863 19.2197C21.897 19.2574 21.7932 19.2627 21.7014 19.224C21.6239 19.1913 21.5528 19.1275 21.5078 19.0193C21.4319 18.8371 21.3056 18.6361 21.1385 18.5292ZM26.9173 18.9346C26.8394 18.9752 26.7784 18.9874 26.692 18.9615C26.6441 18.9472 26.5969 18.9196 26.5599 18.8826C26.5233 18.8459 26.4968 18.8004 26.4866 18.7497C26.4613 18.6249 26.393 18.508 26.2956 18.4318C26.2125 18.3667 26.1075 18.3322 25.991 18.3517C25.8654 18.3727 25.7457 18.4533 25.6632 18.5483C25.6356 18.5801 25.614 18.6162 25.5923 18.6522C25.5517 18.7192 25.5122 18.7816 25.4562 18.8309C25.4349 18.8496 25.4029 18.8626 25.3719 18.8626C25.3593 18.8626 25.3466 18.8605 25.3343 18.8567C25.2093 18.7312 25.1853 18.6359 25.1892 18.5414C25.1935 18.4423 25.2326 18.342 25.2957 18.2484C25.4437 18.0289 25.7247 17.8488 25.9144 17.808C26.1741 17.7522 26.4321 17.8192 26.6389 17.9644C26.8517 18.1137 27.0094 18.3455 27.0586 18.6068C27.0704 18.6697 27.0654 18.7376 27.0414 18.7965C27.018 18.8541 26.9772 18.9033 26.9173 18.9346ZM21.7113 16.1882C21.5555 16.3401 21.371 16.3637 21.1843 16.3846C21.0806 16.3964 20.9978 16.4058 20.9164 16.4242C20.6925 16.4748 20.4711 16.5509 20.2692 16.6606C20.0581 16.7753 19.828 16.9135 19.6625 17.0907C19.6232 17.1328 19.5861 17.177 19.549 17.2213C19.5151 17.2618 19.4825 17.3007 19.4481 17.3382C19.4086 17.3813 19.3711 17.4265 19.3338 17.4715C19.3107 17.5095 19.3062 17.5188 19.3015 17.5286C19.2945 17.5432 19.2864 17.5596 19.2771 17.5772C19.2644 17.6012 19.2495 17.6275 19.2338 17.6514C19.2079 17.695 19.194 17.707 19.1819 17.7124C19.162 17.7213 19.143 17.7257 19.1246 17.7233C19.1074 17.7211 19.0912 17.7128 19.0751 17.6993C18.9951 17.6316 18.9715 17.5206 18.9739 17.4028C18.9776 17.224 19.0435 17.026 19.1043 16.9043C19.2456 16.6215 19.4416 16.3276 19.6773 16.1165C19.9462 15.8757 20.2404 15.6933 20.5783 15.5676C20.7883 15.4895 21.0314 15.4178 21.2602 15.4268C21.4249 15.4333 21.5821 15.4823 21.7119 15.6046C21.7917 15.6796 21.8299 15.7864 21.8299 15.8931C21.8299 16.002 21.7902 16.1114 21.7113 16.1882ZM27.2343 17.5794C27.2244 17.5957 27.2107 17.6069 27.1954 17.6136C27.1794 17.6206 27.1616 17.6227 27.1444 17.6198C27.1273 17.6169 27.1111 17.6091 27.0982 17.5973C27.0859 17.586 27.0765 17.5709 27.0723 17.5525C26.9688 17.0979 26.7678 16.7595 26.339 16.5414C26.128 16.4341 25.8853 16.3659 25.6557 16.3116C25.589 16.2958 25.5184 16.2855 25.4474 16.2751C25.2248 16.2426 25.0006 16.2054 24.8555 16.0254C24.7681 15.917 24.7314 15.7783 24.7521 15.6516C24.7717 15.5322 24.8414 15.4227 24.9682 15.3571C25.2838 15.1939 25.676 15.3541 25.9948 15.4905C26.0184 15.5006 26.0416 15.5106 26.0643 15.5201C26.376 15.6518 26.6603 15.8255 26.894 16.0739C27.0794 16.271 27.2512 16.5624 27.3204 16.8622C27.3779 17.1115 27.3644 17.3661 27.2343 17.5794Z" fill="#CF6262"/>
<path fill-rule="evenodd" clip-rule="evenodd" d="M25.4431 24.726C25.0065 24.3369 24.5171 23.5547 23.8899 24.1736C23.7347 24.3485 23.6719 24.7405 23.4347 24.8175C23.1197 24.9197 22.8074 24.5863 22.7001 24.3302C22.2608 22.9075 24.0767 22.5173 25.1111 22.7471C25.6165 22.9548 25.9888 23.7904 26.0113 24.2266C26.0258 24.5197 25.7778 24.9506 25.4431 24.726ZM28.7369 22.5332C28.7326 22.5143 28.7267 22.4972 28.7195 22.4816C28.5264 22.4086 28.3736 22.4831 28.2792 22.6222C28.2823 22.6568 28.2926 22.6918 28.2992 22.7261C28.2263 22.8796 28.1606 23.0696 28.0618 23.2023C28.0424 23.2038 28.0221 23.2017 28.0027 23.1961C26.366 23.3671 27.1651 21.654 25.5049 21.2285C24.2217 21.0167 21.9023 21.2593 21.2969 22.5955C20.8195 24.7296 18.3919 23.2425 17.5948 22.1326C16.7443 21.1225 16.1944 19.8882 15.6642 18.6905C15.5522 18.437 15.2025 18.6183 15.2405 18.8614C14.7504 19.8449 14.7667 21.0262 14.6453 22.1036C14.4389 24.2531 14.2377 27.2675 16.2343 28.58C18.8355 31.5212 25.3312 32.5591 28.3315 29.8567C29.3701 27.623 29.2421 24.898 28.7369 22.5332Z" fill="#CF6262"/>
<path fill-rule="evenodd" clip-rule="evenodd" d="M27.0283 15.9888C28.1287 15.9888 28.7566 16.2255 28.9867 16.244L28.9936 16.2445C29.0893 16.2506 29.1752 16.2586 29.2653 16.2935C29.5965 16.4211 29.6505 16.7686 29.4572 16.9876C29.4436 17.4408 29.5032 17.9703 29.401 18.425C29.2748 20.3417 28.3738 20.6651 27.8615 20.7831C27.6044 20.8424 27.2996 20.866 27.0265 20.8034C26.5605 20.7861 26.0998 20.6401 25.7056 20.386C25.1567 20.0319 24.749 19.4875 24.6167 18.8415C24.554 18.5336 24.5247 18.2131 24.5588 17.9L24.5639 17.8569C24.3854 17.7715 24.1787 17.7554 23.9655 17.7478C23.8637 17.7442 23.7633 17.741 23.6658 17.7453C23.5706 17.756 23.4764 17.7701 23.3819 17.7894C23.2788 17.8206 23.1814 17.8719 23.0915 17.9533L23.0853 18.0721C23.0684 18.3687 23.0295 18.6663 22.9694 18.9574C22.8807 19.3868 22.7381 19.797 22.4346 20.1016C22.3318 20.2551 22.2047 20.3921 22.0503 20.5108C21.4896 20.9426 20.7278 21.1012 20.0286 21.0415C18.6092 20.9203 17.7888 19.7932 17.5997 19.3114L17.5884 19.2822C17.4518 18.9241 17.3429 18.4594 16.9114 18.3824L16.8196 18.3659C16.6226 18.3289 16.4409 18.2774 16.3254 18.0852C16.2748 18.0013 16.2488 17.9074 16.2424 17.8117C16.175 17.8169 16.1077 17.8219 16.0407 17.8267C15.5058 17.9398 12.2979 18.0358 12.0419 18.0358C12.0419 18.0358 11.5496 18.243 11.3418 18.0824C11.1978 17.9708 11.1504 17.822 11.2297 17.6534C11.3493 17.3998 11.9013 17.2472 12.1464 17.1989C12.1464 17.1989 16.1014 17.2317 16.3861 17.1777C16.5623 16.9961 16.8773 17.0209 17.1406 16.9922C17.3585 16.8368 17.6634 16.7327 17.9042 16.663C17.9533 16.6444 18.0019 16.6264 18.0491 16.6094C18.4906 16.4522 18.9495 16.3688 19.4154 16.3241C19.8958 16.2784 20.3777 16.2991 20.8553 16.3646C21.0566 16.3919 21.256 16.4272 21.454 16.4734C21.8085 16.5201 22.1609 16.5971 22.5156 16.6885L22.5866 16.707C22.96 16.8049 23.3438 16.8896 23.7304 16.8232C24.0451 16.7695 24.3478 16.6483 24.638 16.5173L24.6758 16.5002C25.3139 16.2087 26.3104 15.9888 27.0283 15.9888ZM21.4156 17.0544C21.1802 17.0026 21.0796 17.3657 21.3158 17.4177C21.4831 17.4545 21.6248 17.5388 21.7206 17.6818L21.7307 17.6973C21.8592 17.9018 22.1841 17.713 22.0547 17.5071C21.9091 17.2754 21.6829 17.1132 21.4156 17.0544ZM28.3111 16.8293C28.2281 16.7708 28.1025 16.8142 28.0544 16.8968C28.0013 16.9878 28.036 17.0892 28.1138 17.1487L28.1217 17.1545C28.193 17.2048 28.2625 17.2949 28.2712 17.3872L28.2719 17.3988C28.2813 17.6404 28.6567 17.6416 28.6473 17.3988C28.6381 17.1612 28.5006 16.9627 28.3111 16.8293Z" fill="#CF6262"/>
</g>
</g>
<defs>
<linearGradient id="paint0_linear_1_107" x1="20.5" y1="0" x2="20.5" y2="41" gradientUnits="userSpaceOnUse">
<stop stop-color="#833AB4"/>
<stop offset="0.5" stop-color="#FD1D1D"/>
<stop offset="1" stop-color="#FCB045"/>
</linearGradient>
<clipPath id="clip0_1_107">
<rect width="41" height="41" fill="white"/>
</clipPath>
</defs>
</svg>
