<svg width="41" height="41" viewBox="0 0 41 41" fill="none" xmlns="http://www.w3.org/2000/svg">
<circle cx="20.5" cy="20.5" r="19.5" stroke="url(#paint0_linear_1_149)" stroke-width="2"/>
<circle cx="20.5965" cy="20.5965" r="15.4284" fill="#A6CFAC"/>
<mask id="mask0_1_149" style="mask-type:alpha" maskUnits="userSpaceOnUse" x="5" y="5" width="32" height="32">
<circle cx="20.5965" cy="20.5965" r="15.4284" fill="#C4C4C4"/>
</mask>
<g mask="url(#mask0_1_149)">
<path fill-rule="evenodd" clip-rule="evenodd" d="M20.3437 26.2623C22.5748 27.6071 24.7669 28.2568 25.796 27.9916C28.3763 27.3265 28.6136 17.8868 26.617 14.1654C24.6205 10.444 14.3566 8.82202 13.8393 16.1953C13.6597 18.7543 14.7343 21.0381 16.3219 22.9016L13.4752 36.1697H21.7441L20.3437 26.2623Z" fill="#B28B67"/>
<path fill-rule="evenodd" clip-rule="evenodd" d="M20.7571 17.0096C21.4724 15.9446 22.1591 15.1323 23.0523 14.6605C26.6875 14.718 27.1131 14.0663 27.1131 11.8698C26.526 11.4496 24.4543 10.7422 22.1342 10.5432C20.9506 10.2045 19.5486 10.2682 18.1979 10.8332C16.5306 11.3062 15.1188 12.325 14.4952 14.2324C12.2391 18.1259 13.9515 22.179 16.2592 23.5635C16.8735 22.8357 17.4096 22.1304 17.8879 21.4553C17.5037 21.0799 17.2651 20.556 17.2651 19.9764C17.2651 18.8347 18.1907 17.9092 19.3324 17.9092C19.4163 17.9092 19.4991 17.9142 19.5804 17.9239C19.6318 19.3513 19.8432 24.1807 20.3985 25.8582C21.0533 27.8359 24.8738 28.3215 26.2063 28.3215C27.3572 28.3215 27.318 27.2316 27.2899 26.4506C27.2859 26.3381 27.282 26.232 27.282 26.1365C27.282 25.937 27.0225 25.9375 26.7293 25.9381C26.3485 25.9388 25.911 25.9397 25.911 25.5028C25.911 25.0266 26.569 24.6614 27.1579 24.3345C27.5253 24.1306 27.8657 23.9416 28.0027 23.75C28.4346 23.1454 28.5801 22.33 27.9284 22.33C27.5723 22.33 27.0836 22.5353 26.4957 22.7824C25.6082 23.1553 24.4944 23.6233 23.269 23.6233C21.2446 23.6233 20.7631 17.0913 20.7571 17.0096Z" fill="#191847"/>
</g>
<defs>
<linearGradient id="paint0_linear_1_149" x1="20.5" y1="0" x2="20.5" y2="41" gradientUnits="userSpaceOnUse">
<stop stop-color="#833AB4"/>
<stop offset="0.5" stop-color="#FD1D1D"/>
<stop offset="1" stop-color="#FCB045"/>
</linearGradient>
</defs>
</svg>
