<svg width="18" height="19" viewBox="0 0 18 19" fill="none" xmlns="http://www.w3.org/2000/svg">
<path fill-rule="evenodd" clip-rule="evenodd" d="M18 9.5167C18 14.5701 13.9706 18.6667 9 18.6667C4.02944 18.6667 0 14.5701 0 9.5167C0 4.46329 4.02944 0.366699 9 0.366699C13.9706 0.366699 18 4.46329 18 9.5167ZM9.03684 4.60075C9.3732 4.60075 9.64587 4.87342 9.64587 5.20978V8.93503H13.29C13.6319 8.93503 13.9091 9.21225 13.9091 9.55421C13.9091 9.89617 13.6319 10.1734 13.29 10.1734H9.64587V13.8986C9.64587 14.235 9.3732 14.5076 9.03684 14.5076C8.70049 14.5076 8.42781 14.235 8.42781 13.8986V10.1734H4.78385C4.44189 10.1734 4.16467 9.89617 4.16467 9.55421C4.16467 9.21225 4.44189 8.93503 4.78385 8.93503H8.42781V5.20978C8.42781 4.87342 8.70049 4.60075 9.03684 4.60075Z" fill="white"/>
</svg>
