<svg width="168" height="48" viewBox="0 0 168 48" fill="none" xmlns="http://www.w3.org/2000/svg">
<g clip-path="url(#clip0_1_18)">
<path d="M8.66986 0.165482C5.2325 1.60286 1.45427 5.65846 0.260888 10.753C-1.25067 17.2058 5.03838 19.9353 5.55462 19.0416C6.16168 17.9901 4.4277 17.6347 4.07071 14.2863C3.60941 9.96172 5.62339 5.12962 8.15822 3.00936C8.62873 2.6152 8.60669 3.16374 8.60669 4.17772C8.60669 5.99119 8.50633 22.2714 8.50633 25.6691C8.50633 30.2663 8.31616 31.7181 7.9743 33.1529C7.62849 34.6064 7.07177 35.5888 7.49326 35.9672C7.96442 36.3903 9.9761 35.3835 11.1405 33.7612C12.5369 31.8154 13.0259 29.478 13.1137 26.9406C13.2197 23.8812 13.2151 19.0265 13.2197 16.2575C13.2236 13.7181 13.2624 6.28189 13.1749 1.81144C13.1535 0.714352 10.1074 -0.435944 8.66986 0.165482" fill="#1E2A37"/>
<path d="M130.745 21.6812C130.634 24.0714 130.104 25.9394 129.446 27.2572C128.173 29.8084 125.531 30.6004 124.409 26.9334C123.798 24.9343 123.769 21.5958 124.208 18.8061C124.656 15.9645 125.905 13.8183 127.974 14.0117C130.015 14.2032 130.97 16.828 130.745 21.6815V21.6812ZM96.3451 36.5102C96.3175 40.4814 95.6914 43.9631 94.3489 44.9748C92.4445 46.4089 89.885 45.3328 90.4151 42.4351C90.8839 39.8707 93.1019 37.2519 96.3507 34.0519C96.3507 34.0519 96.3573 34.7818 96.3451 36.5102ZM95.8253 21.6578C95.7088 23.8349 95.1435 26.0215 94.5266 27.2572C93.2533 29.8084 90.5921 30.606 89.4892 26.9334C88.7351 24.4239 88.9157 21.1766 89.2885 19.1303C89.7728 16.4753 90.9468 14.0121 93.0542 14.0121C95.1034 14.0121 96.1142 16.2565 95.8253 21.6578ZM75.8977 21.625C75.7727 23.9302 75.3223 25.8573 74.5994 27.2572C73.2912 29.791 70.703 30.5945 69.562 26.9334C68.7391 24.2935 69.0191 20.6941 69.3613 18.7496C69.8693 15.864 71.1413 13.8183 73.127 14.0121C75.1666 14.2111 76.158 16.828 75.8977 21.625V21.625ZM167.22 24.3178C166.722 24.3178 166.494 24.8308 166.306 25.6941C165.653 28.6976 164.966 29.3752 164.082 29.3752C163.093 29.3752 162.205 27.8885 161.976 24.912C161.797 22.5713 161.826 18.2625 162.055 13.9763C162.102 13.0957 161.858 12.2242 159.492 11.3663C158.474 10.9971 156.994 10.4535 156.257 12.2292C154.176 17.2462 153.361 21.2292 153.169 22.8466C153.159 22.9303 153.056 22.9477 153.039 22.752C152.916 21.4562 152.643 19.101 152.609 14.1536C152.603 13.1883 152.398 12.3668 151.331 11.6941C150.638 11.2572 148.535 10.4853 147.778 11.404C147.122 12.1549 146.362 14.1763 145.573 16.5728C144.931 18.5206 144.484 19.8378 144.484 19.8378C144.484 19.8378 144.493 14.583 144.5 12.5895C144.504 11.8376 143.987 11.587 143.831 11.5417C143.13 11.3387 141.748 10.9994 141.162 10.9994C140.438 10.9994 140.261 11.4027 140.261 11.9913C140.261 12.0685 140.147 18.9099 140.147 23.6937C140.147 23.9016 140.147 24.1282 140.148 24.3693C139.748 26.5681 138.45 29.5526 137.038 29.5526C135.625 29.5526 134.958 28.305 134.958 22.6019C134.958 19.2748 135.058 17.8279 135.107 15.4215C135.136 14.0354 135.191 12.9712 135.188 12.7297C135.177 11.989 133.895 11.6156 133.298 11.4776C132.698 11.3387 132.177 11.2845 131.77 11.3078C131.193 11.3406 130.786 11.7174 130.786 12.2364C130.786 12.5149 130.789 13.0438 130.789 13.0438C130.047 11.8797 128.854 11.0697 128.06 10.8348C125.921 10.2009 123.69 10.7625 122.006 13.114C120.668 14.982 119.862 17.0984 119.545 20.1383C119.313 22.3611 119.388 24.6147 119.801 26.5208C119.302 28.6716 118.377 29.5526 117.364 29.5526C115.894 29.5526 114.828 27.1567 114.951 23.0121C115.033 20.2862 115.579 18.3732 116.177 15.6055C116.431 14.4256 116.224 13.8081 115.705 13.2162C115.229 12.6732 114.215 12.3957 112.757 12.7366C111.719 12.98 110.234 13.2418 108.875 13.4428C108.875 13.4428 108.958 13.116 109.025 12.5405C109.378 9.52191 106.092 9.76662 105.044 10.7307C104.418 11.3065 103.992 11.9854 103.831 13.206C103.574 15.1433 105.156 16.0571 105.156 16.0571C104.638 18.43 103.365 21.5294 102.05 23.7705C101.347 24.9711 100.808 25.8609 100.113 26.8066C100.09 23.0115 100.115 19.2163 100.188 15.4219C100.216 14.0357 100.272 12.9997 100.269 12.758C100.261 12.2167 99.944 12.0117 99.285 11.7529C98.702 11.5236 98.013 11.3653 97.298 11.3094C96.3958 11.2398 95.8523 11.7171 95.8667 12.282C95.8694 12.3888 95.8694 13.0438 95.8694 13.0438C95.1274 11.8797 93.934 11.0697 93.1401 10.8348C91.0014 10.2009 88.7699 10.7625 87.0866 13.114C85.7491 14.982 84.8733 17.6039 84.6248 20.1153C84.3939 22.4557 84.4363 24.4446 84.7515 26.1204C84.4116 27.7982 83.4338 29.5529 82.3286 29.5529C80.9151 29.5529 80.1109 28.305 80.1109 22.6019C80.1109 19.2748 80.2109 17.8279 80.2603 15.4215C80.2889 14.0357 80.3439 12.9712 80.3409 12.7297C80.3304 11.989 79.0475 11.6159 78.4503 11.4776C77.8258 11.3331 77.2866 11.2805 76.8723 11.3111C76.3261 11.3515 75.9418 11.8399 75.9418 12.2042V13.0438C75.1999 11.8797 74.0065 11.0697 73.2125 10.8348C71.0739 10.2009 68.8549 10.7717 67.1591 13.114C66.0536 14.6411 65.1583 16.334 64.6976 20.0818C64.5644 21.1648 64.5055 22.1794 64.5134 23.1271C64.0725 25.8192 62.1246 28.9219 60.5318 28.9219C59.5997 28.9219 58.7116 27.1166 58.7116 23.27C58.7116 18.1459 59.0295 10.8499 59.0834 10.147C59.0834 10.147 61.0961 10.1128 61.4857 10.1082C62.4899 10.0971 63.399 10.121 64.7365 10.0524C65.407 10.0186 66.0532 7.61516 65.3609 7.31789C65.0471 7.18322 62.8297 7.06563 61.9506 7.04691C61.2116 7.03048 59.1538 6.87807 59.1538 6.87807C59.1538 6.87807 59.3384 2.03546 59.3815 1.52404C59.4177 1.09736 58.865 0.877942 58.5484 0.744913C57.7779 0.419729 57.0885 0.263707 56.2716 0.095531C55.1423 -0.137025 54.6304 0.0906039 54.5304 1.04152C54.3797 2.48514 54.3017 6.71351 54.3017 6.71351C53.4732 6.71351 50.6429 6.5519 49.8144 6.5519C49.0445 6.5519 48.2134 9.85761 49.2781 9.89834C50.5027 9.94564 52.6371 9.98703 54.0519 10.0291C54.0519 10.0291 53.9888 17.4452 53.9888 19.7353C53.9888 19.9784 53.9901 20.2132 53.9914 20.4409C53.2126 24.4925 50.4698 26.6814 50.4698 26.6814C51.0588 24.0008 49.8555 21.9876 47.6882 20.2835C46.8897 19.6558 45.3133 18.4671 43.5497 17.1644C43.5497 17.1644 44.571 16.1593 45.4772 14.1372C46.1188 12.7044 46.1467 11.0657 44.571 10.7041C41.9678 10.1063 39.8215 12.015 39.1812 14.0528C38.685 15.6314 38.9496 16.8024 39.9215 18.0191C39.9923 18.1081 40.0696 18.1991 40.1486 18.2904C39.5612 19.421 38.7538 20.9434 38.0701 22.1239C36.1723 25.402 34.7387 27.9943 33.6552 27.9943C32.7892 27.9943 32.8007 25.362 32.8007 22.8975C32.8007 20.7729 32.958 17.5786 33.0837 14.2719C33.1251 13.1781 32.577 12.555 31.659 11.9907C31.101 11.6478 29.9102 10.9737 29.2206 10.9737C28.1881 10.9737 25.2097 11.114 22.3959 19.2403C22.0412 20.2645 21.3443 22.1308 21.3443 22.1308L21.4045 12.3586C21.4045 12.1293 21.2821 11.9079 21.0021 11.7565C20.528 11.4993 19.2616 10.9737 18.1353 10.9737C17.599 10.9737 17.3308 11.2227 17.3308 11.7194L17.2328 27.0083C17.2328 28.17 17.2631 29.5253 17.3782 30.1179C17.4927 30.7111 17.6786 31.1939 17.9083 31.481C18.1383 31.7678 18.4038 31.9869 18.8417 32.0769C19.2494 32.1606 21.4815 32.4467 21.5977 31.5953C21.7365 30.5744 21.7421 29.4708 22.9141 25.3538C24.7389 18.944 27.1178 15.817 28.2365 14.7061C28.4322 14.5123 28.6553 14.5005 28.6444 14.8181C28.5971 16.2233 28.4289 19.7353 28.3161 22.7178C28.013 30.7012 29.4677 32.181 31.5468 32.181C33.1373 32.181 35.3793 30.6033 37.7825 26.6098C39.1216 24.3843 40.4545 22.1551 41.7812 19.9222C42.5093 20.5952 43.327 21.3195 44.1436 22.0934C46.0421 23.8921 46.6653 25.6014 46.2517 27.2227C45.9358 28.4621 44.7444 29.7395 42.6245 28.4982C42.0066 28.1359 41.7427 27.8557 41.1215 27.4474C40.7879 27.2283 40.2782 27.1626 39.9725 27.3926C39.1789 27.9897 38.7249 28.7498 38.4656 29.6905C38.2136 30.606 39.1319 31.0898 40.0841 31.5132C40.9037 31.8775 42.6656 32.2076 43.7889 32.245C48.1666 32.3912 51.6737 30.1349 54.1151 24.3148C54.5521 29.3414 56.4117 32.1856 59.6431 32.1856C61.8035 32.1856 63.9695 29.3979 64.9168 26.6555C65.1885 27.7733 65.5913 28.7455 66.1111 29.5677C68.6009 33.506 73.431 32.6586 75.8573 29.3141C76.6074 28.2807 76.7216 27.9096 76.7216 27.9096C77.0756 31.0671 79.623 32.1705 81.0812 32.1705C82.7148 32.1705 84.4011 31.3995 85.5833 28.7429C85.7218 29.0313 85.8732 29.3069 86.0384 29.5677C88.5281 33.506 93.3585 32.6586 95.7848 29.3141C95.8993 29.1571 95.9987 29.0152 96.0852 28.8871L96.1563 30.9614L93.9225 33.0067C90.1782 36.4327 87.3341 39.0309 87.1248 42.057C86.8583 45.9155 89.9913 47.3496 92.3649 47.5375C94.881 47.7369 97.0397 46.3481 98.3644 44.4046C99.5305 42.6936 100.294 39.0115 100.238 35.375C100.215 33.9186 100.178 32.067 100.15 30.0821C101.464 28.5583 102.945 26.6322 104.309 24.3782C105.794 21.9216 107.387 18.6225 108.202 16.0548C108.202 16.0548 109.586 16.067 111.063 15.9704C111.535 15.9395 111.671 16.0361 111.583 16.3813C111.478 16.7991 109.717 23.5764 111.324 28.0912C112.423 31.1821 114.902 32.176 116.371 32.176C118.092 32.176 119.737 30.8793 120.619 28.9538C120.726 29.1683 120.837 29.3759 120.958 29.568C123.448 33.5063 128.261 32.6533 130.704 29.3141C131.256 28.5606 131.569 27.9096 131.569 27.9096C132.093 31.1778 134.639 32.1872 136.097 32.1872C137.616 32.1872 139.058 31.5654 140.227 28.8027C140.277 30.0193 140.353 31.0139 140.475 31.3273C140.549 31.5194 140.98 31.7599 141.294 31.8762C142.684 32.3905 144.101 32.1475 144.625 32.0417C144.989 31.9681 145.272 31.6771 145.311 30.9262C145.413 28.9538 145.35 25.6399 145.949 23.1767C146.954 19.0436 147.892 17.4403 148.337 16.6467C148.586 16.2016 148.867 16.1284 148.877 16.5991C148.898 17.5517 148.945 20.3479 149.335 24.1056C149.621 26.8687 150.003 28.5021 150.297 29.0195C151.135 30.4976 152.17 30.5675 153.013 30.5675C153.549 30.5675 154.671 30.4197 154.57 29.479C154.521 29.0205 154.607 26.1864 155.598 22.1144C156.245 19.4551 157.324 17.0527 157.714 16.1741C157.857 15.8502 157.924 16.1054 157.922 16.1553C157.84 17.9865 157.656 23.9765 158.403 27.2526C159.416 31.6906 162.347 32.1872 163.368 32.1872C165.548 32.1872 167.331 30.5317 167.932 26.1756C168.076 25.1271 167.862 24.3178 167.22 24.3178Z" fill="#1E2A37"/>
</g>
<defs>
<clipPath id="clip0_1_18">
<rect width="168" height="47.8248" fill="white"/>
</clipPath>
</defs>
</svg>
