<svg width="64" height="64" viewBox="0 0 64 64" fill="none" xmlns="http://www.w3.org/2000/svg">
<circle cx="31.78" cy="31.78" r="31.78" fill="#FCB045"/>
<mask id="mask0_1_201" style="mask-type:alpha" maskUnits="userSpaceOnUse" x="0" y="0" width="64" height="64">
<circle cx="31.78" cy="31.78" r="31.78" fill="#C4C4C4"/>
</mask>
<g mask="url(#mask0_1_201)">
<path fill-rule="evenodd" clip-rule="evenodd" d="M66.0321 112.424C62.8098 112.434 59.6789 112.545 56.4477 112.555C43.3127 112.599 30.0568 112.536 16.8743 112.003C13.1484 111.852 12.2183 111.856 8.50853 111.623C6.31807 111.614 -0.261544 111.433 0.0678436 108.449C0.213249 102.891 1.589 97.355 2.02234 91.8116C2.854 81.3907 3.56217 70.6435 7.73824 60.8964C8.70486 58.5687 10.7808 57.0465 12.8359 55.6776C14.8968 54.201 15.4026 52.5614 17.3047 50.8932C17.7069 50.5405 19.9908 50.397 21.2197 49.5022C23.0082 48.1999 23.8952 46.0678 24.5626 45.7049C25.0535 45.4379 25.0445 43.5954 26.0288 42.9433C27.3495 42.0682 31.5581 41.4175 33.0893 41.2958C34.5589 41.1789 37.1152 41.4243 38.4941 41.9626C40.7936 42.8604 41.7107 44.5728 42.7234 46.7791C56.1025 50.9153 68.3312 57.9196 72.129 72.0474C75.4042 83.8962 75.5239 96.5998 74.2584 108.752C74.0057 109.64 74.1828 111.033 73.4155 111.623C76.0829 111.776 66.394 112.326 66.0321 112.424Z" fill="white"/>
<path fill-rule="evenodd" clip-rule="evenodd" d="M5.17901 100.724C5.4322 100.598 5.69612 100.454 5.9853 100.443C6.48182 100.426 6.48249 99.6533 5.9853 99.6706C5.55157 99.6859 5.17069 99.8668 4.78913 100.057C4.34382 100.279 4.73552 100.946 5.17901 100.724ZM5.9853 78.9723C5.64644 78.9726 5.30489 79.0154 5.04462 79.2525C4.88993 79.3935 4.90218 79.6563 5.04462 79.7989C5.19711 79.9513 5.4368 79.9394 5.59101 79.7989C5.54066 79.8446 5.59053 79.7992 5.60872 79.7891C5.61312 79.7868 5.61552 79.7852 5.61667 79.7841C5.6205 79.7832 5.62442 79.7824 5.63064 79.7808C5.67104 79.7706 5.71095 79.7607 5.75173 79.7533C5.7524 79.7552 5.83798 79.7476 5.85808 79.7468C5.90059 79.7453 5.94289 79.7451 5.9853 79.7451C6.19484 79.745 6.37155 79.5684 6.37155 79.3587C6.37155 79.15 6.19407 78.9722 5.9853 78.9723ZM9.61766 87.6409C9.72831 88.1262 10.473 87.9194 10.3626 87.4351C10.2021 86.7315 10.2313 86.0097 10.3626 85.3033C10.4529 84.817 9.70831 84.6103 9.61766 85.0984C9.46019 85.9456 9.42496 86.7956 9.61766 87.6409ZM10.5934 59.8676C11.1687 59.7309 11.7378 59.7147 12.3263 59.7145C12.8241 59.7143 12.8234 58.9415 12.3263 58.9417C11.6699 58.9419 11.0291 58.9701 10.3879 59.1224C9.90378 59.2375 10.1101 59.9824 10.5934 59.8676ZM12.5212 78.6908C12.8549 78.5239 13.1887 78.357 13.5223 78.19C13.9677 77.9674 13.576 77.301 13.1325 77.5227L12.1313 78.0236C11.6861 78.2462 12.0778 78.9126 12.5212 78.6908ZM12.6602 93.9089C13.0835 94.5196 13.6786 94.8987 14.3928 95.0882C14.8746 95.2155 15.0783 94.4699 14.5982 94.3425C14.0874 94.2076 13.6337 93.9606 13.3273 93.5193C13.0455 93.1125 12.3761 93.4992 12.6602 93.9089ZM15.3295 66.7007C15.4441 66.4867 15.6165 66.3962 15.8305 66.3914C16.3275 66.38 16.3276 65.6073 15.8305 65.6186C15.3428 65.6297 14.8956 65.8746 14.6626 66.3107C14.428 66.7496 15.0952 67.1395 15.3295 66.7007ZM20.2296 71.9536C20.3681 72.1044 20.6366 72.1006 20.7759 71.9536C20.8612 71.8635 20.9328 71.7629 20.9891 71.6527C21.0106 71.6109 21.0308 71.5683 21.0543 71.5276C21.0649 71.5096 21.0765 71.4916 21.0885 71.4742C21.0926 71.4707 21.1009 71.4619 21.1097 71.4528C21.2581 71.2958 21.2543 71.064 21.1097 70.9063C20.9711 70.7554 20.7025 70.7592 20.5633 70.9063C20.4782 70.9963 20.4064 71.0969 20.3501 71.2071C20.3286 71.249 20.3084 71.2916 20.2848 71.3323C20.2743 71.3503 20.2626 71.3682 20.2506 71.3856C20.2466 71.3892 20.2383 71.3979 20.2296 71.4071C20.0811 71.5641 20.0848 71.7958 20.2296 71.9536ZM20.6416 83.3649C21.1446 83.5946 21.6964 83.5946 22.1996 83.3649C22.3901 83.2778 22.4352 83.0021 22.338 82.8355C22.2254 82.6431 21.9991 82.6106 21.8096 82.6977C21.5814 82.802 21.2593 82.802 21.0313 82.6977C20.841 82.6106 20.6169 82.6412 20.5029 82.8355C20.4051 83.003 20.4517 83.2778 20.6416 83.3649ZM22.0139 91.4421C22.1003 91.646 22.287 91.7551 22.5052 91.7637C22.7214 91.7714 22.8824 91.5799 22.8915 91.377C22.8972 91.2459 22.8265 91.1339 22.7248 91.0649C22.7246 91.0573 22.7244 91.0506 22.7244 91.0429C22.7243 90.8266 22.5475 90.6658 22.3382 90.6572C22.1297 90.6476 21.9518 90.8409 21.9519 91.0429C21.952 91.1798 21.9604 91.3148 22.0139 91.4421ZM24.0069 104.283C24.6235 104.292 25.2259 104.44 25.8425 104.449C26.3406 104.458 26.3391 103.685 25.8425 103.677C25.226 103.667 24.6236 103.52 24.0069 103.51C23.5088 103.501 23.5103 104.275 24.0069 104.283ZM26.5706 54.7605C26.9315 55.1045 27.3773 55.2739 27.8169 55.4887C28.2622 55.7064 28.6534 55.0397 28.2067 54.8214C27.8344 54.6394 27.4222 54.5049 27.1168 54.2141C26.7566 53.871 26.2097 54.4169 26.5706 54.7605ZM27.5393 63.6679C27.7925 63.5414 28.0565 63.3969 28.3454 63.3868C28.8421 63.3694 28.8427 62.5966 28.3454 62.614C27.9118 62.6291 27.531 62.81 27.1494 63.0006C26.7039 63.2229 27.0957 63.8893 27.5393 63.6679ZM32.1833 99.4179C32.2976 99.2034 32.47 99.1125 32.684 99.1077C33.1813 99.0972 33.1814 98.3237 32.684 98.3352C32.1963 98.3467 31.7491 98.5917 31.5161 99.0273C31.2817 99.4667 31.9487 99.8563 32.1833 99.4179ZM33.7915 82.6364C33.9452 82.4957 33.9345 82.2334 33.7915 82.0898C33.6246 81.9232 33.4578 81.7562 33.2909 81.5894C33.1383 81.4366 32.8989 81.4477 32.7447 81.5894C32.5909 81.7305 32.6016 81.9922 32.7447 82.1358C32.9116 82.3023 33.0784 82.4699 33.2453 82.6364C33.398 82.7896 33.6373 82.7781 33.7915 82.6364ZM35.6877 108.789C36.245 108.777 36.7675 108.617 37.2922 108.442C37.7623 108.286 37.5596 107.539 37.0868 107.697C36.6307 107.848 36.1725 108.005 35.6877 108.017C35.1905 108.028 35.1903 108.801 35.6877 108.789ZM38.1907 92.2644C38.6942 92.25 39.1119 91.9935 39.4651 91.6498C39.8222 91.3033 39.2753 90.7567 38.9188 91.1042C38.7166 91.3004 38.4834 91.4833 38.1907 91.4919C37.6937 91.5053 37.6933 92.2778 38.1907 92.2644ZM36.6364 71.0126C36.6303 71.2183 36.5434 71.4388 36.4158 71.574C36.0743 71.9357 36.62 72.4828 36.962 72.1204C37.2442 71.8216 37.3971 71.4215 37.4089 71.0126C37.4232 70.5143 36.6506 70.5165 36.6364 71.0126ZM42.529 54.1816C42.6907 53.8649 42.9025 53.4936 43.2247 53.3187C43.6624 53.0812 43.272 52.4141 42.8349 52.6514C42.3968 52.8892 42.0833 53.3579 41.8619 53.7915C41.6359 54.2341 42.3028 54.6246 42.529 54.1816ZM43.5304 62.2183C43.7096 62.2132 43.8875 62.1825 44.0603 62.1356C44.1342 62.1155 44.2073 62.0924 44.2813 62.0723C44.3128 62.0638 44.4474 62.047 44.3647 62.0514C44.5739 62.0402 44.751 61.8835 44.751 61.665C44.751 61.4642 44.5733 61.2674 44.3647 61.2786C44.078 61.294 43.8173 61.4374 43.5304 61.4455C43.0336 61.4595 43.0332 62.2323 43.5304 62.2183ZM46.0334 74.5705H46.8677C47.3657 74.5705 47.3648 73.7977 46.8677 73.7977H46.0334C45.5355 73.7977 45.5364 74.5705 46.0334 74.5705ZM47.0066 108.737C47.2596 108.863 47.5578 108.984 47.7627 109.177C48.1241 109.519 48.6711 108.973 48.3091 108.63C48.048 108.383 47.7143 108.228 47.3965 108.069C47.2092 107.976 46.9791 108.018 46.8679 108.208C46.7676 108.38 46.8201 108.644 47.0066 108.737ZM48.8709 98.9727C48.9032 98.9632 48.9374 98.9574 48.9701 98.9526C49.1015 98.9354 49.2389 98.9411 49.3708 98.9411C49.8687 98.9411 49.8679 98.1677 49.3708 98.1686C48.979 98.1686 48.5713 98.1744 48.2633 98.4482C48.1069 98.5879 48.1221 98.854 48.2633 98.9947C48.4168 99.1489 48.6539 99.1335 48.8095 98.9947C48.7931 99.0101 48.8494 98.9785 48.8709 98.9727ZM49.3706 85.8403C49.2584 85.6087 49.2566 85.4584 49.2564 85.2009C49.2561 84.7031 48.4836 84.7041 48.4839 85.2009C48.4841 85.5742 48.5396 85.892 48.7035 86.2309C48.7949 86.4194 49.0626 86.4683 49.2319 86.3697C49.4218 86.2586 49.4615 86.0279 49.3706 85.8403ZM51.6043 67.713C52.0524 67.8654 52.4523 68.0812 52.8469 68.3417C53.2634 68.6166 53.65 67.9471 53.2368 67.6744C52.7866 67.3772 52.3208 67.1417 51.8097 66.9677C51.3371 66.807 51.1361 67.5537 51.6043 67.713ZM54.21 54.7068C54.5428 54.7161 54.8864 54.8438 55.183 54.988C55.6289 55.2045 56.0201 54.5379 55.5729 54.3206C55.1491 54.1147 54.6855 53.9474 54.21 53.9341C53.7117 53.9201 53.7138 54.693 54.21 54.7068ZM55.378 89.4262C55.509 89.4328 55.6209 89.362 55.6903 89.2596C55.6974 89.2596 55.7046 89.2596 55.7118 89.2596C55.9282 89.2596 56.0886 89.0825 56.098 88.8729C56.1074 88.6651 55.9138 88.4871 55.7118 88.4871C55.5754 88.4871 55.4401 88.4957 55.3134 88.5484C55.1088 88.6355 55.0001 88.8221 54.9918 89.0404C54.9835 89.2567 55.1754 89.4175 55.378 89.4262ZM57.2778 62.7053C57.7523 62.8603 57.9537 62.1139 57.4832 61.9602C56.9309 61.7796 56.3666 61.6398 55.8144 61.4592C55.34 61.3043 55.1385 62.0507 55.6091 62.2045C56.1612 62.385 56.7256 62.5247 57.2778 62.7053ZM59.0103 77.2915C59.1575 77.7658 59.9029 77.5622 59.7553 77.086C59.6128 76.6264 59.6025 76.1639 59.6022 75.6864C59.6019 75.1883 58.8294 75.1892 58.8297 75.6864C58.83 76.2299 58.8482 76.7684 59.0103 77.2915ZM64.1754 94.7618C64.2035 94.9542 64.3561 95.093 64.5558 95.1016C64.759 95.1112 64.9494 94.9178 64.942 94.7159C64.9278 94.3263 64.6108 94.0094 64.222 93.9951C64.0057 93.9874 63.8448 94.1789 63.8357 94.3818C63.8268 94.579 63.9916 94.7331 64.1754 94.7618ZM66.7892 72.5537C67.1975 72.69 67.6336 72.8197 67.9536 73.122C68.3152 73.4633 68.8622 72.9177 68.4999 72.5755C68.0779 72.1771 67.5351 71.989 66.9945 71.8085C66.5212 71.6504 66.3201 72.397 66.7892 72.5537ZM68.5608 87.5662C68.673 87.7577 68.9002 87.7921 69.0892 87.705C69.3426 87.5863 69.6224 87.5911 69.8956 87.5902C70.3933 87.5902 70.3926 86.8177 69.8956 86.8177C69.4741 86.8177 69.0854 86.8579 68.6992 87.0369C68.5093 87.1259 68.463 87.3987 68.5608 87.5662ZM69.5618 105.784C69.7781 105.793 69.9389 105.602 69.948 105.399C69.9569 105.202 69.7923 105.047 69.6083 105.019C69.5803 104.826 69.4277 104.687 69.2281 104.678C69.0247 104.669 68.8344 104.863 68.8417 105.065C68.856 105.453 69.1728 105.771 69.5618 105.784ZM-0.818785 108.707C-0.687547 108.234 -0.387164 107.853 -0.160297 107.428C-0.0841965 107.284 -0.0576803 107.195 -0.0164231 107.091C0.0395756 107.203 0.148318 107.287 0.311719 107.287C0.625408 107.287 0.992223 107.267 1.28495 107.401C1.47525 107.488 1.69953 107.458 1.81335 107.262C1.91118 107.095 1.86446 106.821 1.67483 106.734C1.2434 106.537 0.779716 106.515 0.311719 106.514C0.19618 106.514 0.108688 106.557 0.0468502 106.621C-0.131963 104.172 -0.12756 101.72 0.0416811 99.2685C0.222121 96.6485 0.637469 94.0812 1.07206 91.4948C1.28246 90.2408 1.55575 88.9743 1.50263 87.6974C1.4495 86.429 0.90588 85.2468 1.29117 83.9746C1.44567 83.4644 1.71025 82.9973 1.88217 82.4928C2.06654 81.9501 2.05017 81.4139 1.96612 80.8517C1.79334 79.7071 1.50655 78.5759 1.96526 77.4582C2.16801 76.9627 2.49644 76.5202 2.65467 76.0083C2.85167 75.3717 2.82458 74.6675 2.85751 74.0077C2.92413 72.6766 2.94146 71.3367 3.05164 70.0086C3.10084 69.4134 3.20795 68.8493 3.45234 68.3035C3.68705 67.7781 4.03559 67.2999 4.19104 66.7425C4.34554 66.1938 4.35904 65.6152 4.44213 65.054C4.52905 64.4609 4.66517 63.8765 4.84867 63.3065C5.55751 61.1002 6.8563 59.118 8.39076 57.3996C10.0218 55.5729 11.9714 54.1973 14.0409 52.9155C15.1291 52.2414 16.2172 51.5673 17.3046 50.8932C17.3279 51.0196 17.4085 51.1358 17.5633 51.1876C17.9716 51.324 18.4076 51.4536 18.7277 51.7559C19.0893 52.0973 19.6364 51.5517 19.274 51.2095C18.8961 50.8526 18.421 50.6647 17.9376 50.4996C18.4331 50.1872 18.9339 49.8637 19.4931 49.6832C19.9828 49.5248 20.7049 49.6629 21.102 49.3036C21.4138 49.0205 21.5124 48.4961 21.632 48.1115C21.7817 47.6343 21.9111 47.1311 22.1014 46.6674C22.2308 46.3506 22.4191 46.0463 22.6566 45.8009C22.7609 45.3991 22.9522 45.032 23.2902 44.8088C24.1746 44.2235 25.261 44.805 25.6501 45.6396C25.9718 45.6387 26.3106 45.7091 26.6236 45.7285C27.2667 45.7691 27.9108 45.7874 28.5549 45.7855C29.8151 45.7816 31.0763 45.6995 32.3259 45.5324C34.5604 45.2329 36.7283 44.6292 38.9252 44.1588C38.9377 44.1298 38.9523 44.1008 38.9696 44.0719C39.4429 43.2778 40.6219 43.412 41.3646 43.7125C41.6832 43.841 42.0076 44.0032 42.1902 44.3047C42.3833 44.435 42.5504 44.5935 42.6614 44.7606C42.8912 45.1054 43.0689 45.8009 43.5354 45.8589C43.8425 45.8966 44.1543 45.8377 44.4662 45.8821C44.8564 45.9362 45.206 46.0734 45.5662 46.2299C48.3087 47.4209 51.1438 48.7452 54.1201 49.207C54.8182 49.3152 55.529 49.4273 56.1354 49.8185C56.6279 50.1363 57.0085 50.5729 57.4149 50.9873C57.8108 51.3911 58.1373 51.5698 58.7021 51.6422C59.3878 51.7302 59.9817 51.9194 60.4828 52.418C60.899 52.8324 61.1704 53.3617 61.4968 53.8427C61.8291 54.3335 62.3167 54.6098 62.8227 54.8947C64.0191 55.569 65.1335 56.3834 66.104 57.3599C68.1483 59.4194 69.3863 62.0662 70.634 64.6454C71.983 67.4351 73.2442 70.2587 74.1186 73.2378C74.9763 76.1628 75.4865 79.1719 75.722 82.2085C75.9699 85.3962 76.0054 88.5953 76.2121 91.7838C76.3145 93.3767 76.393 94.9715 76.4725 96.5653C76.55 98.1399 76.663 99.7175 76.6448 101.294C76.6094 104.342 76.0006 107.399 74.9352 110.253C74.669 110.962 74.3752 111.663 74.0612 112.352C73.7855 112.958 72.8443 112.89 72.5488 112.352C72.4813 112.229 72.4281 112.101 72.3837 111.972C71.6112 111.979 70.831 111.918 70.0633 111.99C68.7074 112.117 67.3488 112.187 65.9891 112.272C63.2987 112.438 60.6035 112.549 57.9122 112.703C57.6511 112.718 57.39 112.733 57.129 112.748C59.0469 106.811 58.7981 100.39 59.1017 94.2152C59.1261 93.7165 58.3533 93.7194 58.3291 94.2152C58.0243 100.417 58.2838 106.854 56.2981 112.801C55.5277 112.854 54.7584 112.917 53.9916 113.011C53.3717 113.084 52.7487 113.172 52.123 113.142C51.4133 113.108 50.72 112.946 50.0275 112.805C48.7693 112.548 47.5573 112.664 46.2942 112.822C44.9433 112.991 43.5874 113.084 42.2278 113.144C36.7834 113.382 31.3022 113.599 25.8597 113.236C24.5425 113.148 23.2282 113.024 21.9198 112.856C20.5717 112.683 19.2381 112.392 17.8911 112.227C16.5633 112.065 15.3426 112.51 14.0303 112.592C12.6919 112.676 11.3177 112.397 9.99184 112.236C9.55927 112.184 9.1263 112.133 8.69325 112.082C9.25074 108.26 9.56778 104.408 9.87573 100.558C9.91545 100.061 9.14258 100.066 9.10324 100.558C8.79778 104.378 8.48782 108.201 7.93109 111.993C5.63524 111.726 3.33709 111.456 1.06517 111.04C0.418165 110.922 -0.224911 110.73 -0.612211 110.152C-0.898906 109.724 -0.956915 109.2 -0.818785 108.707Z" fill="black"/>
<path fill-rule="evenodd" clip-rule="evenodd" d="M16.5306 27.6354C16.7385 25.8082 16.4695 21.9891 16.4514 21.7571C16.3375 20.2903 17.0245 14.4979 18.3234 15.0316C20.5022 13.3062 23.404 12.9253 26.1175 12.7433C31.754 12.3652 37.7501 13.2331 42.1023 17.0275C44.2547 18.998 46.3501 21.864 46.1816 24.8481C48.1373 27.6768 50.8941 31.5569 48.4576 34.8636C47.6294 35.9202 46.3131 36.3136 45.2725 37.1137C43.1798 38.8023 41.8669 41.2256 39.7542 42.904C34.1572 47.9352 24.6533 48.9861 19.1543 43.2636C14.9019 39.1193 15.5895 32.9189 16.3375 27.6354C16.8403 24.0833 16.1251 31.2 16.5306 27.6354Z" fill="white"/>
<path fill-rule="evenodd" clip-rule="evenodd" d="M33.6469 4.99488C32.1395 4.69057 30.5916 4.50123 29.0523 4.55819L28.9336 4.56288C27.7753 4.60911 26.3085 4.71154 25.2981 5.38534C25.2399 5.32695 25.1465 5.29699 25.0617 5.33748C23.861 5.91077 22.5403 6.32535 21.2761 6.73716C20.0176 7.14705 18.712 7.41766 17.393 7.52669C16.8968 7.56776 16.4721 8.10382 16.7863 8.58454C16.8611 8.69913 16.9338 8.81486 17.0064 8.93087C16.8851 8.91824 16.7638 8.90512 16.6426 8.89287C16.2434 8.85267 15.8447 9.27883 15.8683 9.66757C15.8832 9.91205 15.9095 10.1536 15.9486 10.3923C15.7965 10.3891 15.6454 10.4119 15.4994 10.4737C14.76 10.7859 14.8115 11.6669 14.8669 12.337C14.9435 13.2671 15.2913 14.2522 15.9369 14.9483C15.4548 15.4491 15.1135 16.0473 14.91 16.7577C14.7623 17.2764 14.6802 17.8289 14.7208 18.3689L14.7337 18.5306C14.7839 19.1166 14.8835 19.7653 15.305 20.1869C15.5213 20.4043 15.7878 20.4835 16.0419 20.4584C15.8882 21.8088 15.7897 23.167 15.6971 24.5203L15.6535 25.1672C15.4468 28.295 15.2914 31.4432 15.332 34.5762C15.3698 37.5041 15.9481 40.3461 17.7433 42.7234C19.3783 44.8881 21.7257 46.4839 24.3813 47.0906C25.8125 47.4181 27.2735 47.4412 28.722 47.2326C29.4241 47.1311 30.1309 46.9757 30.7973 46.7302C31.535 46.4579 32.0652 46.057 32.5615 45.4561C32.7962 45.1712 32.6833 44.5645 32.2158 44.6215C31.5088 44.7073 30.8634 44.8106 30.1855 45.0198L30.0885 45.0504C29.4134 45.2668 28.7143 45.4281 28.0085 45.4967C26.5628 45.6367 25.095 45.4958 23.7102 45.0571C21.4553 44.3424 19.5133 42.7494 18.2686 40.7479C16.7911 38.3755 16.6241 35.6823 16.6454 32.9543C16.6683 29.9609 16.7657 26.9657 16.9245 23.9754L16.9516 23.477C17.0356 21.9383 17.1167 20.3985 17.188 18.8586C17.2103 18.3757 17.2441 17.8889 17.305 17.4068C17.8621 17.0803 18.3613 16.6302 18.6867 16.0747C19.3405 16.3452 20.028 16.5403 20.6607 16.6958C22.126 17.0563 23.6473 17.1438 25.1388 16.9181C25.5411 17.0844 25.9514 17.2306 26.368 17.3562C26.4806 17.4062 26.5932 17.4553 26.7057 17.5034C27.7101 17.9333 28.7289 18.2974 29.789 18.5641L30.0495 18.629C30.6075 18.7666 31.2135 18.9021 31.8073 18.9447C31.9048 18.9823 32.0101 19.0142 32.1251 19.0422C32.6658 19.1736 33.227 19.2151 33.7811 19.1688C34.321 19.1234 34.7112 18.5776 34.4138 18.0666C34.1965 17.6937 33.9772 17.3218 33.7561 16.9508C34.5257 17.2715 35.3204 17.5382 36.1219 17.7642C36.9311 17.9922 37.752 18.1844 38.5739 18.3612C39.0132 18.4549 39.4544 18.538 39.8928 18.6317C40.2067 18.6983 40.6886 18.7331 40.9446 18.9398C41.2274 19.1669 41.3076 19.6962 41.4149 20.0227C41.5559 20.4468 41.6882 20.8728 41.8089 21.3036C42.0492 22.1633 42.2462 23.0356 42.3988 23.9166C42.5514 24.7985 42.6538 25.6891 42.7108 26.5827C42.7676 27.4753 42.7427 28.3736 42.8343 29.2623C42.8837 29.7338 43.3896 29.9763 43.7633 29.6468C43.8071 29.6082 43.8513 29.5691 43.8951 29.5296L43.9603 29.4701C44.28 29.1802 44.5899 28.873 44.8458 28.5273C44.8921 28.4635 44.9366 28.3968 44.9781 28.3292C44.9848 28.3292 44.9906 28.3273 44.9973 28.3224L45.0683 28.269C45.8493 27.6876 47.1541 26.9294 47.9157 27.8955C48.1584 28.2032 48.2826 28.5951 48.3857 28.9732L48.5666 29.6497C48.6837 30.0915 48.7938 30.5357 48.8582 30.9876C49.0041 32 48.9307 33.1668 48.2344 33.9783C47.9562 34.3029 47.5728 34.5346 47.1451 34.5955C46.9066 34.6284 46.6709 34.5878 46.4343 34.5579C46.1939 34.5279 45.9622 34.5762 45.7217 34.553C45.3393 34.5154 45.1721 34.9733 45.3151 35.2611C45.3924 35.4157 45.4832 35.5489 45.5864 35.662C45.5035 35.7335 45.4242 35.8107 45.3479 35.8919C45.122 35.9644 44.9192 36.1198 44.7676 36.3256C44.6449 36.4918 44.5813 36.6725 44.5706 36.8628C44.5571 36.91 44.5455 36.9584 44.5348 37.0076L44.3277 37.344C44.2821 37.4178 44.2367 37.4906 44.1912 37.5621C43.6639 38.3928 43.0786 39.0961 42.3514 39.7587C41.6513 40.3963 40.8914 40.9672 40.2337 41.6511L40.1563 41.7323C39.5431 42.3787 38.8967 43.161 39.1367 44.1009C39.1986 44.3424 39.5357 44.5162 39.7558 44.353C40.4636 43.8275 40.82 42.9948 41.4205 42.3572C42.0387 41.7004 42.7233 41.1101 43.3432 40.4552C43.9294 39.837 44.392 39.1367 44.7405 38.3658C44.8797 38.5194 45.0823 38.6286 45.3634 38.6711C45.8462 38.7435 46.2963 38.4605 46.5067 38.0422C46.642 38.1021 46.78 38.1562 46.9192 38.1987C47.6511 38.4228 48.1116 37.6084 47.8355 37.0066C47.6879 36.684 47.5034 36.4039 47.2744 36.1682C47.9901 36.0697 48.7182 35.6997 49.1885 35.2379C50.3684 34.0778 50.5307 32.3341 50.2651 30.7838C50.1241 29.9617 49.8809 29.13 49.565 28.3582C49.5101 28.2239 49.451 28.0887 49.3865 27.9553C49.4222 27.9544 49.4589 27.939 49.482 27.909C49.6955 27.6173 49.9551 27.3787 50.1136 27.0522C50.2594 26.7527 50.4216 26.4494 50.5365 26.1374C50.7731 25.4988 50.889 24.7782 50.9662 24.103C51.1255 22.7207 51.0638 21.3471 50.8522 19.9734C50.4921 17.6338 49.6223 15.3949 48.3407 13.4302C48.4105 13.3935 48.4774 13.3493 48.5397 13.297L48.5704 13.2701L48.6205 13.2249C48.9862 12.8939 48.9546 12.2734 48.6205 11.9381L48.5149 11.8323C48.3813 11.6995 48.2661 11.5942 48.0503 11.4497C48.0184 11.4283 47.9859 11.4082 47.9529 11.3895C48.0659 11.1807 48.1051 10.9364 48.0264 10.667C47.7522 9.72845 46.4022 9.76167 45.5465 10.171C44.5998 9.32583 43.5502 8.5922 42.4124 7.99814C39.7026 6.58391 36.6387 5.59766 33.6469 4.99488ZM47.6539 29.7144C47.1479 29.5492 46.4758 29.896 46.021 30.1047C45.4445 30.3694 44.9539 30.7606 44.4788 31.1741C44.2422 31.3807 44.1998 31.7188 44.2586 32.0077C44.2645 32.0366 44.2702 32.0666 44.2771 32.0965C44.3398 32.4047 44.6837 32.6472 44.9878 32.6384C45.6241 32.6211 45.9273 32.0715 46.2876 31.6059C46.33 31.6812 46.3831 31.7507 46.4489 31.8029L46.4932 31.8376C46.6427 31.9515 46.8076 32.0426 47.0051 32.0338C47.1451 32.027 47.2792 31.9912 47.4029 31.9265C47.712 31.7632 47.848 31.3634 47.7641 31.0378C47.712 30.8331 47.5922 30.6726 47.4357 30.5616L47.4941 30.5217C47.6189 30.4349 47.7327 30.3433 47.8213 30.2081L47.8413 30.1761H47.8337C47.9302 30.01 47.8674 29.7839 47.6539 29.7144Z" fill="black"/>
<path fill-rule="evenodd" clip-rule="evenodd" d="M23.8201 39.4355C24.5315 39.6416 25.2951 39.66 26.0202 39.4472C26.6778 39.2542 27.3531 38.8292 27.8372 38.2669C28.2672 37.7675 28.5457 37.1606 28.5348 36.5126C28.5335 36.4386 28.5071 36.3769 28.4664 36.3289C28.4226 36.2773 28.3614 36.2419 28.2958 36.2265C28.2284 36.2107 28.1572 36.2162 28.0965 36.2438C28.0416 36.2688 27.9946 36.3112 27.9651 36.3731C27.8907 36.4709 27.8166 36.5673 27.7423 36.6609C27.1441 37.3997 26.5649 37.9518 25.6654 38.1499C25.1774 38.2573 24.6901 38.2096 24.2429 38.0457C23.7642 37.8702 23.3315 37.5616 22.9924 37.1667C22.8392 36.9882 22.6582 36.9153 22.4813 36.9141C22.2808 36.9127 22.0827 37.0059 21.9334 37.1548C21.7867 37.3013 21.6884 37.5002 21.6795 37.7083C21.6717 37.8909 21.7313 38.0817 21.8897 38.252C22.4117 38.8127 23.0881 39.2234 23.8201 39.4355ZM23.8421 30.1822C23.1128 30.6256 22.0018 31.6595 22.7862 32.7587C23.7096 33.7279 25.0391 32.6166 25.6942 32.1141C26.3017 31.7246 26.9842 32.7263 26.4206 33.1811C21.6865 36.6872 19.7654 30.2981 23.4732 29.6608C23.8815 29.5906 24.0331 30.045 23.8421 30.1822ZM30.6635 28.2312C30.8978 28.0812 31.1736 28.0298 31.4791 28.1688C31.7179 28.2774 32.1367 28.6396 32.4282 29.1155C32.6276 29.4412 32.7689 29.8232 32.7395 30.2212C32.7327 30.3136 32.7667 30.3817 32.8206 30.4321C32.8631 30.4719 32.9246 30.5011 32.9968 30.5103C33.058 30.5181 33.1266 30.5111 33.1823 30.4936C33.2883 30.4605 33.3444 30.3917 33.3656 30.3355C33.5697 29.7934 33.4818 29.1884 33.253 28.6426C32.9444 27.906 32.3838 27.2891 32.0166 27.0902C31.3882 26.7497 30.6468 26.734 30.0175 27.0809C29.4819 27.3761 29.1468 27.8528 28.8137 28.3387C28.7429 28.442 28.6726 28.5445 28.5999 28.6452C28.4544 28.8471 28.4399 29.0473 28.4963 29.2189C28.5587 29.4091 28.718 29.5695 28.9172 29.6536C29.1012 29.7312 29.3148 29.7421 29.5039 29.6624C29.6635 29.595 29.8101 29.4637 29.9029 29.2408C30.0591 28.8655 30.3193 28.4514 30.6635 28.2312ZM18.7601 29.0662C18.9206 29.1499 19.0462 29.175 19.2242 29.1217C19.3227 29.0921 19.42 29.0354 19.4962 28.9592C19.5717 28.8837 19.6262 28.7898 19.6473 28.6855C19.6994 28.4284 19.8401 28.1876 20.0406 28.0307C20.2119 27.8966 20.4282 27.8254 20.668 27.8655C20.9269 27.9088 21.1735 28.0749 21.3433 28.2706C21.4001 28.3361 21.4446 28.4105 21.4894 28.4845C21.573 28.6226 21.6544 28.7511 21.7697 28.8526C21.8135 28.8912 21.8794 28.9179 21.9433 28.9179C21.9692 28.9179 21.9955 28.9137 22.0207 28.9059C22.2783 28.6472 22.3278 28.451 22.3196 28.2564C22.3109 28.0523 22.2304 27.8456 22.1004 27.6528C21.7955 27.2006 21.2165 26.8298 20.8259 26.7458C20.2909 26.6308 19.7595 26.7688 19.3335 27.0678C18.8951 27.3753 18.5703 27.8529 18.4691 28.3911C18.4447 28.5207 18.4551 28.6605 18.5044 28.7818C18.5526 28.9004 18.6367 29.0019 18.7601 29.0662ZM29.4835 23.4092C29.8045 23.7221 30.1846 23.7706 30.5691 23.8137C30.7827 23.8379 30.9532 23.8574 31.121 23.8953C31.5822 23.9994 32.0382 24.1563 32.4541 24.3822C32.889 24.6184 33.3628 24.9032 33.7037 25.2681C33.7848 25.3549 33.8612 25.4459 33.9376 25.5372C34.0074 25.6205 34.0746 25.7006 34.1455 25.778C34.2268 25.8667 34.3041 25.9598 34.3809 26.0525C34.4284 26.1308 34.4378 26.1501 34.4474 26.1702C34.4618 26.2003 34.4786 26.234 34.4977 26.2702C34.5238 26.3197 34.5546 26.3739 34.5867 26.4231C34.6402 26.513 34.6689 26.5377 34.6937 26.5488C34.7348 26.567 34.7738 26.5761 34.8117 26.5712C34.8472 26.5667 34.8806 26.5495 34.9136 26.5217C35.0785 26.3823 35.1271 26.1537 35.1221 25.9109C35.1146 25.5427 34.9787 25.1349 34.8535 24.8842C34.5624 24.3017 34.1588 23.6963 33.6733 23.2615C33.1195 22.7653 32.5134 22.3896 31.8173 22.1308C31.3849 21.9699 30.884 21.8222 30.4128 21.8408C30.0735 21.8542 29.7497 21.9551 29.4823 22.207C29.3181 22.3616 29.2393 22.5816 29.2393 22.8013C29.2393 23.0255 29.3211 23.251 29.4835 23.4092ZM18.107 26.2748C18.1275 26.3083 18.1558 26.3314 18.1872 26.3452C18.2202 26.3597 18.2569 26.3639 18.2923 26.358C18.3275 26.352 18.3609 26.3361 18.3874 26.3117C18.4128 26.2884 18.4321 26.2574 18.4408 26.2195C18.654 25.2829 19.0679 24.586 19.9514 24.1367C20.3859 23.9157 20.8857 23.7752 21.3588 23.6632C21.4962 23.6307 21.6416 23.6095 21.7878 23.5882C22.2463 23.5213 22.7081 23.4445 23.007 23.0739C23.1871 22.8505 23.2626 22.5649 23.22 22.3038C23.1798 22.0578 23.0361 21.8323 22.7749 21.6973C22.1248 21.361 21.3169 21.6909 20.6603 21.972C20.6117 21.9928 20.5638 22.0133 20.5171 22.0331C19.875 22.3041 19.2894 22.662 18.8081 23.1737C18.4262 23.5798 18.0723 24.18 17.9297 24.7974C17.8112 25.311 17.8391 25.8354 18.107 26.2748Z" fill="black"/>
<path fill-rule="evenodd" clip-rule="evenodd" d="M21.7967 40.9958C22.6961 40.1943 23.7041 38.5829 24.9961 39.8579C25.3156 40.2181 25.4451 41.0256 25.9336 41.184C26.5826 41.3946 27.2257 40.7078 27.4469 40.1804C28.3517 37.2499 24.6113 36.4461 22.4805 36.9195C21.4395 37.3472 20.6727 39.0685 20.6264 39.9669C20.5964 40.5706 21.1072 41.4584 21.7967 40.9958ZM15.012 36.4788C15.0208 36.4398 15.033 36.4047 15.0478 36.3726C15.4455 36.2223 15.7603 36.3757 15.9548 36.6622C15.9483 36.7334 15.9271 36.8055 15.9137 36.8762C16.0638 37.1924 16.1991 37.5838 16.4026 37.857C16.4427 37.8601 16.4843 37.8559 16.5243 37.8443C19.8957 38.1965 18.2498 34.6678 21.6693 33.7913C24.3126 33.3551 29.0901 33.8548 30.3371 36.6071C31.3205 41.003 36.3211 37.9399 37.9629 35.6538C39.7148 33.5731 40.8475 31.0306 41.9396 28.5635C42.1704 28.0414 42.8907 28.4147 42.8124 28.9156C43.8219 30.9414 43.7883 33.3748 44.0384 35.594C44.4636 40.0216 44.878 46.2307 40.7655 48.9343C35.4073 54.9927 22.0271 57.1306 15.8471 51.564C13.7077 46.963 13.9714 41.3499 15.012 36.4788Z" fill="black"/>
<path fill-rule="evenodd" clip-rule="evenodd" d="M18.5314 22.9984C16.2648 22.9984 14.9713 23.4859 14.4973 23.5239L14.483 23.525C14.2859 23.5376 14.109 23.5541 13.9235 23.6259C13.2412 23.8887 13.1301 24.6046 13.5282 25.0557C13.5561 25.9892 13.4334 27.0799 13.644 28.0165C13.9038 31.9645 15.7599 32.6308 16.815 32.8739C17.3446 32.9961 17.9725 33.0447 18.5351 32.9157C19.495 32.8799 20.4439 32.5794 21.2558 32.0559C22.3865 31.3264 23.2263 30.2052 23.4988 28.8745C23.6281 28.2402 23.6884 27.58 23.6181 26.9352L23.6077 26.8463C23.9753 26.6705 24.4011 26.6373 24.8401 26.6217C25.0499 26.6142 25.2566 26.6075 25.4575 26.6165C25.6537 26.6384 25.8476 26.6676 26.0422 26.7073C26.2546 26.7715 26.4553 26.8773 26.6405 27.0449L26.6532 27.2895C26.6881 27.9006 26.7683 28.5136 26.892 29.1131C27.0746 29.9977 27.3684 30.8425 27.9937 31.47C28.2053 31.7862 28.4672 32.0685 28.7852 32.313C29.9402 33.2024 31.5093 33.529 32.9495 33.406C35.8733 33.1565 37.5632 30.8348 37.9527 29.8424L37.976 29.7823C38.2573 29.0446 38.4816 28.0873 39.3706 27.9288L39.5597 27.8948C39.9653 27.8186 40.3397 27.7125 40.5776 27.3166C40.6818 27.1438 40.7354 26.9504 40.7487 26.7533C40.8874 26.764 41.026 26.7742 41.1641 26.7841C42.2658 27.0171 48.8736 27.2148 49.401 27.2148C49.401 27.2148 50.4149 27.6416 50.843 27.3109C51.1396 27.0809 51.2373 26.7744 51.074 26.4272C50.8275 25.9047 49.6905 25.5904 49.1857 25.4909C49.1857 25.4909 41.0389 25.5586 40.4525 25.4473C40.0897 25.0731 39.4408 25.1244 38.8985 25.0652C38.4495 24.745 37.8216 24.5306 37.3255 24.387C37.2245 24.3487 37.1243 24.3117 37.027 24.2767C36.1176 23.9528 35.1723 23.7812 34.2127 23.689C33.2231 23.595 32.2305 23.6375 31.2467 23.7723C30.8321 23.8286 30.4213 23.9014 30.0136 23.9965C29.2833 24.0928 28.5573 24.2514 27.8267 24.4395L27.6806 24.4776C26.9113 24.6793 26.1207 24.8538 25.3244 24.717C24.6762 24.6065 24.0527 24.3568 23.4549 24.087L23.3771 24.0517C22.0628 23.4514 20.0102 22.9984 18.5314 22.9984ZM30.0926 25.1934C30.5776 25.0866 30.7846 25.8346 30.2981 25.9416C29.9536 26.0174 29.6617 26.1911 29.4644 26.4856L29.4436 26.5175C29.1789 26.9389 28.5096 26.55 28.7761 26.1258C29.076 25.6486 29.542 25.3144 30.0926 25.1934ZM15.8889 24.7296C16.0599 24.6092 16.3186 24.6986 16.4178 24.8688C16.527 25.0562 16.4555 25.265 16.2954 25.3876L16.2791 25.3996C16.1322 25.5031 15.9892 25.6887 15.9712 25.8789L15.9696 25.9027C15.9504 26.4004 15.1771 26.4028 15.1965 25.9027C15.2153 25.4133 15.4986 25.0045 15.8889 24.7296Z" fill="black"/>
</g>
</svg>
