<svg width="91" height="91" viewBox="0 0 91 91" fill="none" xmlns="http://www.w3.org/2000/svg">
<mask id="mask0_1_69" style="mask-type:alpha" maskUnits="userSpaceOnUse" x="0" y="0" width="91" height="91">
<circle cx="45.5" cy="45.5" r="44.7784" fill="#C4C4C4"/>
</mask>
<g mask="url(#mask0_1_69)">
<path fill-rule="evenodd" clip-rule="evenodd" d="M79.3141 110.838C77.9671 105.612 76.7277 103.396 74.3344 101.579C72.0955 99.8794 68.8279 98.4527 64.0597 97.4101C59.0932 96.5416 58.952 93.9595 57.7067 89.8103C57.3438 88.5628 55.5431 88.2306 54.7669 89.1298C54.6571 89.012 54.543 88.9038 54.4244 88.8057C54.5305 88.2109 53.6642 86.5054 53.6935 85.9361C53.9949 79.9965 52.0524 77.0135 47.2044 75.9043C46.1501 75.6636 38.9878 75.5217 37.9599 75.8056C33.4653 77.0487 29.0409 80.9945 29.7184 85.7481C28.307 87.5926 26.9264 88.7179 24.7497 89.312C19.9061 89.9274 15.0627 90.4739 10.2176 90.9422C0.733358 92.4304 -8.15889 97.4518 -14.2365 104.774C-14.7971 105.45 -14.959 106.368 -14.4643 107.088C-14.8518 108.749 -17.0334 112.776 -15.3169 113.914C-18.1396 120.667 -24.6342 133.718 -24.6464 137.447C-24.6976 153.111 -23.0058 173.5 -7.55183 182.168C-6.93306 182.777 -6.84453 183.45 -6.5766 184.355C-5.89718 187.207 -3.42965 189.245 -0.728939 189.078C12.5755 189.374 25.4616 187.75 38.7661 187.672C44.6341 187.637 51.6902 188.514 56.787 189.097C61.8837 189.681 67.0288 189.164 71.9199 187.672C72.3326 188.322 73.1667 188.7 74.0125 188.514C79.0829 187.506 83.1838 184.38 86.7551 180.964C87.8467 178.979 92.1087 173.321 90.4149 171.351C91.9506 164.858 91.8701 157.88 89.1418 151.697C89.5281 150.564 88.8235 149.318 89.1418 148.147C89.3715 147.301 89.962 146.95 90.2583 146.112C90.6761 144.931 90.2217 143.347 89.7512 142.143C89.5588 141.543 90.1061 140.897 90.2583 140.284C90.9804 137.395 89.3276 137.65 88.1365 135.718C88.154 135.713 88.4635 134.333 88.4621 134.341C88.645 133.356 88.1877 132.095 87.7889 131.274C87.5197 130.718 86.9424 130.371 86.3688 130.434C86.9468 128.473 87.677 126.841 88.4621 124.952C89.8515 121.622 91.6097 118.433 93.6042 115.418C94.4207 114.184 93.3239 112.754 92.0018 112.67C87.7238 112.398 83.4926 111.782 79.3141 110.838Z" fill="#F4C2C2"/>
<path fill-rule="evenodd" clip-rule="evenodd" d="M66.8283 136.023C65.1169 135.351 63.2746 134.98 61.4228 134.836C62.4193 134.662 63.4195 134.493 64.4277 134.407C65.1308 134.346 65.7827 134.352 66.3117 134.886C66.6644 135.241 66.8297 135.699 67.0617 136.12C66.9856 136.086 66.9066 136.053 66.8283 136.023ZM85.1944 129.747C82.3922 129.89 79.587 130.557 77.0518 131.764C76.0143 132.258 75.0748 132.973 74.7997 134.148C74.66 134.748 74.6944 135.369 74.7683 135.974C74.8239 136.434 74.8378 137.02 75.2373 137.331C75.3046 137.383 75.3777 137.423 75.4531 137.453C74.518 137.875 73.6276 138.382 72.836 138.905C72.1131 139.383 71.3697 140.119 71.0353 140.949C71.0075 140.855 70.9797 140.767 70.9519 140.683C70.3834 139.001 69.5069 137.623 68.1262 136.697C68.3706 136.587 68.5389 136.327 68.4606 135.969C68.1328 134.47 66.7493 133.168 65.1864 133.261C63.4751 133.361 61.6371 133.984 60.0897 134.772C59.5256 134.759 58.9629 134.766 58.4069 134.791C58.311 134.794 58.3154 134.925 58.4069 134.935C58.8583 134.993 59.309 135.056 59.7604 135.13C60.8338 135.302 61.9035 135.52 62.9497 135.791C64.2045 136.116 65.5033 136.441 66.6768 137.009C68.9516 138.112 70.36 140.994 70.071 143.503C70.0227 143.914 69.8639 145.157 69.2932 145.029C68.8111 144.92 68.6194 143.914 68.4511 143.541C67.9997 142.551 67.1868 141.905 66.2115 141.467C65.0657 140.952 63.8402 140.604 62.6527 140.199C61.9803 139.969 61.3079 139.738 60.634 139.51C59.9448 139.273 59.2892 138.946 58.5554 139.112C58.1113 139.213 58.0601 139.742 58.3095 140.045C58.6878 140.507 59.2505 140.643 59.7963 140.833C60.5162 141.084 61.2355 141.335 61.954 141.585C63.0654 141.971 64.2294 142.297 65.313 142.771L65.2794 142.848C65.1908 142.824 65.0869 142.911 65.1045 143.02C65.2669 144.021 65.4923 145.177 65.242 146.179C65.0445 146.974 64.3465 147.854 63.4414 147.62C63.5834 147.49 63.636 147.266 63.5402 147.059C63.1817 146.292 58.4822 143.264 58.0637 144.389C58.0498 144.429 58.093 144.458 58.1266 144.452C58.4837 144.378 59.0822 144.987 59.3683 145.18C59.7809 145.458 60.1994 145.73 60.6077 146.017C61.0547 146.329 61.4901 146.657 61.9152 146.995C62.2495 147.262 62.5012 147.538 62.8846 147.673C62.6834 147.769 62.5247 147.947 62.4566 148.174C62.2832 148.766 61.9496 149.269 61.3701 149.53C60.7621 149.802 60.0772 149.63 59.4378 149.697C58.5656 149.785 57.8054 150.199 57.1703 150.792C55.8358 152.038 55.1671 154.235 53.3013 154.824C52.1863 155.175 50.9498 154.953 49.8215 154.794C48.5616 154.616 47.3346 154.475 46.0652 154.661C44.8506 154.839 43.7019 155.26 42.592 155.772C41.5516 156.254 40.4014 156.798 39.4788 157.515C39.2885 156.929 39.0968 156.35 38.9512 155.751C38.6088 154.336 38.423 152.895 38.3784 151.441C38.3367 150.057 38.4135 148.667 38.5327 147.29C38.5913 146.601 38.6842 145.916 38.7427 145.228C38.7581 145.055 38.7896 144.869 38.8122 144.684C40.4607 143.711 42.1918 142.965 43.9368 142.199C43.9412 142.197 43.9463 142.194 43.9507 142.193C44.0048 142.168 44.0575 142.145 44.1117 142.121C44.1102 142.118 44.108 142.115 44.1051 142.112C44.3048 141.99 44.4438 141.828 44.5272 141.645C47.042 139.977 49.1448 137.699 50.712 135.042C51.369 133.929 52.0012 132.773 52.8601 131.798C53.7754 130.757 54.862 130.139 56.2067 129.817C57.7791 129.44 59.399 129.214 61.0094 129.085C61.8896 129.016 62.8722 128.907 63.8307 128.912C64.4987 128.917 65.152 128.974 65.752 129.139C66.641 129.384 67.1605 130.06 67.718 130.743C68.2514 131.399 68.7818 132.056 69.2793 132.74C69.7505 133.387 70.1961 134.057 70.5824 134.759C70.8144 135.18 71.0295 135.613 71.2102 136.059C71.2739 136.217 71.3573 136.397 71.396 136.561C71.4341 136.726 71.3631 136.901 71.549 136.901C70.7836 136.912 70.791 138.135 71.5519 138.09C74.529 137.917 70.2642 132.103 69.6408 131.292C68.7584 130.145 67.8482 128.648 66.4354 128.114C66.4149 128.107 66.3937 128.099 66.3732 128.093C66.7844 127.703 67.1092 127.236 67.4202 126.761C67.7399 126.273 68.1219 125.713 68.2272 125.133C68.2931 124.763 67.8343 124.553 67.6163 124.876C67.2995 125.348 67.1466 125.945 66.9102 126.463C66.6688 126.989 66.3754 127.485 66.1434 128.015C65.5852 127.843 64.9823 127.765 64.3684 127.739C65.1433 126.69 66.4661 124.667 66.6256 124.408C67.358 123.205 68.0553 121.965 68.7218 120.723C69.4418 119.377 70.0586 117.976 70.7478 116.615C71.1392 115.844 71.5336 115.066 71.9675 114.317C72.1175 114.061 72.2784 113.804 72.4606 113.571C72.4965 113.524 72.5411 113.486 72.5828 113.442C72.6311 113.416 72.6801 113.387 72.7079 113.371C72.9581 113.228 73.0467 112.893 73.2223 112.681C73.504 112.34 73.8347 112.3 74.2583 112.295C75.1612 112.285 76.067 112.321 76.9684 112.346C78.2927 112.383 79.6163 112.435 80.9391 112.505C81.3393 112.527 81.7381 112.549 82.139 112.573C84.0633 112.688 85.9861 112.838 87.9045 113.022C89.602 113.184 91.2987 113.449 92.9976 113.575C90.6973 119.042 88.1474 124.409 85.2596 129.59C85.2303 129.642 85.2083 129.695 85.1944 129.747ZM72.4328 143.83C72.0619 144 71.7019 144.212 71.3668 144.453C71.4224 144.078 71.4363 143.682 71.4202 143.284C71.6975 143.581 72.0509 143.751 72.4328 143.83ZM88.2696 134.427C88.2433 134.43 88.2184 134.444 88.206 134.47C87.6931 135.529 87.9074 136.712 88.7452 137.542C89.1842 137.976 90.1412 138.464 90.1105 139.175C90.0841 139.751 89.4578 140.233 89.1908 140.708C88.942 141.15 88.8491 141.636 89.0488 142.115C89.3035 142.729 90.0161 142.974 90.2605 143.576C90.5692 144.342 90.0673 145.265 89.7147 145.932C89.3869 146.548 88.9632 147.165 88.6823 147.818C86.7975 148.794 85.1118 150.291 83.6616 151.811C82.0739 153.474 80.7123 155.429 78.191 155.38C77.9393 155.375 77.7476 155.508 77.6327 155.692C76.9311 155.725 76.2279 155.739 75.5263 155.742C74.2927 155.748 73.0591 155.735 71.827 155.697C71.7407 155.399 71.8043 154.993 71.7992 154.741C71.7838 153.929 71.7765 153.119 71.7421 152.307C71.7326 152.081 71.7238 151.854 71.7143 151.628C72.1577 152.431 73.0233 152.796 74.0095 152.74C75.5958 152.648 77.1908 152.388 78.7609 152.154C79.5885 152.032 80.4138 151.892 81.2376 151.744C81.9151 151.624 82.87 151.655 83.3433 151.112C83.4546 150.985 83.4604 150.753 83.2855 150.668C82.8173 150.438 82.5224 150.566 82.0073 150.665C81.3803 150.787 80.7511 150.903 80.1204 151.012C78.9095 151.222 77.6964 151.416 76.4796 151.588C75.7875 151.685 75.0931 151.781 74.3995 151.857C73.7937 151.922 73.1103 152.01 72.6216 151.554C71.6368 150.633 72.1892 149.088 72.8118 148.157C72.8242 148.138 72.8242 148.121 72.8199 148.105C73.4067 147.968 73.9927 147.808 74.5773 147.694C75.7011 147.478 76.8323 147.295 77.9656 147.133C80.293 146.801 82.6366 146.581 84.9771 146.36C85.5566 146.304 85.5625 145.392 84.9771 145.446C81.6144 145.754 78.2356 146.046 74.919 146.694C74.0871 146.855 73.2618 147.037 72.4409 147.243C72.0531 147.339 71.6368 147.489 71.2307 147.494C71.2058 147.494 71.1809 147.494 71.1561 147.492C70.36 147.467 70.2444 146.785 70.6819 146.218C70.7361 146.148 70.7917 146.079 70.8488 146.012C71.6214 145.09 72.5843 144.475 73.5771 143.838C74.6885 143.686 75.797 143.349 76.885 143.102C79.5716 142.489 82.2583 141.877 84.9464 141.266C85.4732 141.146 85.2493 140.335 84.7218 140.454C82.6812 140.917 80.6413 141.379 78.6007 141.842L75.6141 142.519C75.0178 142.653 74.2722 142.924 73.5705 143.021C73.2245 143.069 72.8894 143.075 72.5865 143.004C71.6075 142.772 71.5585 141.549 71.9799 140.822C72.4533 140.006 73.3467 139.495 74.1398 139.034C75.5138 138.231 76.9764 137.654 78.4046 136.989C78.6578 136.933 78.9117 136.877 79.1648 136.822C80.6399 136.497 82.3241 136.338 83.7128 135.743C84.1284 135.566 83.9009 134.911 83.4897 134.92C82.4127 134.943 81.2859 135.326 80.2331 135.554C79.0939 135.801 77.9532 136.047 76.814 136.293C76.6991 136.318 76.0223 136.534 75.9206 136.487C75.8555 136.455 75.8321 136.23 75.8109 136.081C75.7406 135.593 75.6902 135.079 75.7655 134.589C75.9324 133.49 76.8491 132.973 77.7769 132.551C79.8416 131.612 82.1068 131.025 84.3604 130.789C84.8798 130.735 85.3993 130.701 85.9217 130.685C86.5349 130.666 87.0404 130.557 87.3514 131.162C87.8394 132.115 88.1087 133.34 88.2696 134.427ZM85.4015 168.964C84.9515 167.407 85.0737 165.745 84.7657 164.157C84.6062 163.337 84.3889 162.525 84.1518 161.725C83.9609 161.078 83.6419 160.391 83.6053 159.718C83.6031 159.672 83.6565 159.647 83.6923 159.667C84.3274 160.031 84.8147 160.817 85.1769 161.434C85.6108 162.172 85.9415 162.946 86.2085 163.759C86.7404 165.378 87.1772 167.332 86.491 168.964C86.2868 169.45 85.5698 169.547 85.4015 168.964ZM71.4948 148.342C71.8753 148.305 72.2557 148.233 72.6355 148.148C72.2104 148.562 71.8182 149.062 71.6002 149.615C71.5658 149.19 71.5226 148.766 71.4656 148.344C71.4751 148.344 71.4853 148.344 71.4948 148.342ZM67.8402 180.75C67.17 180.282 66.6812 179.628 66.1127 179.05C65.553 178.482 66.4273 177.607 66.9871 178.175C67.4721 178.668 67.8936 179.283 68.4643 179.682C68.7394 179.873 68.8667 180.219 68.686 180.528C68.5272 180.8 68.1145 180.941 67.8402 180.75ZM64.1006 162.758C65.3247 162.229 66.529 161.652 67.8102 161.271C68.5755 161.043 68.8996 162.237 68.1387 162.464C66.9585 162.815 65.8522 163.339 64.7248 163.827C64.0011 164.139 63.3719 163.073 64.1006 162.758ZM51.1737 162.387C50.8737 161.649 52.0707 161.33 52.3655 162.059C52.7057 162.897 53.095 163.715 53.4345 164.552C53.733 165.291 52.5367 165.61 52.2419 164.882C51.9024 164.043 51.5131 163.227 51.1737 162.387ZM38.4142 177.143C38.2145 177.409 37.8823 177.553 37.5677 177.365C37.305 177.207 37.144 176.788 37.346 176.519C37.9357 175.733 38.5327 174.957 39.2234 174.256C39.7839 173.688 40.6575 174.563 40.0978 175.131C39.481 175.756 38.9403 176.441 38.4142 177.143ZM36.5894 94.3517C37.1572 94.7395 37.6547 95.2107 38.1391 95.6958C38.7032 96.2591 37.8281 97.1335 37.2648 96.5701C36.8565 96.1618 36.4438 95.747 35.9653 95.4199C35.6888 95.2312 35.5644 94.8792 35.7436 94.5734C35.9039 94.2998 36.3136 94.1637 36.5894 94.3517ZM55.1524 114.259C54.832 114.902 54.543 115.532 54.5247 116.263C54.5049 117.059 53.2684 117.06 53.2882 116.263C53.3116 115.306 53.6642 114.478 54.0849 113.635C54.4405 112.921 55.5073 113.549 55.1524 114.259ZM61.9635 98.2712C62.6285 97.8278 63.2468 98.8997 62.5883 99.3394C62.0542 99.695 61.5193 100.052 60.9852 100.408C60.3209 100.851 59.7026 99.7792 60.3611 99.3394C60.8952 98.9838 61.4294 98.6275 61.9635 98.2712ZM32.4219 126.225C32.3085 127.011 31.1174 126.675 31.2293 125.897C31.4034 124.693 31.6156 123.505 31.9419 122.333C32.1556 121.567 33.3482 121.894 33.1345 122.662C32.8082 123.834 32.5953 125.021 32.4219 126.225ZM28.0861 140.396C27.29 140.379 27.29 139.142 28.0861 139.159C28.8068 139.174 29.515 139.364 30.2094 139.538C30.9827 139.731 30.6527 140.923 29.8808 140.73C29.2933 140.583 28.6956 140.409 28.0861 140.396ZM26.4859 168.942C26.2123 169.075 25.9321 169.195 25.6555 169.321C25.1016 169.575 24.5485 169.828 23.9954 170.082C22.843 170.611 21.6921 171.142 20.5412 171.675C18.2381 172.741 15.9171 173.771 13.6083 174.826C11.254 175.901 8.90579 176.991 6.56052 178.087C5.45564 178.603 4.34234 179.101 3.23132 179.603C2.28125 180.033 1.10694 180.784 0.0640297 180.855C0.0103989 180.858 -0.0075264 180.79 0.023056 180.755C0.417057 180.307 1.04555 180.046 1.56342 179.755C2.09234 179.457 2.63121 179.177 3.16759 178.893C4.28579 178.3 5.40538 177.712 6.5344 177.141C8.79282 175.997 11.0555 174.862 13.3187 173.729C15.6268 172.572 17.9319 171.409 20.2602 170.294C21.3563 169.768 22.4537 169.245 23.552 168.723C24.1468 168.44 24.7416 168.158 25.3372 167.876C25.594 167.755 25.8487 167.623 26.1113 167.514C26.4603 167.37 26.7259 167.399 27.0859 167.31C27.6734 167.165 27.9273 167.912 27.4766 168.238C27.1057 168.506 26.9103 168.735 26.4859 168.942ZM18.2302 181.627C18.1032 181.318 18.369 180.943 18.6621 180.866C19.0131 180.773 19.2946 180.987 19.4227 181.298C19.7617 182.123 20.2449 182.88 20.866 183.519C21.4214 184.091 20.5478 184.966 19.9917 184.394C19.2128 183.592 18.6532 182.656 18.2302 181.627ZM12.1567 161.77C11.593 161.206 12.4676 160.331 13.0312 160.896L14.6338 162.499C15.1976 163.062 14.3228 163.937 13.7594 163.373L12.1567 161.77ZM-4.28562 159.156C-5.43777 159.494 -6.78169 159.805 -7.56727 160.788C-7.60561 160.836 -7.67007 160.775 -7.64702 160.727C-6.64135 158.641 -3.75722 157.91 -1.76044 157.179C-0.34804 156.661 1.10108 156.233 2.56243 155.85C2.41639 154.183 2.81917 152.395 2.95929 150.736C3.10869 148.964 3.23037 147.187 3.29285 145.41C3.35665 143.597 3.37209 141.771 3.31246 139.958C3.25312 138.151 3.01862 136.366 2.91597 134.565C2.90609 134.391 3.14842 134.382 3.20074 134.527C3.80758 136.198 4.0668 138.049 4.26435 139.811C4.46775 141.627 4.53529 143.437 4.50931 145.262C4.48246 147.14 4.37329 149.012 4.22352 150.884C4.15255 151.77 4.07017 152.656 3.99247 153.542C3.93306 154.219 3.90554 154.89 3.7677 155.545C4.64906 155.328 5.53246 155.123 6.41309 154.924C9.22113 154.291 12.0409 153.703 14.8372 153.017C16.2098 152.68 17.5629 152.278 18.9293 151.92C20.2163 151.583 21.5743 151.175 22.8949 151.024C23.3669 150.971 23.4269 151.615 23.1144 151.835C22.0411 152.589 20.6151 153.114 19.3746 153.536C18.13 153.959 16.8362 154.265 15.5605 154.578C12.9001 155.233 10.2144 155.768 7.53283 156.326C4.85495 156.882 2.17202 157.435 -0.475718 158.122C-1.75086 158.453 -3.02161 158.785 -4.28562 159.156ZM-10.5995 126.06C-11.288 126.464 -11.9095 125.395 -11.2235 124.992C-10.3259 124.465 -9.36921 124.069 -8.40481 123.683C-7.66473 123.386 -7.34624 124.583 -8.076 124.876C-8.94272 125.223 -9.79291 125.587 -10.5995 126.06ZM-13.0926 172.02C-13.783 172.421 -14.405 171.352 -13.7167 170.952C-12.7499 170.392 -11.6913 170.018 -10.6894 169.528C-9.97671 169.178 -9.3507 170.245 -10.0655 170.596C-11.0671 171.086 -12.1259 171.46 -13.0926 172.02ZM-14.2139 145.932C-13.5464 146.566 -12.6556 146.865 -11.8156 147.197C-11.0833 147.488 -11.4045 148.683 -12.1444 148.39C-13.1909 147.975 -14.2569 147.596 -15.0883 146.806C-15.6668 146.256 -14.7907 145.383 -14.2139 145.932ZM-6.82961 110.5C-6.09583 110.788 -6.41717 111.984 -7.15835 111.694C-7.98044 111.371 -8.82932 111.125 -9.65141 110.802C-10.385 110.515 -10.0638 109.319 -9.3226 109.61C-8.50058 109.932 -7.65163 110.178 -6.82961 110.5ZM6.19696 96.4267C6.97662 96.2957 7.30865 97.4876 6.52577 97.62C5.55434 97.7839 4.59784 97.9764 3.67661 98.3327C2.93258 98.6202 2.61343 97.4239 3.3478 97.1401C4.26925 96.783 5.22576 96.5913 6.19696 96.4267ZM10.5012 130.692C9.78627 130.34 10.4135 129.274 11.1252 129.624C11.8752 129.992 12.6523 130.278 13.4706 130.452C14.2498 130.618 13.918 131.811 13.1418 131.645C12.2208 131.448 11.3446 131.107 10.5012 130.692ZM14.5665 111.391C15.3363 111.18 15.6618 112.374 14.8953 112.584C13.5466 112.953 12.1581 113.146 10.7995 113.474C10.0252 113.662 9.69767 112.469 10.4707 112.282C11.8293 111.953 13.218 111.761 14.5665 111.391ZM31.8117 105.334C32.5946 105.479 32.2609 106.671 31.4832 106.527C30.6549 106.374 29.8157 106.371 28.9765 106.371C28.1797 106.371 28.1812 105.133 28.9765 105.133C29.9299 105.134 30.8715 105.16 31.8117 105.334ZM88.056 111.797C86.0359 111.604 84.0121 111.449 81.9861 111.334C81.8917 111.328 81.7988 111.323 81.7044 111.317C81.6934 111.296 81.6795 111.276 81.6656 111.255C81.0042 110.283 80.5177 109.312 80.0955 108.214C79.6916 107.169 79.3009 106.091 78.6797 105.148C77.9708 104.073 77.0137 103.232 75.9653 102.503C75.3295 102.931 74.739 103.432 74.199 103.964C73.6305 104.522 72.7555 103.647 73.324 103.088C73.8039 102.617 74.3168 102.18 74.8583 101.787C74.2327 101.406 73.5947 101.049 72.9728 100.694C70.6395 99.3628 68.2514 98.1315 65.8142 97.0062C64.6809 96.4816 63.5343 96.0162 62.379 95.5443C61.7579 95.2912 61.144 94.9648 60.5228 94.6714C60.5675 94.2317 60.4365 93.74 60.0992 93.451C59.8504 93.2388 59.6573 93.1598 59.3602 93.0106C59.2944 92.9872 59.2541 92.9733 59.2351 92.9652C59.249 92.9681 59.2892 92.9806 59.3558 93.0025C59.5139 93.0749 59.5256 93.0537 59.3931 92.9389C59.3851 92.6886 58.892 92.1596 58.7793 91.9014C58.3864 91.0153 58.2642 90.0781 57.6847 89.271C56.8857 88.1589 55.5439 87.7389 54.2935 88.1157C54.164 86.7783 54.1296 85.3823 53.6254 84.1882C53.6115 84.156 53.5669 84.1421 53.5472 84.1772C53.0211 85.0728 52.9765 86.07 52.9362 87.1031C52.8974 88.0726 52.9348 89.064 53.0613 90.0276C52.9809 90.089 52.8989 90.1483 52.814 90.2054C52.4153 90.468 51.9858 90.6707 51.5344 90.8207C50.6747 91.1053 49.774 91.229 48.8726 91.2721C46.5459 91.3833 44.149 91.1485 41.8611 90.7497C39.5468 90.3459 35.999 89.7393 33.9401 88.5811C32.5814 87.818 31.3281 86.8851 30.0572 85.9822C30.5181 84.4977 30.6359 82.9012 30.172 81.6471C30.1164 81.4971 29.8816 81.4693 29.8362 81.6471C29.5457 82.8441 29.4609 84.0477 29.0746 85.2301C29.068 85.2476 29.0621 85.2659 29.0555 85.2828C28.9355 85.2008 28.8148 85.1203 28.6941 85.0398C28.4161 84.8562 28.0371 84.9937 27.8702 85.2564C25.2004 89.4642 20.9729 89.7056 16.5336 90.4571C11.6751 91.2794 6.79217 92.1677 2.12087 93.7773C-2.34643 95.3175 -6.61582 97.56 -9.99792 100.909C-10.7635 101.668 -11.4795 102.475 -12.1554 103.319C-11.5015 103.402 -10.853 103.53 -10.213 103.731C-9.45503 103.969 -9.78077 105.163 -10.5417 104.924C-11.3644 104.665 -12.1961 104.537 -13.0364 104.473C-15.3345 107.619 -17.1264 111.185 -18.6759 114.695C-21.6479 121.425 -23.5824 128.592 -24.4726 135.889C-23.9839 135.595 -23.4863 135.317 -22.9763 135.057C-22.2677 134.696 -21.6428 135.764 -22.3521 136.125C-23.1399 136.526 -23.905 136.968 -24.6464 137.447C-24.9702 140.641 -25.0957 143.855 -25.0197 147.065C-24.8388 154.717 -23.8062 162.592 -21.4706 169.893C-20.3252 173.476 -18.8072 177.029 -16.5458 180.057C-15.5225 181.428 -14.3601 182.665 -12.9905 183.697C-12.3274 184.198 -11.6256 184.645 -10.8852 185.022C-9.93149 185.511 -8.68869 185.672 -7.8663 186.363C-7.59581 186.59 -7.38714 186.89 -7.22947 187.229C-7.32063 187.872 -7.33146 188.517 -7.15527 189.16C-7.09959 189.362 -6.94814 189.525 -6.76113 189.604C-6.75798 189.659 -6.75798 189.714 -6.75798 189.766C-6.75798 189.791 -6.72089 189.798 -6.71628 189.773C-6.70852 189.724 -6.70084 189.677 -6.69308 189.627C-6.6328 189.648 -6.56943 189.656 -6.50453 189.656C-4.15648 189.666 -1.80552 189.608 0.545605 189.528C0.363789 188.972 0.16683 188.419 -0.0221596 187.862C-0.278973 187.105 0.915758 186.783 1.17023 187.533C1.39141 188.184 1.62269 188.83 1.82843 189.484C4.34754 189.39 6.86592 189.277 9.37976 189.195C14.7266 189.016 20.0715 188.958 25.4199 188.845C33.7257 188.669 42.0915 188.308 50.4098 188.661C50.6973 188.05 51.0193 187.453 51.3251 186.851C51.6851 186.14 52.7518 186.766 52.3926 187.475C52.1804 187.894 51.9609 188.307 51.7517 188.725C53.4367 188.813 55.1195 188.928 56.7987 189.086C59.6646 189.355 62.5027 189.833 65.3657 190.13C68.2762 190.433 71.1239 190.379 74.011 189.898C74.5305 189.812 74.8363 189.498 74.9636 189.108C74.968 189.106 74.9709 189.103 74.9739 189.098C75.1224 188.926 75.2614 188.781 75.4055 188.656C75.5768 188.545 75.7626 188.451 75.9806 188.367C76.3867 188.212 76.8103 188.118 77.2406 188.055C77.7132 187.984 78.1924 187.977 78.6658 187.919C79.0639 187.868 79.4538 187.791 79.8431 187.699C80.5433 187.532 81.2084 187.314 81.8698 187.025C82.4463 186.773 82.9673 186.411 83.4589 186.016C84.476 185.272 85.3569 184.323 86.1266 183.336C86.5751 182.76 86.9973 182.161 87.3807 181.539C88.0487 180.459 88.6172 179.338 89.1922 178.207C89.4008 177.872 89.591 177.529 89.7651 177.179C88.6413 176.848 87.5072 176.578 86.3153 176.559C85.5193 176.546 85.5193 175.309 86.3153 175.322C87.6821 175.344 88.9742 175.663 90.2583 176.043C90.3212 175.877 90.3812 175.71 90.4368 175.54C90.5897 175.186 90.7163 174.822 90.8217 174.454C90.8831 174.287 90.9453 174.12 91.0068 173.954C91.1458 173.375 91.2848 172.795 91.426 172.215C91.7055 171.287 91.9265 170.346 92.0889 169.392C92.225 168.764 92.3303 168.131 92.4013 167.491C92.6179 165.94 92.7935 164.392 92.8059 162.824C92.7876 161.858 92.7254 160.893 92.6208 159.932C92.5762 159.28 92.5001 158.63 92.3984 157.986C92.2652 157.027 92.1335 156.078 91.9126 155.131C91.7472 154.491 91.5818 153.85 91.4165 153.21C91.0038 151.876 90.5166 150.567 89.9554 149.288C89.9246 149.209 89.7688 149.032 89.6744 149.03C89.6034 149.029 89.5039 149.094 89.5368 149.181C89.5398 149.188 89.5427 149.198 89.5464 149.205C89.5134 149.133 89.4827 149.058 89.4505 148.986C89.4227 148.918 89.3144 148.781 89.231 148.783C89.2259 148.783 89.2215 148.783 89.2157 148.784C89.2369 148.769 89.2574 148.749 89.2771 148.726C89.8325 148.069 90.1924 147.204 90.5897 146.443C90.919 145.815 91.2292 145.154 91.3192 144.444C91.3975 143.821 91.2914 143.207 90.8999 142.703C90.4551 142.129 89.6173 141.86 90.0827 141.031C90.6109 140.088 91.3887 139.27 90.6146 138.198C90.2202 137.652 89.5954 137.352 89.1322 136.877C88.5989 136.329 88.345 135.594 88.3589 134.844C88.3918 134.862 88.435 134.854 88.4503 134.807C88.8981 133.452 88.574 131.965 88.1145 130.646C87.8643 129.93 87.3338 129.733 86.7178 129.698C89.3883 124.479 91.8877 119.176 94.1156 113.752C94.1895 113.574 94.2619 113.396 94.3351 113.218C94.4434 112.952 94.2144 112.598 93.9502 112.539C92.0238 112.117 90.0176 111.983 88.056 111.797Z" fill="#142739"/>
<path fill-rule="evenodd" clip-rule="evenodd" d="M67.475 51.9802C66.4141 39.041 63.1831 27.5808 48.0033 27.0922C41.1528 27.1534 34.1595 28.6093 27.8599 31.3031C12.5484 38.9833 7.69023 67.0469 21.1806 78.3437C21.1001 78.3891 21.0804 78.5215 21.1755 78.5852C23.9624 80.4604 27.0602 82.0042 30.1632 83.3007C38.4273 86.7966 48.157 88.3148 56.585 84.5226C69.4483 79.0476 69.6407 63.8122 67.475 51.9802Z" fill="#F4C2C2"/>
<path fill-rule="evenodd" clip-rule="evenodd" d="M92.7928 45.9492C93.3218 45.4729 93.7154 44.8482 93.9152 44.1477C94.0974 43.5091 94.1098 42.8117 93.9166 42.1745C93.7096 41.491 93.2625 40.9467 93.3635 40.2354C93.3745 40.1658 93.3884 40.0931 93.4096 40.0204C93.7959 38.6813 94.7471 37.7148 94.4069 36.2303C94.311 35.8112 94.1303 35.4339 93.8779 35.137C93.9057 34.8154 93.9305 34.4906 93.951 34.1659C94.5086 32.8592 94.4888 31.3066 93.8932 30.0201C93.8208 29.3613 93.711 28.7087 93.5567 28.067C93.6276 27.4995 93.5289 26.8748 93.3467 26.3784C93.0262 25.505 92.6296 24.6443 92.2002 23.7978C92.2506 23.5663 92.228 23.3217 92.1007 23.1041C91.868 22.7087 91.5614 22.3611 91.2475 22.0213C91.0259 21.625 90.8027 21.2319 90.581 20.844C90.4786 20.6657 90.3652 20.4678 90.24 20.2583C90.5803 19.6265 90.7624 19.0107 90.4025 18.2677C90.2671 17.9886 89.8954 17.7828 89.5889 17.801C89.2545 17.821 88.9165 17.836 88.577 17.8488C87.9419 17.082 87.2227 16.3938 86.4522 15.9976C85.6716 15.3358 84.8799 14.6863 84.1102 14.0229C83.8922 13.8342 83.6726 13.6456 83.4553 13.4569C83.4531 13.4523 83.4517 13.4461 83.4502 13.4414C83.2893 12.8554 83.1085 12.277 82.9278 11.6956C82.8151 11.3353 82.7808 10.958 82.4303 10.7616C81.6972 10.3518 80.5704 10.2869 79.7297 10.2173C79.6463 10.143 79.5629 10.0704 79.4795 9.99613C79.8614 8.97861 79.7934 7.89772 79.3127 6.87866C79.1488 6.53229 78.5796 6.37609 78.2671 6.60495C77.5472 7.13379 76.6926 7.32095 75.8468 7.24362C74.6037 6.28792 69.5911 1.96644 68.8163 1.51032C68.8068 1.49393 68.7994 1.47754 68.7892 1.4613C68.3539 0.765707 67.8249 0.207156 67.23 -0.240694C67.1452 -0.329298 67.0603 -0.41805 66.9754 -0.5068C67.05 -1.03703 67.2469 -1.54905 67.5629 -1.97737C67.5973 -2.0269 67.6354 -2.07482 67.6741 -2.12121C68.228 -2.77992 67.552 -3.62734 66.7793 -3.2825C66.7237 -3.25777 66.6681 -3.23304 66.6125 -3.20678C66.0184 -2.9417 65.3606 -2.65364 64.6758 -2.41051C64.4256 -2.50438 64.1702 -2.58947 63.9376 -2.68313L61.4433 -3.68631C61.0321 -3.85144 60.5982 -3.99141 60.201 -4.18545C60.0627 -5.1069 59.1393 -5.71125 58.1808 -5.67972C58.2365 -5.85663 58.3191 -6.02843 58.4355 -6.19122C58.4691 -6.23915 58.5064 -6.28561 58.5452 -6.33039C59.0383 -6.90416 58.3799 -7.96799 57.6745 -7.45773C57.6255 -7.42217 57.5743 -7.38661 57.5245 -7.35105C57.3292 -7.21357 57.1287 -7.08458 56.926 -6.95961C56.6012 -7.10126 56.2361 -7.1336 55.8534 -6.98376C55.0069 -6.6521 54.2262 -6.3148 53.4806 -5.79488C53.4506 -5.77374 53.4192 -5.75596 53.3885 -5.73598C53.0182 -6.18318 52.4307 -6.48228 51.9017 -6.47899C51.8907 -6.47899 51.8827 -6.47921 51.8732 -6.47935C51.4774 -7.08224 50.7523 -7.43263 50.0521 -7.34747C50.0996 -8.21266 49.2334 -8.98478 48.4454 -9.07865C47.5242 -9.18811 46.6945 -8.65319 46.4179 -7.75449C46.3411 -7.50426 46.2643 -7.25389 46.1874 -7.00351C45.4719 -7.36466 44.7175 -7.6413 43.9288 -7.77937C42.134 -8.09391 40.3788 -7.75895 38.6491 -7.2604C38.4757 -7.21057 38.3031 -7.15943 38.1304 -7.10836C37.8838 -7.39429 37.6526 -7.68703 37.4317 -7.96031C37.0497 -8.43194 36.133 -8.05462 36.1951 -7.44844C36.2376 -7.03015 36.0678 -6.72921 35.7942 -6.51535C35.4942 -6.47145 35.2037 -6.45813 34.7662 -6.46699C34.1875 -6.47869 33.9241 -6.49684 33.319 -6.7328C33.0373 -6.84255 32.6861 -7.13126 32.5222 -7.39042C31.8922 -8.38431 30.2921 -8.65195 29.5297 -7.70437C28.7278 -8.05557 27.7152 -7.57121 27.2703 -6.88835C27.0377 -6.5313 26.5511 -6.33163 25.9394 -6.15998C25.4807 -6.03136 25.011 -5.9339 24.539 -5.84873C24.3291 -6.13401 23.8864 -6.32534 23.5615 -6.08608C23.3413 -5.92358 23.1277 -5.75669 22.917 -5.5857C21.2927 -5.36174 19.6763 -5.35376 18.1273 -5.98746C16.8159 -6.52406 15.6118 -5.05854 15.8282 -3.82825C15.4484 -3.63048 15.0363 -3.49886 14.6611 -3.29165C13.8426 -2.83919 13.1706 -2.12399 12.7609 -1.28368C12.6875 -1.13325 12.6212 -0.980477 12.5579 -0.826901C12.252 -0.577771 11.9495 -0.321981 11.6543 -0.052145C11.1627 -0.304202 10.6727 -0.55626 10.1811 -0.808317C9.81326 -0.997013 9.1934 -0.865534 9.12074 -0.37693C9.00178 0.427238 8.7127 1.09371 8.29997 1.65197C6.95825 2.35707 5.66752 3.1488 4.43248 4.0287C3.01196 4.47406 1.50174 4.73387 0.260473 5.0261C-0.164621 5.12663 -0.396488 5.68181 -0.156868 6.05137C0.0965786 6.44259 0.3501 6.83381 0.602083 7.22503C-0.104336 7.9147 -0.767441 8.63531 -1.39352 9.38073C-3.13561 11.4528 -4.59322 13.7245 -5.89785 16.1306C-6.41411 16.3393 -6.93044 16.5465 -7.4467 16.7553C-7.94445 16.9563 -8.16856 17.5347 -7.76512 17.96C-7.5735 18.1625 -7.40185 18.3759 -7.25501 18.6002C-7.98616 19.8109 -8.84718 20.9151 -10.0513 21.6388C-10.4177 21.8583 -10.6928 22.2032 -10.8396 22.5944C-10.9649 22.6779 -11.0885 22.7676 -11.2107 22.8588C-11.5507 23.1155 -11.7563 23.6753 -11.3575 24.0078C-11.0777 24.2428 -10.8149 24.5212 -10.5923 24.8289C-10.5444 25.0037 -10.495 25.1799 -10.4455 25.3547C-11.5646 26.3845 -12.4952 27.5815 -13.1938 28.9237C-13.3593 28.8974 -13.5293 28.9144 -13.6668 29.0165C-14.9159 29.9397 -14.953 31.4102 -14.4505 32.7247C-14.7535 34.7056 -14.5587 36.7359 -13.9744 38.655C-14.7427 39.422 -15.2049 40.5292 -15.3935 41.5962C-15.7258 43.4704 -15.749 46.3528 -15.8356 48.2657C-16.6734 49.0745 -17.2701 50.1213 -17.6024 51.2471C-17.8822 51.3863 -18.162 51.5254 -18.4417 51.6646C-18.6906 51.7883 -18.873 52.1146 -18.8575 52.3898C-18.7864 53.7212 -18.2377 54.7728 -17.5096 55.7251C-17.2515 56.4597 -16.8697 57.1372 -16.3689 57.7869C-16.0226 58.2318 -15.6841 58.6591 -15.3857 59.1398C-15.3549 59.1873 -15.3363 59.2327 -15.3224 59.2634C-15.4399 59.39 -15.5373 59.6007 -15.6223 59.7507C-16.3364 61.0092 -16.3472 62.4842 -15.3332 63.581C-15.715 63.8934 -15.7274 64.5241 -15.3904 64.9111C-13.197 67.4178 -11.3683 70.4652 -8.3247 71.7968C-8.31079 71.8202 -8.29843 71.8429 -8.2876 71.8663C-8.90439 73.3508 -8.9878 74.1227 -8.48391 75.6563C-8.48083 75.6702 -8.47622 75.6826 -8.47154 75.6965C-8.20258 76.5006 -7.70798 77.7891 -6.81601 78.0393C-6.53469 78.1183 -6.25805 78.1542 -5.9844 78.152C-5.27645 78.8346 -4.57003 79.518 -3.86361 80.2014C-3.80179 80.5401 -3.76316 80.8818 -3.75079 81.2264C-3.73067 81.803 -3.18814 82.2705 -2.60384 82.1C-2.39824 82.04 -1.26058 80.9345 -1.05191 80.9404C-0.946768 81.0457 -0.844774 81.1511 -0.742708 81.2572C-0.367146 81.6515 0.153797 82.2734 0.197111 82.6861C0.280594 83.4639 0.79063 84.355 1.61456 84.5123C1.92368 84.8262 2.41836 84.9206 2.79707 84.5109C2.8218 84.4845 2.84653 84.4582 2.8728 84.4355C2.91296 84.4304 2.95167 84.426 2.99183 84.4216C3.17424 84.966 3.35664 85.5103 3.54058 86.0525C3.9007 87.1229 5.27645 87.8107 6.25336 87.1866C6.41104 87.2802 6.56564 87.3812 6.72024 87.4814C6.95517 87.6314 7.19318 87.7843 7.43741 87.9285C7.45139 87.9687 7.46529 88.0089 7.47766 88.0477C7.63533 88.5284 8.29067 88.7867 8.69419 88.5101C8.81937 88.5504 8.94764 88.5826 9.07751 88.6089C9.75919 88.7435 10.4455 88.7062 11.104 88.4787C11.5755 88.3184 12.0253 88.0104 12.5323 87.9687C12.5639 87.9658 12.5966 87.968 12.6288 87.9672C13.0424 88.8152 13.9876 89.5454 14.7325 89.7935C15.7082 90.1191 16.7068 90.0027 17.5953 89.6047C17.8351 90.0839 18.1361 90.5383 18.4958 90.9575C18.6953 91.1895 19.0554 91.1405 19.261 90.9575C19.6515 90.6115 20.0393 90.2639 20.4271 89.9149C20.7073 89.8074 20.9905 89.6771 21.2853 89.5571C22.2087 89.1796 23.2213 89.023 24.0752 88.4779C24.4805 88.2189 24.8617 87.8889 25.1763 87.5063C25.7682 87.1646 26.3119 86.7388 26.8013 86.2508C27.0457 86.2522 27.3003 86.1952 27.5476 86.07C28.5822 85.544 29.1258 84.4736 29.1741 83.379C30.0119 81.4072 30.5065 79.3044 30.6426 77.1518C30.6857 76.445 30.6938 75.7324 30.6396 75.0256C30.6023 74.5274 30.4772 74.1952 30.2884 73.7452C30.2248 73.5981 30.1677 73.4635 30.1231 73.315C30.1341 72.8387 30.1399 72.3631 30.1465 71.8882C30.2745 71.4873 30.5036 71.1149 30.8218 70.801C31.315 70.3152 31.5403 69.3069 31.0925 68.707C30.7999 68.3192 30.5094 67.9307 30.2175 67.5429C30.2994 65.8769 30.6982 63.2268 29.8136 62.9488C29.8494 62.7008 29.9255 62.4564 29.9687 62.2106C30.1758 61.0297 30.0521 59.9731 29.4243 58.94C29.2926 58.7257 29.1814 58.5354 29.0907 58.3496C29.0336 58.0094 28.9758 57.6691 28.9188 57.3289C28.831 56.805 28.7439 56.2761 28.67 55.7441C28.6312 55.0666 28.5961 54.3893 28.5573 53.7104C28.5215 53.0857 28.4812 52.4609 28.4395 51.8347C28.4571 51.5548 28.4812 51.2749 28.5171 50.995C28.7285 49.3265 29.4104 48.7095 30.5914 47.5497C30.7772 47.5203 30.9608 47.4878 31.1416 47.4508C31.9844 47.276 32.8654 47.0054 33.7324 47.1028C34.674 47.208 35.5162 47.6146 36.4315 47.0951C36.7 46.9404 37.2926 46.5136 37.3431 46.175C37.3468 46.1534 37.3512 46.1348 37.357 46.1209C37.4207 46.1116 37.5026 46.1038 37.5538 46.1023C38.2804 46.0776 38.974 46.3637 39.7071 46.2848C40.5741 46.192 41.3497 45.8069 41.8604 45.2364C42.5138 45.3972 43.1818 45.4699 43.86 45.3802C44.4293 45.306 44.9392 45.1203 45.4433 44.8451C45.8092 44.6472 45.6936 44.59 46.0923 44.7508C46.9996 45.1188 47.8205 45.6044 48.8419 45.3524C49.3724 45.2224 49.8297 44.9363 50.2152 44.5513C50.306 44.4616 50.4604 44.3271 50.5642 44.2003C51.0493 44.4461 52.2705 45.0013 52.4717 45.0508C53.0409 45.1899 53.6431 45.1683 54.1969 44.9827C54.603 44.8466 55.1013 44.4755 55.4583 44.3997C55.92 44.3008 56.9465 44.9441 57.4982 45.1652C58.4662 45.5533 59.4912 45.6493 60.4709 45.2487C60.8082 45.1111 61.4631 44.5622 61.7155 44.5668C62.1252 45.0724 63.2688 47.8389 63.612 48.8487C65.0014 52.931 65.3621 65.6779 64.7204 68.9301C64.6955 69.026 64.6692 69.1204 64.6429 69.2162C63.8549 72.0441 63.0339 74.9202 61.7155 77.5557C60.4709 80.039 58.7508 82.2749 56.2822 83.6314C53.7221 85.0384 50.7172 85.4079 47.8388 85.2177C45.9855 85.0969 44.1629 84.7245 42.3704 84.2577C41.4331 84.0148 40.5046 83.7441 39.5798 83.4624C39.1767 83.3402 38.7669 83.2261 38.3711 83.0834C37.6724 82.8317 37.3065 82.8112 36.6371 83.1346C36.0276 83.4287 35.8717 84.2958 36.1886 84.8416C36.7051 85.7327 37.6511 85.7942 38.5643 86.0539C39.4949 86.3188 40.4285 86.572 41.3687 86.7995C43.1693 87.2327 44.9992 87.5648 46.8452 87.7185C50.1501 87.995 53.5553 87.5685 56.5631 86.1256C56.9034 85.9618 57.2311 85.7869 57.548 85.5981C57.4309 85.762 57.3116 85.9259 57.1909 86.0883C56.8573 86.5383 57.1046 87.3036 57.5728 87.5495C57.7214 87.627 57.8699 87.7009 58.0191 87.7741C58.0396 87.8216 58.0608 87.8699 58.0857 87.9175C58.5137 88.7772 59.4108 89.285 60.3239 89.5045C61.4097 89.7642 62.6242 89.5798 63.7283 89.5476C64.7512 89.5169 65.7747 89.4854 66.7962 89.4547C67.0376 89.4489 67.2783 89.4408 67.5198 89.4328C68.7351 89.3962 69.9482 89.3603 71.1612 89.323C72.2434 89.2908 72.1929 89.3742 73.2084 88.9411C73.6613 88.7465 74.0323 88.4714 74.344 88.1048C74.5393 88.0185 74.7274 87.9189 74.9088 87.8063C75.4897 87.4448 76.0063 86.959 76.4819 86.4242C77.2904 86.6788 78.4237 86.4425 78.581 85.4262C78.8349 83.8012 80.9465 83.1068 81.9328 81.9318C82.7288 80.9835 83.2973 79.7419 83.268 78.55C85.2743 77.5784 86.3659 75.0198 86.6205 72.8482C86.7398 71.8414 86.7215 70.7637 86.8927 69.7401C86.9688 69.6581 87.0368 69.5718 87.0939 69.4789C87.5973 68.6638 88.0363 67.8239 88.4233 66.9642C88.9487 66.5852 89.5808 66.3518 90.2422 66.313C91.8687 66.2193 92.1746 64.0251 90.6242 63.4961C90.6169 63.4924 90.6103 63.491 90.6029 63.488C91.0229 62.4366 90.9878 61.1921 90.4771 60.1956C90.499 60.088 90.5188 59.9812 90.5393 59.8729C91.4092 58.9371 91.909 57.6369 91.8534 56.3704C92.2506 56.0902 92.6955 55.8736 93.1828 55.739C93.9349 55.532 93.9401 54.6135 93.3833 54.2022C93.1594 54.0367 92.9735 53.8434 92.8192 53.63C93.204 52.4733 93.0526 51.1358 92.266 50.1863C92.765 49.5461 93.2647 48.9059 93.7637 48.2657C94.0944 47.842 94.2693 47.1229 93.7637 46.7208C93.4403 46.4626 93.1177 46.2059 92.7928 45.9492Z" fill="black"/>
<path fill-rule="evenodd" clip-rule="evenodd" d="M56.3472 69.9787C56.8777 69.0429 58.4603 69.1951 58.7025 70.2867C59.1927 72.5 56.5543 74.5442 54.5503 74.5955C52.5594 74.6459 50.3249 72.95 50.6132 70.8084C50.6842 70.2787 51.3917 70.343 51.6331 70.6752L51.7268 70.8025C52.3816 71.6827 53.2457 72.5936 54.461 72.3793C54.9651 72.2907 55.4224 71.9754 55.7268 71.5708C56.0941 71.0813 56.0538 70.4974 56.3472 69.9787ZM43.6851 53.7853C43.9551 53.7108 44.2273 53.7397 44.4665 53.8414C44.9999 53.9393 45.4462 54.3846 45.6028 54.8933C45.6152 54.9372 45.6291 54.9803 45.6445 55.0235L45.6679 55.0879L45.6043 54.9247C45.6335 55.085 45.7645 55.254 45.8113 55.415C45.8691 55.6132 45.883 55.8379 45.8633 56.0559C46.033 56.0581 46.2028 56.0639 46.3725 56.0786L46.5364 56.0932C47.4517 56.1781 48.457 56.3347 48.9999 57.1256C49.3043 57.5704 49.0182 58.3709 48.4585 58.4565C47.5966 58.5889 46.8539 58.1119 45.9942 58.016C45.1821 57.9253 44.3326 57.9772 43.5307 58.1243C41.8757 58.4265 40.3553 59.0981 38.742 59.5188L38.5225 59.5745L38.5232 59.5737C38.2467 59.6403 37.9328 59.2562 38.2064 59.0308C39.4985 57.9692 41.1528 57.1088 42.7822 56.5849C42.5452 56.2066 42.4713 55.7091 42.6337 55.3037C42.6586 55.2196 42.69 55.1377 42.723 55.0564L42.7918 54.8889C42.7983 54.8099 42.8137 54.7317 42.8356 54.6551L42.8386 54.6317L42.8408 54.6331C42.9622 54.2387 43.279 53.8972 43.6851 53.7853ZM60.1694 53.8464C60.5228 53.4927 61.0196 53.5449 61.3884 53.8233L61.4374 53.8616C61.7849 54.0161 62.0725 54.3537 62.2613 54.6665C62.4573 54.9913 62.5876 55.322 62.5927 55.6798C63.448 55.6827 64.2675 55.9396 64.896 56.6303C65.0986 56.8534 65.2369 57.1973 65.1257 57.4995L65.0591 57.6795C64.8484 58.2501 63.9002 58.5794 63.5775 57.9077L63.5629 57.8748C63.2205 57.0773 61.9064 57.1614 61.2077 57.2427C60.7204 57.2997 60.2397 57.4212 59.7692 57.5565C59.6039 57.6041 59.44 57.656 59.2753 57.7094L59.1115 57.7621C59.0244 57.7907 58.5686 58.038 58.8517 57.9794C58.9278 57.9641 58.9856 58.0745 58.9081 58.1119C58.57 58.2736 58.2093 57.9516 58.232 57.5887C58.2708 56.9588 59.2717 56.6127 59.7531 56.3954L59.7817 56.3822C59.966 56.2973 60.1599 56.2154 60.3589 56.1393C60.247 55.9725 60.1541 55.7866 60.0773 55.5876C60.0041 55.3996 59.9558 55.2167 59.9287 55.0169C59.9024 54.9189 59.9024 54.8216 59.9287 54.7236L59.9331 54.6956C59.9192 54.631 59.9126 54.5642 59.9134 54.4969L59.9112 54.4708H59.9134C59.9229 54.2352 60.0165 53.9993 60.1694 53.8464ZM54.5232 60.5585C55.8812 60.9778 58.1208 62.1214 57.4133 63.8861C56.4255 65.506 53.8054 64.3156 52.536 63.7917C51.3954 63.4135 50.8013 65.0129 51.9046 65.4951C61.0182 69.1021 60.9845 59.5825 54.8539 59.7222C54.1786 59.7376 54.1574 60.4188 54.5232 60.5585ZM42.4654 48.1461L42.6974 48.0784C43.9002 47.7297 45.1287 47.1276 46.1976 48.0671C46.6169 48.4361 46.7032 49.2028 46.4032 49.663C45.7191 50.7115 44.705 50.5514 43.601 50.6407C42.7596 50.7088 41.9313 50.9559 41.1462 51.2647C40.5053 51.5173 39.9097 51.8728 39.3486 52.2693C38.7961 52.6591 38.4193 53.2685 37.853 53.6194C37.646 53.748 37.406 53.6157 37.3321 53.4071C37.068 52.6671 37.5135 51.7453 37.8911 51.1148C38.352 50.3457 39.0522 49.7166 39.8044 49.2407C40.629 48.7194 41.5399 48.4184 42.4654 48.1461ZM60.0004 47.3499C62.0344 47.3492 63.9916 48.481 65.1294 50.1401C65.5157 50.7038 65.2325 51.5388 64.6772 51.8634C64.0546 52.2277 63.3895 51.9653 62.979 51.4433L62.9549 51.4117C62.3022 50.5425 61.4608 49.8579 60.4643 49.4123C59.9777 49.1947 59.44 49.0182 58.9139 48.9287L58.7434 48.8995C58.5049 48.8596 58.2291 48.8214 58.0132 48.8588C57.8976 48.8739 57.7915 48.9121 57.6942 48.9703C57.7411 49.073 57.6196 49.1966 57.5077 49.1351C57.0021 48.8574 57.0643 48.362 57.4813 47.9769C58.0725 47.4321 59.2373 47.35 60.0004 47.3499Z" fill="black"/>
<path fill-rule="evenodd" clip-rule="evenodd" d="M55.4788 66.5757C53.7601 65.8008 50.6732 66.4769 49.5523 66.7454C46.9468 67.3703 44.326 68.7216 43.5161 70.8376C42.603 73.2228 44.4248 73.9735 44.6926 73.8506C46.4961 73.9779 48.6436 72.8438 50.5335 72.5504C52.0685 72.3112 53.6869 72.1019 55.1239 71.2861C56.1738 71.8641 58.5444 72.1758 60.4577 72.6814C62.0871 73.1109 62.7932 74.043 64.3033 73.8447C66.1142 73.6077 65.373 69.7986 63.3551 68.2556C61.1469 66.5662 57.4118 65.8813 55.4788 66.5757ZM58.8832 82.8624C57.3789 83.2297 57.2779 79.9321 57.1096 78.7666C56.9779 77.8564 56.2353 75.5092 54.3535 75.611C52.4709 75.7119 51.7634 77.6786 51.8592 78.9012C51.9214 79.6951 52.6516 83.7126 50.3198 84.2211C48.8331 84.2153 47.1129 84.1151 45.5494 83.8268C43.7093 83.4097 41.3167 81.9501 40.6846 84.8248C40.457 85.8593 48.5624 88.933 52.1592 89.2111C55.8073 89.9508 60.0751 88.8138 62.6725 86.0218C63.2629 85.3867 64.9267 82.7505 65.046 82.1052C65.2947 80.748 64.7182 79.8751 63.0397 80.3528C61.8537 80.9865 59.8497 82.6268 58.8832 82.8624Z" fill="black"/>
<path fill-rule="evenodd" clip-rule="evenodd" d="M69.1433 61.4921C67.2666 63.4325 64.1343 63.9893 61.6372 62.9488C55.2256 60.2688 58.3637 51.9108 63.3083 49.6663C63.9258 49.5122 64.7511 49.1468 65.5033 49.064C65.5713 49.0305 65.7191 49.1272 65.8991 49.0358C71.3507 49.6448 72.5923 58.1111 69.1433 61.4921ZM48.4643 61.9889C46.3601 64.7817 42.4464 65.6436 39.2491 64.3449C32.9326 61.8565 35.173 54.445 39.4949 51.5393C48.6238 48.1078 52.3934 56.8395 48.4643 61.9889ZM34.772 55.8005C34.7662 55.7976 34.7603 55.7969 34.7545 55.7939C34.7874 55.7793 34.8211 55.7647 34.854 55.7493C34.8437 55.7778 34.8313 55.8056 34.821 55.8342C34.805 55.8225 34.7903 55.8093 34.772 55.8005ZM73.4886 52.7817C72.9735 52.7827 72.2287 52.8675 71.8021 53.2251C70.75 49.6758 66.8671 46.3908 63.4897 48.7861C60.8302 49.6418 58.8569 51.5393 57.7352 54.062C55.7129 52.8586 52.5331 53.3725 50.7793 54.9642C49.6306 51.1674 46.8042 49.838 43.44 49.6418C39.7678 49.04 36.108 52.6077 34.9659 55.4698C34.0162 55.3615 32.5975 55.0593 31.7042 55.6454C25.9065 54.1245 15.77 53.2859 14.5913 54.131C13.7514 54.4535 13.2905 56.4371 14.4637 56.5439C15.486 56.3983 14.3443 55.0908 15.3749 54.9481C20.8661 54.6073 26.1962 55.7134 31.6295 56.178C32.1146 56.8307 33.6819 57.0487 34.5181 56.7868C33.2011 61.6414 36.0437 64.9448 40.3027 65.934C46.8986 67.4493 52.6363 61.5477 50.9117 55.4083C52.9099 54.414 55.2081 54.4567 57.384 54.9803C53.7469 68.3705 75.3039 67.7698 71.9375 53.684C74.1778 54.7989 74.6644 53.0067 73.4886 52.7817Z" fill="black"/>
</g>
</svg>
