<svg width="90" height="90" viewBox="0 0 90 90" fill="none" xmlns="http://www.w3.org/2000/svg">
<circle cx="44.78" cy="44.78" r="44.78" fill="#A6CFAC"/>
<mask id="mask0_1_40" style="mask-type:alpha" maskUnits="userSpaceOnUse" x="0" y="0" width="90" height="90">
<circle cx="44.78" cy="44.78" r="44.78" fill="#C4C4C4"/>
</mask>
<g mask="url(#mask0_1_40)">
<path fill-rule="evenodd" clip-rule="evenodd" d="M44.0465 61.2245C50.5221 65.1277 56.8847 67.0135 59.8714 66.2437C67.3607 64.3132 68.0493 36.9153 62.2544 26.1141C56.4596 15.313 26.6694 10.6052 25.1679 32.0057C24.6467 39.4331 27.7655 46.0616 32.3734 51.4703L24.1111 89.9802H48.1111L44.0465 61.2245Z" fill="#B28B67"/>
<path fill-rule="evenodd" clip-rule="evenodd" d="M45.2464 34.369C47.3223 31.278 49.3154 28.9202 51.9079 27.551C62.459 27.7178 63.6943 25.8263 63.6943 19.451C61.9902 18.2316 55.9771 16.1782 49.2432 15.6007C45.808 14.6176 41.7386 14.8025 37.8185 16.4423C32.9792 17.8153 28.8816 20.7723 27.0716 26.3084C20.5233 37.6091 25.4935 49.3728 32.1915 53.3913C33.9744 51.279 35.5303 49.2319 36.9187 47.2723C35.8034 46.1828 35.1111 44.6623 35.1111 42.9801C35.1111 39.6664 37.7974 36.9801 41.1111 36.9801C41.3547 36.9801 41.595 36.9946 41.831 37.0228C41.9801 41.1658 42.5937 55.1827 44.2056 60.0516C46.1059 65.7917 57.1948 67.2011 61.0624 67.2011C64.4028 67.2011 64.289 64.0379 64.2074 61.7709C64.1956 61.4444 64.1845 61.1365 64.1845 60.8593C64.1845 60.2802 63.4313 60.2817 62.5802 60.2834C61.4751 60.2856 60.2051 60.2881 60.2051 59.0201C60.2051 57.638 62.1151 56.5778 63.8242 55.6291C64.8906 55.0373 65.8787 54.4888 66.2761 53.9326C67.5297 52.1778 67.952 49.8111 66.0607 49.8111C65.027 49.8111 63.6086 50.4071 61.9022 51.1241C59.3262 52.2065 56.0937 53.5648 52.5369 53.5648C46.6611 53.5648 45.2637 34.6062 45.2464 34.369Z" fill="#191847"/>
</g>
</svg>
