<svg width="119" height="119" viewBox="0 0 119 119" fill="none" xmlns="http://www.w3.org/2000/svg">
<circle cx="59.5" cy="59.5" r="57" stroke="url(#paint0_linear_1_49)" stroke-width="5"/>
<circle cx="59.78" cy="59.78" r="44.78" fill="#E0BEBE"/>
<mask id="mask0_1_49" style="mask-type:alpha" maskUnits="userSpaceOnUse" x="15" y="15" width="90" height="90">
<circle cx="59.78" cy="59.78" r="44.78" fill="#C4C4C4"/>
</mask>
<g mask="url(#mask0_1_49)">
<path fill-rule="evenodd" clip-rule="evenodd" d="M70.8504 88.6601C67.0398 85.7578 57.4729 84.452 53.4059 87.2469C49.3885 90.0542 48.9508 94.5933 47.0788 98.7685C45.3127 97.9355 42.3965 99.1287 41.8843 100.768C41.2493 101.541 41.2208 103.714 40.7824 104.753C21.7267 107.787 18.8339 122.65 16.5403 139.523C13.5057 156.644 6.61749 173.729 9.60748 191.347C9.21802 191.911 8.91113 192.46 8.62689 193.111C7.94589 194.269 8.82271 195.909 10.1957 195.846C11.9727 195.69 13.7322 195.476 15.5173 195.41C20.4663 195.238 25.4204 195.258 30.3708 195.321L31.046 195.33C55.9976 195.641 80.9478 196.253 105.9 196.416C106.806 196.417 107.249 195.605 107.128 194.803C106.885 193.191 106.659 191.576 106.423 189.963C112.325 191.522 118.599 191.915 124.484 190.127C124.896 189.707 123.525 189.935 123.308 189.871C128.724 186.169 127.106 178.369 126.627 172.751C123.643 153.501 122.592 132.202 111.065 115.775C106.078 109.072 98.7673 103.764 90.3666 102.57L90.1335 102.538C87.6771 102.21 84.9395 102.105 82.7919 100.768C80.3764 98.8386 79.3469 95.2743 76.8055 95.2414C75.9667 95.2304 74.8253 96.2921 73.5971 97.0133C73.505 95.427 72.6508 94.0884 72.4623 92.8586L72.4469 92.7534C72.2497 91.3198 72.5193 90.0301 70.8504 88.6601ZM29.8973 140.031C35.2526 136.31 49.0867 138.18 49.4031 138.388C50.1002 138.847 50.4005 138.888 50.7776 139.483C51.1502 139.533 51.5221 139.584 51.8941 139.637C52.6394 139.881 52.087 140.798 51.2255 140.47C51.7435 142.706 50.2193 144.296 49.6121 146.505C49.4148 147.223 49.6048 148.513 49.6121 149.247C49.5529 150.181 48.5197 151.285 48.6922 152.224C49.3045 155.557 52.6262 158.809 51.2255 162.043C50.2982 163.869 47.5077 164.8 45.6525 165.421C41.8083 166.897 35.1115 165.366 32.8778 162.043C31.6868 160.271 30.3065 155.8 29.5963 154.414L29.4392 152.214C29.0504 146.746 28.7056 140.86 29.8973 140.031Z" fill="white"/>
<path fill-rule="evenodd" clip-rule="evenodd" d="M77.7393 94.9184C77.3696 94.5911 76.8223 95.0025 77.0569 95.4453C77.5852 96.4397 78.1266 97.3816 78.8354 98.2606C79.265 98.794 79.7254 99.2982 80.1915 99.7965C78.9947 100.832 77.9681 102.118 76.9992 103.324C75.7592 104.865 74.5879 106.471 73.1959 107.882C71.8237 109.273 70.3068 110.245 68.472 110.894L68.1015 111.022C66.2587 111.67 64.2888 112.543 63.2505 114.289C63.0459 114.633 63.458 115.058 63.8051 114.844C65.6099 113.726 67.7303 113.501 69.6952 112.762C71.5935 112.049 73.2478 110.951 74.7099 109.548C76.1691 108.149 77.3945 106.557 78.6732 104.998C79.9373 103.457 81.2978 102.141 82.793 100.837C85.1002 102.39 87.7337 103.066 90.4117 103.729L90.7039 103.801C93.3851 104.466 96.0518 105.237 98.5671 106.393C100.785 107.413 102.966 108.63 104.773 110.289C106.69 112.049 108.183 114.298 109.549 116.496C112.604 121.416 114.753 126.806 116.644 132.261C118.611 137.935 120.256 143.723 121.584 149.579C122.26 152.558 122.808 155.559 123.259 158.58C123.476 160.035 123.669 161.493 123.839 162.955C124.019 164.515 124.061 166.121 124.539 167.621C124.745 168.264 125.229 168.531 125.714 168.508L125.812 169.741C125.943 171.383 126.065 173.026 126.106 174.679C126.174 177.428 126.143 180.169 125.945 182.911L125.917 183.285C125.762 185.287 125.415 187.537 123.91 189.002C122.352 190.52 119.956 190.998 117.856 191.025C112.964 191.088 108.256 188.776 103.927 186.748C99.469 184.659 95.1329 182.341 90.9006 179.826C88.7452 178.545 86.6132 177.221 84.5084 175.859C83.4755 175.191 82.4498 174.511 81.4319 173.821C80.8492 173.425 80.296 172.991 79.7027 172.64C79.9935 172.369 80.1236 171.944 79.8795 171.572C81.5957 170.081 82.3098 167.423 82.3933 165.271C82.4608 163.535 82.2053 161.803 82.0037 160.083C81.902 159.215 81.7763 158.349 81.6458 157.486C81.5943 157.145 81.5549 156.779 81.4947 156.419C86.1279 158.966 90.8908 161.235 95.78 163.25C98.286 164.283 100.824 165.212 103.397 166.063L103.919 166.235C106.357 167.033 108.854 167.787 111.374 168.243C111.509 168.268 111.618 168.069 111.474 168.006C109.018 166.921 106.477 166.007 103.983 165.008L103.574 164.841C103.621 164.838 103.67 164.832 103.721 164.82C105.183 164.467 106.634 163.923 108.068 163.465C109.399 163.039 110.894 162.773 112.138 162.131C112.234 162.081 112.18 161.948 112.087 161.942C110.689 161.845 109.171 162.252 107.8 162.493L107.285 162.583C106.422 162.735 105.54 162.898 104.681 163.112C104.65 162.825 104.49 162.535 104.261 162.366C101.745 160.502 102.001 156.738 101.732 153.962L101.532 151.901C101.181 148.294 100.81 144.687 100.246 141.108C100.216 140.917 99.9202 140.972 99.919 141.152C99.8899 145.59 100.225 150.007 100.393 154.437L100.419 155.164C100.511 157.898 100.584 160.737 102.305 162.841C102.065 162.7 101.739 162.7 101.544 162.932C101.305 163.217 101.166 163.537 101.171 163.851C99.6153 163.199 98.0668 162.53 96.5259 161.847C91.5716 159.651 86.7213 157.194 81.9992 154.536C81.491 154.249 81.0077 154.474 80.7564 154.851L80.7206 154.846C80.7147 154.845 80.7081 154.845 80.7016 154.845L80.6658 154.843C80.6643 154.843 80.6628 154.843 80.6621 154.843C79.9972 154.478 79.0919 154.738 78.5212 155.271C78.5044 155.287 78.4898 155.304 78.4752 155.321C77.7532 154.997 77.0788 154.559 76.4665 154.004C75.2148 152.869 74.1538 151.465 73.2288 150.057C71.5263 147.464 70.0795 144.581 67.7793 142.446C65.9102 140.712 63.5932 139.632 61.1622 138.955C61.1724 138.884 61.1453 138.808 61.0964 138.758C60.9714 138.63 60.8823 138.585 60.7208 138.663C60.7084 138.669 60.7004 138.678 60.6952 138.688L60.4585 138.282C60.3284 138.062 60.1954 137.84 60.1494 137.782C59.8739 137.434 59.5897 137.09 59.3011 136.752C58.8123 136.18 58.2555 135.616 57.6103 135.219C56.1978 134.351 54.7123 134.842 53.2605 135.317C52.3829 135.603 51.5083 135.899 50.6329 136.191L50.5423 136.22C49.8891 136.43 49.1247 136.614 48.8332 137.306C48.717 137.58 48.6995 137.864 48.7536 138.14C42.55 136.562 35.6603 137.287 29.6065 139.139C29.3742 139.211 29.1425 139.401 29.0936 139.653C28.4001 143.211 28.0911 146.86 28.4045 150.479C28.6756 153.603 29.3676 156.664 30.6711 159.524L30.7457 159.685C31.9703 162.336 33.9125 165.603 36.8784 166.434C38.6693 166.935 40.6502 166.64 42.4769 166.548C44.2518 166.458 46.0661 166.446 47.8248 166.167C49.3907 165.918 50.763 165.215 51.7304 163.942C52.5656 162.843 53.0047 161.514 53.3649 160.193C53.5301 160.246 53.6938 160.302 53.8545 160.365C54.5355 160.631 55.1113 161.06 55.633 161.565C56.7334 162.631 57.5869 163.926 58.7384 164.943C59.7804 165.864 60.9685 166.58 62.2421 167.131C64.8821 168.273 67.7143 168.728 70.507 169.333L70.7021 169.375C72.8043 169.837 74.9496 170.403 76.8055 171.499C76.8413 171.821 76.9882 172.124 77.2235 172.323C76.8961 172.63 76.758 173.117 77.0452 173.574C77.849 174.849 79.2322 175.575 80.4743 176.391L80.5554 176.444C81.7774 177.254 83.01 178.048 84.2527 178.827C86.779 180.409 89.3581 181.904 91.9737 183.334C96.1804 185.633 100.478 187.802 104.852 189.769C104.59 191.061 104.686 192.393 104.488 193.695L104.458 193.88C104.374 194.363 104.488 194.767 104.82 195.082L104.855 195.114L104.855 195.11L104.886 195.139L104.896 195.148L104.893 195.145C104.931 195.18 104.971 195.213 105.011 195.241L105.062 195.274C105.382 195.468 105.795 195.466 106.123 195.294L106.16 195.274L106.223 195.238C106.656 194.988 106.955 194.371 106.775 193.88C106.334 192.675 106.167 191.387 105.759 190.174L106.082 190.318L106.509 190.505C111.121 192.499 116.245 194.18 121.27 192.819C123.49 192.219 125.566 190.947 126.677 188.874C127.77 186.835 127.925 184.467 127.983 182.198C128.054 179.398 127.904 176.556 127.535 173.779C127.287 171.916 126.988 170.017 126.525 168.173C126.763 167.963 126.938 167.662 126.984 167.29C127.202 165.528 126.821 163.697 126.587 161.945C126.358 160.234 126.106 158.527 125.821 156.825C125.245 153.388 124.576 149.957 123.797 146.56C122.41 140.514 120.579 134.575 118.375 128.778L118.182 128.273C116.145 122.975 113.786 117.79 110.502 113.135C108.931 110.908 107.27 108.889 105.05 107.284C102.971 105.781 100.625 104.698 98.2039 103.871C95.7804 103.043 93.2895 102.488 90.7546 102.143C88.1801 101.792 85.4627 101.577 83.0611 100.521C83.3649 99.9763 83.1042 99.2405 82.593 98.9022C80.8726 97.7652 79.2811 96.2856 77.7393 94.9184ZM22.6584 144.371C22.586 144.261 22.4151 144.331 22.4465 144.46C23.2838 147.89 24.0693 151.327 24.5823 154.822C25.5081 161.131 25.3378 167.521 25.2618 173.877L25.2582 174.205C25.2195 177.628 25.1654 181.052 25.0521 184.473C24.9951 186.203 24.8819 187.949 24.9432 189.68C24.9768 190.619 25.2268 191.506 25.3159 192.434C25.3934 193.245 25.3239 194.067 25.2852 194.88C25.2596 195.42 26.0561 195.397 26.1102 194.88L26.1796 194.211C26.2694 193.365 26.3805 192.524 26.6582 191.715C26.9914 190.741 27.1514 189.784 27.2668 188.761C27.4437 187.194 27.5226 185.611 27.5913 184.034L27.638 182.942C27.923 176.347 27.9135 169.721 27.451 163.133L27.4174 162.662C26.9599 156.435 26.1657 149.706 22.6584 144.371ZM40.4967 105.123C40.7152 105.033 40.6392 104.702 40.3966 104.76L39.9568 104.865C36.7308 105.638 33.5639 106.475 30.5535 107.913C27.5409 109.353 24.9907 111.501 22.9638 114.142C19.0239 119.277 17.3872 125.518 16.0946 131.753C14.6588 138.681 13.3508 145.634 11.9019 152.56L11.633 153.85C10.2922 160.301 9.02659 166.755 8.09423 173.281L8.02701 173.755C7.08661 180.467 6.52105 187.411 7.54694 194.14C7.75007 195.472 9.9648 195.14 9.87785 193.825C9.62795 190.022 9.44894 186.24 9.62211 182.429C9.79528 178.617 10.1526 174.822 10.6853 171.043C11.1339 167.863 11.8018 164.723 12.3936 161.568L12.4864 161.07C12.9811 158.387 13.4918 155.707 14.0011 153.027L14.7625 149.013C15.9039 143.004 17.0671 136.989 18.3816 131.018L18.4591 130.666C19.7458 124.921 21.642 118.903 25.5008 114.34C29.4165 109.711 35.0217 107.379 40.4967 105.123ZM54.7248 166.061C54.6305 165.851 54.301 165.874 54.2001 166.061C53.8034 166.794 53.7588 167.728 53.6843 168.555L53.6762 168.64C53.5805 169.649 53.4965 170.662 53.4446 171.674C53.3467 173.595 53.2992 175.513 53.3058 177.437C53.3116 179.408 53.3511 181.377 53.4577 183.345L53.4862 183.872C53.5834 185.583 53.7464 187.49 54.5582 188.986C54.8541 189.53 55.6571 189.37 55.8281 188.82C56.3885 187.02 56.1006 184.886 55.9567 183.042L55.8449 181.603C55.7346 180.165 55.6294 178.726 55.5461 177.285C55.4313 175.314 55.3371 173.342 55.2457 171.371C55.2165 170.73 55.1844 170.09 55.1508 169.449L55.0989 168.489C55.0543 167.685 55.058 166.804 54.7248 166.061ZM117.731 168.612L117.483 168.373C116.722 167.627 115.759 166.479 114.633 166.55C114.185 166.579 113.899 166.951 113.992 167.394C114.19 168.338 115.154 168.828 115.847 169.404C116.606 170.036 117.322 170.711 118.037 171.393C118.67 171.997 119.28 172.618 119.875 173.26L120.097 173.501C120.311 173.733 121.829 175.107 121.665 175.464L121.656 175.48C121.61 175.548 121.686 175.642 121.762 175.618C122.418 175.411 122.377 174.849 122.129 174.279C121.653 173.184 120.819 172.172 120.09 171.237C119.364 170.304 118.577 169.436 117.731 168.612ZM52.3486 141.162C52.8557 139.963 54.724 139.987 55.7843 140.06C58.4549 140.24 61.3441 140.916 63.7203 142.165C66.1842 143.459 67.8436 145.533 69.3284 147.827L69.3978 147.935C70.8453 150.186 72.2387 152.85 74.5053 154.397C75.6591 155.185 77.0072 155.906 78.4079 156.217C78.5037 156.386 78.6593 156.52 78.8639 156.568L78.9589 156.59C79.3578 156.679 79.9775 156.776 80.5123 156.717C80.5087 156.98 80.5116 157.24 80.505 157.488C80.486 158.199 80.478 158.913 80.478 159.625C80.478 161.115 80.5584 162.61 80.4955 164.1C80.4407 165.419 80.2544 166.797 79.6216 167.976C79.1576 168.841 78.5446 169.413 77.8051 169.96C75.9857 168.851 73.9281 168.174 71.8405 167.665C69.3152 167.051 66.7293 166.641 64.2617 165.807C63.0744 165.405 61.9323 164.881 60.8976 164.167C59.7994 163.41 58.9606 162.385 58.0976 161.382L57.9632 161.226C57.0827 160.216 56.1211 159.249 54.8767 158.701C53.8048 158.23 52.3924 158.146 51.4549 157.415C50.9654 157.033 50.9244 156.479 50.8726 155.911C51.4725 155.997 52.1082 155.86 52.7066 155.789L53.0164 155.753C53.582 155.686 54.1344 155.612 54.6911 155.468C54.7949 155.441 54.7949 155.285 54.6911 155.258C54.0335 155.089 53.381 155.016 52.7066 154.937L52.548 154.917C51.9372 154.837 51.2956 154.716 50.6972 154.85C50.5898 154.442 50.4341 154.051 50.2171 153.66C49.911 153.111 49.333 152.488 49.2548 151.847C49.2314 151.655 49.2767 151.429 49.3666 151.259L49.398 151.201C49.436 151.133 49.4806 151.065 49.5464 151.022C49.5537 151.031 49.569 151.041 49.6026 151.051C50.0637 151.196 50.4656 150.97 50.6789 150.623C51.5843 150.735 52.5729 150.697 53.4227 150.735L54.2812 150.777C55.199 150.819 56.1576 150.837 57.0206 150.652C57.1404 150.626 57.177 150.425 57.0564 150.374C55.9962 149.921 54.7109 149.776 53.5754 149.601C52.9419 149.504 52.3032 149.429 51.6675 149.344C51.2445 149.287 50.7951 149.193 50.3567 149.17C49.257 147.801 49.8496 145.64 51.3797 145.05C51.9372 145.296 52.4384 145.153 53.0471 145.101C53.655 145.049 54.2644 145.013 54.8753 145.016C56.0985 145.021 57.394 145.343 58.6055 145.205C58.8027 145.182 58.9854 144.92 58.7896 144.76C57.8624 144.003 56.5339 143.756 55.3568 143.595L55.1128 143.562C54.7182 143.51 54.2388 143.435 53.7412 143.39C53.6287 143.17 53.4263 143.004 53.1231 142.963C53.0332 142.95 52.9426 142.944 52.852 142.936L52.8535 142.927C52.1133 142.891 52.1454 141.641 52.3486 141.162ZM102.993 164.547C103.006 164.566 103.02 164.586 103.036 164.604L103.059 164.632L102.937 164.583L102.993 164.547ZM39.4394 138.482C42.5536 138.148 45.6715 138.218 48.7945 138.308C49.0444 139.125 49.9139 139.822 50.7556 139.848C50.0966 140.853 50.0279 142.212 50.4911 143.278C49.5084 143.669 48.6622 144.372 48.1485 145.373C47.4361 146.76 47.5296 148.303 48.2333 149.585C47.6327 150.129 47.2776 151.014 47.3134 151.847C47.3528 152.775 47.9067 153.569 48.3663 154.338C48.8632 155.17 48.88 155.902 49.0327 156.834C49.2563 158.197 50.1747 159.023 51.3577 159.54L51.2949 159.788C50.9902 160.975 50.6102 162.228 49.7393 163.096C48.6184 164.213 46.8793 164.203 45.3982 164.273L45.3266 164.276C43.9704 164.344 42.6143 164.424 41.2589 164.501L40.2417 164.558C38.681 164.643 37.1816 164.653 35.9073 163.622C33.827 161.936 32.4007 159.148 31.4983 156.679C29.6029 151.497 29.5802 145.81 30.4505 140.412C33.3674 139.472 36.3939 138.81 39.4394 138.482ZM65.3337 147.08L65.311 147.082C64.6695 147.155 64.2296 147.674 64.0725 148.29C63.8445 149.185 63.9563 149.995 63.4083 150.803C62.8442 151.635 62.4979 152.3 62.416 153.327C62.3817 153.749 62.3978 154.171 62.3035 154.585L62.2355 154.874C62.1632 155.183 62.1033 155.48 62.1398 155.812C62.1727 156.115 62.3196 156.351 62.6228 156.448C63.6114 156.764 64.375 156.035 64.63 155.114C64.8507 154.318 64.5562 153.369 64.8675 152.622C65.0399 152.208 65.3578 151.861 65.5375 151.444C65.7158 151.03 65.805 150.599 65.8335 150.149C65.8875 149.299 65.1364 148.278 65.5551 147.508C65.6449 147.343 65.5434 147.075 65.3337 147.08ZM78.4635 138.308C77.7942 138.172 77.035 137.86 76.3744 138.12C76.0354 138.254 75.8673 138.667 76.1545 138.955C76.6521 139.454 77.3755 139.482 78.0455 139.599L78.1047 139.61C78.8975 139.757 79.6918 139.896 80.4867 140.028C81.9828 140.275 83.4824 140.495 84.9872 140.681C86.5327 140.872 88.0826 141.043 89.6346 141.171L90.2355 141.22C91.5466 141.325 92.9107 141.404 94.1971 141.203C94.3841 141.174 94.354 140.902 94.1971 140.854C92.7879 140.427 91.2419 140.313 89.785 140.132C88.236 139.94 86.6897 139.737 85.1474 139.496C83.6075 139.255 82.0697 138.997 80.5379 138.712C79.8452 138.583 79.154 138.449 78.4635 138.308ZM54.3112 136.938C54.8987 136.73 55.5446 136.422 56.181 136.525C57.2793 136.703 58.2555 137.773 59.125 138.477L58.688 138.392C56.4565 137.963 53.5001 137.501 51.6266 138.921C51.6215 138.913 51.6179 138.905 51.6127 138.897C51.4615 138.666 51.2861 138.487 51.0947 138.291C51.0764 138.273 51.0589 138.256 51.0413 138.237L50.9383 138.128L51.1743 138.046C51.68 137.867 52.2791 137.636 52.3734 137.602L52.38 137.6C53.0244 137.382 53.6696 137.166 54.3112 136.938ZM72.6508 90.1339C72.7429 88.9523 70.9037 88.9618 70.8131 90.1339C70.6144 92.6928 71.1902 95.2275 72.4287 97.4715C72.4382 97.4875 72.4477 97.5022 72.4579 97.5175C71.6826 97.9208 70.8986 98.3081 70.0978 98.6537C69.0726 99.0965 68.0285 99.4991 66.966 99.8411C66.0044 100.151 64.82 100.273 64.0119 100.917C62.3071 102.275 62.9472 105.093 63.2753 106.919L63.3265 107.207C63.4901 108.147 63.6078 109.111 63.2117 110.014C62.7887 110.977 61.9338 111.691 61.1702 112.381L61.016 112.521C60.3401 113.137 59.5678 113.886 59.0724 114.721C58.6193 113.785 58.0026 113.02 57.3501 112.158C56.8847 111.544 57.2157 111.341 57.5503 110.741C57.8718 110.163 58.0289 109.547 57.9288 108.887C57.7432 107.67 56.77 106.791 55.8018 106.129C54.6583 105.35 53.3825 104.772 52.2002 104.046C49.7714 102.555 47.4062 100.85 45.2747 98.957C45.2163 98.9051 45.114 98.9738 45.1615 99.0446C46.845 101.606 48.8186 103.82 51.2445 105.699C52.228 106.46 53.2619 107.092 54.3017 107.757L54.6013 107.949C55.0185 108.219 55.5395 108.582 55.7287 109.042C55.9187 109.505 55.5132 109.855 55.2954 110.24C54.6027 111.458 54.9367 112.596 55.758 113.63L55.796 113.677C56.6121 114.684 57.2303 115.619 57.5262 116.904C58.1619 119.665 57.2763 122.541 56.3498 125.133L56.3133 125.235C55.812 126.632 55.2794 128.019 54.8439 129.438L54.724 129.83C54.3295 131.137 54.0065 132.424 54.4493 133.767C54.5998 134.224 55.2224 134.332 55.481 133.902C56.3929 132.386 56.6202 130.562 57.1923 128.896C57.7491 127.272 58.3892 125.678 58.9277 124.047C59.6204 121.947 60.0844 119.687 59.833 117.485C59.8403 117.472 59.8484 117.46 59.8542 117.446L60.031 117.061C60.5118 116.015 60.9766 115.102 61.8519 114.269C62.7646 113.399 63.7554 112.63 64.4729 111.577C66.0329 109.292 65.0684 106.749 64.8799 104.25L64.8587 103.943C64.8244 103.424 64.8054 102.719 65.1444 102.36C65.5251 101.956 66.4195 101.853 66.9251 101.674C68.2316 101.211 69.5198 100.672 70.7466 100.025C71.9143 99.4085 73.0454 98.7275 74.0983 97.9303L74.6317 97.5285C75.4742 96.8928 76.3474 96.1986 76.9122 95.3327C76.9772 95.2334 76.8662 95.0726 76.7485 95.1201C75.8059 95.503 74.9452 96.1117 74.064 96.6407C74.0501 96.6085 74.034 96.5756 74.0157 96.5435C72.9256 94.5684 72.4769 92.38 72.6508 90.1339ZM42.5507 103.665C42.1759 102.635 40.4646 102.714 40.5325 103.938C40.5852 104.878 40.9841 105.727 41.3487 106.58L41.3882 106.672C41.7645 107.561 42.1993 108.396 42.7202 109.211C43.7147 110.769 44.8794 112.215 46.1238 113.58C47.252 114.817 48.7331 115.574 50.4393 115.449C51.1583 115.395 51.8838 115.213 52.5137 114.853C53.2619 114.426 54.0744 113.145 55.0295 113.455C55.1215 113.485 55.2078 113.35 55.1281 113.286C54.0262 112.398 52.7753 113.775 51.7202 114.106C50.1302 114.606 48.4985 114.054 47.4748 112.768C46.4066 111.425 45.4231 109.922 44.5258 108.46C44.0691 107.718 43.6533 106.948 43.2938 106.154C42.9314 105.353 42.8488 104.482 42.5507 103.665ZM45.114 97.3268C45.16 97.1843 44.9832 97.0491 44.859 97.1302C44.1341 97.6015 43.5072 98.2248 42.8393 98.7714C42.0977 99.3771 41.3517 99.9712 40.5932 100.556C39.4884 101.408 40.77 102.977 41.7426 102.046C43.0739 100.772 44.5324 99.1068 45.114 97.3268ZM49.0897 92.3413C48.7952 91.2065 47.0554 91.6749 47.309 92.7965L47.317 92.8301C47.7978 94.6831 47.1139 96.5691 45.6532 97.7703L45.5999 97.8142C44.6756 98.5536 45.985 99.8462 46.8991 99.1141C48.896 97.5153 49.7268 94.7993 49.0897 92.3413Z" fill="black"/>
<path fill-rule="evenodd" clip-rule="evenodd" d="M56.7911 33.5283C33.5559 34.2641 32.1551 45.3047 32.1551 63.8202C32.1551 82.3359 44.2079 94.0036 48.6461 96.0407C53.0843 98.0779 64.771 106.829 75.3171 102.796C85.8634 98.7633 82.8094 81.7265 82.8094 74.4057C82.8094 67.0856 80.0257 32.7924 56.7911 33.5283Z" fill="#C8A97C"/>
<path fill-rule="evenodd" clip-rule="evenodd" d="M47.3652 89.9599C51.6324 92.3427 56.5179 92.4355 61.1073 90.9354C63.8598 90.0389 66.3836 88.6513 68.746 86.9933C70.8007 85.5488 72.6347 83.9478 74.4512 82.2475C75.9469 78.947 77.279 75.653 77.903 72.0624C78.462 68.8393 78.5358 65.4927 77.8877 62.2762C73.0929 58.3304 68.3273 54.3523 63.5683 50.3619C61.1446 48.3295 58.715 46.3081 56.2555 44.3188C55.0068 43.3089 53.7705 42.2834 52.5261 41.2689C52.3208 41.102 52.1169 40.9352 51.9116 40.7685C49.3432 42.6494 46.5892 44.2618 44.0384 46.1736C42.7034 47.1758 41.405 48.2429 40.1686 49.3655C39.5205 49.9541 38.887 50.561 38.2696 51.1834C37.7047 51.7518 37.1596 52.5671 36.3588 52.7818C36.2492 52.8111 36.1454 52.8172 36.0483 52.8033C34.9771 62.1867 34.2157 72.3189 38.8052 80.8402C40.808 84.5579 43.6467 87.8811 47.3652 89.9599ZM75.1227 93.4081C75.7102 92.8696 74.8348 91.9986 74.2495 92.5342C70.5749 95.9019 65.7706 97.687 60.9173 98.5134C60.1348 98.6471 60.4687 99.8374 61.2462 99.7044C66.3128 98.8422 71.2924 96.9183 75.1227 93.4081ZM79.5324 98.5748C80.2339 98.1985 79.6092 97.1324 78.9092 97.508C76.0463 99.0446 72.9058 99.8425 69.72 100.382C68.9367 100.514 69.2713 101.704 70.0488 101.573C73.342 101.015 76.5739 100.163 79.5324 98.5748ZM67.8801 46.5274C65.5039 44.3946 62.9509 42.3652 60.2539 40.6527C57.5248 38.92 54.5435 37.8837 51.3219 37.859C51.5477 38.0397 51.7618 38.2405 51.9795 38.4272C52.5875 38.9477 53.1947 39.4713 53.8011 39.9933C55.0148 41.0388 56.2314 42.0826 57.429 43.1452C59.7877 45.2393 62.1544 47.3226 64.5087 49.4213C69.0331 53.4551 73.4604 57.5767 77.7919 61.8176C77.7686 61.7141 77.7444 61.6106 77.7196 61.5073C76.2852 55.5152 72.3848 50.5719 67.8801 46.5274ZM49.2562 38.12C49.2409 38.0736 49.2299 38.0287 49.2241 37.9856C43.0417 38.7917 37.8779 43.3427 36.1703 49.3348C36.3186 49.5417 36.4004 49.7873 36.3698 50.0481C36.3544 50.1796 36.3391 50.3124 36.323 50.4436C36.5349 50.2338 36.7526 50.0375 36.9375 49.8506C37.5535 49.2267 38.1848 48.6196 38.8337 48.0282C40.1591 46.8191 41.5365 45.6887 42.9876 44.6339C45.5114 42.7993 48.2442 41.1129 51.2525 40.2326C51.0552 40.0705 50.8572 39.9083 50.6584 39.7477C50.0637 39.2641 49.5127 38.8659 49.2562 38.12ZM38.1724 31.7127C41.9683 27.5631 47.2249 24.5238 52.7606 23.4675C58.0465 22.4575 63.5186 23.1232 68.5122 25.0859C78.9618 29.1938 87.207 38.2267 91.0679 48.6939C93.3186 54.7925 94.0565 61.4778 93.3802 67.9333C92.7072 74.359 90.773 80.9951 87.2534 86.4621C86.9307 86.9626 86.5772 87.4427 86.2067 87.9074C86.3719 89.7948 87.0017 91.6442 87.9928 93.2539C88.046 93.3401 88.1022 93.4249 88.1578 93.5096C89.1726 94.2696 90.2253 94.9827 91.2529 95.7193C92.1435 96.3579 93.025 97.0126 93.8625 97.7192C94.653 98.3863 95.571 99.1294 96.1062 100.03C96.5448 100.768 96.7239 101.771 96.1252 102.474C95.4039 103.322 94.1815 103.023 93.2043 103.023C93.1207 103.023 93.0372 103.025 92.9536 103.026C92.6602 103.21 92.3579 103.378 92.0651 103.533C89.1058 105.102 86.1357 106.654 83.1625 108.198C77.241 111.276 71.3436 114.478 65.3 117.311C62.5 118.626 59.502 119.774 56.3651 119.77C53.4226 119.765 50.7629 118.596 48.4656 116.819C45.8476 114.794 43.6584 112.223 41.535 109.702C40.686 108.693 39.8537 107.673 39.0368 106.638C37.4687 106.115 35.9124 105.962 34.5138 106.972C33.3915 107.783 31.9126 106.68 31.8862 105.463C31.8775 105.031 31.8957 104.604 31.9418 104.184C32.2231 101.59 33.4923 99.2426 34.9215 97.0652C35.7026 95.8742 36.5254 94.7051 37.3525 93.5469C37.5476 93.2736 37.7384 93.0004 37.924 92.7227C34.6 87.8271 31.9637 82.3987 30.343 76.7264C28.6398 70.7574 28.0611 64.5677 28.441 58.383C29.0241 48.904 31.6239 38.8721 38.1724 31.7127Z" fill="#783A3A"/>
<path fill-rule="evenodd" clip-rule="evenodd" d="M49.7977 83.2172C50.8353 82.7941 51.7618 82.0875 52.4384 81.1851C52.6737 80.8709 52.7351 80.5399 52.6854 80.2367C52.6299 79.8962 52.4282 79.5871 52.1535 79.3803C51.878 79.1728 51.5331 79.0698 51.1999 79.1224C50.9106 79.1677 50.6219 79.3263 50.394 79.6551L50.3465 79.7208C49.9439 80.2659 49.4192 80.7124 48.8215 81.001C48.2457 81.2787 47.602 81.408 46.9349 81.3327C45.6656 81.1895 44.7903 80.5027 43.8601 79.5696C43.7454 79.4519 43.6299 79.3306 43.5138 79.2071C43.4407 79.0954 43.3391 79.023 43.2266 78.9857C43.1009 78.9434 42.9592 78.9463 42.8298 78.9916C42.7042 79.0347 42.5924 79.118 42.5178 79.2283C42.4462 79.3328 42.406 79.4622 42.4192 79.6112C42.504 80.5772 43.0096 81.4401 43.7271 82.1175C44.5236 82.8701 45.5802 83.3904 46.5746 83.573C47.6707 83.774 48.7872 83.63 49.7977 83.2172ZM46.058 68.3052C44.8918 69.014 43.1163 70.6668 44.3701 72.4241C45.8461 73.9739 47.9717 72.1976 49.0188 71.3939C49.9899 70.7713 51.0808 72.373 50.1799 73.1C42.6121 78.7052 39.541 68.4908 45.4684 67.4722C46.1209 67.3597 46.3635 68.086 46.058 68.3052ZM59.6197 61.7852C59.4911 60.1859 57.0557 59.8226 56.8138 61.4053C56.5968 62.8229 56.8525 64.1249 57.4904 65.4015C58.1006 66.621 59.6336 66.0525 59.7497 64.9419C59.9046 63.4534 59.7 62.7797 59.6197 61.7852ZM41.0849 61.0771C40.7459 60.6324 40.2556 60.3287 39.6681 60.5004C37.8334 61.0367 38.3741 63.6427 39.0185 64.9104C39.3686 65.5995 40.5004 65.7741 41.0119 65.1676C41.8456 64.179 42.2446 62.2037 41.1851 61.2296C41.1566 61.1792 41.1244 61.1284 41.0849 61.0771ZM57.516 54.787L57.2267 54.7362C56.3301 54.5811 55.2151 54.432 54.5808 55.1532C54.2447 55.5355 54.1285 56.2462 54.5808 56.6122C55.3765 57.2562 56.2556 57.0066 57.2084 57.0611C57.9939 57.1062 58.7487 57.2363 59.5057 57.4526C61.1651 57.9272 62.5176 58.7935 63.9351 59.7449C64.1215 59.8696 64.3114 59.6316 64.2223 59.4576C63.4039 57.8542 61.8183 56.537 60.2298 55.7341C59.3822 55.3056 58.4542 54.95 57.516 54.787ZM42.7575 54.0687L42.5361 54.1141C40.1219 54.6189 36.9858 55.6272 35.8422 57.9992C35.7991 58.3346 35.8452 58.4065 35.8824 58.4535L35.8948 58.4691C35.9255 58.5092 35.9504 58.5645 36.0958 58.6101C36.136 58.6005 36.1769 58.5903 36.2178 58.5795C36.7417 58.4421 37.156 58.2529 37.5579 58.0565L37.9927 57.8421C38.4976 57.5945 39.0069 57.3558 39.5468 57.1796C40.6991 56.8037 41.8836 56.539 43.087 56.3976C43.3479 56.367 43.5985 56.2789 43.7973 56.128C43.9851 55.9847 44.1283 55.7864 44.194 55.5228C44.2788 55.1817 44.2547 54.9234 44.072 54.6157C43.9339 54.3845 43.7374 54.2243 43.5108 54.1323C43.2807 54.0386 43.0184 54.0164 42.7575 54.0687Z" fill="black"/>
<path fill-rule="evenodd" clip-rule="evenodd" d="M32.2421 69.2455C34.1163 71.1833 37.2444 71.7394 39.7383 70.7003C46.1413 68.0238 43.0074 59.6769 38.0694 57.4354C37.4527 57.2816 36.6285 56.9166 35.8773 56.8339C35.8094 56.8005 35.6618 56.897 35.482 56.8057C30.0376 57.4139 28.7976 65.869 32.2421 69.2455ZM52.8937 69.7417C54.9951 72.5307 58.9036 73.3915 62.0967 72.0945C68.4048 69.6094 66.1674 62.2077 61.8512 59.3059C52.7344 55.8789 48.9698 64.5991 52.8937 69.7417ZM66.5678 63.5615C66.5737 63.5586 66.5795 63.5578 66.5853 63.5549C66.5525 63.5403 66.5189 63.5257 66.486 63.5103C66.4962 63.5388 66.5086 63.5666 66.5189 63.5951C66.5349 63.5834 66.5495 63.5703 66.5678 63.5615ZM27.9025 60.5467C28.4169 60.5477 29.1608 60.6324 29.5868 60.9895C30.6375 57.4449 34.5153 54.1643 37.8882 56.5564C40.5442 57.4109 42.5149 59.3059 43.6351 61.8253C45.6547 60.6235 48.8303 61.1367 50.5817 62.7263C51.7289 58.9345 54.5516 57.6069 57.9113 57.4109C61.5786 56.81 65.2336 60.3729 66.3742 63.2312C67.3226 63.1231 68.7394 62.8213 69.6316 63.4066C75.4216 61.8877 85.5447 61.0503 86.7217 61.8942C87.5606 62.2162 88.0209 64.1972 86.8492 64.3039C85.8283 64.1585 86.9684 62.8527 85.9392 62.7102C80.4553 62.3699 75.1322 63.4745 69.7061 63.9385C69.2217 64.5903 67.6565 64.8081 66.8214 64.5465C68.1366 69.3946 65.2979 72.6937 61.0445 73.6816C54.4573 75.1948 48.7273 69.3011 50.4495 63.1698C48.454 62.1768 46.1589 62.2194 43.9858 62.7424C47.6181 76.1148 26.0897 75.5149 29.4516 61.4477C27.2142 62.5612 26.7283 60.7713 27.9025 60.5467Z" fill="#783A3A"/>
</g>
<defs>
<linearGradient id="paint0_linear_1_49" x1="59.5" y1="0" x2="59.5" y2="119" gradientUnits="userSpaceOnUse">
<stop stop-color="#833AB4"/>
<stop offset="0.5" stop-color="#FD1D1D"/>
<stop offset="1" stop-color="#FCB045"/>
</linearGradient>
</defs>
</svg>
