<svg width="90" height="90" viewBox="0 0 90 90" fill="none" xmlns="http://www.w3.org/2000/svg">
<circle cx="44.78" cy="44.78" r="44.78" fill="#E0BEBE"/>
<mask id="mask0_1_51" style="mask-type:alpha" maskUnits="userSpaceOnUse" x="0" y="0" width="90" height="90">
<circle cx="44.78" cy="44.78" r="44.78" fill="#C4C4C4"/>
</mask>
<g mask="url(#mask0_1_51)">
<path fill-rule="evenodd" clip-rule="evenodd" d="M55.8504 73.6601C52.0398 70.7578 42.4729 69.452 38.4059 72.2469C34.3885 75.0542 33.9508 79.5933 32.0788 83.7685C30.3127 82.9355 27.3965 84.1287 26.8843 85.7684C26.2494 86.5414 26.2208 88.7138 25.7824 89.7528C6.72673 92.7874 3.83392 107.65 1.54028 124.523C-1.49429 141.644 -8.38251 158.729 -5.39252 176.347C-5.78198 176.911 -6.08887 177.46 -6.37311 178.111C-7.05411 179.269 -6.17729 180.909 -4.80432 180.846C-3.02728 180.69 -1.26777 180.476 0.517311 180.41C5.46629 180.238 10.4204 180.258 15.3708 180.321L16.046 180.33C40.9976 180.641 65.9478 181.253 90.9005 181.416C91.8057 181.417 92.2489 180.605 92.128 179.803C91.8846 178.191 91.6587 176.576 91.423 174.963C97.3249 176.522 103.599 176.915 109.484 175.127C109.896 174.707 108.525 174.935 108.308 174.871C113.724 171.169 112.106 163.369 111.627 157.751C108.643 138.501 107.592 117.202 96.0648 100.775C91.0782 94.0719 83.7673 88.7642 75.3666 87.5702L75.1335 87.5381C72.6771 87.21 69.9395 87.1048 67.7919 85.7684C65.3764 83.8386 64.3469 80.2743 61.8055 80.2414C60.9667 80.2304 59.8253 81.2921 58.5971 82.0133C58.505 80.427 57.6508 79.0884 57.4623 77.8586L57.4469 77.7534C57.2497 76.3198 57.5193 75.0301 55.8504 73.6601ZM14.8973 125.031C20.2526 121.31 34.0867 123.18 34.4031 123.388C35.1002 123.847 35.4005 123.888 35.7776 124.483C36.1502 124.533 36.5221 124.584 36.8941 124.637C37.6394 124.881 37.087 125.798 36.2255 125.47C36.7435 127.706 35.2193 129.296 34.6121 131.505C34.4148 132.223 34.6048 133.513 34.6121 134.247C34.5529 135.181 33.5197 136.285 33.6922 137.224C34.3045 140.557 37.6262 143.809 36.2255 147.043C35.2982 148.869 32.5077 149.8 30.6525 150.421C26.8083 151.897 20.1115 150.366 17.8778 147.043C16.6868 145.271 15.3065 140.8 14.5963 139.414L14.4392 137.214C14.0504 131.746 13.7056 125.86 14.8973 125.031Z" fill="white"/>
<path fill-rule="evenodd" clip-rule="evenodd" d="M62.7393 79.9184C62.3696 79.5911 61.8223 80.0025 62.0569 80.4453C62.5852 81.4397 63.1266 82.3816 63.8354 83.2606C64.265 83.794 64.7254 84.2982 65.1915 84.7965C63.9947 85.8319 62.9681 87.1179 61.9992 88.3236C60.7592 89.8646 59.5879 91.4714 58.1959 92.8816C56.8237 94.2729 55.3068 95.2454 53.472 95.8935L53.1015 96.0221C51.2587 96.6695 49.2888 97.5434 48.2505 99.2891C48.0459 99.6332 48.458 100.058 48.8051 99.8437C50.6099 98.7257 52.7303 98.5006 54.6952 97.7619C56.5935 97.0488 58.2478 95.9505 59.7099 94.5483C61.1691 93.1491 62.3945 91.5569 63.6732 89.9983C64.9373 88.4573 66.2978 87.1406 67.793 85.837C70.1002 87.3898 72.7337 88.0656 75.4117 88.7291L75.7039 88.8015C78.3851 89.4657 81.0518 90.2365 83.5671 91.3932C85.7848 92.4125 87.9661 93.6299 89.7726 95.2885C91.6901 97.0495 93.1827 99.2978 94.5487 101.496C97.6043 106.416 99.7525 111.806 101.644 117.261C103.611 122.935 105.256 128.723 106.584 134.579C107.26 137.558 107.808 140.559 108.259 143.58C108.476 145.035 108.669 146.493 108.839 147.955C109.019 149.515 109.061 151.121 109.539 152.621C109.745 153.264 110.229 153.531 110.714 153.508L110.812 154.741C110.943 156.383 111.065 158.026 111.106 159.679C111.174 162.428 111.143 165.169 110.945 167.911L110.917 168.285C110.762 170.287 110.415 172.536 108.91 174.002C107.352 175.52 104.956 175.998 102.856 176.025C97.9642 176.088 93.2555 173.776 88.9269 171.748C84.469 169.659 80.1329 167.341 75.9006 164.826C73.7452 163.545 71.6132 162.221 69.5084 160.859C68.4755 160.191 67.4498 159.511 66.4319 158.821C65.8492 158.425 65.296 157.991 64.7027 157.64C64.9935 157.369 65.1236 156.944 64.8795 156.572C66.5957 155.081 67.3098 152.423 67.3933 150.271C67.4608 148.535 67.2053 146.803 67.0037 145.083C66.902 144.215 66.7763 143.349 66.6458 142.486C66.5943 142.145 66.5549 141.779 66.4947 141.419C71.1279 143.966 75.8908 146.235 80.78 148.25C83.286 149.283 85.8242 150.212 88.3974 151.063L88.919 151.235C91.3571 152.033 93.8536 152.787 96.3741 153.243C96.5089 153.268 96.6183 153.069 96.4744 153.006C94.0181 151.922 91.4767 151.007 88.9834 150.008L88.5737 149.841C88.6208 149.838 88.6696 149.832 88.7205 149.82C90.1827 149.467 91.6335 148.923 93.0676 148.465C94.3986 148.039 95.894 147.773 97.1381 147.131C97.2338 147.081 97.1803 146.948 97.087 146.942C95.6887 146.845 94.1708 147.252 92.7998 147.493L92.2848 147.583C91.422 147.735 90.54 147.898 89.6815 148.112C89.6505 147.825 89.4897 147.535 89.2611 147.366C86.7453 145.502 87.0009 141.738 86.7317 138.962L86.5323 136.901C86.1813 133.294 85.81 129.687 85.246 126.108C85.2159 125.917 84.9202 125.972 84.919 126.152C84.8899 130.59 85.2248 135.007 85.3926 139.437L85.4185 140.164C85.5113 142.898 85.584 145.737 87.3053 147.841C87.0646 147.7 86.7392 147.7 86.5442 147.932C86.3046 148.217 86.1663 148.537 86.1706 148.851C84.6153 148.199 83.0668 147.53 81.5259 146.847C76.5716 144.651 71.7213 142.194 66.9992 139.536C66.491 139.249 66.0077 139.474 65.7564 139.851L65.7206 139.846C65.7147 139.845 65.7081 139.845 65.7016 139.845L65.6658 139.843C65.6643 139.843 65.6628 139.843 65.6621 139.843C64.9972 139.478 64.0919 139.738 63.5212 140.271C63.5044 140.287 63.4898 140.304 63.4752 140.321C62.7532 139.997 62.0788 139.559 61.4665 139.004C60.2148 137.869 59.1538 136.465 58.2288 135.057C56.5263 132.464 55.0795 129.581 52.7793 127.446C50.9102 125.712 48.5932 124.632 46.1622 123.955C46.1724 123.884 46.1453 123.808 46.0964 123.758C45.9714 123.63 45.8823 123.585 45.7208 123.663C45.7084 123.669 45.7003 123.678 45.6952 123.688L45.4585 123.282C45.3284 123.062 45.1954 122.84 45.1494 122.782C44.8739 122.434 44.5897 122.09 44.3011 121.752C43.8123 121.18 43.2555 120.616 42.6103 120.219C41.1978 119.351 39.7123 119.842 38.2605 120.317C37.3829 120.603 36.5083 120.899 35.6329 121.191L35.5423 121.22C34.8891 121.43 34.1247 121.614 33.8332 122.306C33.717 122.58 33.6995 122.864 33.7536 123.14C27.55 121.562 20.6603 122.287 14.6065 124.139C14.3742 124.211 14.1425 124.401 14.0936 124.653C13.4001 128.211 13.0911 131.86 13.4045 135.479C13.6756 138.603 14.3676 141.664 15.6711 144.524L15.7457 144.685C16.9703 147.336 18.9125 150.603 21.8784 151.434C23.6693 151.935 25.6502 151.64 27.4769 151.548C29.2518 151.458 31.0661 151.446 32.8248 151.167C34.3907 150.918 35.763 150.215 36.7304 148.942C37.5656 147.843 38.0047 146.514 38.3649 145.193C38.5301 145.246 38.6938 145.302 38.8545 145.365C39.5355 145.631 40.1113 146.06 40.633 146.565C41.7334 147.631 42.5869 148.926 43.7384 149.943C44.7804 150.864 45.9685 151.58 47.2421 152.131C49.8821 153.273 52.7143 153.728 55.507 154.333L55.7021 154.375C57.8043 154.837 59.9496 155.403 61.8055 156.499C61.8413 156.821 61.9882 157.124 62.2235 157.323C61.8961 157.63 61.758 158.117 62.0452 158.574C62.849 159.849 64.2322 160.575 65.4743 161.391L65.5554 161.444C66.7774 162.254 68.01 163.048 69.2527 163.827C71.779 165.409 74.3581 166.904 76.9737 168.334C81.1804 170.633 85.4775 172.802 89.8524 174.769C89.5898 176.061 89.6857 177.393 89.4884 178.695L89.4581 178.88C89.3738 179.363 89.4877 179.767 89.8202 180.082L89.8553 180.114L89.8547 180.11L89.8858 180.139L89.8963 180.148L89.8928 180.145C89.9311 180.18 89.9707 180.213 90.011 180.241L90.0623 180.274C90.3825 180.468 90.7948 180.466 91.1226 180.294L91.16 180.274L91.223 180.238C91.6562 179.988 91.9549 179.371 91.7752 178.88C91.3336 177.675 91.1667 176.387 90.7589 175.174L91.0824 175.318L91.5089 175.505C96.1212 177.499 101.245 179.18 106.27 177.819C108.49 177.219 110.566 175.947 111.677 173.874C112.77 171.835 112.925 169.467 112.983 167.198C113.054 164.398 112.904 161.556 112.535 158.779C112.287 156.916 111.988 155.017 111.525 153.173C111.763 152.963 111.938 152.662 111.984 152.29C112.202 150.528 111.821 148.697 111.587 146.945C111.358 145.234 111.106 143.527 110.821 141.825C110.245 138.388 109.576 134.957 108.797 131.56C107.41 125.514 105.579 119.575 103.375 113.778L103.182 113.273C101.145 107.975 98.7861 102.79 95.5019 98.1353C93.9309 95.9081 92.2702 93.8893 90.0503 92.2839C87.9706 90.7809 85.6247 89.698 83.2039 88.8709C80.7804 88.043 78.2895 87.4877 75.7546 87.1428C73.1801 86.792 70.4627 86.5772 68.0611 85.5206C68.3649 84.9763 68.1042 84.2405 67.593 83.9022C65.8726 82.7652 64.2811 81.2856 62.7393 79.9184ZM7.65836 129.371C7.58603 129.261 7.41505 129.331 7.44647 129.46C8.28384 132.89 9.06934 136.327 9.58228 139.822C10.5081 146.131 10.3378 152.521 10.2618 158.877L10.2582 159.205C10.2195 162.628 10.1654 166.052 10.0521 169.473C9.99512 171.203 9.88186 172.949 9.94324 174.68C9.97685 175.619 10.2268 176.506 10.3159 177.434C10.3933 178.245 10.3239 179.067 10.2852 179.88C10.2596 180.42 11.0561 180.397 11.1102 179.88L11.1796 179.211C11.2694 178.365 11.3805 177.524 11.6582 176.715C11.9914 175.741 12.1514 174.784 12.2668 173.761C12.4437 172.194 12.5226 170.611 12.5913 169.034L12.638 167.942C12.923 161.347 12.9135 154.721 12.451 148.133L12.4174 147.662C11.9599 141.435 11.1657 134.706 7.65836 129.371ZM25.4967 90.1225C25.7152 90.0327 25.6392 89.7024 25.3966 89.7601L24.9568 89.8646C21.7308 90.6377 18.5639 91.4751 15.5535 92.9131C12.5409 94.3525 9.99073 96.5007 7.9638 99.1422C4.02391 104.277 2.38717 110.518 1.09457 116.753C-0.341232 123.681 -1.64918 130.634 -3.09814 137.56L-3.36703 138.85C-4.70785 145.301 -5.9734 151.755 -6.90577 158.281L-6.97298 158.755C-7.91339 165.467 -8.47895 172.411 -7.45306 179.14C-7.24993 180.472 -5.0352 180.14 -5.12215 178.825C-5.37205 175.022 -5.55106 171.24 -5.37789 167.429C-5.20471 163.617 -4.8474 159.822 -4.31474 156.043C-3.86609 152.863 -3.19823 149.723 -2.60638 146.568L-2.51358 146.07C-2.01891 143.387 -1.50815 140.707 -0.998856 138.027L-0.237488 134.013C0.903854 128.004 2.06712 121.989 3.38163 116.018L3.45909 115.666C4.74583 109.921 6.64198 103.903 10.5008 99.3402C14.4165 94.7105 20.0217 92.3789 25.4967 90.1225ZM39.7248 151.061C39.6305 150.851 39.301 150.874 39.2001 151.061C38.8034 151.794 38.7588 152.728 38.6843 153.555L38.6762 153.64C38.5805 154.649 38.4965 155.662 38.4446 156.674C38.3467 158.595 38.2992 160.513 38.3058 162.437C38.3116 164.408 38.3511 166.377 38.4577 168.345L38.4862 168.872C38.5834 170.583 38.7464 172.49 39.5582 173.986C39.8541 174.53 40.6571 174.37 40.8281 173.82C41.3885 172.02 41.1006 169.886 40.9567 168.042L40.8449 166.603C40.7346 165.165 40.6294 163.726 40.5461 162.285C40.4313 160.314 40.3371 158.342 40.2457 156.371C40.2165 155.73 40.1844 155.09 40.1507 154.449L40.0989 153.489C40.0543 152.685 40.058 151.804 39.7248 151.061ZM102.731 153.612L102.483 153.373C101.722 152.627 100.759 151.479 99.6335 151.55C99.1846 151.579 98.8986 151.951 98.9916 152.394C99.1905 153.338 100.154 153.828 100.847 154.404C101.606 155.036 102.322 155.711 103.037 156.393C103.67 156.997 104.28 157.618 104.875 158.26L105.097 158.501C105.311 158.733 106.829 160.107 106.665 160.464L106.656 160.48C106.61 160.548 106.686 160.642 106.762 160.618C107.418 160.411 107.377 159.849 107.129 159.279C106.653 158.184 105.819 157.172 105.09 156.237C104.364 155.304 103.577 154.436 102.731 153.612ZM37.3486 126.162C37.8557 124.963 39.724 124.987 40.7843 125.06C43.4549 125.24 46.3441 125.916 48.7203 127.165C51.1842 128.459 52.8436 130.533 54.3284 132.827L54.3978 132.935C55.8453 135.186 57.2387 137.85 59.5053 139.397C60.6591 140.185 62.0072 140.906 63.4079 141.217C63.5037 141.386 63.6593 141.52 63.8639 141.568L63.9589 141.59C64.3578 141.679 64.9775 141.776 65.5123 141.717C65.5087 141.98 65.5116 142.24 65.505 142.488C65.486 143.199 65.478 143.913 65.478 144.625C65.478 146.115 65.5584 147.61 65.4955 149.1C65.4407 150.419 65.2544 151.797 64.6216 152.976C64.1576 153.841 63.5446 154.413 62.8051 154.96C60.9857 153.851 58.9281 153.174 56.8405 152.665C54.3152 152.051 51.7293 151.641 49.2617 150.807C48.0744 150.405 46.9323 149.881 45.8976 149.167C44.7994 148.41 43.9606 147.385 43.0976 146.382L42.9632 146.226C42.0827 145.216 41.1211 144.249 39.8767 143.701C38.8048 143.23 37.3924 143.146 36.4549 142.415C35.9654 142.033 35.9244 141.479 35.8726 140.911C36.4725 140.997 37.1082 140.86 37.7066 140.789L38.0164 140.753C38.582 140.686 39.1344 140.612 39.6911 140.468C39.7949 140.441 39.7949 140.285 39.6911 140.258C39.0335 140.089 38.381 140.016 37.7066 139.937L37.548 139.917C36.9372 139.837 36.2956 139.716 35.6972 139.85C35.5898 139.442 35.4341 139.051 35.2171 138.66C34.911 138.111 34.333 137.488 34.2548 136.847C34.2314 136.655 34.2767 136.429 34.3666 136.259L34.398 136.201C34.436 136.133 34.4806 136.065 34.5463 136.022C34.5537 136.031 34.569 136.041 34.6026 136.051C35.0637 136.196 35.4656 135.97 35.6789 135.623C36.5843 135.735 37.5729 135.697 38.4227 135.735L39.2812 135.777C40.199 135.819 41.1576 135.837 42.0206 135.652C42.1404 135.626 42.177 135.425 42.0564 135.374C40.9962 134.921 39.7109 134.776 38.5754 134.601C37.9419 134.504 37.3033 134.429 36.6675 134.344C36.2445 134.287 35.7951 134.193 35.3567 134.17C34.257 132.801 34.8496 130.64 36.3797 130.05C36.9372 130.296 37.4384 130.153 38.0471 130.101C38.655 130.049 39.2644 130.013 39.8753 130.016C41.0985 130.021 42.394 130.343 43.6055 130.205C43.8027 130.182 43.9854 129.92 43.7896 129.76C42.8624 129.003 41.534 128.756 40.3568 128.595L40.1128 128.562C39.7182 128.51 39.2388 128.435 38.7412 128.39C38.6287 128.17 38.4263 128.004 38.1231 127.963C38.0332 127.95 37.9426 127.944 37.852 127.936L37.8535 127.927C37.1133 127.891 37.1454 126.641 37.3486 126.162ZM87.993 149.547C88.0061 149.566 88.0203 149.586 88.0356 149.604L88.059 149.632L87.9374 149.583L87.993 149.547ZM24.4394 123.482C27.5536 123.148 30.6715 123.218 33.7945 123.308C34.0444 124.125 34.9139 124.822 35.7556 124.848C35.0966 125.853 35.0279 127.212 35.4911 128.278C34.5084 128.669 33.6622 129.372 33.1485 130.373C32.4361 131.76 32.5296 133.303 33.2333 134.585C32.6327 135.129 32.2776 136.014 32.3134 136.847C32.3528 137.775 32.9067 138.569 33.3663 139.338C33.8632 140.17 33.88 140.902 34.0327 141.834C34.2563 143.197 35.1748 144.023 36.3577 144.54L36.2949 144.788C35.9902 145.975 35.6102 147.228 34.7393 148.096C33.6184 149.213 31.8793 149.203 30.3982 149.273L30.3266 149.276C28.9705 149.344 27.6143 149.424 26.2589 149.501L25.2417 149.558C23.681 149.643 22.1816 149.653 20.9073 148.622C18.827 146.936 17.4007 144.148 16.4983 141.679C14.6029 136.497 14.5802 130.81 15.4505 125.412C18.3674 124.472 21.3939 123.81 24.4394 123.482ZM50.3337 132.08L50.311 132.082C49.6695 132.155 49.2296 132.674 49.0725 133.29C48.8445 134.185 48.9563 134.995 48.4083 135.803C47.8442 136.635 47.4979 137.3 47.416 138.327C47.3817 138.749 47.3978 139.171 47.3035 139.585L47.2355 139.874C47.1632 140.183 47.1033 140.48 47.1398 140.812C47.1727 141.115 47.3196 141.351 47.6228 141.448C48.6114 141.764 49.375 141.035 49.63 140.114C49.8507 139.318 49.5562 138.369 49.8675 137.622C50.0399 137.208 50.3578 136.861 50.5375 136.444C50.7158 136.03 50.805 135.599 50.8335 135.149C50.8875 134.299 50.1364 133.278 50.5551 132.508C50.6449 132.343 50.5434 132.075 50.3337 132.08ZM63.4635 123.308C62.7942 123.172 62.035 122.86 61.3744 123.12C61.0354 123.254 60.8673 123.667 61.1545 123.955C61.6521 124.454 62.3755 124.482 63.0455 124.599L63.1047 124.61C63.8975 124.757 64.6918 124.896 65.4867 125.028C66.9828 125.275 68.4824 125.495 69.9872 125.681C71.5327 125.872 73.0826 126.043 74.6346 126.171L75.2355 126.22C76.5466 126.325 77.9107 126.404 79.1971 126.203C79.3841 126.174 79.354 125.902 79.1971 125.854C77.7879 125.427 76.2419 125.313 74.785 125.132C73.236 124.94 71.6897 124.737 70.1474 124.496C68.6075 124.255 67.0697 123.997 65.5379 123.712C64.8452 123.583 64.154 123.449 63.4635 123.308ZM39.3112 121.938C39.8987 121.73 40.5446 121.422 41.181 121.525C42.2793 121.703 43.2555 122.773 44.125 123.477L43.688 123.392C41.4565 122.963 38.5001 122.501 36.6266 123.921C36.6215 123.913 36.6179 123.905 36.6127 123.897C36.4615 123.666 36.2861 123.487 36.0947 123.291C36.0764 123.273 36.0589 123.256 36.0414 123.237L35.9383 123.128L36.1743 123.046C36.68 122.867 37.2791 122.636 37.3734 122.602L37.38 122.6C38.0244 122.382 38.6696 122.166 39.3112 121.938ZM57.6508 75.1339C57.7429 73.9523 55.9037 73.9618 55.8131 75.1339C55.6144 77.6928 56.1902 80.2275 57.4287 82.4715C57.4382 82.4875 57.4477 82.5022 57.4579 82.5175C56.6826 82.9208 55.8986 83.3081 55.0978 83.6537C54.0726 84.0965 53.0285 84.4991 51.966 84.8411C51.0044 85.1509 49.82 85.2729 49.0119 85.9167C47.3072 87.275 47.9472 90.0926 48.2753 91.9193L48.3265 92.2072C48.4901 93.1469 48.6078 94.1114 48.2117 95.0138C47.7887 95.9768 46.9338 96.6915 46.1702 97.3812L46.016 97.5208C45.3401 98.1368 44.5678 98.8857 44.0724 99.7209C43.6193 98.7849 43.0026 98.0199 42.3501 97.1584C41.8847 96.5439 42.2157 96.3407 42.5503 95.7408C42.8718 95.1628 43.0289 94.5469 42.9288 93.8871C42.7432 92.6697 41.77 91.7907 40.8018 91.1294C39.6583 90.3498 38.3825 89.7718 37.2002 89.0462C34.7714 87.5549 32.4062 85.8502 30.2747 83.957C30.2163 83.9051 30.114 83.9738 30.1615 84.0446C31.845 86.6065 33.8186 88.8197 36.2445 90.6991C37.228 91.4604 38.2619 92.0925 39.3017 92.7567L39.6013 92.9489C40.0185 93.2192 40.5395 93.5816 40.7287 94.042C40.9187 94.5052 40.5132 94.8552 40.2954 95.2396C39.6027 96.4584 39.9367 97.596 40.758 98.63L40.796 98.6775C41.6121 99.6836 42.2303 100.619 42.5262 101.904C43.1619 104.665 42.2763 107.541 41.3498 110.133L41.3133 110.235C40.812 111.632 40.2794 113.019 39.8439 114.438L39.724 114.83C39.3295 116.137 39.0065 117.424 39.4493 118.767C39.5998 119.224 40.2224 119.332 40.481 118.902C41.3929 117.386 41.6202 115.562 42.1923 113.896C42.7491 112.272 43.3892 110.678 43.9277 109.047C44.6204 106.947 45.0844 104.687 44.833 102.485C44.8403 102.472 44.8484 102.46 44.8542 102.446L45.031 102.061C45.5118 101.015 45.9766 100.102 46.8519 99.2686C47.7646 98.3991 48.7554 97.6297 49.4729 96.5775C51.0329 94.2919 50.0684 91.7491 49.8799 89.2501L49.8587 88.9432C49.8244 88.4244 49.8054 87.7193 50.1444 87.3598C50.5251 86.9557 51.4195 86.8527 51.9251 86.6737C53.2316 86.2112 54.5198 85.6719 55.7466 85.0245C56.9143 84.4085 58.0454 83.7275 59.0983 82.9303L59.6317 82.5285C60.4742 81.8928 61.3474 81.1986 61.9122 80.3327C61.9772 80.2334 61.8662 80.0726 61.7485 80.1201C60.8059 80.503 59.9452 81.1117 59.064 81.6407C59.0501 81.6085 59.034 81.5756 59.0157 81.5435C57.9256 79.5684 57.4769 77.38 57.6508 75.1339ZM27.5507 88.6648C27.1759 87.6345 25.4646 87.7142 25.5325 88.9381C25.5852 89.8785 25.9841 90.7268 26.3487 91.5803L26.3882 91.6716C26.7645 92.5609 27.1992 93.396 27.7202 94.2115C28.7147 95.7693 29.8794 97.2154 31.1238 98.5803C32.252 99.8174 33.7331 100.574 35.4393 100.449C36.1583 100.395 36.8838 100.213 37.5137 99.8532C38.2619 99.4264 39.0744 98.1448 40.0295 98.4553C40.1215 98.4853 40.2078 98.3501 40.1281 98.2858C39.0262 97.398 37.7753 98.7747 36.7202 99.1064C35.1302 99.6062 33.4985 99.0538 32.4748 97.7678C31.4066 96.4255 30.4231 94.9224 29.5258 93.4603C29.0691 92.718 28.6533 91.9478 28.2938 91.1543C27.9314 90.3527 27.8488 89.4817 27.5507 88.6648ZM30.114 82.3268C30.16 82.1843 29.9832 82.0491 29.859 82.1302C29.1341 82.6015 28.5072 83.2248 27.8393 83.7714C27.0977 84.3771 26.3517 84.9712 25.5932 85.5557C24.4884 86.4077 25.77 87.9765 26.7426 87.0456C28.0739 85.772 29.5323 84.1068 30.114 82.3268ZM34.0897 77.3413C33.7952 76.2065 32.0554 76.6749 32.309 77.7965L32.317 77.8301C32.7978 79.6831 32.1139 81.5691 30.6532 82.7703L30.5999 82.8142C29.6756 83.5536 30.985 84.8462 31.8991 84.1141C33.896 82.5153 34.7268 79.7993 34.0897 77.3413Z" fill="black"/>
<path fill-rule="evenodd" clip-rule="evenodd" d="M41.7911 18.5283C18.5559 19.2641 17.1551 30.3047 17.1551 48.8202C17.1551 67.3359 29.2079 79.0036 33.6461 81.0407C38.0843 83.0779 49.771 91.8287 60.3171 87.796C70.8634 83.7633 67.8094 66.7265 67.8094 59.4057C67.8094 52.0856 65.0257 17.7924 41.7911 18.5283Z" fill="#C8A97C"/>
<path fill-rule="evenodd" clip-rule="evenodd" d="M32.3652 74.9599C36.6324 77.3427 41.5179 77.4355 46.1073 75.9354C48.8598 75.0389 51.3836 73.6513 53.746 71.9933C55.8007 70.5488 57.6347 68.9478 59.4512 67.2475C60.9469 63.947 62.279 60.653 62.903 57.0624C63.462 53.8393 63.5358 50.4927 62.8877 47.2762C58.0929 43.3304 53.3273 39.3523 48.5683 35.3619C46.1446 33.3295 43.715 31.3081 41.2555 29.3188C40.0068 28.3089 38.7705 27.2834 37.5261 26.2689C37.3208 26.102 37.1169 25.9352 36.9116 25.7685C34.3432 27.6494 31.5892 29.2618 29.0384 31.1736C27.7034 32.1758 26.405 33.2429 25.1686 34.3655C24.5205 34.9541 23.887 35.561 23.2696 36.1834C22.7047 36.7518 22.1596 37.5671 21.3588 37.7819C21.2492 37.8111 21.1454 37.8172 21.0483 37.8033C19.9771 47.1867 19.2157 57.3189 23.8052 65.8402C25.808 69.5579 28.6467 72.8811 32.3652 74.9599ZM60.1227 78.4081C60.7102 77.8696 59.8348 76.9986 59.2495 77.5342C55.5749 80.9019 50.7706 82.687 45.9173 83.5134C45.1348 83.6471 45.4687 84.8374 46.2462 84.7044C51.3128 83.8422 56.2924 81.9183 60.1227 78.4081ZM64.5324 83.5748C65.2339 83.1985 64.6092 82.1324 63.9092 82.508C61.0463 84.0446 57.9058 84.8425 54.72 85.3818C53.9367 85.5141 54.2713 86.7044 55.0488 86.5728C58.342 86.0153 61.5739 85.1626 64.5324 83.5748ZM52.8801 31.5274C50.5039 29.3946 47.9509 27.3652 45.2539 25.6527C42.5247 23.92 39.5435 22.8837 36.3219 22.859C36.5477 23.0397 36.7618 23.2405 36.9795 23.4272C37.5875 23.9477 38.1947 24.4713 38.8011 24.9933C40.0148 26.0388 41.2314 27.0826 42.429 28.1452C44.7877 30.2393 47.1544 32.3226 49.5087 34.4213C54.0331 38.4551 58.4604 42.5767 62.7919 46.8176C62.7686 46.7141 62.7444 46.6106 62.7196 46.5073C61.2852 40.5152 57.3848 35.5719 52.8801 31.5274ZM34.2562 23.12C34.2409 23.0736 34.2299 23.0287 34.2241 22.9856C28.0417 23.7917 22.8779 28.3427 21.1703 34.3348C21.3186 34.5417 21.4004 34.7873 21.3698 35.0481C21.3544 35.1796 21.3391 35.3124 21.323 35.4436C21.5349 35.2338 21.7526 35.0375 21.9375 34.8506C22.5535 34.2267 23.1848 33.6196 23.8337 33.0282C25.1591 31.8191 26.5365 30.6887 27.9876 29.6339C30.5114 27.7993 33.2442 26.1129 36.2525 25.2326C36.0552 25.0705 35.8572 24.9083 35.6584 24.7477C35.0637 24.2641 34.5127 23.8659 34.2562 23.12ZM23.1724 16.7127C26.9683 12.5631 32.2249 9.52382 37.7606 8.46753C43.0465 7.4575 48.5186 8.12316 53.5122 10.0859C63.9618 14.1938 72.207 23.2267 76.0679 33.6939C78.3186 39.7925 79.0565 46.4778 78.3802 52.9333C77.7072 59.359 75.773 65.9951 72.2534 71.4621C71.9307 71.9626 71.5772 72.4427 71.2067 72.9074C71.3719 74.7948 72.0017 76.6442 72.9928 78.2539C73.046 78.3401 73.1022 78.4249 73.1578 78.5096C74.1726 79.2696 75.2253 79.9827 76.2529 80.7193C77.1435 81.3579 78.025 82.0126 78.8625 82.7192C79.653 83.3863 80.571 84.1294 81.1062 85.0303C81.5448 85.7676 81.7239 86.7708 81.1252 87.4745C80.4039 88.3221 79.1815 88.0232 78.2043 88.0232C78.1207 88.0232 78.0372 88.0254 77.9536 88.0262C77.6602 88.2103 77.3579 88.3776 77.0651 88.5325C74.1058 90.1021 71.1357 91.6541 68.1625 93.198C62.241 96.2757 56.3436 99.4776 50.3 102.311C47.5 103.626 44.502 104.774 41.3651 104.77C38.4226 104.765 35.7629 103.596 33.4656 101.819C30.8476 99.7939 28.6584 97.2226 26.535 94.7025C25.686 93.6934 24.8537 92.6734 24.0368 91.638C22.4687 91.1148 20.9124 90.9621 19.5138 91.9719C18.3915 92.783 16.9126 91.6804 16.8862 90.463C16.8775 90.0312 16.8957 89.6045 16.9418 89.1843C17.2231 86.5896 18.4923 84.2426 19.9215 82.0652C20.7026 80.8742 21.5254 79.705 22.3525 78.5469C22.5476 78.2736 22.7384 78.0004 22.924 77.7227C19.6 72.8271 16.9637 67.3988 15.343 61.7264C13.6398 55.7574 13.0611 49.5677 13.441 43.383C14.0241 33.904 16.6239 23.8721 23.1724 16.7127Z" fill="#783A3A"/>
<path fill-rule="evenodd" clip-rule="evenodd" d="M34.7977 68.2172C35.8353 67.7941 36.7618 67.0875 37.4384 66.1851C37.6737 65.8709 37.7351 65.5399 37.6854 65.2367C37.6299 64.8962 37.4282 64.5871 37.1535 64.3803C36.878 64.1728 36.5331 64.0698 36.1999 64.1224C35.9106 64.1677 35.6219 64.3263 35.394 64.6551L35.3465 64.7208C34.9439 65.2659 34.4192 65.7124 33.8215 66.001C33.2457 66.2787 32.602 66.408 31.9349 66.3327C30.6656 66.1895 29.7903 65.5027 28.8601 64.5696C28.7454 64.4519 28.6299 64.3306 28.5138 64.2071C28.4407 64.0954 28.3391 64.023 28.2266 63.9857C28.1009 63.9434 27.9592 63.9463 27.8298 63.9916C27.7042 64.0347 27.5924 64.118 27.5178 64.2283C27.4462 64.3328 27.406 64.4622 27.4192 64.6112C27.504 65.5772 28.0096 66.4401 28.7271 67.1175C29.5236 67.8701 30.5802 68.3904 31.5746 68.573C32.6707 68.774 33.7872 68.63 34.7977 68.2172ZM31.058 53.3052C29.8918 54.014 28.1163 55.6668 29.3701 57.4241C30.8461 58.9739 32.9717 57.1976 34.0188 56.3939C34.9899 55.7713 36.0808 57.373 35.1799 58.1C27.6121 63.7052 24.541 53.4908 30.4684 52.4722C31.1209 52.3597 31.3635 53.086 31.058 53.3052ZM44.6197 46.7852C44.4911 45.1859 42.0557 44.8226 41.8138 46.4053C41.5968 47.8229 41.8525 49.1249 42.4904 50.4015C43.1006 51.621 44.6336 51.0525 44.7497 49.9419C44.9046 48.4534 44.7 47.7797 44.6197 46.7852ZM26.0849 46.0771C25.7459 45.6324 25.2556 45.3287 24.6681 45.5004C22.8334 46.0367 23.3741 48.6427 24.0185 49.9104C24.3686 50.5995 25.5004 50.7741 26.0119 50.1676C26.8456 49.179 27.2446 47.2037 26.1851 46.2296C26.1566 46.1792 26.1244 46.1284 26.0849 46.0771ZM42.516 39.787L42.2267 39.7362C41.3301 39.5811 40.2151 39.432 39.5808 40.1532C39.2447 40.5355 39.1285 41.2462 39.5808 41.6122C40.3765 42.2562 41.2556 42.0066 42.2084 42.0611C42.9939 42.1062 43.7487 42.2363 44.5057 42.4526C46.1651 42.9272 47.5176 43.7935 48.9351 44.7449C49.1215 44.8696 49.3114 44.6316 49.2223 44.4576C48.4039 42.8542 46.8183 41.537 45.2298 40.7341C44.3822 40.3056 43.4542 39.95 42.516 39.787ZM27.7575 39.0687L27.5361 39.1141C25.1219 39.6189 21.9858 40.6272 20.8422 42.9992C20.7991 43.3346 20.8452 43.4065 20.8824 43.4535L20.8948 43.4691C20.9255 43.5092 20.9504 43.5645 21.0958 43.6101C21.136 43.6005 21.1769 43.5903 21.2178 43.5795C21.7417 43.4421 22.156 43.2529 22.5579 43.0565L22.9927 42.8421C23.4976 42.5945 24.0069 42.3558 24.5468 42.1796C25.6991 41.8037 26.8836 41.539 28.087 41.3976C28.3479 41.367 28.5985 41.2789 28.7973 41.128C28.9851 40.9847 29.1283 40.7864 29.194 40.5228C29.2788 40.1817 29.2547 39.9234 29.072 39.6157C28.9339 39.3845 28.7374 39.2243 28.5108 39.1323C28.2807 39.0386 28.0184 39.0164 27.7575 39.0687Z" fill="black"/>
<path fill-rule="evenodd" clip-rule="evenodd" d="M17.2421 54.2455C19.1163 56.1833 22.2444 56.7394 24.7383 55.7003C31.1413 53.0238 28.0074 44.6769 23.0694 42.4354C22.4527 42.2816 21.6285 41.9166 20.8773 41.8339C20.8094 41.8005 20.6618 41.897 20.482 41.8057C15.0376 42.4139 13.7976 50.869 17.2421 54.2455ZM37.8937 54.7417C39.9951 57.5307 43.9036 58.3915 47.0967 57.0945C53.4048 54.6094 51.1674 47.2077 46.8512 44.3059C37.7344 40.8789 33.9698 49.5991 37.8937 54.7417ZM51.5678 48.5615C51.5737 48.5586 51.5795 48.5578 51.5853 48.5549C51.5525 48.5403 51.5189 48.5257 51.486 48.5103C51.4962 48.5388 51.5086 48.5666 51.5189 48.5951C51.5349 48.5834 51.5495 48.5703 51.5678 48.5615ZM12.9025 45.5467C13.4169 45.5477 14.1608 45.6324 14.5868 45.9895C15.6375 42.4449 19.5153 39.1643 22.8882 41.5564C25.5442 42.4109 27.5149 44.3059 28.6351 46.8253C30.6547 45.6235 33.8303 46.1367 35.5817 47.7263C36.7289 43.9345 39.5516 42.6069 42.9113 42.4109C46.5786 41.81 50.2336 45.3729 51.3742 48.2312C52.3226 48.1231 53.7394 47.8213 54.6316 48.4066C60.4216 46.8877 70.5447 46.0503 71.7217 46.8942C72.5606 47.2162 73.0209 49.1972 71.8492 49.3039C70.8283 49.1585 71.9684 47.8527 70.9392 47.7102C65.4553 47.3699 60.1322 48.4745 54.7061 48.9385C54.2217 49.5903 52.6565 49.8081 51.8214 49.5465C53.1366 54.3946 50.2979 57.6937 46.0445 58.6816C39.4573 60.1948 33.7273 54.3011 35.4495 48.1698C33.454 47.1768 31.1589 47.2194 28.9858 47.7424C32.6181 61.1148 11.0897 60.5149 14.4516 46.4477C12.2142 47.5612 11.7283 45.7713 12.9025 45.5467Z" fill="#783A3A"/>
</g>
</svg>
