<svg width="119" height="119" viewBox="0 0 119 119" fill="none" xmlns="http://www.w3.org/2000/svg">
<circle cx="59.5" cy="59.5" r="57" stroke="url(#paint0_linear_1_85)" stroke-width="5"/>
<circle cx="59.78" cy="58.78" r="44.78" fill="#45FCF1"/>
<mask id="mask0_1_85" style="mask-type:alpha" maskUnits="userSpaceOnUse" x="15" y="14" width="90" height="90">
<circle r="44.78" transform="matrix(-1 0 0 1 59.78 58.78)" fill="#C4C4C4"/>
</mask>
<g mask="url(#mask0_1_85)">
<path fill-rule="evenodd" clip-rule="evenodd" d="M11.5167 172.412C16.057 172.427 20.4686 172.582 25.0217 172.597C43.5297 172.659 62.2079 172.57 80.783 171.819C86.033 171.607 87.3435 171.612 92.5708 171.283C95.6573 171.271 104.928 171.016 104.464 166.811C104.259 158.979 102.321 151.179 101.71 143.368C100.538 128.684 99.5405 113.541 93.6562 99.8067C92.2942 96.5268 89.369 94.3819 86.4732 92.4531C83.5694 90.3724 82.8567 88.0622 80.1764 85.7116C79.6098 85.2146 76.3917 85.0124 74.6601 83.7517C72.1399 81.9166 70.8901 78.9124 69.9497 78.4009C69.2579 78.0247 69.2706 75.4285 67.8837 74.5097C66.0228 73.2766 60.0926 72.3597 57.935 72.1883C55.8642 72.0236 52.2623 72.3694 50.3193 73.1279C47.0792 74.3929 45.7869 76.8058 44.36 79.9146C25.508 85.7428 8.27708 95.6122 2.92566 115.519C-1.68931 132.215 -1.85791 150.115 -0.0747775 167.238C0.281309 168.49 0.0317829 170.452 1.11299 171.283C-2.64561 171.499 11.0067 172.275 11.5167 172.412Z" fill="white"/>
<path fill-rule="evenodd" clip-rule="evenodd" d="M97.2623 155.927C96.9055 155.749 96.5337 155.545 96.1262 155.53C95.4266 155.506 95.4256 154.418 96.1262 154.442C96.7373 154.463 97.274 154.718 97.8117 154.987C98.4391 155.3 97.8872 156.238 97.2623 155.927ZM96.1262 125.277C96.6037 125.277 97.0849 125.337 97.4517 125.672C97.6696 125.87 97.6524 126.241 97.4517 126.441C97.2368 126.656 96.8991 126.639 96.6818 126.441C96.7527 126.506 96.6824 126.442 96.6568 126.428C96.6506 126.424 96.6472 126.422 96.6456 126.421C96.6402 126.419 96.6347 126.418 96.6259 126.416C96.569 126.402 96.5128 126.388 96.4553 126.377C96.4544 126.38 96.3338 126.369 96.3055 126.368C96.2456 126.366 96.186 126.366 96.1262 126.366C95.8309 126.366 95.582 126.117 95.582 125.821C95.582 125.527 95.832 125.277 96.1262 125.277ZM91.008 137.491C90.8521 138.175 89.8028 137.884 89.9583 137.201C90.1845 136.21 90.1433 135.193 89.9583 134.198C89.831 133.512 90.8803 133.221 91.008 133.909C91.2299 135.103 91.2795 136.3 91.008 137.491ZM89.6331 98.3571C88.8225 98.1645 88.0206 98.1416 87.1914 98.1413C86.4899 98.141 86.4909 97.0521 87.1914 97.0524C88.1163 97.0527 89.0192 97.0925 89.9226 97.3071C90.6048 97.4692 90.3142 98.5188 89.6331 98.3571ZM86.9168 124.88C86.4466 124.645 85.9762 124.41 85.506 124.174C84.8786 123.861 85.4305 122.922 86.0554 123.234L87.4661 123.94C88.0935 124.254 87.5415 125.193 86.9168 124.88ZM86.7209 146.323C86.1245 147.184 85.2859 147.718 84.2796 147.985C83.6006 148.164 83.3135 147.114 83.9901 146.934C84.7098 146.744 85.3492 146.396 85.7809 145.774C86.1779 145.201 87.1211 145.746 86.7209 146.323ZM82.9596 107.985C82.7982 107.684 82.5552 107.556 82.2538 107.55C81.5533 107.534 81.5532 106.445 82.2538 106.461C82.9409 106.476 83.571 106.821 83.8993 107.436C84.2299 108.054 83.2898 108.604 82.9596 107.985ZM76.0552 115.387C75.86 115.6 75.4817 115.594 75.2854 115.387C75.1652 115.26 75.0643 115.118 74.9849 114.963C74.9547 114.904 74.9262 114.844 74.893 114.787C74.8782 114.761 74.8617 114.736 74.8449 114.711C74.8391 114.706 74.8273 114.694 74.8151 114.681C74.6059 114.46 74.6113 114.134 74.8151 113.911C75.0102 113.699 75.3887 113.704 75.585 113.911C75.7049 114.038 75.806 114.18 75.8854 114.335C75.9156 114.394 75.944 114.454 75.9773 114.512C75.9922 114.537 76.0086 114.562 76.0255 114.587C76.0312 114.592 76.0429 114.604 76.0552 114.617C76.2644 114.838 76.2591 115.165 76.0552 115.387ZM75.4746 131.466C74.7658 131.79 73.9882 131.79 73.2793 131.466C73.0109 131.343 72.9472 130.955 73.0843 130.72C73.2429 130.449 73.5618 130.403 73.8288 130.526C74.1504 130.673 74.6043 130.673 74.9254 130.526C75.1937 130.403 75.5094 130.446 75.6699 130.72C75.8078 130.956 75.7421 131.343 75.4746 131.466ZM73.541 142.847C73.4192 143.135 73.1562 143.289 72.8486 143.301C72.5441 143.311 72.3172 143.042 72.3044 142.756C72.2963 142.571 72.396 142.413 72.5392 142.316C72.5395 142.305 72.5398 142.296 72.5398 142.285C72.5399 141.98 72.789 141.754 73.084 141.741C73.3778 141.728 73.6284 142 73.6282 142.285C73.6281 142.478 73.6162 142.668 73.541 142.847ZM70.7326 160.94C69.8638 160.954 69.015 161.162 68.1463 161.175C67.4443 161.187 67.4465 160.099 68.1463 160.087C69.0149 160.073 69.8637 159.865 70.7326 159.852C71.4345 159.84 71.4324 160.93 70.7326 160.94ZM67.1202 91.1609C66.6117 91.6455 65.9836 91.8843 65.3642 92.187C64.7367 92.4937 64.1855 91.5542 64.8148 91.2467C65.3395 90.9903 65.9203 90.8008 66.3506 90.391C66.8581 89.9075 67.6287 90.6767 67.1202 91.1609ZM65.7554 103.712C65.3985 103.534 65.0266 103.33 64.6194 103.316C63.9196 103.291 63.9187 102.202 64.6194 102.227C65.2304 102.248 65.767 102.503 66.3047 102.772C66.9325 103.085 66.3804 104.024 65.7554 103.712ZM59.2116 154.086C59.0505 153.784 58.8076 153.656 58.5062 153.649C57.8054 153.634 57.8052 152.544 58.5062 152.56C59.1932 152.576 59.8234 152.922 60.1517 153.535C60.482 154.155 59.5422 154.704 59.2116 154.086ZM56.9456 130.44C56.729 130.241 56.7441 129.872 56.9456 129.67C57.1807 129.435 57.4158 129.2 57.651 128.964C57.866 128.749 58.2033 128.765 58.4206 128.964C58.6373 129.163 58.6222 129.532 58.4206 129.734C58.1854 129.969 57.9504 130.205 57.7152 130.44C57.5001 130.656 57.1629 130.639 56.9456 130.44ZM54.2737 167.291C53.4884 167.273 52.7522 167.048 52.0128 166.801C51.3504 166.581 51.6361 165.529 52.3023 165.752C52.945 165.965 53.5905 166.186 54.2737 166.202C54.9743 166.218 54.9746 167.307 54.2737 167.291ZM50.7468 144.006C50.0374 143.986 49.4489 143.624 48.9512 143.14C48.4479 142.652 49.2185 141.882 49.7209 142.371C50.0058 142.648 50.3344 142.905 50.7468 142.918C51.4471 142.936 51.4477 144.025 50.7468 144.006ZM52.9369 114.061C52.9455 114.351 53.068 114.662 53.2478 114.852C53.7289 115.362 52.9601 116.133 52.4782 115.622C52.0805 115.201 51.8651 114.637 51.8484 114.061C51.8283 113.359 52.9169 113.362 52.9369 114.061ZM44.6339 90.3452C44.4061 89.899 44.1076 89.3758 43.6536 89.1293C43.0369 88.7946 43.5869 87.8547 44.2029 88.1891C44.8201 88.5241 45.2619 89.1845 45.5739 89.7955C45.8923 90.4191 44.9526 90.9694 44.6339 90.3452ZM43.2229 101.669C42.9704 101.662 42.7196 101.619 42.4762 101.553C42.372 101.525 42.2691 101.492 42.1649 101.464C42.1204 101.452 41.9307 101.428 42.0472 101.434C41.7525 101.418 41.503 101.198 41.503 100.89C41.503 100.607 41.7533 100.329 42.0472 100.345C42.4512 100.367 42.8186 100.569 43.2229 100.58C43.9229 100.6 43.9234 101.689 43.2229 101.669ZM39.696 119.074H38.5204C37.8187 119.074 37.8199 117.985 38.5204 117.985H39.696C40.3975 117.985 40.3963 119.074 39.696 119.074ZM38.3247 167.216C37.9682 167.395 37.548 167.564 37.2592 167.837C36.7501 168.318 35.9793 167.55 36.4895 167.067C36.8573 166.719 37.3275 166.5 37.7753 166.276C38.0392 166.144 38.3635 166.204 38.5201 166.472C38.6615 166.713 38.5875 167.086 38.3247 167.216ZM35.6978 153.459C35.6522 153.445 35.6041 153.437 35.558 153.43C35.3729 153.406 35.1792 153.414 34.9934 153.414C34.2918 153.414 34.2929 152.324 34.9934 152.326C35.5454 152.326 36.1199 152.334 36.5539 152.719C36.7743 152.916 36.7529 153.291 36.5539 153.49C36.3376 153.707 36.0036 153.685 35.7843 153.49C35.8074 153.511 35.7281 153.467 35.6978 153.459ZM34.9936 134.954C35.1518 134.628 35.1543 134.416 35.1545 134.053C35.1551 133.352 36.2436 133.353 36.243 134.053C36.2428 134.579 36.1645 135.027 35.9336 135.505C35.8048 135.77 35.4277 135.839 35.1891 135.7C34.9216 135.544 34.8656 135.219 34.9936 134.954ZM31.8463 109.412C31.2149 109.626 30.6514 109.93 30.0954 110.298C29.5085 110.685 28.9637 109.742 29.5459 109.357C30.1804 108.939 30.8367 108.607 31.5568 108.362C32.2227 108.135 32.506 109.187 31.8463 109.412ZM28.1747 91.0853C27.7057 91.0983 27.2216 91.2783 26.8036 91.4814C26.1753 91.7865 25.6241 90.8472 26.2542 90.541C26.8514 90.2509 27.5046 90.0151 28.1747 89.9964C28.8768 89.9767 28.8738 91.0657 28.1747 91.0853ZM26.5289 140.007C26.3443 140.016 26.1867 139.916 26.0889 139.772C26.0788 139.772 26.0687 139.772 26.0585 139.772C25.7536 139.772 25.5276 139.523 25.5143 139.227C25.5011 138.935 25.7739 138.684 26.0585 138.684C26.2507 138.684 26.4413 138.696 26.6199 138.77C26.9082 138.893 27.0614 139.156 27.0731 139.463C27.0847 139.768 26.8144 139.995 26.5289 140.007ZM23.852 102.356C23.1834 102.574 22.8996 101.522 23.5626 101.306C24.3407 101.051 25.1359 100.854 25.9139 100.6C26.5824 100.381 26.8663 101.433 26.2033 101.65C25.4253 101.904 24.63 102.101 23.852 102.356ZM21.4108 122.908C21.2033 123.577 20.153 123.29 20.361 122.619C20.5618 121.971 20.5763 121.32 20.5767 120.647C20.5771 119.945 21.6656 119.946 21.6652 120.647C21.6648 121.413 21.6391 122.171 21.4108 122.908ZM14.1329 147.525C14.0932 147.796 13.8782 147.992 13.5968 148.004C13.3105 148.017 13.0422 147.745 13.0526 147.46C13.0726 146.911 13.5193 146.465 14.0672 146.445C14.3719 146.434 14.5986 146.704 14.6114 146.99C14.624 147.268 14.3918 147.485 14.1329 147.525ZM10.4498 116.233C9.87452 116.425 9.26 116.607 8.80909 117.033C8.29951 117.514 7.52879 116.745 8.03932 116.263C8.63388 115.702 9.39879 115.437 10.1605 115.182C10.8275 114.96 11.1108 116.012 10.4498 116.233ZM7.95354 137.386C7.79545 137.656 7.47524 137.704 7.20899 137.582C6.85196 137.414 6.45771 137.421 6.07275 137.42C5.37137 137.42 5.37245 136.331 6.07275 136.331C6.66664 136.331 7.21439 136.388 7.7585 136.64C8.0261 136.766 8.09125 137.15 7.95354 137.386ZM6.54308 163.057C6.23825 163.069 6.01165 162.799 5.99883 162.513C5.98629 162.235 6.21829 162.018 6.47753 161.978C6.51691 161.707 6.73205 161.511 7.01328 161.498C7.2999 161.485 7.56805 161.758 7.55766 162.042C7.53756 162.59 7.09111 163.038 6.54308 163.057ZM105.714 167.175C105.529 166.508 105.105 165.972 104.786 165.373C104.678 165.17 104.641 165.045 104.583 164.898C104.504 165.056 104.351 165.174 104.121 165.174C103.679 165.174 103.162 165.146 102.749 165.335C102.481 165.458 102.165 165.414 102.005 165.139C101.867 164.903 101.933 164.518 102.2 164.395C102.808 164.117 103.461 164.086 104.121 164.085C104.283 164.085 104.407 164.145 104.494 164.236C104.746 160.784 104.74 157.33 104.501 153.875C104.247 150.184 103.662 146.566 103.049 142.922C102.753 141.155 102.368 139.37 102.443 137.571C102.517 135.784 103.283 134.118 102.741 132.325C102.523 131.606 102.15 130.948 101.908 130.237C101.648 129.473 101.671 128.717 101.789 127.925C102.033 126.312 102.437 124.718 101.791 123.143C101.505 122.445 101.042 121.822 100.819 121.1C100.542 120.203 100.58 119.211 100.533 118.281C100.44 116.406 100.415 114.518 100.26 112.646C100.191 111.808 100.04 111.013 99.6953 110.244C99.3646 109.503 98.8735 108.83 98.6544 108.044C98.4367 107.271 98.4177 106.456 98.3006 105.665C98.1782 104.829 97.9863 104.006 97.7278 103.203C96.729 100.094 94.8989 97.3009 92.7368 94.8795C90.4385 92.3055 87.6914 90.3673 84.7754 88.5611C83.2421 87.6112 81.7089 86.6614 80.1766 85.7116C80.1438 85.8898 80.0303 86.0535 79.8122 86.1265C79.2368 86.3187 78.6224 86.5013 78.1713 86.9273C77.6619 87.4082 76.891 86.6394 77.4016 86.1574C77.9341 85.6544 78.6035 85.3896 79.2846 85.1569C78.5865 84.7168 77.8808 84.2609 77.0929 84.0067C76.4029 83.7834 75.3853 83.9781 74.8259 83.4717C74.3866 83.0729 74.2476 82.3339 74.079 81.7921C73.8681 81.1197 73.6858 80.4106 73.4177 79.7572C73.2353 79.3108 72.97 78.882 72.6354 78.5363C72.4884 77.9701 72.2189 77.4528 71.7426 77.1384C70.4963 76.3136 68.9655 77.133 68.4172 78.309C67.964 78.3077 67.4866 78.4069 67.0456 78.4342C66.1394 78.4914 65.2319 78.5173 64.3243 78.5146C62.5485 78.509 60.7715 78.3933 59.0107 78.158C55.8622 77.7359 52.8074 76.8852 49.7119 76.2224C49.6942 76.1815 49.6737 76.1407 49.6493 76.0999C48.9824 74.9811 47.3211 75.1702 46.2746 75.5936C45.8257 75.7746 45.3686 76.0032 45.1113 76.428C44.8392 76.6117 44.6038 76.8349 44.4473 77.0704C44.1235 77.5562 43.8731 78.5363 43.2159 78.618C42.7832 78.671 42.3437 78.5881 41.9043 78.6507C41.3545 78.7269 40.8619 78.9202 40.3543 79.1407C36.49 80.8189 32.4951 82.685 28.3013 83.3356C27.3177 83.4881 26.3162 83.646 25.4617 84.1973C24.7677 84.6451 24.2314 85.2603 23.6587 85.8442C23.1009 86.4132 22.6409 86.6649 21.845 86.767C20.8788 86.891 20.042 87.1576 19.3359 87.8601C18.7494 88.444 18.3671 89.1899 17.9071 89.8677C17.4389 90.5592 16.7519 90.9485 16.0389 91.35C14.353 92.3001 12.7828 93.4476 11.4153 94.8236C8.53474 97.7256 6.79032 101.455 5.03227 105.089C3.13139 109.02 1.35433 112.999 0.122189 117.197C-1.08635 121.318 -1.80527 125.558 -2.13707 129.837C-2.48642 134.328 -2.53632 138.836 -2.82767 143.329C-2.97199 145.573 -3.08259 147.821 -3.19454 150.066C-3.30379 152.285 -3.46296 154.508 -3.43733 156.729C-3.38743 161.024 -2.52958 165.332 -1.02835 169.353C-0.653383 170.352 -0.239296 171.34 0.203115 172.311C0.591573 173.165 1.91773 173.069 2.33411 172.311C2.42933 172.137 2.50419 171.958 2.56678 171.775C3.65527 171.785 4.75469 171.7 5.83644 171.801C7.7469 171.979 9.66127 172.079 11.5771 172.198C15.3681 172.432 19.1658 172.589 22.958 172.806C23.326 172.826 23.6938 172.848 24.0616 172.869C21.3591 164.503 21.7097 155.456 21.282 146.755C21.2476 146.052 22.3365 146.056 22.3706 146.755C22.8001 155.494 22.4344 164.563 25.2324 172.944C26.3179 173.018 27.402 173.107 28.4824 173.239C29.3559 173.343 30.2337 173.467 31.1154 173.424C32.1154 173.377 33.0923 173.147 34.0681 172.949C35.8409 172.587 37.5487 172.751 39.3284 172.973C41.232 173.211 43.1425 173.343 45.0583 173.426C52.7299 173.762 60.4532 174.068 68.122 173.556C69.978 173.432 71.8299 173.258 73.6736 173.02C75.5731 172.778 77.4521 172.368 79.3502 172.134C81.2211 171.906 82.9411 172.534 84.7904 172.65C86.6761 172.767 88.6125 172.374 90.4807 172.148C91.0903 172.074 91.7003 172.002 92.3105 171.931C91.525 166.545 91.0783 161.117 90.6443 155.692C90.5884 154.992 91.6774 154.999 91.7328 155.692C92.1632 161.075 92.6 166.461 93.3845 171.805C96.6195 171.429 99.8577 171.048 103.059 170.462C103.971 170.296 104.877 170.025 105.422 169.211C105.826 168.608 105.908 167.869 105.714 167.175Z" fill="#CF6262"/>
<path fill-rule="evenodd" clip-rule="evenodd" d="M81.2674 52.94C80.9744 50.3654 81.3534 44.984 81.3789 44.6571C81.5394 42.5903 80.5714 34.4285 78.7412 35.1804C75.6711 32.7493 71.5822 32.2125 67.7587 31.9561C59.8166 31.4233 51.3678 32.6463 45.2351 37.9928C42.2023 40.7694 39.2498 44.8077 39.4872 49.0125C36.7315 52.9983 32.847 58.4655 36.2802 63.125C37.4472 64.6137 39.302 65.1681 40.7681 66.2955C43.7169 68.6748 45.5669 72.0894 48.5438 74.4544C56.4303 81.5436 69.8219 83.0245 77.5704 74.9611C83.5622 69.1214 82.5934 60.3848 81.5394 52.94C80.8309 47.9348 81.8387 57.9627 81.2674 52.94Z" fill="white"/>
<path fill-rule="evenodd" clip-rule="evenodd" d="M57.1492 21.0381C59.2733 20.6093 61.4543 20.3425 63.6234 20.4228L63.7906 20.4294C65.4227 20.4945 67.4895 20.6389 68.9132 21.5883C68.9952 21.506 69.1268 21.4638 69.2463 21.5209C70.9381 22.3287 72.7991 22.9128 74.5805 23.4931C76.3537 24.0707 78.1934 24.452 80.0519 24.6056C80.7512 24.6635 81.3496 25.4188 80.9068 26.0962C80.8015 26.2576 80.699 26.4207 80.5967 26.5842C80.7676 26.5664 80.9385 26.5479 81.1094 26.5306C81.6719 26.474 82.2336 27.0745 82.2003 27.6222C82.1794 27.9667 82.1423 28.307 82.0873 28.6434C82.3015 28.639 82.5145 28.6711 82.7201 28.7581C83.762 29.198 83.6894 30.4394 83.6114 31.3837C83.5034 32.6942 83.0134 34.0822 82.1037 35.0631C82.783 35.7688 83.2639 36.6117 83.5506 37.6126C83.7587 38.3435 83.8745 39.1221 83.8173 39.8829L83.7991 40.1108C83.7284 40.9365 83.588 41.8506 82.9941 42.4446C82.6893 42.7509 82.3138 42.8625 81.9558 42.8271C82.1723 44.7299 82.3111 46.6437 82.4416 48.5507L82.503 49.4621C82.7943 53.8695 83.0132 58.3054 82.9561 62.72C82.9028 66.8456 82.088 70.8501 79.5584 74.1999C77.2546 77.2501 73.9469 79.4987 70.205 80.3536C68.1884 80.815 66.1297 80.8476 64.0887 80.5536C63.0994 80.4106 62.1035 80.1916 61.1645 79.8457C60.1251 79.462 59.378 78.8971 58.6786 78.0505C58.3479 77.6489 58.507 76.7942 59.1658 76.8744C60.1619 76.9953 61.0714 77.141 62.0265 77.4357L62.1633 77.4788C63.1145 77.7837 64.0996 78.0109 65.0941 78.1077C67.1312 78.305 69.1994 78.1063 71.1507 77.4883C74.328 76.4811 77.0643 74.2366 78.8182 71.4163C80.9001 68.0734 81.1354 64.2785 81.1054 60.4347C81.0731 56.2168 80.9359 51.9964 80.7122 47.7828L80.674 47.0806C80.5556 44.9124 80.4413 42.7427 80.3408 40.573C80.3094 39.8925 80.2618 39.2065 80.176 38.5272C79.391 38.0672 78.6876 37.433 78.229 36.6502C77.3078 37.0314 76.339 37.3063 75.4476 37.5255C73.3828 38.0334 71.2393 38.1567 69.1377 37.8387C68.5708 38.073 67.9927 38.2789 67.4057 38.456C67.247 38.5264 67.0883 38.5956 66.9299 38.6633C65.5145 39.2691 64.079 39.7822 62.5852 40.158L62.2182 40.2494C61.432 40.4434 60.578 40.6342 59.7413 40.6943C59.6039 40.7473 59.4555 40.7922 59.2935 40.8317C58.5317 41.0168 57.7409 41.0753 56.9601 41.01C56.1994 40.9461 55.6496 40.177 56.0687 39.457C56.3748 38.9315 56.6839 38.4075 56.9954 37.8848C55.911 38.3367 54.7912 38.7124 53.6618 39.0309C52.5215 39.3522 51.3649 39.623 50.2068 39.872C49.5877 40.0041 48.9661 40.1211 48.3483 40.2532C47.906 40.3471 47.2271 40.3962 46.8664 40.6874C46.4678 41.0073 46.3549 41.7532 46.2037 42.2133C46.005 42.8108 45.8186 43.411 45.6485 44.0181C45.3098 45.2295 45.0323 46.4585 44.8173 47.7C44.6023 48.9427 44.4579 50.1976 44.3777 51.4567C44.2976 52.7143 44.3328 53.9802 44.2037 55.2324C44.1341 55.8967 43.4212 56.2384 42.8947 55.7741C42.8329 55.7198 42.7706 55.6647 42.7089 55.609L42.6171 55.5251C42.1666 55.1167 41.7298 54.6839 41.3693 54.1967C41.304 54.1069 41.2414 54.0128 41.1829 53.9176C41.1734 53.9176 41.1652 53.9149 41.1558 53.908L41.0558 53.8328C39.9553 53.0135 38.1168 51.9453 37.0436 53.3065C36.7017 53.7401 36.5266 54.2923 36.3814 54.825L36.1264 55.7783C35.9615 56.4008 35.8064 57.0266 35.7156 57.6634C35.51 59.0899 35.6135 60.7341 36.5946 61.8775C36.9866 62.3349 37.5268 62.6614 38.1294 62.7472C38.4656 62.7935 38.7976 62.7363 39.1311 62.6942C39.4698 62.652 39.7963 62.72 40.1351 62.6873C40.674 62.6343 40.9095 63.2795 40.7081 63.6851C40.5991 63.9029 40.4711 64.0906 40.3257 64.2499C40.4425 64.3507 40.5543 64.4596 40.6618 64.5739C40.9802 64.676 41.2658 64.8951 41.4795 65.1851C41.6524 65.4192 41.742 65.6738 41.7571 65.9419C41.7761 66.0085 41.7924 66.0766 41.8075 66.146L42.0994 66.6199C42.1636 66.7239 42.2275 66.8266 42.2917 66.9273C43.0347 68.0978 43.8593 69.0888 44.884 70.0225C45.8705 70.9209 46.9412 71.7253 47.868 72.6889L47.9771 72.8035C48.8412 73.7142 49.7519 74.8166 49.4137 76.1408C49.3266 76.4811 48.8516 76.7261 48.5415 76.4961C47.5442 75.7556 47.0419 74.5823 46.1957 73.684C45.3247 72.7584 44.36 71.9267 43.4865 71.0039C42.6605 70.1328 42.0088 69.146 41.5177 68.0598C41.3215 68.2762 41.036 68.4301 40.64 68.4899C39.9596 68.5919 39.3254 68.1932 39.029 67.6038C38.8384 67.6882 38.6439 67.7644 38.4478 67.8243C37.4165 68.1401 36.7675 66.9926 37.1567 66.1446C37.3647 65.6901 37.6246 65.2953 37.9472 64.9632C36.9388 64.8244 35.9128 64.3031 35.2501 63.6524C33.5876 62.0177 33.3589 59.5608 33.7331 57.3763C33.9318 56.2179 34.2745 55.046 34.7196 53.9585C34.7971 53.7693 34.8803 53.5787 34.9712 53.3908C34.9209 53.3894 34.8692 53.3677 34.8366 53.3255C34.5358 52.9145 34.17 52.5782 33.9466 52.1182C33.7412 51.6963 33.5127 51.2688 33.3507 50.8292C33.0174 49.9294 32.8541 48.9141 32.7452 47.9626C32.5208 46.0149 32.6078 44.0794 32.9059 42.1438C33.4133 38.8472 34.639 35.6923 36.4448 32.924C36.3464 32.8723 36.2522 32.81 36.1643 32.7362L36.1211 32.6983L36.0505 32.6347C35.5353 32.1683 35.5798 31.294 36.0505 30.8215L36.1993 30.6724C36.3876 30.4853 36.5498 30.337 36.854 30.1333C36.8989 30.1032 36.9448 30.0749 36.9912 30.0485C36.832 29.7543 36.7767 29.4101 36.8876 29.0305C37.274 27.708 39.1762 27.7548 40.382 28.3316C41.7159 27.1407 43.1949 26.107 44.7981 25.2699C48.6163 23.2771 52.9336 21.8875 57.1492 21.0381ZM37.4125 55.8695C38.1255 55.6367 39.0725 56.1254 39.7133 56.4194C40.5257 56.7923 41.217 57.3436 41.8864 57.9262C42.2198 58.2174 42.2796 58.6938 42.1966 59.1008C42.1884 59.1416 42.1803 59.1838 42.1706 59.226C42.0823 59.6602 41.5978 60.0019 41.1693 59.9896C40.2726 59.9652 39.8454 59.1907 39.3377 58.5346C39.2779 58.6408 39.2031 58.7387 39.1104 58.8122L39.048 58.8612C38.8373 59.0217 38.605 59.1499 38.3268 59.1375C38.1294 59.128 37.9405 59.0776 37.7662 58.9865C37.3307 58.7564 37.139 58.193 37.2573 57.7342C37.3307 57.4457 37.4994 57.2197 37.7199 57.0632L37.6377 57.0069C37.4619 56.8846 37.3015 56.7555 37.1766 56.5651L37.1484 56.52H37.1592C37.0231 56.286 37.1117 55.9674 37.4125 55.8695Z" fill="#CF6262"/>
<path fill-rule="evenodd" clip-rule="evenodd" d="M70.996 69.5671C69.9935 69.8575 68.9176 69.8834 67.8959 69.5835C66.9692 69.3115 66.0176 68.7128 65.3355 67.9205C64.7296 67.2166 64.3373 66.3615 64.3527 65.4485C64.3544 65.3442 64.3916 65.2572 64.449 65.1897C64.5107 65.117 64.5969 65.067 64.6893 65.0453C64.7843 65.0231 64.8846 65.0309 64.9701 65.0697C65.0476 65.1049 65.1138 65.1647 65.1553 65.252C65.2601 65.3897 65.3645 65.5255 65.4693 65.6574C66.3122 66.6984 67.1284 67.4764 68.3957 67.7555C69.0834 67.9068 69.77 67.8397 70.4002 67.6088C71.0746 67.3614 71.6844 66.9265 72.1622 66.3701C72.3781 66.1186 72.633 66.0159 72.8823 66.0142C73.1649 66.0123 73.4441 66.1435 73.6544 66.3534C73.8611 66.5598 73.9996 66.8401 74.0122 67.1333C74.0231 67.3906 73.9392 67.6595 73.716 67.8994C72.9805 68.6894 72.0273 69.2682 70.996 69.5671ZM70.965 56.5285C71.9925 57.1533 73.558 58.6101 72.4527 60.159C71.1516 61.5246 69.2783 59.9588 68.3551 59.2507C67.4992 58.7019 66.5375 60.1134 67.3316 60.7542C74.0022 65.6945 76.7093 56.6918 71.4846 55.7939C70.9094 55.6949 70.6957 56.3352 70.965 56.5285ZM61.3532 53.7795C61.023 53.5681 60.6344 53.4957 60.2038 53.6915C59.8674 53.8446 59.2773 54.3549 58.8666 55.0255C58.5857 55.4844 58.3864 56.0227 58.428 56.5835C58.4376 56.7137 58.3895 56.8097 58.3136 56.8807C58.2537 56.9368 58.1671 56.9779 58.0654 56.9909C57.9791 57.0018 57.8825 56.992 57.804 56.9674C57.6546 56.9207 57.5755 56.8238 57.5457 56.7446C57.2582 55.9808 57.382 55.1283 57.7044 54.3592C58.1392 53.3213 58.9291 52.452 59.4465 52.1717C60.332 51.6919 61.3766 51.6698 62.2633 52.1586C63.0181 52.5746 63.4902 53.2463 63.9596 53.931C64.0594 54.0765 64.1584 54.221 64.2608 54.3628C64.466 54.6473 64.4863 54.9294 64.4069 55.1712C64.3189 55.4392 64.0945 55.6653 63.8138 55.7837C63.5546 55.8931 63.2535 55.9085 62.9871 55.7961C62.7621 55.7011 62.5556 55.5161 62.4249 55.2021C62.2048 54.6732 61.8382 54.0897 61.3532 53.7795ZM78.1258 54.9561C77.8996 55.0739 77.7226 55.1094 77.4718 55.0343C77.333 54.9926 77.1959 54.9126 77.0886 54.8053C76.9821 54.6988 76.9054 54.5665 76.8756 54.4196C76.8022 54.0573 76.6039 53.7181 76.3215 53.4969C76.0801 53.3079 75.7754 53.2077 75.4373 53.2642C75.0726 53.3252 74.7252 53.5592 74.4859 53.8351C74.4058 53.9273 74.3432 54.0321 74.2801 54.1364C74.1622 54.331 74.0475 54.512 73.885 54.6551C73.8234 54.7095 73.7304 54.7471 73.6405 54.7471C73.6039 54.7471 73.5668 54.7412 73.5313 54.7301C73.1684 54.3657 73.0986 54.0892 73.1102 53.815C73.1225 53.5274 73.2359 53.2362 73.4191 52.9645C73.8487 52.3274 74.6645 51.8048 75.2149 51.6864C75.9688 51.5244 76.7175 51.7189 77.3179 52.1401C77.9355 52.5735 78.3931 53.2464 78.5358 54.0047C78.5701 54.1874 78.5555 54.3844 78.4861 54.5553C78.4181 54.7224 78.2997 54.8654 78.1258 54.9561ZM63.0158 46.985C62.5635 47.4259 62.028 47.4943 61.4862 47.555C61.1852 47.5891 60.9449 47.6165 60.7084 47.6699C60.0586 47.8167 59.4161 48.0377 58.8301 48.356C58.2173 48.6888 57.5496 49.0901 57.0693 49.6042C56.9551 49.7266 56.8474 49.8548 56.7397 49.9835C56.6413 50.1009 56.5467 50.2138 56.4469 50.3227C56.3322 50.4478 56.2234 50.5789 56.115 50.7096C56.0481 50.8199 56.0349 50.847 56.0214 50.8754C56.0011 50.9178 55.9775 50.9653 55.9505 51.0163C55.9137 51.086 55.8704 51.1624 55.825 51.2317C55.7498 51.3584 55.7093 51.3932 55.6744 51.4088C55.6164 51.4346 55.5615 51.4474 55.5081 51.4404C55.458 51.434 55.411 51.4099 55.3644 51.3706C55.1322 51.1743 55.0636 50.8522 55.0707 50.5101C55.0813 49.9912 55.2727 49.4166 55.4491 49.0634C55.8593 48.2426 56.4281 47.3895 57.1121 46.7769C57.8925 46.0778 58.7464 45.5484 59.7273 45.1836C60.3367 44.9569 61.0424 44.7488 61.7064 44.7751C62.1844 44.794 62.6407 44.9361 63.0175 45.291C63.2489 45.5088 63.3599 45.8188 63.3599 46.1285C63.3599 46.4444 63.2446 46.762 63.0158 46.985ZM79.046 51.0228C79.0171 51.07 78.9773 51.1025 78.9331 51.1221C78.8865 51.1424 78.8347 51.1484 78.785 51.14C78.7353 51.1316 78.6883 51.1091 78.6509 51.0748C78.6152 51.0419 78.5879 50.9982 78.5756 50.9448C78.2753 49.6251 77.692 48.6432 76.4472 48.0101C75.8348 47.6986 75.1306 47.5008 74.464 47.3429C74.2704 47.2971 74.0656 47.2673 73.8595 47.2372C73.2134 47.1429 72.5628 47.0347 72.1417 46.5125C71.8878 46.1978 71.7814 45.7953 71.8415 45.4274C71.8982 45.0809 72.1007 44.7631 72.4686 44.5728C73.3847 44.0989 74.5231 44.5639 75.4483 44.9599C75.5168 44.9893 75.5842 45.0181 75.6501 45.0459C76.5548 45.4279 77.3799 45.9321 78.0581 46.6532C78.5963 47.2253 79.0949 48.071 79.2958 48.941C79.4628 49.6648 79.4235 50.4037 79.046 51.0228Z" fill="#CF6262"/>
<path fill-rule="evenodd" clip-rule="evenodd" d="M73.847 71.7655C72.5798 70.6362 71.1593 68.3657 69.3388 70.1622C68.8886 70.6698 68.7062 71.8076 68.0178 72.0308C67.1034 72.3276 66.1972 71.3598 65.8856 70.6166C64.6106 66.4873 69.8811 65.3548 72.8835 66.0219C74.3504 66.6245 75.4307 69.05 75.496 70.3158C75.5383 71.1665 74.8185 72.4174 73.847 71.7655ZM83.4071 65.4009C83.3947 65.346 83.3774 65.2965 83.3567 65.2513C82.7962 65.0394 82.3527 65.2556 82.0787 65.6593C82.0877 65.7597 82.1176 65.8612 82.1365 65.9608C81.925 66.4064 81.7343 66.9578 81.4477 67.3429C81.3912 67.3472 81.3325 67.3413 81.2761 67.325C76.5256 67.8212 78.8449 62.8491 74.0265 61.6141C70.3019 60.9994 63.5701 61.7035 61.813 65.5816C60.4274 71.7758 53.3813 67.4597 51.0678 64.2383C48.5993 61.3066 47.0033 57.724 45.4644 54.2477C45.1392 53.512 44.1242 54.0381 44.2346 54.7439C42.8121 57.5984 42.8595 61.0271 42.5071 64.1542C41.908 70.3928 41.3241 79.1419 47.1189 82.9514C54.6689 91.488 73.5223 94.5005 82.2304 86.6568C85.2449 80.1738 84.8733 72.2646 83.4071 65.4009Z" fill="#CF6262"/>
<path fill-rule="evenodd" clip-rule="evenodd" d="M78.4479 46.4062C81.6417 46.4062 83.4642 47.0932 84.1322 47.1467L84.1523 47.1482C84.43 47.166 84.6793 47.1892 84.9407 47.2904C85.9021 47.6608 86.0587 48.6694 85.4977 49.3051C85.4583 50.6205 85.6313 52.1573 85.3345 53.477C84.9684 59.0401 82.3531 59.9788 80.8664 60.3214C80.1201 60.4935 79.2354 60.5621 78.4427 60.3804C77.0902 60.3299 75.7531 59.9064 74.609 59.1689C73.0158 58.1409 71.8325 56.5611 71.4485 54.6859C71.2664 53.7922 71.1814 52.8619 71.2804 51.9534L71.2951 51.8282C70.7772 51.5804 70.1771 51.5336 69.5585 51.5116C69.263 51.5011 68.9716 51.4917 68.6887 51.5044C68.4122 51.5353 68.1389 51.5764 67.8647 51.6324C67.5654 51.7227 67.2827 51.8718 67.0217 52.108L67.0037 52.4527C66.9546 53.3138 66.8416 54.1774 66.6673 55.0222C66.41 56.2686 65.996 57.4591 65.115 58.3433C64.8168 58.7888 64.4477 59.1865 63.9996 59.531C62.3722 60.7843 60.1612 61.2446 58.1319 61.0712C54.0121 60.7196 51.6309 57.4482 51.082 56.0499L51.0493 55.9652C50.6529 54.9256 50.3368 53.5768 49.0842 53.3535L48.8178 53.3056C48.2462 53.1982 47.7186 53.0488 47.3835 52.4909C47.2366 52.2473 47.161 51.9748 47.1424 51.6971C46.947 51.7122 46.7517 51.7265 46.557 51.7405C45.0047 52.0688 35.6938 52.3474 34.9508 52.3474C34.9508 52.3474 33.5221 52.9488 32.9189 52.4828C32.5009 52.1587 32.3633 51.7268 32.5934 51.2376C32.9408 50.5014 34.5428 50.0586 35.2541 49.9183C35.2541 49.9183 46.7335 50.0137 47.5598 49.8569C48.071 49.3297 48.9853 49.4018 49.7494 49.3185C50.382 48.8673 51.2668 48.5652 51.9658 48.3628C52.1082 48.3089 52.2493 48.2567 52.3865 48.2075C53.6679 47.751 54.9998 47.5092 56.352 47.3793C57.7464 47.2468 59.145 47.3067 60.5313 47.4968C61.1155 47.5761 61.6942 47.6786 62.2688 47.8127C63.2979 47.9483 64.3208 48.1718 65.3502 48.4369L65.5562 48.4906C66.6401 48.7748 67.7541 49.0207 68.8761 48.8279C69.7896 48.6721 70.668 48.3204 71.5104 47.9401L71.62 47.8903C73.472 47.0445 76.3642 46.4062 78.4479 46.4062ZM62.1574 49.4991C61.4741 49.3487 61.1824 50.4027 61.8678 50.5533C62.3533 50.6601 62.7647 50.905 63.0427 51.3198L63.0719 51.3649C63.4449 51.9586 64.388 51.4106 64.0125 50.813C63.5899 50.1406 62.9333 49.6696 62.1574 49.4991ZM82.1713 48.8456C81.9304 48.6759 81.5659 48.8019 81.426 49.0417C81.2722 49.3058 81.3729 49.6 81.5986 49.7728L81.6215 49.7896C81.8285 49.9356 82.0301 50.1971 82.0554 50.465L82.0576 50.4986C82.0847 51.1998 83.1742 51.2033 83.147 50.4986C83.1204 49.809 82.7213 49.233 82.1713 48.8456Z" fill="#CF6262"/>
</g>
<defs>
<linearGradient id="paint0_linear_1_85" x1="59.5" y1="0" x2="59.5" y2="119" gradientUnits="userSpaceOnUse">
<stop stop-color="#833AB4"/>
<stop offset="0.5" stop-color="#FD1D1D"/>
<stop offset="1" stop-color="#FCB045"/>
</linearGradient>
</defs>
</svg>
