<svg width="119" height="119" viewBox="0 0 119 119" fill="none" xmlns="http://www.w3.org/2000/svg">
<circle cx="59.5" cy="59.5" r="57" stroke="url(#paint0_linear_1_67)" stroke-width="5"/>
<mask id="mask0_1_67" style="mask-type:alpha" maskUnits="userSpaceOnUse" x="14" y="14" width="91" height="91">
<circle cx="59.5" cy="59.5" r="44.7784" fill="#C4C4C4"/>
</mask>
<g mask="url(#mask0_1_67)">
<path fill-rule="evenodd" clip-rule="evenodd" d="M93.3141 124.838C91.9671 119.612 90.7277 117.396 88.3344 115.579C86.0955 113.879 82.8279 112.453 78.0597 111.41C73.0932 110.542 72.952 107.96 71.7067 103.81C71.3438 102.563 69.5431 102.231 68.7669 103.13C68.6571 103.012 68.543 102.904 68.4244 102.806C68.5305 102.211 67.6642 100.505 67.6935 99.9361C67.9949 93.9965 66.0524 91.0135 61.2044 89.9043C60.1501 89.6636 52.9878 89.5217 51.9599 89.8056C47.4653 91.0487 43.0409 94.9945 43.7184 99.7481C42.307 101.593 40.9264 102.718 38.7497 103.312C33.9061 103.927 29.0627 104.474 24.2176 104.942C14.7334 106.43 5.84111 111.452 -0.236509 118.774C-0.797108 119.45 -0.959023 120.368 -0.464274 121.088C-0.851835 122.749 -3.03343 126.776 -1.31688 127.914C-4.13963 134.667 -10.6342 147.718 -10.6464 151.447C-10.6976 167.111 -9.00583 187.5 6.44817 196.168C7.06694 196.777 7.15547 197.45 7.4234 198.355C8.10282 201.207 10.5704 203.245 13.2711 203.078C26.5755 203.374 39.4616 201.75 52.7661 201.672C58.6341 201.637 65.6902 202.514 70.787 203.097C75.8837 203.681 81.0288 203.164 85.9199 201.672C86.3326 202.322 87.1667 202.7 88.0125 202.514C93.0829 201.506 97.1838 198.38 100.755 194.964C101.847 192.979 106.109 187.321 104.415 185.351C105.951 178.858 105.87 171.88 103.142 165.697C103.528 164.564 102.823 163.318 103.142 162.147C103.372 161.301 103.962 160.95 104.258 160.112C104.676 158.931 104.222 157.347 103.751 156.143C103.559 155.543 104.106 154.897 104.258 154.284C104.98 151.395 103.328 151.65 102.136 149.718C102.154 149.713 102.464 148.333 102.462 148.341C102.645 147.356 102.188 146.095 101.789 145.274C101.52 144.718 100.942 144.371 100.369 144.434C100.947 142.473 101.677 140.841 102.462 138.952C103.851 135.622 105.61 132.433 107.604 129.418C108.421 128.184 107.324 126.754 106.002 126.67C101.724 126.398 97.4926 125.782 93.3141 124.838Z" fill="#F4C2C2"/>
<path fill-rule="evenodd" clip-rule="evenodd" d="M80.8283 150.023C79.1169 149.351 77.2746 148.98 75.4228 148.836C76.4193 148.662 77.4195 148.493 78.4277 148.407C79.1308 148.346 79.7827 148.352 80.3117 148.886C80.6644 149.241 80.8297 149.699 81.0617 150.12C80.9856 150.086 80.9066 150.053 80.8283 150.023ZM99.1944 143.747C96.3922 143.89 93.587 144.557 91.0518 145.764C90.0143 146.258 89.0748 146.973 88.7997 148.148C88.66 148.748 88.6944 149.369 88.7683 149.974C88.8239 150.434 88.8378 151.02 89.2373 151.331C89.3046 151.383 89.3777 151.423 89.4531 151.453C88.518 151.875 87.6276 152.382 86.836 152.905C86.1131 153.383 85.3697 154.119 85.0353 154.949C85.0075 154.855 84.9797 154.767 84.9519 154.683C84.3834 153.001 83.5069 151.623 82.1262 150.697C82.3706 150.587 82.5389 150.327 82.4606 149.969C82.1328 148.47 80.7493 147.168 79.1864 147.261C77.4751 147.361 75.6371 147.984 74.0897 148.772C73.5256 148.759 72.9629 148.766 72.4069 148.791C72.311 148.794 72.3154 148.925 72.4069 148.935C72.8583 148.993 73.309 149.056 73.7604 149.13C74.8338 149.302 75.9035 149.52 76.9497 149.791C78.2045 150.116 79.5032 150.441 80.6768 151.009C82.9516 152.112 84.36 154.994 84.071 157.503C84.0227 157.914 83.8639 159.157 83.2932 159.029C82.8111 158.92 82.6194 157.914 82.4511 157.541C81.9997 156.551 81.1868 155.905 80.2115 155.467C79.0657 154.952 77.8402 154.604 76.6527 154.199C75.9803 153.969 75.3079 153.738 74.634 153.51C73.9448 153.273 73.2892 152.946 72.5554 153.112C72.1113 153.213 72.0601 153.742 72.3095 154.045C72.6878 154.507 73.2505 154.643 73.7963 154.833C74.5162 155.084 75.2355 155.335 75.954 155.585C77.0653 155.971 78.2294 156.297 79.313 156.771L79.2794 156.848C79.1908 156.824 79.0869 156.911 79.1045 157.02C79.2669 158.021 79.4923 159.177 79.242 160.179C79.0445 160.974 78.3465 161.854 77.4414 161.62C77.5834 161.49 77.636 161.266 77.5402 161.059C77.1817 160.292 72.4822 157.264 72.0637 158.389C72.0498 158.429 72.093 158.458 72.1266 158.452C72.4837 158.378 73.0822 158.987 73.3683 159.18C73.7809 159.458 74.1994 159.73 74.6077 160.017C75.0547 160.329 75.4901 160.657 75.9152 160.995C76.2495 161.262 76.5012 161.538 76.8846 161.673C76.6834 161.769 76.5246 161.947 76.4566 162.174C76.2832 162.766 75.9496 163.269 75.3701 163.53C74.7621 163.802 74.0772 163.63 73.4378 163.697C72.5656 163.785 71.8054 164.199 71.1703 164.792C69.8358 166.038 69.1671 168.235 67.3013 168.824C66.1863 169.175 64.9498 168.953 63.8215 168.794C62.5616 168.616 61.3346 168.475 60.0652 168.661C58.8506 168.839 57.7019 169.26 56.592 169.772C55.5516 170.254 54.4014 170.798 53.4788 171.515C53.2885 170.929 53.0969 170.35 52.9512 169.751C52.6088 168.336 52.423 166.895 52.3784 165.441C52.3367 164.057 52.4135 162.667 52.5327 161.29C52.5913 160.601 52.6842 159.916 52.7427 159.228C52.7581 159.055 52.7896 158.869 52.8122 158.684C54.4607 157.711 56.1918 156.965 57.9368 156.199C57.9412 156.197 57.9463 156.194 57.9507 156.193C58.0048 156.168 58.0575 156.145 58.1117 156.121C58.1102 156.118 58.108 156.115 58.1051 156.112C58.3048 155.99 58.4438 155.828 58.5272 155.645C61.042 153.977 63.1448 151.699 64.712 149.042C65.369 147.929 66.0012 146.773 66.8601 145.798C67.7754 144.757 68.862 144.139 70.2067 143.817C71.7791 143.44 73.399 143.214 75.0094 143.085C75.8896 143.016 76.8722 142.907 77.8307 142.912C78.4987 142.917 79.152 142.974 79.752 143.139C80.641 143.384 81.1605 144.06 81.718 144.743C82.2514 145.399 82.7818 146.056 83.2793 146.74C83.7505 147.387 84.1961 148.057 84.5824 148.759C84.8144 149.18 85.0295 149.613 85.2102 150.059C85.2739 150.217 85.3573 150.397 85.396 150.561C85.4341 150.726 85.3631 150.901 85.549 150.901C84.7836 150.912 84.791 152.135 85.5519 152.09C88.529 151.917 84.2642 146.103 83.6408 145.292C82.7584 144.145 81.8482 142.648 80.4354 142.114C80.4149 142.107 80.3937 142.099 80.3732 142.093C80.7844 141.703 81.1092 141.236 81.4202 140.761C81.7399 140.273 82.1219 139.713 82.2272 139.133C82.2931 138.763 81.8343 138.553 81.6163 138.876C81.2995 139.348 81.1466 139.945 80.9102 140.463C80.6688 140.989 80.3754 141.485 80.1434 142.015C79.5852 141.843 78.9823 141.765 78.3684 141.739C79.1433 140.69 80.4661 138.667 80.6256 138.408C81.358 137.205 82.0553 135.965 82.7218 134.723C83.4418 133.377 84.0586 131.976 84.7478 130.615C85.1392 129.844 85.5336 129.066 85.9675 128.317C86.1175 128.061 86.2784 127.804 86.4606 127.571C86.4965 127.524 86.5411 127.486 86.5828 127.442C86.6311 127.416 86.6801 127.387 86.7079 127.371C86.9581 127.228 87.0467 126.893 87.2223 126.681C87.504 126.34 87.8347 126.3 88.2583 126.295C89.1612 126.285 90.067 126.321 90.9684 126.346C92.2927 126.383 93.6163 126.435 94.9391 126.505C95.3393 126.527 95.7381 126.549 96.139 126.573C98.0633 126.688 99.9861 126.838 101.905 127.022C103.602 127.184 105.299 127.449 106.998 127.575C104.697 133.042 102.147 138.409 99.2596 143.59C99.2303 143.642 99.2083 143.695 99.1944 143.747ZM86.4328 157.83C86.0619 158 85.7019 158.212 85.3668 158.453C85.4224 158.078 85.4363 157.682 85.4202 157.284C85.6975 157.581 86.0509 157.751 86.4328 157.83ZM102.27 148.427C102.243 148.43 102.218 148.444 102.206 148.47C101.693 149.529 101.907 150.712 102.745 151.542C103.184 151.976 104.141 152.464 104.11 153.175C104.084 153.751 103.458 154.233 103.191 154.708C102.942 155.15 102.849 155.636 103.049 156.115C103.303 156.729 104.016 156.974 104.26 157.576C104.569 158.342 104.067 159.265 103.715 159.932C103.387 160.548 102.963 161.165 102.682 161.818C100.798 162.794 99.1118 164.291 97.6616 165.811C96.0739 167.474 94.7123 169.429 92.191 169.38C91.9393 169.375 91.7476 169.508 91.6327 169.692C90.9311 169.725 90.2279 169.739 89.5263 169.742C88.2927 169.748 87.0591 169.735 85.827 169.697C85.7407 169.399 85.8043 168.993 85.7992 168.741C85.7838 167.929 85.7765 167.119 85.7421 166.307C85.7326 166.081 85.7238 165.854 85.7143 165.628C86.1577 166.431 87.0233 166.796 88.0095 166.74C89.5958 166.648 91.1908 166.388 92.7609 166.154C93.5885 166.032 94.4138 165.892 95.2376 165.744C95.9151 165.624 96.87 165.655 97.3433 165.112C97.4546 164.985 97.4604 164.753 97.2855 164.668C96.8173 164.438 96.5224 164.566 96.0073 164.665C95.3803 164.787 94.7511 164.903 94.1204 165.012C92.9095 165.222 91.6964 165.416 90.4796 165.588C89.7875 165.685 89.0931 165.781 88.3995 165.857C87.7937 165.922 87.1103 166.01 86.6216 165.554C85.6368 164.633 86.1892 163.088 86.8118 162.157C86.8242 162.138 86.8242 162.121 86.8199 162.105C87.4067 161.968 87.9927 161.808 88.5773 161.694C89.7011 161.478 90.8323 161.295 91.9656 161.133C94.293 160.801 96.6366 160.581 98.9771 160.36C99.5566 160.304 99.5625 159.392 98.9771 159.446C95.6144 159.754 92.2356 160.046 88.919 160.694C88.0871 160.855 87.2618 161.037 86.4409 161.243C86.0531 161.339 85.6368 161.489 85.2307 161.494C85.2058 161.494 85.1809 161.494 85.1561 161.492C84.36 161.467 84.2444 160.785 84.6819 160.218C84.7361 160.148 84.7917 160.079 84.8488 160.012C85.6214 159.09 86.5843 158.475 87.5771 157.838C88.6885 157.686 89.797 157.349 90.885 157.102C93.5716 156.489 96.2583 155.877 98.9464 155.266C99.4732 155.146 99.2493 154.335 98.7218 154.454C96.6812 154.917 94.6413 155.379 92.6007 155.842L89.6141 156.519C89.0178 156.653 88.2722 156.924 87.5705 157.021C87.2245 157.069 86.8894 157.075 86.5865 157.004C85.6075 156.772 85.5585 155.549 85.9799 154.822C86.4533 154.006 87.3467 153.495 88.1398 153.034C89.5138 152.231 90.9764 151.654 92.4046 150.989C92.6578 150.933 92.9117 150.877 93.1648 150.822C94.6399 150.497 96.3241 150.338 97.7128 149.743C98.1284 149.566 97.9009 148.911 97.4897 148.92C96.4127 148.943 95.2859 149.326 94.2331 149.554C93.0939 149.801 91.9532 150.047 90.814 150.293C90.6991 150.318 90.0223 150.534 89.9206 150.487C89.8555 150.455 89.8321 150.23 89.8109 150.081C89.7406 149.593 89.6902 149.079 89.7655 148.589C89.9323 147.49 90.8491 146.973 91.7769 146.551C93.8416 145.612 96.1068 145.025 98.3604 144.789C98.8798 144.735 99.3993 144.701 99.9217 144.685C100.535 144.666 101.04 144.557 101.351 145.162C101.839 146.115 102.109 147.34 102.27 148.427ZM99.4015 182.964C98.9515 181.407 99.0737 179.745 98.7657 178.157C98.6062 177.337 98.3889 176.525 98.1518 175.725C97.9609 175.078 97.6419 174.391 97.6053 173.718C97.6031 173.672 97.6565 173.647 97.6923 173.667C98.3274 174.031 98.8147 174.817 99.1769 175.434C99.6108 176.172 99.9415 176.946 100.209 177.759C100.74 179.378 101.177 181.332 100.491 182.964C100.287 183.45 99.5698 183.547 99.4015 182.964ZM85.4948 162.342C85.8753 162.305 86.2557 162.233 86.6355 162.148C86.2104 162.562 85.8182 163.062 85.6002 163.615C85.5658 163.19 85.5226 162.766 85.4656 162.344C85.4751 162.344 85.4853 162.344 85.4948 162.342ZM81.8402 194.75C81.17 194.282 80.6812 193.628 80.1127 193.05C79.553 192.482 80.4273 191.607 80.9871 192.175C81.4721 192.668 81.8936 193.283 82.4643 193.682C82.7394 193.873 82.8667 194.219 82.686 194.528C82.5272 194.8 82.1145 194.941 81.8402 194.75ZM78.1006 176.758C79.3247 176.229 80.529 175.652 81.8102 175.271C82.5755 175.043 82.8996 176.237 82.1387 176.464C80.9585 176.815 79.8522 177.339 78.7248 177.827C78.0011 178.139 77.3719 177.073 78.1006 176.758ZM65.1736 176.387C64.8737 175.649 66.0707 175.33 66.3655 176.059C66.7057 176.897 67.095 177.715 67.4345 178.552C67.733 179.291 66.5367 179.61 66.2419 178.882C65.9024 178.043 65.5131 177.227 65.1736 176.387ZM52.4142 191.143C52.2145 191.409 51.8823 191.553 51.5677 191.365C51.305 191.207 51.144 190.788 51.346 190.519C51.9357 189.733 52.5327 188.957 53.2234 188.256C53.7839 187.688 54.6575 188.563 54.0978 189.131C53.481 189.756 52.9403 190.441 52.4142 191.143ZM50.5894 108.352C51.1572 108.739 51.6547 109.211 52.1391 109.696C52.7032 110.259 51.8281 111.133 51.2648 110.57C50.8565 110.162 50.4438 109.747 49.9653 109.42C49.6888 109.231 49.5644 108.879 49.7436 108.573C49.9039 108.3 50.3136 108.164 50.5894 108.352ZM69.1524 128.259C68.832 128.902 68.543 129.532 68.5247 130.263C68.5049 131.059 67.2684 131.06 67.2882 130.263C67.3116 129.306 67.6642 128.478 68.0849 127.635C68.4405 126.921 69.5073 127.549 69.1524 128.259ZM75.9635 112.271C76.6285 111.828 77.2468 112.9 76.5883 113.339C76.0542 113.695 75.5193 114.052 74.9852 114.408C74.3209 114.851 73.7026 113.779 74.3611 113.339C74.8952 112.984 75.4294 112.628 75.9635 112.271ZM46.4219 140.225C46.3085 141.011 45.1174 140.675 45.2293 139.897C45.4034 138.693 45.6156 137.505 45.9419 136.333C46.1556 135.567 47.3482 135.894 47.1345 136.662C46.8082 137.834 46.5953 139.021 46.4219 140.225ZM42.0861 154.396C41.29 154.379 41.29 153.142 42.0861 153.159C42.8068 153.174 43.515 153.364 44.2094 153.538C44.9827 153.731 44.6527 154.923 43.8808 154.73C43.2933 154.583 42.6956 154.409 42.0861 154.396ZM40.4859 182.942C40.2123 183.075 39.9321 183.195 39.6555 183.321C39.1016 183.575 38.5485 183.828 37.9954 184.082C36.843 184.611 35.6921 185.142 34.5412 185.675C32.2381 186.741 29.9171 187.771 27.6083 188.826C25.254 189.901 22.9058 190.991 20.5605 192.087C19.4556 192.603 18.3423 193.101 17.2313 193.603C16.2813 194.033 15.1069 194.784 14.064 194.855C14.0104 194.858 13.9925 194.79 14.0231 194.755C14.4171 194.307 15.0456 194.046 15.5634 193.755C16.0923 193.457 16.6312 193.177 17.1676 192.893C18.2858 192.3 19.4054 191.712 20.5344 191.141C22.7928 189.997 25.0555 188.862 27.3187 187.729C29.6268 186.572 31.9319 185.409 34.2602 184.294C35.3563 183.768 36.4537 183.245 37.552 182.723C38.1468 182.44 38.7417 182.158 39.3372 181.876C39.594 181.755 39.8487 181.623 40.1113 181.514C40.4603 181.37 40.7259 181.399 41.0859 181.31C41.6734 181.165 41.9273 181.912 41.4766 182.238C41.1057 182.506 40.9103 182.735 40.4859 182.942ZM32.2302 195.627C32.1032 195.318 32.369 194.943 32.6621 194.866C33.0131 194.773 33.2946 194.987 33.4227 195.298C33.7617 196.123 34.2449 196.88 34.866 197.519C35.4214 198.091 34.5478 198.966 33.9917 198.394C33.2128 197.592 32.6532 196.656 32.2302 195.627ZM26.1567 175.77C25.593 175.206 26.4676 174.331 27.0312 174.896L28.6338 176.499C29.1976 177.062 28.3228 177.937 27.7594 177.373L26.1567 175.77ZM9.71438 173.156C8.56223 173.494 7.21831 173.805 6.43273 174.788C6.39439 174.836 6.32993 174.775 6.35298 174.727C7.35865 172.641 10.2428 171.91 12.2396 171.179C13.652 170.661 15.1011 170.233 16.5624 169.85C16.4164 168.183 16.8192 166.395 16.9593 164.736C17.1087 162.964 17.2304 161.187 17.2929 159.41C17.3567 157.597 17.3721 155.771 17.3125 153.958C17.2531 152.151 17.0186 150.366 16.916 148.565C16.9061 148.391 17.1484 148.382 17.2007 148.526C17.8076 150.198 18.0668 152.049 18.2644 153.811C18.4678 155.627 18.5353 157.437 18.5093 159.262C18.4825 161.14 18.3733 163.012 18.2235 164.884C18.1526 165.77 18.0702 166.656 17.9925 167.542C17.9331 168.219 17.9055 168.89 17.7677 169.545C18.6491 169.328 19.5325 169.123 20.4131 168.924C23.2211 168.291 26.0409 167.703 28.8372 167.017C30.2098 166.68 31.5629 166.278 32.9293 165.92C34.2163 165.583 35.5743 165.175 36.8949 165.024C37.3669 164.971 37.4269 165.615 37.1144 165.835C36.0411 166.589 34.6151 167.114 33.3746 167.536C32.13 167.959 30.8362 168.265 29.5605 168.578C26.9001 169.233 24.2144 169.768 21.5328 170.326C18.8549 170.882 16.172 171.435 13.5243 172.122C12.2491 172.453 10.9784 172.785 9.71438 173.156ZM3.4005 140.06C2.71201 140.464 2.09046 139.395 2.77647 138.992C3.67414 138.465 4.63079 138.069 5.59519 137.683C6.33527 137.386 6.65376 138.583 5.924 138.876C5.05728 139.223 4.20709 139.587 3.4005 140.06ZM0.907366 186.02C0.217043 186.421 -0.405014 185.352 0.283333 184.952C1.25008 184.392 2.30872 184.018 3.31058 183.528C4.02329 183.178 4.6493 184.245 3.93454 184.596C2.9329 185.086 1.87411 185.46 0.907366 186.02ZM-0.213904 159.932C0.45359 160.566 1.34439 160.864 2.18441 161.197C2.91673 161.488 2.59553 162.683 1.8556 162.39C0.809105 161.975 -0.256855 161.596 -1.08831 160.806C-1.66677 160.256 -0.790746 159.383 -0.213904 159.932ZM7.17039 124.5C7.90417 124.788 7.58283 125.984 6.84165 125.694C6.01956 125.371 5.17068 125.125 4.34859 124.802C3.61503 124.515 3.93623 123.319 4.6774 123.61C5.49942 123.932 6.34837 124.178 7.17039 124.5ZM20.197 110.427C20.9766 110.296 21.3086 111.488 20.5258 111.62C19.5543 111.784 18.5978 111.976 17.6766 112.333C16.9326 112.62 16.6134 111.424 17.3478 111.14C18.2693 110.783 19.2258 110.591 20.197 110.427ZM24.5012 144.692C23.7863 144.34 24.4135 143.274 25.1252 143.624C25.8752 143.992 26.6523 144.278 27.4706 144.452C28.2498 144.618 27.918 145.811 27.1418 145.645C26.2208 145.448 25.3446 145.107 24.5012 144.692ZM28.5665 125.391C29.3363 125.18 29.6618 126.374 28.8953 126.584C27.5466 126.953 26.1581 127.146 24.7995 127.474C24.0252 127.662 23.6977 126.469 24.4707 126.282C25.8293 125.953 27.218 125.761 28.5665 125.391ZM45.8117 119.334C46.5946 119.479 46.2609 120.671 45.4832 120.527C44.6549 120.374 43.8157 120.371 42.9765 120.371C42.1797 120.371 42.1812 119.133 42.9765 119.133C43.9299 119.134 44.8715 119.16 45.8117 119.334ZM102.056 125.797C100.036 125.604 98.0121 125.449 95.9861 125.334C95.8917 125.328 95.7988 125.323 95.7044 125.317C95.6934 125.296 95.6795 125.276 95.6656 125.255C95.0042 124.283 94.5177 123.312 94.0955 122.214C93.6916 121.169 93.3009 120.091 92.6797 119.148C91.9708 118.073 91.0137 117.232 89.9653 116.503C89.3295 116.931 88.739 117.432 88.199 117.964C87.6305 118.522 86.7555 117.647 87.324 117.088C87.8039 116.617 88.3168 116.18 88.8583 115.787C88.2327 115.406 87.5947 115.049 86.9728 114.694C84.6395 113.363 82.2514 112.131 79.8142 111.006C78.6809 110.482 77.5343 110.016 76.379 109.544C75.7579 109.291 75.144 108.965 74.5228 108.671C74.5675 108.232 74.4365 107.74 74.0992 107.451C73.8504 107.239 73.6573 107.16 73.3602 107.011C73.2944 106.987 73.2541 106.973 73.2351 106.965C73.249 106.968 73.2892 106.981 73.3558 107.003C73.5139 107.075 73.5256 107.054 73.3931 106.939C73.3851 106.689 72.8919 106.16 72.7793 105.901C72.3864 105.015 72.2642 104.078 71.6847 103.271C70.8857 102.159 69.5439 101.739 68.2935 102.116C68.164 100.778 68.1296 99.3823 67.6254 98.1882C67.6115 98.156 67.5669 98.1421 67.5472 98.1772C67.0211 99.0728 66.9765 100.07 66.9362 101.103C66.8974 102.073 66.9348 103.064 67.0613 104.028C66.9809 104.089 66.8989 104.148 66.814 104.205C66.4153 104.468 65.9858 104.671 65.5344 104.821C64.6747 105.105 63.774 105.229 62.8726 105.272C60.5459 105.383 58.149 105.148 55.8611 104.75C53.5468 104.346 49.999 103.739 47.9401 102.581C46.5814 101.818 45.3281 100.885 44.0572 99.9822C44.5181 98.4977 44.6359 96.9012 44.172 95.6471C44.1164 95.4971 43.8816 95.4693 43.8362 95.6471C43.5457 96.8441 43.4609 98.0477 43.0746 99.2301C43.068 99.2476 43.0621 99.2659 43.0555 99.2828C42.9355 99.2008 42.8148 99.1203 42.6941 99.0398C42.4161 98.8562 42.0371 98.9937 41.8702 99.2564C39.2004 103.464 34.9729 103.706 30.5336 104.457C25.6751 105.279 20.7922 106.168 16.1209 107.777C11.6536 109.317 7.38418 111.56 4.00208 114.909C3.23646 115.668 2.52046 116.475 1.84463 117.319C2.49851 117.402 3.14698 117.53 3.78704 117.731C4.54497 117.969 4.21923 119.163 3.4583 118.924C2.63562 118.665 1.80387 118.537 0.963558 118.473C-1.33452 121.619 -3.12636 125.185 -4.67587 128.695C-7.64788 135.425 -9.58239 142.592 -10.4726 149.889C-9.98385 149.595 -9.48625 149.317 -8.97628 149.057C-8.26774 148.696 -7.64276 149.764 -8.3521 150.125C-9.13988 150.526 -9.90498 150.968 -10.6464 151.447C-10.9702 154.641 -11.0957 157.855 -11.0197 161.065C-10.8388 168.717 -9.80621 176.592 -7.4706 183.893C-6.32518 187.476 -4.8072 191.029 -2.54578 194.057C-1.52248 195.428 -0.36009 196.665 1.00951 197.697C1.67261 198.198 2.37442 198.645 3.11479 199.022C4.06851 199.511 5.31131 199.672 6.1337 200.363C6.40419 200.59 6.61286 200.89 6.77053 201.229C6.67937 201.872 6.66854 202.517 6.84473 203.16C6.90041 203.362 7.05186 203.525 7.23887 203.604C7.24202 203.659 7.24202 203.714 7.24202 203.766C7.24202 203.791 7.27911 203.798 7.28372 203.773C7.29148 203.724 7.29916 203.677 7.30692 203.627C7.36721 203.648 7.43057 203.656 7.49547 203.656C9.84351 203.666 12.1945 203.608 14.5456 203.528C14.3638 202.972 14.1668 202.419 13.9778 201.862C13.721 201.105 14.9158 200.783 15.1702 201.533C15.3914 202.184 15.6227 202.83 15.8284 203.484C18.3475 203.39 20.8659 203.277 23.3798 203.195C28.7266 203.016 34.0715 202.958 39.4199 202.845C47.7257 202.669 56.0915 202.308 64.4098 202.661C64.6973 202.05 65.0193 201.453 65.3251 200.851C65.6851 200.14 66.7518 200.766 66.3926 201.475C66.1804 201.894 65.9609 202.307 65.7517 202.725C67.4367 202.813 69.1195 202.928 70.7987 203.086C73.6646 203.355 76.5027 203.833 79.3657 204.13C82.2762 204.433 85.1239 204.379 88.011 203.898C88.5305 203.812 88.8363 203.498 88.9636 203.108C88.968 203.106 88.9709 203.103 88.9739 203.098C89.1224 202.926 89.2614 202.781 89.4055 202.656C89.5768 202.545 89.7626 202.451 89.9806 202.367C90.3867 202.212 90.8103 202.118 91.2406 202.055C91.7132 201.984 92.1924 201.977 92.6658 201.919C93.0639 201.868 93.4538 201.791 93.8431 201.699C94.5433 201.532 95.2084 201.314 95.8698 201.025C96.4463 200.773 96.9673 200.411 97.4589 200.016C98.476 199.272 99.3569 198.323 100.127 197.336C100.575 196.76 100.997 196.161 101.381 195.539C102.049 194.459 102.617 193.338 103.192 192.207C103.401 191.872 103.591 191.529 103.765 191.179C102.641 190.848 101.507 190.578 100.315 190.559C99.5193 190.546 99.5193 189.309 100.315 189.322C101.682 189.344 102.974 189.663 104.258 190.043C104.321 189.877 104.381 189.71 104.437 189.54C104.59 189.186 104.716 188.822 104.822 188.454C104.883 188.287 104.945 188.12 105.007 187.954C105.146 187.375 105.285 186.795 105.426 186.215C105.705 185.287 105.926 184.346 106.089 183.392C106.225 182.764 106.33 182.131 106.401 181.491C106.618 179.94 106.793 178.392 106.806 176.824C106.788 175.858 106.725 174.893 106.621 173.932C106.576 173.28 106.5 172.63 106.398 171.986C106.265 171.027 106.134 170.078 105.913 169.131C105.747 168.491 105.582 167.85 105.416 167.21C105.004 165.876 104.517 164.567 103.955 163.288C103.925 163.209 103.769 163.032 103.674 163.03C103.603 163.029 103.504 163.094 103.537 163.181C103.54 163.188 103.543 163.198 103.546 163.205C103.513 163.133 103.483 163.058 103.451 162.986C103.423 162.918 103.314 162.781 103.231 162.783C103.226 162.783 103.222 162.783 103.216 162.784C103.237 162.769 103.257 162.749 103.277 162.726C103.832 162.069 104.192 161.204 104.59 160.443C104.919 159.815 105.229 159.154 105.319 158.444C105.397 157.821 105.291 157.207 104.9 156.703C104.455 156.129 103.617 155.86 104.083 155.031C104.611 154.088 105.389 153.27 104.615 152.198C104.22 151.652 103.595 151.352 103.132 150.877C102.599 150.329 102.345 149.594 102.359 148.844C102.392 148.862 102.435 148.854 102.45 148.807C102.898 147.452 102.574 145.965 102.115 144.646C101.864 143.93 101.334 143.733 100.718 143.698C103.388 138.479 105.888 133.176 108.116 127.752C108.189 127.574 108.262 127.396 108.335 127.218C108.443 126.952 108.214 126.598 107.95 126.539C106.024 126.117 104.018 125.983 102.056 125.797Z" fill="#142739"/>
<path fill-rule="evenodd" clip-rule="evenodd" d="M81.475 65.9802C80.4141 53.041 77.1831 41.5808 62.0033 41.0922C55.1528 41.1534 48.1595 42.6093 41.8599 45.3031C26.5484 52.9833 21.6902 81.0469 35.1806 92.3437C35.1001 92.3891 35.0804 92.5215 35.1755 92.5852C37.9624 94.4604 41.0602 96.0042 44.1632 97.3007C52.4273 100.797 62.157 102.315 70.585 98.5226C83.4483 93.0476 83.6407 77.8122 81.475 65.9802Z" fill="#F4C2C2"/>
<path fill-rule="evenodd" clip-rule="evenodd" d="M106.793 59.9492C107.322 59.4729 107.715 58.8482 107.915 58.1477C108.097 57.5091 108.11 56.8117 107.917 56.1745C107.71 55.491 107.263 54.9467 107.364 54.2354C107.374 54.1658 107.388 54.0931 107.41 54.0204C107.796 52.6813 108.747 51.7148 108.407 50.2303C108.311 49.8112 108.13 49.4339 107.878 49.137C107.906 48.8154 107.931 48.4906 107.951 48.1659C108.509 46.8592 108.489 45.3066 107.893 44.0201C107.821 43.3613 107.711 42.7087 107.557 42.067C107.628 41.4995 107.529 40.8748 107.347 40.3784C107.026 39.505 106.63 38.6443 106.2 37.7978C106.251 37.5663 106.228 37.3217 106.101 37.1041C105.868 36.7087 105.561 36.3611 105.248 36.0213C105.026 35.625 104.803 35.2319 104.581 34.844C104.479 34.6657 104.365 34.4678 104.24 34.2583C104.58 33.6265 104.762 33.0107 104.402 32.2677C104.267 31.9886 103.895 31.7828 103.589 31.801C103.254 31.821 102.916 31.836 102.577 31.8488C101.942 31.082 101.223 30.3938 100.452 29.9976C99.6716 29.3358 98.8799 28.6863 98.1102 28.0229C97.8922 27.8342 97.6726 27.6456 97.4553 27.4569C97.4532 27.4523 97.4517 27.4461 97.4502 27.4414C97.2893 26.8554 97.1085 26.277 96.9278 25.6956C96.8151 25.3353 96.7808 24.958 96.4303 24.7616C95.6972 24.3518 94.5704 24.2869 93.7297 24.2173C93.6463 24.143 93.5629 24.0704 93.4795 23.9961C93.8614 22.9786 93.7934 21.8977 93.3127 20.8787C93.1488 20.5323 92.5796 20.3761 92.2671 20.6049C91.5472 21.1338 90.6926 21.321 89.8468 21.2436C88.6037 20.2879 83.5911 15.9664 82.8163 15.5103C82.8068 15.4939 82.7994 15.4775 82.7892 15.4613C82.3539 14.7657 81.8249 14.2072 81.23 13.7593C81.1452 13.6707 81.0603 13.582 80.9754 13.4932C81.05 12.963 81.2469 12.4509 81.5629 12.0226C81.5973 11.9731 81.6354 11.9252 81.6741 11.8788C82.228 11.2201 81.552 10.3727 80.7793 10.7175C80.7237 10.7422 80.6681 10.767 80.6125 10.7932C80.0184 11.0583 79.3606 11.3464 78.6758 11.5895C78.4256 11.4956 78.1702 11.4105 77.9376 11.3169L75.4433 10.3137C75.0321 10.1486 74.5982 10.0086 74.2009 9.81455C74.0627 8.8931 73.1393 8.28875 72.1808 8.32028C72.2364 8.14337 72.3191 7.97157 72.4355 7.80878C72.4691 7.76085 72.5064 7.71439 72.5452 7.66961C73.0383 7.09584 72.3799 6.03201 71.6745 6.54227C71.6255 6.57783 71.5743 6.61339 71.5245 6.64895C71.3292 6.78643 71.1287 6.91542 70.926 7.04039C70.6012 6.89874 70.2361 6.8664 69.8534 7.01624C69.0069 7.3479 68.2262 7.6852 67.4806 8.20512C67.4506 8.22626 67.4192 8.24404 67.3885 8.26402C67.0182 7.81682 66.4307 7.51772 65.9017 7.52101C65.8907 7.52101 65.8827 7.52079 65.8732 7.52065C65.4774 6.91776 64.7523 6.56737 64.0521 6.65253C64.0996 5.78734 63.2334 5.01522 62.4454 4.92135C61.5242 4.81189 60.6945 5.34681 60.4179 6.24551C60.3411 6.49574 60.2643 6.74611 60.1874 6.99649C59.4719 6.63534 58.7175 6.3587 57.9288 6.22063C56.134 5.90609 54.3788 6.24105 52.6491 6.7396C52.4757 6.78943 52.3031 6.84057 52.1304 6.89164C51.8838 6.60571 51.6526 6.31297 51.4317 6.03969C51.0497 5.56806 50.133 5.94538 50.1951 6.55156C50.2376 6.96985 50.0678 7.27079 49.7942 7.48465C49.4942 7.52855 49.2037 7.54187 48.7662 7.53301C48.1875 7.52131 47.9241 7.50316 47.319 7.2672C47.0373 7.15745 46.6861 6.86874 46.5222 6.60958C45.8922 5.61569 44.2921 5.34805 43.5297 6.29563C42.7278 5.94443 41.7152 6.42879 41.2703 7.11165C41.0377 7.4687 40.5511 7.66837 39.9394 7.84002C39.4807 7.96864 39.011 8.0661 38.539 8.15127C38.3291 7.86599 37.8864 7.67466 37.5615 7.91392C37.3413 8.07642 37.1277 8.24331 36.917 8.4143C35.2927 8.63826 33.6763 8.64624 32.1273 8.01254C30.8159 7.47594 29.6118 8.94146 29.8282 10.1718C29.4484 10.3695 29.0363 10.5011 28.6611 10.7084C27.8426 11.1608 27.1706 11.876 26.7609 12.7163C26.6875 12.8668 26.6212 13.0195 26.5579 13.1731C26.252 13.4222 25.9495 13.678 25.6543 13.9479C25.1627 13.6958 24.6727 13.4437 24.1811 13.1917C23.8133 13.003 23.1934 13.1345 23.1207 13.6231C23.0018 14.4272 22.7127 15.0937 22.3 15.652C20.9582 16.3571 19.6675 17.1488 18.4325 18.0287C17.012 18.4741 15.5017 18.7339 14.2605 19.0261C13.8354 19.1266 13.6035 19.6818 13.8431 20.0514C14.0966 20.4426 14.3501 20.8338 14.6021 21.225C13.8957 21.9147 13.2326 22.6353 12.6065 23.3807C10.8644 25.4528 9.40678 27.7245 8.10215 30.1306C7.58589 30.3393 7.06956 30.5465 6.5533 30.7553C6.05555 30.9563 5.83144 31.5347 6.23488 31.96C6.4265 32.1625 6.59815 32.3759 6.74499 32.6002C6.01384 33.8109 5.15282 34.9151 3.94866 35.6388C3.58231 35.8583 3.30721 36.2032 3.16036 36.5944C3.0351 36.6779 2.91145 36.7676 2.78934 36.8588C2.44926 37.1155 2.24367 37.6753 2.64249 38.0078C2.92228 38.2428 3.18509 38.5212 3.40767 38.8289C3.45559 39.0037 3.50505 39.1799 3.55451 39.3547C2.43536 40.3845 1.50483 41.5815 0.806171 42.9237C0.640742 42.8974 0.470704 42.9144 0.333152 43.0165C-0.915867 43.9397 -0.952964 45.4102 -0.450532 46.7247C-0.753513 48.7056 -0.558745 50.7359 0.0255597 52.655C-0.742685 53.422 -1.20487 54.5292 -1.3935 55.5962C-1.72582 57.4704 -1.74901 60.3528 -1.83557 62.2657C-2.67339 63.0745 -3.27006 64.1213 -3.60238 65.2471C-3.88217 65.3863 -4.16196 65.5254 -4.44174 65.6646C-4.69058 65.7883 -4.87299 66.1146 -4.85755 66.3898C-4.78643 67.7212 -4.23768 68.7728 -3.50961 69.7251C-3.25148 70.4597 -2.8697 71.1372 -2.36887 71.7869C-2.02258 72.2318 -1.68411 72.6591 -1.38574 73.1398C-1.35486 73.1873 -1.33628 73.2327 -1.32238 73.2634C-1.43989 73.39 -1.53727 73.6007 -1.62229 73.7507C-2.33639 75.0092 -2.34722 76.4842 -1.33321 77.581C-1.71499 77.8934 -1.72735 78.5241 -1.39042 78.9111C0.803024 81.4178 2.63167 84.4652 5.6753 85.7968C5.68921 85.8202 5.70157 85.8429 5.7124 85.8663C5.09561 87.3508 5.0122 88.1227 5.51609 89.6563C5.51917 89.6702 5.52377 89.6826 5.52846 89.6965C5.79742 90.5006 6.29202 91.7891 7.18399 92.0393C7.46531 92.1183 7.74196 92.1542 8.0156 92.152C8.72355 92.8346 9.42997 93.518 10.1364 94.2014C10.1982 94.5401 10.2368 94.8818 10.2492 95.2264C10.2693 95.803 10.8119 96.2705 11.3962 96.1C11.6018 96.04 12.7394 94.9345 12.9481 94.9404C13.0532 95.0457 13.1552 95.1511 13.2573 95.2572C13.6329 95.6515 14.1538 96.2734 14.1971 96.6861C14.2806 97.4639 14.7906 98.355 15.6146 98.5123C15.9237 98.8262 16.4184 98.9206 16.7971 98.5109C16.8218 98.4845 16.8465 98.4582 16.8728 98.4355C16.913 98.4304 16.9517 98.426 16.9918 98.4216C17.1742 98.966 17.3566 99.5103 17.5406 100.052C17.9007 101.123 19.2765 101.811 20.2534 101.187C20.411 101.28 20.5656 101.381 20.7202 101.481C20.9552 101.631 21.1932 101.784 21.4374 101.928C21.4514 101.969 21.4653 102.009 21.4777 102.048C21.6353 102.528 22.2907 102.787 22.6942 102.51C22.8194 102.55 22.9476 102.583 23.0775 102.609C23.7592 102.744 24.4455 102.706 25.104 102.479C25.5755 102.318 26.0253 102.01 26.5323 101.969C26.5639 101.966 26.5966 101.968 26.6288 101.967C27.0424 102.815 27.9876 103.545 28.7325 103.793C29.7082 104.119 30.7068 104.003 31.5953 103.605C31.8351 104.084 32.1361 104.538 32.4958 104.958C32.6953 105.189 33.0554 105.14 33.261 104.958C33.6515 104.611 34.0393 104.264 34.4271 103.915C34.7073 103.807 34.9905 103.677 35.2853 103.557C36.2087 103.18 37.2213 103.023 38.0752 102.478C38.4805 102.219 38.8617 101.889 39.1763 101.506C39.7682 101.165 40.3119 100.739 40.8013 100.251C41.0457 100.252 41.3003 100.195 41.5476 100.07C42.5822 99.544 43.1258 98.4736 43.1741 97.379C44.0119 95.4072 44.5065 93.3044 44.6426 91.1518C44.6857 90.445 44.6938 89.7324 44.6396 89.0256C44.6023 88.5274 44.4772 88.1952 44.2884 87.7452C44.2248 87.5981 44.1677 87.4635 44.1231 87.315C44.1341 86.8387 44.1399 86.3631 44.1465 85.8882C44.2745 85.4873 44.5036 85.1149 44.8218 84.801C45.315 84.3152 45.5403 83.3069 45.0925 82.707C44.7999 82.3192 44.5094 81.9307 44.2175 81.5429C44.2994 79.8769 44.6982 77.2268 43.8136 76.9488C43.8494 76.7008 43.9255 76.4564 43.9687 76.2106C44.1758 75.0297 44.0521 73.9731 43.4243 72.94C43.2926 72.7257 43.1814 72.5354 43.0907 72.3496C43.0336 72.0094 42.9758 71.6691 42.9188 71.3289C42.831 70.805 42.7439 70.2761 42.67 69.7441C42.6312 69.0666 42.5961 68.3893 42.5573 67.7104C42.5215 67.0857 42.4812 66.4609 42.4395 65.8347C42.4571 65.5548 42.4812 65.2749 42.5171 64.995C42.7285 63.3265 43.4104 62.7095 44.5913 61.5497C44.7772 61.5203 44.9608 61.4878 45.1416 61.4508C45.9844 61.276 46.8654 61.0054 47.7324 61.1028C48.674 61.208 49.5162 61.6146 50.4315 61.0951C50.7 60.9404 51.2926 60.5136 51.3431 60.175C51.3468 60.1534 51.3512 60.1348 51.357 60.1209C51.4207 60.1116 51.5026 60.1038 51.5538 60.1023C52.2804 60.0776 52.974 60.3637 53.7071 60.2848C54.5741 60.192 55.3497 59.8069 55.8604 59.2364C56.5138 59.3972 57.1818 59.4699 57.86 59.3802C58.4293 59.306 58.9392 59.1203 59.4433 58.8451C59.8092 58.6472 59.6936 58.59 60.0923 58.7508C60.9996 59.1188 61.8205 59.6044 62.8419 59.3524C63.3724 59.2224 63.8297 58.9363 64.2152 58.5513C64.306 58.4616 64.4603 58.3271 64.5642 58.2003C65.0493 58.4461 66.2705 59.0013 66.4717 59.0508C67.0409 59.1899 67.6431 59.1683 68.1969 58.9827C68.603 58.8466 69.1013 58.4755 69.4583 58.3997C69.92 58.3008 70.9465 58.9441 71.4982 59.1652C72.4662 59.5533 73.4912 59.6493 74.4709 59.2487C74.8082 59.1111 75.4631 58.5622 75.7155 58.5668C76.1252 59.0724 77.2688 61.8389 77.612 62.8487C79.0014 66.931 79.3621 79.6779 78.7204 82.9301C78.6955 83.026 78.6692 83.1204 78.6429 83.2162C77.8549 86.0441 77.0339 88.9203 75.7155 91.5557C74.4709 94.039 72.7508 96.2749 70.2822 97.6314C67.7221 99.0384 64.7172 99.4079 61.8388 99.2177C59.9855 99.0969 58.1629 98.7245 56.3704 98.2577C55.4331 98.0148 54.5046 97.7441 53.5798 97.4624C53.1767 97.3402 52.7669 97.2261 52.3711 97.0834C51.6724 96.8317 51.3065 96.8112 50.6371 97.1346C50.0276 97.4287 49.8717 98.2958 50.1886 98.8416C50.7051 99.7327 51.6512 99.7942 52.5643 100.054C53.4949 100.319 54.4285 100.572 55.3687 100.8C57.1693 101.233 58.9992 101.565 60.8452 101.718C64.1501 101.995 67.5553 101.568 70.5631 100.126C70.9034 99.9618 71.2311 99.7869 71.548 99.5981C71.4309 99.762 71.3116 99.9259 71.1909 100.088C70.8573 100.538 71.1046 101.304 71.5728 101.549C71.7214 101.627 71.8699 101.701 72.0191 101.774C72.0396 101.822 72.0608 101.87 72.0857 101.917C72.5137 102.777 73.4108 103.285 74.3239 103.504C75.4097 103.764 76.6242 103.58 77.7283 103.548C78.7512 103.517 79.7748 103.485 80.7961 103.455C81.0376 103.449 81.2783 103.441 81.5198 103.433C82.7351 103.396 83.9481 103.36 85.1612 103.323C86.2434 103.291 86.1929 103.374 87.2084 102.941C87.6613 102.746 88.0323 102.471 88.344 102.105C88.5393 102.018 88.7274 101.919 88.9088 101.806C89.4897 101.445 90.0063 100.959 90.4819 100.424C91.2904 100.679 92.4237 100.442 92.581 99.4262C92.8349 97.8012 94.9465 97.1068 95.9328 95.9318C96.7288 94.9835 97.2973 93.7419 97.268 92.55C99.2743 91.5784 100.366 89.0198 100.621 86.8482C100.74 85.8414 100.721 84.7637 100.893 83.7401C100.969 83.6581 101.037 83.5718 101.094 83.4789C101.597 82.6638 102.036 81.8239 102.423 80.9642C102.949 80.5852 103.581 80.3518 104.242 80.313C105.869 80.2193 106.175 78.0251 104.624 77.4961C104.617 77.4924 104.61 77.491 104.603 77.488C105.023 76.4366 104.988 75.1921 104.477 74.1956C104.499 74.088 104.519 73.9812 104.539 73.8729C105.409 72.9371 105.909 71.6369 105.853 70.3704C106.251 70.0902 106.695 69.8736 107.183 69.739C107.935 69.532 107.94 68.6135 107.383 68.2022C107.159 68.0367 106.974 67.8434 106.819 67.63C107.204 66.4733 107.053 65.1358 106.266 64.1863C106.765 63.5461 107.265 62.9059 107.764 62.2657C108.094 61.842 108.269 61.1229 107.764 60.7208C107.44 60.4626 107.118 60.2059 106.793 59.9492Z" fill="black"/>
<path fill-rule="evenodd" clip-rule="evenodd" d="M70.3472 83.9787C70.8777 83.0429 72.4603 83.1951 72.7025 84.2867C73.1927 86.5 70.5543 88.5442 68.5503 88.5955C66.5594 88.6459 64.3249 86.95 64.6132 84.8084C64.6842 84.2787 65.3917 84.343 65.6331 84.6752L65.7268 84.8025C66.3816 85.6827 67.2457 86.5936 68.461 86.3793C68.9651 86.2907 69.4224 85.9754 69.7268 85.5708C70.0941 85.0813 70.0538 84.4974 70.3472 83.9787ZM57.6851 67.7853C57.9551 67.7108 58.2273 67.7397 58.4665 67.8414C58.9999 67.9393 59.4462 68.3846 59.6028 68.8933C59.6152 68.9372 59.6291 68.9803 59.6445 69.0235L59.6679 69.0879L59.6043 68.9247C59.6335 69.085 59.7645 69.254 59.8113 69.415C59.8691 69.6132 59.883 69.8379 59.8633 70.0559C60.033 70.0581 60.2028 70.0639 60.3725 70.0786L60.5364 70.0932C61.4517 70.1781 62.457 70.3347 62.9999 71.1256C63.3043 71.5704 63.0182 72.3709 62.4585 72.4565C61.5966 72.5889 60.8539 72.1119 59.9942 72.016C59.1821 71.9253 58.3326 71.9772 57.5307 72.1243C55.8757 72.4265 54.3553 73.0981 52.742 73.5188L52.5225 73.5745L52.5232 73.5737C52.2467 73.6403 51.9328 73.2562 52.2064 73.0308C53.4985 71.9692 55.1528 71.1088 56.7822 70.5849C56.5452 70.2066 56.4713 69.7091 56.6337 69.3037C56.6586 69.2196 56.69 69.1377 56.723 69.0564L56.7918 68.8889C56.7983 68.8099 56.8137 68.7317 56.8356 68.6551L56.8386 68.6317L56.8408 68.6331C56.9622 68.2387 57.279 67.8972 57.6851 67.7853ZM74.1694 67.8464C74.5228 67.4927 75.0196 67.5449 75.3884 67.8233L75.4374 67.8616C75.7849 68.0161 76.0725 68.3537 76.2613 68.6665C76.4573 68.9913 76.5876 69.322 76.5927 69.6798C77.448 69.6827 78.2675 69.9396 78.896 70.6303C79.0986 70.8534 79.2369 71.1973 79.1257 71.4995L79.0591 71.6795C78.8484 72.2501 77.9002 72.5794 77.5775 71.9077L77.5629 71.8748C77.2205 71.0773 75.9064 71.1614 75.2077 71.2426C74.7204 71.2997 74.2397 71.4212 73.7692 71.5565C73.6039 71.6041 73.44 71.656 73.2753 71.7095L73.1115 71.7621C73.0244 71.7907 72.5686 72.038 72.8517 71.9794C72.9278 71.9641 72.9856 72.0745 72.9081 72.1119C72.57 72.2736 72.2093 71.9516 72.232 71.5887C72.2708 70.9588 73.2717 70.6127 73.7531 70.3954L73.7817 70.3822C73.966 70.2973 74.1599 70.2154 74.3589 70.1393C74.247 69.9725 74.1541 69.7866 74.0773 69.5876C74.0041 69.3996 73.9558 69.2167 73.9287 69.0169C73.9024 68.9189 73.9024 68.8216 73.9287 68.7236L73.9331 68.6956C73.9192 68.631 73.9126 68.5642 73.9134 68.4969L73.9112 68.4708H73.9134C73.9229 68.2352 74.0165 67.9993 74.1694 67.8464ZM68.5232 74.5585C69.8812 74.9778 72.1208 76.1214 71.4133 77.8861C70.4255 79.506 67.8054 78.3156 66.536 77.7917C65.3954 77.4135 64.8013 79.0129 65.9046 79.4951C75.0182 83.1021 74.9845 73.5825 68.8539 73.7223C68.1786 73.7376 68.1574 74.4188 68.5232 74.5585ZM56.4654 62.1461L56.6974 62.0784C57.9002 61.7297 59.1287 61.1276 60.1976 62.0671C60.6169 62.4361 60.7032 63.2028 60.4032 63.663C59.7191 64.7115 58.705 64.5514 57.601 64.6407C56.7596 64.7088 55.9313 64.9559 55.1462 65.2647C54.5053 65.5173 53.9097 65.8728 53.3486 66.2693C52.7961 66.6591 52.4193 67.2685 51.853 67.6194C51.646 67.748 51.406 67.6157 51.3321 67.4071C51.068 66.6671 51.5135 65.7453 51.8911 65.1148C52.352 64.3457 53.0522 63.7166 53.8044 63.2407C54.629 62.7194 55.5399 62.4184 56.4654 62.1461ZM74.0004 61.3499C76.0344 61.3492 77.9916 62.481 79.1294 64.1401C79.5157 64.7038 79.2325 65.5388 78.6772 65.8634C78.0546 66.2277 77.3895 65.9653 76.979 65.4433L76.9549 65.4117C76.3022 64.5425 75.4608 63.8579 74.4643 63.4123C73.9777 63.1947 73.44 63.0182 72.9139 62.9287L72.7434 62.8995C72.5049 62.8596 72.2291 62.8214 72.0132 62.8588C71.8976 62.8739 71.7915 62.9121 71.6942 62.9703C71.7411 63.073 71.6196 63.1966 71.5077 63.1351C71.0021 62.8574 71.0643 62.362 71.4813 61.9769C72.0725 61.4321 73.2373 61.35 74.0004 61.3499Z" fill="black"/>
<path fill-rule="evenodd" clip-rule="evenodd" d="M69.4788 80.5757C67.7601 79.8008 64.6732 80.4769 63.5523 80.7454C60.9468 81.3703 58.326 82.7216 57.5161 84.8376C56.603 87.2228 58.4248 87.9735 58.6926 87.8506C60.4961 87.9779 62.6436 86.8438 64.5335 86.5504C66.0685 86.3112 67.6869 86.1019 69.1239 85.2861C70.1738 85.8641 72.5444 86.1758 74.4577 86.6814C76.0871 87.1109 76.7932 88.043 78.3033 87.8447C80.1142 87.6077 79.373 83.7986 77.3551 82.2556C75.1469 80.5662 71.4118 79.8813 69.4788 80.5757ZM72.8832 96.8624C71.3789 97.2297 71.2779 93.9321 71.1096 92.7666C70.9779 91.8564 70.2353 89.5092 68.3535 89.611C66.4709 89.7119 65.7634 91.6786 65.8592 92.9012C65.9214 93.6951 66.6516 97.7126 64.3198 98.2211C62.8331 98.2153 61.1129 98.1151 59.5494 97.8268C57.7093 97.4097 55.3167 95.9501 54.6846 98.8248C54.457 99.8593 62.5624 102.933 66.1592 103.211C69.8073 103.951 74.0751 102.814 76.6725 100.022C77.2629 99.3867 78.9267 96.7505 79.046 96.1052C79.2947 94.748 78.7182 93.8751 77.0397 94.3529C75.8537 94.9865 73.8497 96.6268 72.8832 96.8624Z" fill="black"/>
<path fill-rule="evenodd" clip-rule="evenodd" d="M83.1433 75.4921C81.2666 77.4325 78.1343 77.9893 75.6372 76.9488C69.2256 74.2688 72.3637 65.9108 77.3083 63.6663C77.9258 63.5122 78.7511 63.1468 79.5033 63.064C79.5713 63.0305 79.7191 63.1272 79.8991 63.0358C85.3507 63.6448 86.5923 72.1111 83.1433 75.4921ZM62.4643 75.9889C60.3601 78.7817 56.4464 79.6436 53.2491 78.3449C46.9326 75.8565 49.173 68.445 53.4949 65.5393C62.6238 62.1078 66.3934 70.8395 62.4643 75.9889ZM48.772 69.8005C48.7662 69.7976 48.7603 69.7969 48.7545 69.7939C48.7874 69.7793 48.8211 69.7647 48.854 69.7493C48.8437 69.7778 48.8313 69.8056 48.821 69.8342C48.805 69.8225 48.7903 69.8093 48.772 69.8005ZM87.4886 66.7817C86.9735 66.7827 86.2287 66.8675 85.8021 67.2251C84.75 63.6758 80.8671 60.3908 77.4897 62.7861C74.8302 63.6418 72.8569 65.5393 71.7352 68.062C69.7129 66.8586 66.5331 67.3725 64.7793 68.9642C63.6306 65.1674 60.8042 63.838 57.44 63.6418C53.7678 63.04 50.108 66.6077 48.9659 69.4698C48.0162 69.3615 46.5975 69.0593 45.7042 69.6454C39.9065 68.1245 29.77 67.2859 28.5913 68.131C27.7514 68.4535 27.2905 70.4371 28.4637 70.5439C29.486 70.3983 28.3443 69.0908 29.3749 68.9481C34.8661 68.6073 40.1962 69.7134 45.6295 70.178C46.1146 70.8307 47.6818 71.0487 48.5181 70.7868C47.2011 75.6414 50.0437 78.9448 54.3027 79.934C60.8986 81.4493 66.6363 75.5477 64.9117 69.4083C66.9099 68.414 69.2081 68.4567 71.384 68.9803C67.7469 82.3705 89.3039 81.7698 85.9375 67.684C88.1778 68.7989 88.6644 67.0067 87.4886 66.7817Z" fill="black"/>
</g>
<defs>
<linearGradient id="paint0_linear_1_67" x1="59.5" y1="0" x2="59.5" y2="119" gradientUnits="userSpaceOnUse">
<stop stop-color="#833AB4"/>
<stop offset="0.5" stop-color="#FD1D1D"/>
<stop offset="1" stop-color="#FCB045"/>
</linearGradient>
</defs>
</svg>
