<svg width="119" height="119" viewBox="0 0 119 119" fill="none" xmlns="http://www.w3.org/2000/svg">
<circle cx="59.5" cy="59.5" r="57" stroke="url(#paint0_linear_1_24)" stroke-width="5"/>
<circle cx="59.78" cy="59.78" r="44.78" fill="#FF5678"/>
<mask id="mask0_1_24" style="mask-type:alpha" maskUnits="userSpaceOnUse" x="15" y="15" width="90" height="90">
<circle cx="59.78" cy="59.78" r="44.78" fill="#C4C4C4"/>
</mask>
<g mask="url(#mask0_1_24)">
<path fill-rule="evenodd" clip-rule="evenodd" d="M46.2258 73.8202C44.2936 75.221 44.6011 77.9772 45.1829 79.9797C46.0394 82.9284 47.7455 85.6579 49.6917 88.0107C53.1444 92.1847 59.0058 96.8715 64.4088 93.2071C69.2202 89.9436 72.2553 83.3585 73.3029 77.8118C73.6267 76.0977 74.058 73.5435 72.5366 72.2549C70.2876 70.3501 66.3202 70.6966 63.6051 70.9418C61.8171 71.1032 60.0919 71.6512 58.3249 71.3941C54.2195 70.7958 49.6503 71.3376 46.2258 73.8202Z" fill="#FF5678"/>
<path fill-rule="evenodd" clip-rule="evenodd" d="M129.466 95.6627C125.551 100.628 118.896 101.413 112.986 101.364C109.437 101.334 105.88 101.067 102.401 100.344C100.525 99.9541 98.6619 99.4375 96.8494 98.8168C95.6521 98.4068 93.8698 98.2019 93.3602 96.919C92.0163 93.5345 93.0052 89.2897 93.5585 85.8542C93.84 84.1067 94.0515 82.3489 94.3252 80.6001C94.5004 79.4811 94.5843 78.2432 95.0533 77.1964C95.6022 75.9702 96.2957 76.215 97.4571 76.5537C99.0568 77.0208 100.7 77.2149 102.344 77.4661C106.359 78.0791 109.861 79.3153 113.51 81.0674C117.117 82.7996 120.617 84.5098 123.835 86.9184C125.465 88.1393 126.87 89.4643 128.178 91.02C129.19 92.222 130.698 94.0984 129.466 95.6627ZM112.355 117.717C112.323 118.252 106.189 116.638 105.382 116.457C100.084 115.269 94.6826 113.915 89.682 111.769C85.0143 109.765 80.9016 107.473 77.2285 103.913C75.5165 102.254 73.9765 100.507 72.5029 98.6457C71.7644 97.7129 70.7554 97.8212 69.9318 97.0322C69.1909 96.3219 68.6228 95.7673 68.8544 94.7057C70.7055 95.1934 74.1236 98.2595 76.0427 96.7111C77.1364 95.8287 75.6195 94.9068 74.919 94.3955C73.6026 93.4338 72.4768 92.2475 71.4302 91.0024C73.2271 91.3508 74.8997 92.0237 76.4635 92.9605C77.1583 93.3767 79.5398 94.8857 80.0942 93.4472C80.4354 92.5616 78.8206 91.4487 78.3171 90.9587C77.0807 89.7558 75.7463 88.3515 75.0899 86.7341C76.7128 86.3577 78.2424 87.6119 79.3476 88.6334C80.5742 89.7677 82.078 90.958 83.1067 92.2649C83.6373 92.9389 83.7528 93.7351 84.1673 94.4621C84.6338 95.28 85.3799 95.9812 86.0929 96.5863C87.4669 97.7526 89.0738 98.6113 90.7232 99.3215C94.4923 100.944 98.5321 102.093 102.55 102.898C104.521 103.294 106.443 103.476 108.444 103.543C109.998 103.595 110.686 104.06 111.28 105.492C112.886 109.369 112.595 113.633 112.355 117.717ZM66.2194 88.182C65.3204 89.0231 64.1523 89.5507 63.2128 90.3593C62.386 91.0708 61.4324 91.8299 60.5096 92.4053C59.5244 93.0193 58.7884 92.5887 57.9015 92.0331C56.8602 91.3812 55.6631 91.1169 54.5906 90.5336C50.8827 88.5154 46.3465 83.5704 47.0387 79.0299C47.3319 77.1056 48.3269 75.212 50.1336 74.3387C51.7745 73.546 54.1596 73.1059 55.9152 73.7688C56.9053 74.1427 57.6138 74.968 58.2483 75.7795C58.988 76.7255 59.2713 76.5764 60.0246 75.664C61.3729 74.0319 63.596 72.5999 65.7939 72.6343C66.8861 72.6517 67.9711 72.8819 68.9551 73.3352C69.0884 73.3968 69.1625 73.5828 69.2965 73.6458C69.4608 73.7233 69.7307 73.5622 69.8449 73.6346C70.1331 73.817 70.4208 74.3867 70.5868 74.6758C71.2535 75.8358 72.4541 78.1107 71.2444 79.0875C71.2436 79.0879 71.2981 80.409 71.2816 80.5595C71.1962 81.3477 70.9238 81.9983 70.5728 82.7192C69.5186 84.8843 67.9626 86.5513 66.2194 88.182ZM68.0117 106.502C67.1602 106.767 66.2429 104.098 67.0598 103.672C67.8386 103.266 68.7826 106.262 68.0117 106.502ZM54.6373 103.311C54.3424 104.319 54.2178 105.463 53.4967 106.284C52.8364 105.5 52.7712 104.054 53.4116 103.249C53.7772 102.789 54.9599 102.21 54.6373 103.311ZM81.8869 85.6493C81.8822 85.6748 82.9116 86.1672 82.4094 86.7055C81.7232 87.4408 81.8174 86.0097 81.8869 85.6493ZM86.1409 77.4338C86.1292 78.453 83.9715 78.2069 83.9868 77.1818C84.0057 75.9201 86.1536 76.3533 86.1409 77.4338ZM83.5653 68.9153C83.7789 67.9821 87.5321 66.6839 87.4298 68.3104C87.3786 69.1257 83.1124 70.8993 83.5653 68.9153ZM45.0899 100.562C44.6693 101.068 44.0715 101.267 43.5675 101.655C43.0386 102.062 42.6606 102.59 42.1988 103.068C40.9303 104.379 39.4034 105.457 38.035 106.662C35.5193 108.876 33.1093 111.257 30.3201 113.135C25.3357 116.491 19.5554 118.326 13.8173 119.934C13.3419 120.067 11.9726 120.604 11.5023 120.204C10.995 119.772 11.253 118.253 11.2764 117.679C11.3715 115.324 11.646 112.941 11.6163 110.59C11.604 109.624 11.3212 108.251 11.825 107.367C12.3877 106.38 13.9588 106.092 14.9304 105.72C17.8841 104.591 20.7294 102.687 23.3385 100.923C26.5457 98.7548 29.7849 96.5506 33.0855 94.5267C36.3191 92.5437 39.8861 91.2158 43.4932 90.0832C43.6603 90.4344 41.9391 91.5645 41.7423 91.7229C40.7987 92.4826 39.7721 93.2701 39.0716 94.2729C38.5756 94.983 38.067 96.5895 39.4364 96.6307C40.1001 96.6506 41.0815 96.0085 41.6835 95.8009C42.6776 95.4578 43.7021 95.217 44.7421 95.0603C43.848 96.0446 40.8176 97.8129 41.369 99.45C41.9039 101.039 44.9982 99.1848 46.0632 99.1848C45.8887 99.7388 45.4498 100.13 45.0899 100.562ZM8.53412 104.996C6.55243 105.693 4.52127 106.089 2.4761 106.539C0.526689 106.968 -1.27515 107.291 -3.27191 107.04C-6.02861 106.693 -9.07938 105.552 -9.42888 102.419C-9.84335 98.7075 -7.22212 95.2968 -4.97141 92.634C-2.23213 89.3942 0.843701 86.4978 4.1773 83.8753C7.50707 81.2551 11.1012 78.9454 14.8665 76.9954C17.731 75.5118 20.9663 74.6111 23.9952 73.4976C24.5715 73.2859 26.1652 72.5417 26.7041 73.1585C27.1398 73.6573 26.547 74.4881 26.3485 74.9512C25.9612 75.8541 25.9079 76.7631 25.8079 77.7324C25.3614 82.0614 24.8237 86.3891 24.5764 90.7368C24.5076 91.9484 24.3861 93.216 24.4568 94.4284C24.4959 95.1 24.8454 95.9552 24.6127 96.6109C24.1653 97.8713 22.1165 98.7056 21.0306 99.2687C19.087 100.277 17.0286 101.029 15.0648 101.993C12.9081 103.052 10.8082 104.196 8.53412 104.996ZM36.0166 76.8675C36.5605 76.7928 37.3753 76.6446 37.8602 76.9971C38.4925 77.4565 38.3267 78.0959 37.7426 78.4292C37.2814 78.6927 36.2019 78.7647 35.7463 78.5256C34.97 78.1186 35.1014 76.9934 36.0166 76.8675ZM39.0289 86.8917C38.5894 87.6238 36.9831 88.1039 37.123 86.7377C37.243 85.568 39.8385 85.5436 39.0289 86.8917ZM38.4327 66.2682C39.1393 66.5419 40.4216 66.7761 40.6311 67.6851C40.8261 68.531 40.0245 68.4751 39.4459 68.2422C38.9701 68.0511 36.8504 66.2535 38.4327 66.2682ZM149.141 98.5402C148.728 96.9341 149.043 95.1562 148.815 93.5113C148.594 91.9167 148.196 90.4514 147.626 88.9487C146.363 85.6219 144.915 82.6272 142.868 79.7075C139.012 74.2091 134.538 69.3661 129.135 65.3501C123.802 61.3854 117.896 58.1633 111.64 55.9051C105.005 53.5103 98.3274 52.6769 91.3313 52.2178C89.242 52.0808 87.1548 51.9184 85.0773 51.6545C83.559 51.4617 81.6556 51.2241 80.1545 51.6891C79.2115 51.9815 78.6845 52.8038 79.712 53.3436C80.4403 53.7262 81.394 53.7721 82.1986 53.8738C81.2267 56.9611 79.6455 60.0592 77.1396 62.185C74.6931 64.2606 71.4194 64.9721 68.3319 65.4985C66.6576 65.7836 64.783 66.0045 63.0828 65.8813C62.0078 65.8038 61.1691 65.3061 60.7353 66.4132C60.4344 67.1825 60.2919 68.0265 59.8951 66.865C59.4258 65.4919 59.1955 65.5006 57.7357 65.1105C54.7501 64.313 51.3273 63.5854 48.7227 61.8604C46.0205 60.0709 45.0808 57.1759 43.5721 54.4802C43.1991 53.8139 42.0737 52.4654 42.6487 51.7018C43.1747 51.0037 44.8846 51.0733 45.6676 51.0005C46.494 50.9236 47.3255 50.9205 48.1547 50.8882C48.635 50.8697 49.6013 51.0665 49.4078 50.3491C49.1163 49.2677 45.9925 49.4063 45.2169 49.3887C43.7743 49.3564 42.3117 49.3898 40.8764 49.5484C33.7597 50.3355 26.5789 51.7908 19.6921 53.7315C6.33055 57.4966 -6.61018 64.4343 -16.3613 74.4291C-25.7215 84.0233 -28.6869 99.9887 -22.9327 112.239C-19.9422 118.605 -13.4526 121.221 -7.16161 123.333C-3.8433 124.447 -0.329642 125.318 3.19781 125.108C4.89052 125.007 6.49659 124.551 8.14746 124.208C8.86748 124.058 9.68687 123.819 10.4264 123.88C10.9861 123.925 11.524 124.439 12.049 124.166C12.4217 123.972 12.5837 123.416 13.0391 123.179C13.5861 122.895 14.249 122.792 14.8397 122.648C16.4812 122.25 18.0708 121.603 19.6753 121.073C21.3347 120.524 22.9007 119.818 24.4927 119.104C25.2966 118.743 27.1568 117.278 27.6809 118.349C27.9195 118.839 27.8178 119.782 27.876 120.295C27.9779 121.192 28.0977 122.088 28.2287 122.981C28.517 124.948 28.8623 126.907 29.216 128.864C29.8545 132.394 30.6775 135.773 32.0534 139.094C33.152 141.746 34.1164 144.751 36.1565 146.86C37.047 147.781 38.262 148.195 39.5393 147.906C40.9921 147.577 41.7153 146.257 42.5973 145.19C44.5378 142.842 47.7417 141.043 50.7001 140.395C54.3227 139.602 57.8516 140.762 61.3094 141.748C64.9673 142.791 68.6907 143.785 72.281 145.038C75.6265 146.207 79.2389 147.932 82.867 147.782C86.0311 147.651 88.9864 145.076 91.2683 143.113C93.56 141.142 96.4256 138.255 99.721 138.488C101.357 138.603 102.848 139.392 104.442 139.713C106.192 140.066 108.054 140.115 109.833 140.247C112.042 140.41 116.983 139.834 117.801 137.177C117.922 136.782 117.922 135.971 117.402 135.813C116.923 135.668 116.678 136.228 116.225 136.202C115.302 136.15 114.581 134.541 114.073 133.918C112.027 131.403 109.22 129.527 106.924 127.255C104.332 124.689 102.118 121.581 100.164 118.515C101.048 118.286 102 118.667 102.855 118.848C103.894 119.068 104.906 119.334 105.93 119.616C107.058 119.927 108.202 120.14 109.347 120.377C110.201 120.553 111.335 120.606 112.106 121.035C112.779 121.409 113.155 121.811 113.99 121.919C114.84 122.03 115.712 121.937 116.566 121.931C118.875 121.915 121.179 121.872 123.477 121.628C131.598 120.766 140.206 117.331 145.088 110.514C146.416 108.66 147.486 106.606 148.163 104.427C148.69 102.725 149.6 100.327 149.141 98.5402Z" fill="black"/>
<path fill-rule="evenodd" clip-rule="evenodd" d="M55.1673 39.585C53.7222 40.0334 52.0142 39.5058 51.1836 38.2159C50.3389 36.9043 49.761 35.3866 49.6446 33.8242C49.5333 32.3273 49.8733 30.8117 50.7561 29.5827C51.6955 28.2754 53.6103 26.8101 55.3268 27.2641C55.6884 27.3598 56.0154 27.5902 56.3398 27.8189C56.6838 28.0614 57.025 28.3019 57.4015 28.3771C57.4983 28.3964 57.566 28.4147 57.6166 28.4281C57.6847 28.4463 57.721 28.4561 57.7533 28.4487C57.7905 28.4402 57.8223 28.4094 57.8907 28.3433C57.9295 28.3055 57.9805 28.2563 58.051 28.1932C58.1962 28.0635 58.3366 27.8681 58.4738 27.677H58.474C58.5661 27.5486 58.6572 27.4218 58.7472 27.3184C58.9207 27.1195 59.0938 26.9184 59.2674 26.7169C60.3839 25.4217 61.5216 24.1016 62.886 23.0772C65.7132 20.9545 69.4708 19.9519 72.9783 20.0018C75.1122 20.032 77.1124 20.6648 79.1009 21.3842C79.2678 21.4445 79.4357 21.5045 79.6041 21.5646L79.6047 21.5648C81.2017 22.1347 82.8487 22.7226 84.1276 23.8644C86.6709 26.1357 87.3334 29.8963 87.7495 33.1136C88.2001 36.5977 86.9584 39.5952 85.6721 42.7005V42.701L85.6717 42.7016V42.7018C85.4759 43.1745 85.2791 43.6494 85.0871 44.1289C83.7274 47.526 81.2314 50.278 78.2647 52.375C76.7102 53.4734 74.9925 54.1365 73.1953 54.7178C72.8224 54.8384 72.4519 54.9675 72.0818 55.0964H72.0816H72.0814C70.6395 55.5984 69.2026 56.0986 67.6484 56.0963C64.6821 56.092 60.8848 54.6832 59.6212 51.7609C59.046 50.4302 59.6061 50.1914 60.7572 50.9146C60.9584 51.0409 61.1587 51.1685 61.3589 51.2959V51.2961H61.3591L61.3598 51.2968C62.8208 52.2272 64.2725 53.1521 65.9886 53.5613C69.7732 54.4641 74.306 53.0655 77.6245 51.2199C80.9418 49.3749 83.1689 46.6032 84.6574 43.1522C86.159 39.6704 86.7425 36.2395 86.1632 32.4861C85.6727 29.3052 84.6962 26.3997 81.83 24.673C75.642 20.9459 67.3048 21.2462 61.802 26.0899C61.0472 26.7538 60.3013 27.4 59.5237 28.0342C59.0292 28.4372 58.447 28.9207 58.519 29.6175C58.5347 29.7713 58.6309 30.0382 58.7387 30.3373C59.0496 31.2003 59.4581 32.3335 58.3204 31.8088C57.8514 31.5924 57.4633 31.2979 57.0806 31.0077C56.4502 30.5295 55.8351 30.0628 54.8985 29.9766C53.2969 29.8288 51.3866 31.0591 50.9073 32.6076C50.4504 34.0852 51.2653 36.1068 52.5416 36.9542C53.2597 37.4311 54.0435 37.4078 54.8539 37.3836C54.9355 37.3812 55.0174 37.3787 55.0994 37.3768C55.1618 37.3753 55.2399 37.3712 55.3287 37.3666C55.874 37.3377 56.8263 37.2876 57.0798 37.6925C57.6015 38.5255 55.7612 39.4009 55.1673 39.585ZM74.4464 46.1764C74.7177 45.6432 74.9861 45.116 75.2897 44.6395C75.4305 44.4185 75.6602 44.2658 75.8804 44.1195H75.8807C75.9439 44.0775 76.0064 44.0359 76.0658 43.9934C76.8079 45.1498 76.0747 46.3885 75.4433 47.4553C75.37 47.5791 75.298 47.7005 75.2301 47.8192C75.0303 48.1674 74.8353 48.5301 74.6385 48.8959C74.2181 49.6775 73.79 50.4731 73.2938 51.1725C72.084 52.8771 69.4519 51.033 69.3738 49.2811C69.3139 47.94 70.2639 48.5237 70.8737 49.0246C71.5013 49.5406 71.7986 49.669 72.4566 49.1055C73.341 48.3479 73.8998 47.2499 74.4464 46.1764ZM67.3214 41.4527C67.5876 39.6937 66.3833 41.0596 66.1257 41.8686C65.8077 42.8668 65.5446 44.2767 66.0255 45.2672C66.9086 47.0854 69.3982 46.2189 70.5964 45.253C71.158 44.8001 71.9451 43.8567 71.9183 43.0704C71.8718 41.7024 70.818 42.5226 70.1698 43.0271H70.1696C70.087 43.0914 70.011 43.1507 69.9443 43.1995C69.9175 43.2193 69.8889 43.2403 69.8589 43.2624C69.2576 43.7066 68.0626 44.5892 67.3623 44.1525C66.7188 43.7514 66.9768 42.7986 67.1797 42.0491C67.2405 41.8255 67.2961 41.62 67.3214 41.4527ZM70.8832 34.3589C72.3048 34.0759 74.1357 34.2217 75.3725 35.0277C76.9663 36.066 74.8708 36.8137 73.9631 36.9067C72.8643 37.0188 71.4595 37.0931 70.4503 36.554C69.0198 35.7898 69.4967 34.6354 70.8832 34.3589ZM54.6522 31.7224C53.5653 31.5111 52.0484 32.0598 52.7967 33.3524C53.3551 34.3173 54.731 34.6419 55.8077 34.8961C55.9385 34.9269 56.0651 34.9568 56.185 34.9865C57.3822 35.2838 57.9743 34.8456 57.5622 33.5251C57.163 32.2471 55.8243 31.9504 54.6522 31.7224ZM77.3491 45.2434C77.4491 44.8258 78.0324 43.2558 78.4265 44.4083C78.487 44.5854 78.4945 44.8453 78.5023 45.1228C78.5223 45.8241 78.5452 46.6393 79.4374 46.5208C79.8977 46.4599 80.1158 45.9978 80.318 45.5698C80.4182 45.3576 80.5144 45.1538 80.6341 45.0111C81.8508 43.5624 81.4777 46.3025 81.1598 46.9883C80.4591 48.4997 78.4981 49.5412 77.5254 47.6236C77.1636 46.9104 77.1653 46.0101 77.3491 45.2434ZM81.9293 39.1504H81.9295C82.4939 39.8058 83.4345 40.8987 84.0516 40.1071C84.6538 39.3345 83.6176 38.1371 83.101 37.5403C83.0785 37.5143 83.057 37.4895 83.0366 37.4659C83.022 37.4487 83.0063 37.4305 82.9897 37.4112C82.5226 36.8663 81.3248 35.4694 80.7167 36.5158C80.3364 37.1708 81.2284 38.4055 81.6525 38.8391C81.7278 38.9162 81.8217 39.0253 81.9293 39.1504ZM65.3518 52.0081C64.7694 51.3392 64.8303 50.0996 65.1603 49.3257C65.4291 48.6955 65.8786 49.4756 66.1391 49.9272C66.2026 50.0374 66.2548 50.1279 66.2905 50.1737C66.4071 50.3239 66.5746 50.4629 66.7468 50.6058C67.1054 50.9035 67.4836 51.2173 67.459 51.6783C67.3987 52.8045 65.8637 52.5956 65.3518 52.0081Z" fill="black"/>
<path fill-rule="evenodd" clip-rule="evenodd" d="M116.096 43.6845C115.457 43.511 114.818 43.3376 114.183 43.159C112.705 42.7432 114.101 41.8077 114.98 41.8735C115.659 41.9243 116.323 42.1625 116.976 42.3967C117.264 42.5001 117.551 42.6029 117.835 42.6885C120.676 43.5414 123.309 44.4742 125.963 45.7981C126.359 45.9957 128.102 46.9328 126.949 47.3476C126.343 47.5655 125.124 46.9098 124.271 46.4508C123.998 46.304 123.763 46.1775 123.597 46.1057C121.187 45.067 118.635 44.3739 116.096 43.6845ZM140.219 64.7359C130.717 58.8409 121.255 53.067 110.508 49.6899C109.947 49.5141 109.773 49.0144 110.067 48.5195C110.377 47.9978 110.972 48.0169 111.5 48.0339L111.545 48.0354C112.935 48.0793 114.293 48.5184 115.608 48.9437L115.776 48.9979C118.782 49.9689 121.646 51.3159 124.47 52.7239C129.421 55.1916 134.186 58.1774 138.553 61.5723C139.466 62.2817 140.402 62.8567 141.395 63.4368C141.457 63.4729 141.521 63.5097 141.587 63.5475C142.2 63.8993 142.96 64.3354 143.181 65.0195C143.803 66.945 140.664 65.0123 140.219 64.7359ZM-13.2168 62.9837C-16.6893 65.6852 -20.0826 68.4979 -23.2219 71.581C-24.3396 72.6787 -25.2711 73.9343 -26.2017 75.1891C-26.6279 75.7637 -27.054 76.3381 -27.4978 76.8969C-27.5454 76.9568 -27.5978 77.0269 -27.6549 77.1031C-28.0121 77.5791 -28.5465 78.2915 -29.1295 78.2127C-29.8714 78.1129 -30.0213 76.8351 -29.9977 76.2771C-29.9166 74.3742 -28.1787 72.5365 -26.9394 71.2262C-25.5452 69.7528 -24.0547 68.317 -22.5324 66.9755C-20.8565 65.4986 -19.0377 64.229 -17.1843 62.9863C-16.5069 62.5321 -15.8402 62.0516 -15.172 61.5702C-14.0452 60.7585 -12.9151 59.9444 -11.7267 59.2503C-10.8351 58.7297 -9.35476 58.5316 -9.83994 60.0988C-10.1234 61.0143 -11.2366 61.7076 -12.2081 62.3125C-12.5845 62.5469 -12.9395 62.768 -13.2168 62.9837ZM-25.6544 59.2384C-23.6996 58.6299 -21.8872 57.6852 -20.0747 56.7405C-18.8937 56.125 -17.7125 55.5094 -16.4923 54.9871C-15.6147 54.6113 -14.7244 54.2675 -13.8343 53.9238C-13.0336 53.6144 -12.2331 53.3052 -11.4418 52.9729C-11.3672 52.9415 -11.2865 52.9118 -11.2035 52.881C-10.7891 52.7277 -10.3187 52.5536 -10.2627 52.0652C-10.1858 51.3892 -10.5805 51.4093 -11.0628 51.434H-11.063C-11.094 51.4354 -11.1254 51.4371 -11.1572 51.4384C-12.2563 51.4879 -13.4183 51.975 -14.5165 52.4353C-14.9699 52.6256 -15.4126 52.8111 -15.8353 52.9593C-16.2118 53.0914 -16.5887 53.2203 -16.9653 53.349C-18.1451 53.7524 -19.3214 54.1548 -20.472 54.648C-22.0029 55.3041 -23.5663 55.9829 -24.945 56.9274C-24.9938 56.9609 -25.0447 56.9951 -25.097 57.0304C-25.5535 57.3376 -26.106 57.7096 -26.3034 58.2171C-26.5011 58.7237 -26.3922 59.4684 -25.6544 59.2384Z" fill="black"/>
<path fill-rule="evenodd" clip-rule="evenodd" d="M55.2739 46.187C55.4586 45.6451 57.7433 39.7207 56.849 39.5421C55.9018 39.3525 54.6356 42.7899 54.3609 43.411C53.3462 45.7046 52.7452 48.1655 52.2745 50.6258C51.9465 52.3389 51.6583 54.0938 51.7732 55.8451C51.8615 57.1911 52.4174 57.3949 53.3334 58.2196C53.3334 54.1314 53.9547 50.0565 55.2739 46.187Z" fill="black"/>
</g>
<defs>
<linearGradient id="paint0_linear_1_24" x1="59.5" y1="0" x2="59.5" y2="119" gradientUnits="userSpaceOnUse">
<stop stop-color="#833AB4"/>
<stop offset="0.5" stop-color="#FD1D1D"/>
<stop offset="1" stop-color="#FCB045"/>
</linearGradient>
</defs>
</svg>
