<svg width="90" height="90" viewBox="0 0 90 90" fill="none" xmlns="http://www.w3.org/2000/svg">
<circle cx="44.78" cy="44.78" r="44.78" fill="#45FCF1"/>
<mask id="mask0_1_87" style="mask-type:alpha" maskUnits="userSpaceOnUse" x="0" y="0" width="90" height="90">
<circle r="44.78" transform="matrix(-1 0 0 1 44.78 44.78)" fill="#C4C4C4"/>
</mask>
<g mask="url(#mask0_1_87)">
<path fill-rule="evenodd" clip-rule="evenodd" d="M-3.48334 158.412C1.05704 158.427 5.46861 158.582 10.0217 158.597C28.5297 158.659 47.2079 158.57 65.783 157.819C71.033 157.607 72.3435 157.612 77.5708 157.283C80.6573 157.271 89.9284 157.016 89.4643 152.811C89.2594 144.979 87.3209 137.179 86.7103 129.368C85.5384 114.684 84.5405 99.541 78.6562 85.8067C77.2942 82.5268 74.369 80.3819 71.4732 78.4531C68.5694 76.3724 67.8567 74.0622 65.1764 71.7116C64.6098 71.2146 61.3917 71.0124 59.6601 69.7517C57.1399 67.9166 55.8901 64.9124 54.9497 64.4009C54.2579 64.0247 54.2706 61.4285 52.8837 60.5097C51.0228 59.2766 45.0926 58.3597 42.935 58.1883C40.8642 58.0236 37.2623 58.3694 35.3193 59.1279C32.0792 60.3929 30.7869 62.8058 29.36 65.9146C10.508 71.7428 -6.72292 81.6122 -12.0743 101.519C-16.6893 118.215 -16.8579 136.115 -15.0748 153.238C-14.7187 154.49 -14.9682 156.452 -13.887 157.283C-17.6456 157.499 -3.99332 158.275 -3.48334 158.412Z" fill="white"/>
<path fill-rule="evenodd" clip-rule="evenodd" d="M82.2623 141.927C81.9055 141.749 81.5337 141.545 81.1262 141.53C80.4266 141.506 80.4256 140.418 81.1262 140.442C81.7373 140.463 82.274 140.718 82.8117 140.987C83.4391 141.3 82.8872 142.238 82.2623 141.927ZM81.1262 111.277C81.6037 111.277 82.0849 111.337 82.4517 111.672C82.6696 111.87 82.6524 112.241 82.4517 112.441C82.2368 112.656 81.8991 112.639 81.6818 112.441C81.7527 112.506 81.6825 112.442 81.6568 112.428C81.6506 112.424 81.6472 112.422 81.6456 112.421C81.6402 112.419 81.6347 112.418 81.6259 112.416C81.569 112.402 81.5128 112.388 81.4553 112.377C81.4544 112.38 81.3338 112.369 81.3055 112.368C81.2456 112.366 81.186 112.366 81.1262 112.366C80.8309 112.366 80.582 112.117 80.582 111.821C80.582 111.527 80.832 111.277 81.1262 111.277ZM76.008 123.491C75.8521 124.175 74.8028 123.884 74.9583 123.201C75.1845 122.21 75.1433 121.193 74.9583 120.198C74.831 119.512 75.8803 119.221 76.008 119.909C76.2299 121.103 76.2795 122.3 76.008 123.491ZM74.6331 84.3571C73.8225 84.1645 73.0206 84.1416 72.1914 84.1413C71.4899 84.141 71.4909 83.0521 72.1914 83.0524C73.1163 83.0527 74.0192 83.0925 74.9226 83.3071C75.6048 83.4692 75.3142 84.5188 74.6331 84.3571ZM71.9168 110.88C71.4466 110.645 70.9762 110.41 70.506 110.174C69.8786 109.861 70.4305 108.922 71.0554 109.234L72.4661 109.94C73.0935 110.254 72.5415 111.193 71.9168 110.88ZM71.7209 132.323C71.1245 133.184 70.2859 133.718 69.2796 133.985C68.6006 134.164 68.3135 133.114 68.9901 132.934C69.7098 132.744 70.3492 132.396 70.7809 131.774C71.1779 131.201 72.1211 131.746 71.7209 132.323ZM67.9596 93.9854C67.7982 93.6838 67.5552 93.5563 67.2538 93.5496C66.5533 93.5335 66.5532 92.4446 67.2538 92.4607C67.9409 92.4762 68.571 92.8213 68.8993 93.4358C69.2299 94.0543 68.2898 94.6037 67.9596 93.9854ZM61.0552 101.387C60.86 101.6 60.4817 101.594 60.2854 101.387C60.1652 101.26 60.0643 101.118 59.9849 100.963C59.9547 100.904 59.9262 100.844 59.893 100.787C59.8782 100.761 59.8617 100.736 59.8449 100.711C59.8391 100.706 59.8273 100.694 59.8151 100.681C59.6059 100.46 59.6113 100.134 59.8151 99.9112C60.0102 99.6987 60.3887 99.7041 60.585 99.9112C60.7049 100.038 60.806 100.18 60.8854 100.335C60.9156 100.394 60.944 100.454 60.9773 100.512C60.9922 100.537 61.0086 100.562 61.0255 100.587C61.0312 100.592 61.0429 100.604 61.0552 100.617C61.2644 100.838 61.2591 101.165 61.0552 101.387ZM60.4746 117.466C59.7658 117.79 58.9882 117.79 58.2793 117.466C58.0109 117.343 57.9472 116.955 58.0843 116.72C58.2429 116.449 58.5618 116.403 58.8288 116.526C59.1504 116.673 59.6042 116.673 59.9254 116.526C60.1937 116.403 60.5094 116.446 60.6699 116.72C60.8078 116.956 60.7421 117.343 60.4746 117.466ZM58.541 128.847C58.4192 129.135 58.1562 129.289 57.8486 129.301C57.5441 129.311 57.3172 129.042 57.3044 128.756C57.2963 128.571 57.396 128.413 57.5392 128.316C57.5395 128.305 57.5398 128.296 57.5398 128.285C57.5399 127.98 57.789 127.754 58.084 127.741C58.3778 127.728 58.6284 128 58.6283 128.285C58.6281 128.478 58.6162 128.668 58.541 128.847ZM55.7326 146.94C54.8638 146.954 54.015 147.162 53.1463 147.175C52.4443 147.187 52.4465 146.099 53.1463 146.087C54.0149 146.073 54.8637 145.865 55.7326 145.852C56.4345 145.84 56.4324 146.93 55.7326 146.94ZM52.1202 77.1609C51.6117 77.6455 50.9836 77.8843 50.3642 78.187C49.7367 78.4937 49.1855 77.5542 49.8148 77.2467C50.3395 76.9903 50.9203 76.8008 51.3506 76.391C51.8581 75.9075 52.6287 76.6767 52.1202 77.1609ZM50.7554 89.7119C50.3985 89.5337 50.0266 89.3301 49.6194 89.3159C48.9196 89.2913 48.9187 88.2024 49.6194 88.227C50.2304 88.2482 50.767 88.5031 51.3047 88.7716C51.9325 89.085 51.3804 90.0239 50.7554 89.7119ZM44.2116 140.086C44.0505 139.784 43.8076 139.656 43.5062 139.649C42.8054 139.634 42.8052 138.544 43.5062 138.56C44.1932 138.576 44.8234 138.922 45.1517 139.535C45.482 140.155 44.5422 140.704 44.2116 140.086ZM41.9456 116.44C41.729 116.241 41.7441 115.872 41.9456 115.67C42.1807 115.435 42.4158 115.2 42.651 114.964C42.866 114.749 43.2033 114.765 43.4206 114.964C43.6373 115.163 43.6222 115.532 43.4206 115.734C43.1854 115.969 42.9504 116.205 42.7152 116.44C42.5001 116.656 42.1629 116.639 41.9456 116.44ZM39.2737 153.291C38.4884 153.273 37.7522 153.048 37.0128 152.801C36.3504 152.581 36.6361 151.529 37.3023 151.752C37.945 151.965 38.5905 152.186 39.2737 152.202C39.9743 152.218 39.9746 153.307 39.2737 153.291ZM35.7468 130.006C35.0374 129.986 34.4489 129.624 33.9512 129.14C33.4479 128.652 34.2185 127.882 34.7209 128.371C35.0058 128.648 35.3344 128.905 35.7468 128.918C36.4471 128.937 36.4477 130.025 35.7468 130.006ZM37.9369 100.061C37.9455 100.351 38.068 100.662 38.2478 100.852C38.7289 101.362 37.9601 102.133 37.4782 101.622C37.0805 101.201 36.8651 100.637 36.8484 100.061C36.8283 99.3589 37.9169 99.362 37.9369 100.061ZM29.6339 76.3452C29.4061 75.899 29.1076 75.3758 28.6535 75.1293C28.0369 74.7946 28.5869 73.8547 29.2029 74.1891C29.8201 74.5241 30.2619 75.1845 30.5739 75.7955C30.8923 76.4191 29.9526 76.9694 29.6339 76.3452ZM28.2229 87.6694C27.9704 87.6622 27.7196 87.619 27.4762 87.5529C27.372 87.5245 27.2691 87.492 27.1649 87.4637C27.1204 87.4517 26.9307 87.428 27.0472 87.4342C26.7525 87.4184 26.503 87.1976 26.503 86.8898C26.503 86.6068 26.7533 86.3295 27.0472 86.3453C27.4512 86.367 27.8186 86.569 28.2229 86.5805C28.9229 86.6002 28.9235 87.6891 28.2229 87.6694ZM24.696 105.074H23.5204C22.8187 105.074 22.8199 103.985 23.5204 103.985H24.696C25.3975 103.985 25.3963 105.074 24.696 105.074ZM23.3247 153.216C22.9682 153.395 22.548 153.564 22.2592 153.837C21.7501 154.318 20.9793 153.55 21.4895 153.067C21.8573 152.719 22.3275 152.5 22.7753 152.276C23.0392 152.144 23.3635 152.204 23.5201 152.472C23.6615 152.713 23.5875 153.086 23.3247 153.216ZM20.6978 139.459C20.6523 139.445 20.6041 139.437 20.558 139.43C20.3729 139.406 20.1792 139.414 19.9933 139.414C19.2918 139.414 19.2929 138.324 19.9933 138.326C20.5454 138.326 21.1199 138.334 21.5539 138.719C21.7743 138.916 21.7529 139.291 21.5539 139.49C21.3376 139.707 21.0036 139.685 20.7843 139.49C20.8074 139.511 20.7281 139.467 20.6978 139.459ZM19.9936 120.954C20.1518 120.628 20.1543 120.416 20.1545 120.053C20.1551 119.352 21.2436 119.353 21.243 120.053C21.2428 120.579 21.1645 121.027 20.9336 121.505C20.8048 121.77 20.4277 121.839 20.1891 121.7C19.9216 121.544 19.8656 121.219 19.9936 120.954ZM16.8463 95.4117C16.2149 95.6264 15.6514 95.9305 15.0954 96.2976C14.5085 96.685 13.9637 95.7416 14.5459 95.3574C15.1804 94.9386 15.8367 94.6068 16.5568 94.3615C17.2227 94.1351 17.506 95.1873 16.8463 95.4117ZM13.1747 77.0853C12.7057 77.0983 12.2216 77.2783 11.8036 77.4814C11.1753 77.7865 10.6241 76.8472 11.2542 76.541C11.8514 76.2509 12.5046 76.0151 13.1747 75.9964C13.8767 75.9767 13.8738 77.0657 13.1747 77.0853ZM11.5289 126.007C11.3443 126.016 11.1867 125.916 11.0889 125.772C11.0788 125.772 11.0686 125.772 11.0585 125.772C10.7536 125.772 10.5276 125.523 10.5143 125.227C10.5011 124.935 10.7739 124.684 11.0585 124.684C11.2507 124.684 11.4413 124.696 11.6199 124.77C11.9081 124.893 12.0614 125.156 12.0731 125.463C12.0847 125.768 11.8144 125.995 11.5289 126.007ZM8.85201 88.3555C8.1834 88.574 7.89961 87.5222 8.56255 87.3056C9.34068 87.0512 10.1359 86.8542 10.9139 86.5998C11.5824 86.3814 11.8663 87.4332 11.2033 87.65C10.4253 87.9042 9.63 88.1012 8.85201 88.3555ZM6.41079 108.908C6.20334 109.577 5.15302 109.29 5.36101 108.619C5.56184 107.971 5.57629 107.32 5.57669 106.647C5.5771 105.945 6.66558 105.946 6.66518 106.647C6.66477 107.413 6.63914 108.171 6.41079 108.908ZM-0.867142 133.525C-0.906799 133.796 -1.1218 133.992 -1.40316 134.004C-1.68951 134.017 -1.95779 133.745 -1.9474 133.46C-1.92744 132.911 -1.48072 132.465 -0.932831 132.445C-0.628136 132.434 -0.40139 132.704 -0.38858 132.99C-0.376038 133.268 -0.60817 133.485 -0.867142 133.525ZM-4.55021 102.233C-5.12548 102.425 -5.74 102.607 -6.19091 103.033C-6.70049 103.514 -7.47121 102.745 -6.96068 102.263C-6.36613 101.702 -5.60121 101.437 -4.83953 101.182C-4.17255 100.96 -3.88916 102.012 -4.55021 102.233ZM-7.04646 123.386C-7.20454 123.656 -7.52476 123.704 -7.79102 123.582C-8.14804 123.414 -8.5423 123.421 -8.92725 123.42C-9.62863 123.42 -9.62755 122.331 -8.92725 122.331C-8.33337 122.331 -7.78561 122.388 -7.2415 122.64C-6.97389 122.766 -6.90875 123.15 -7.04646 123.386ZM-8.45692 149.057C-8.76175 149.069 -8.98835 148.799 -9.00117 148.513C-9.01371 148.235 -8.78172 148.018 -8.52247 147.978C-8.48309 147.707 -8.26795 147.511 -7.98672 147.498C-7.7001 147.485 -7.43195 147.758 -7.44234 148.042C-7.46244 148.59 -7.90889 149.038 -8.45692 149.057ZM90.7136 153.175C90.5286 152.508 90.1054 151.972 89.7857 151.373C89.6785 151.17 89.6411 151.045 89.583 150.898C89.5041 151.056 89.3509 151.174 89.1206 151.174C88.6786 151.174 88.1617 151.146 87.7493 151.335C87.4811 151.458 87.1651 151.414 87.0047 151.139C86.8669 150.903 86.9327 150.518 87.1999 150.395C87.8078 150.117 88.4612 150.086 89.1206 150.085C89.2834 150.085 89.4067 150.145 89.4938 150.236C89.7458 146.784 89.7396 143.33 89.5011 139.875C89.2469 136.184 88.6616 132.566 88.0493 128.922C87.7528 127.155 87.3677 125.37 87.4426 123.571C87.5174 121.784 88.2834 120.118 87.7405 118.325C87.5228 117.606 87.15 116.948 86.9078 116.237C86.648 115.473 86.671 114.717 86.7895 113.925C87.0329 112.312 87.437 110.718 86.7907 109.143C86.505 108.445 86.0422 107.822 85.8193 107.1C85.5417 106.203 85.5798 105.211 85.5334 104.281C85.4396 102.406 85.4152 100.518 85.2599 98.6463C85.1906 97.8078 85.0396 97.0129 84.6953 96.2438C84.3646 95.5034 83.8735 94.8297 83.6544 94.0443C83.4367 93.2712 83.4177 92.4558 83.3006 91.665C83.1782 90.8293 82.9863 90.0058 82.7278 89.2027C81.729 86.0938 79.8989 83.3009 77.7368 80.8795C75.4385 78.3055 72.6914 76.3673 69.7754 74.5611C68.2421 73.6112 66.7089 72.6614 65.1766 71.7116C65.1438 71.8898 65.0303 72.0535 64.8122 72.1265C64.2368 72.3187 63.6224 72.5013 63.1713 72.9273C62.6619 73.4082 61.891 72.6394 62.4016 72.1574C62.9341 71.6544 63.6035 71.3896 64.2846 71.1569C63.5865 70.7168 62.8808 70.2609 62.0929 70.0067C61.4029 69.7834 60.3853 69.9781 59.8259 69.4717C59.3866 69.0729 59.2476 68.3339 59.079 67.7921C58.8681 67.1197 58.6858 66.4106 58.4177 65.7572C58.2353 65.3108 57.97 64.882 57.6354 64.5363C57.4884 63.9701 57.2189 63.4528 56.7426 63.1384C55.4963 62.3136 53.9655 63.133 53.4172 64.309C52.964 64.3077 52.4866 64.4069 52.0456 64.4342C51.1394 64.4914 50.2319 64.5173 49.3243 64.5146C47.5485 64.509 45.7715 64.3933 44.0107 64.158C40.8622 63.7359 37.8074 62.8852 34.7119 62.2224C34.6942 62.1815 34.6737 62.1407 34.6493 62.0999C33.9824 60.9811 32.3211 61.1702 31.2746 61.5936C30.8257 61.7746 30.3686 62.0032 30.1113 62.428C29.8392 62.6117 29.6038 62.8349 29.4473 63.0704C29.1235 63.5562 28.8731 64.5363 28.2159 64.618C27.7832 64.671 27.3437 64.5881 26.9043 64.6507C26.3545 64.7269 25.8619 64.9202 25.3543 65.1407C21.49 66.8189 17.4951 68.685 13.3013 69.3356C12.3176 69.4881 11.3162 69.646 10.4617 70.1973C9.76772 70.6451 9.23143 71.2603 8.65872 71.8442C8.10085 72.4132 7.64091 72.6649 6.84497 72.767C5.87881 72.891 5.04202 73.1576 4.33591 73.8601C3.74944 74.444 3.36705 75.1899 2.9071 75.8677C2.43893 76.5592 1.75185 76.9485 1.03887 77.35C-0.647011 78.3001 -2.21717 79.4476 -3.58473 80.8236C-6.46526 83.7256 -8.20969 87.4551 -9.96773 91.0893C-11.8686 95.0202 -13.6457 98.9988 -14.8778 103.197C-16.0863 107.318 -16.8053 111.558 -17.1371 115.837C-17.4864 120.328 -17.5363 124.836 -17.8277 129.329C-17.972 131.573 -18.0826 133.821 -18.1945 136.066C-18.3038 138.285 -18.463 140.508 -18.4373 142.729C-18.3874 147.024 -17.5296 151.332 -16.0284 155.353C-15.6534 156.352 -15.2393 157.34 -14.7969 158.311C-14.4084 159.165 -13.0823 159.069 -12.6659 158.311C-12.5707 158.137 -12.4958 157.958 -12.4332 157.775C-11.3447 157.785 -10.2453 157.7 -9.16356 157.801C-7.2531 157.979 -5.33873 158.079 -3.42287 158.198C0.368103 158.432 4.16582 158.589 7.95802 158.806C8.32597 158.826 8.69379 158.848 9.06161 158.869C6.35913 150.503 6.70969 141.456 6.28197 132.755C6.24758 132.052 7.33649 132.056 7.37061 132.755C7.80007 141.494 7.4344 150.563 10.2324 158.944C11.3179 159.018 12.402 159.107 13.4824 159.239C14.3559 159.343 15.2337 159.467 16.1154 159.424C17.1154 159.377 18.0923 159.147 19.0681 158.949C20.841 158.587 22.5487 158.751 24.3284 158.973C26.232 159.211 28.1425 159.343 30.0583 159.426C37.7299 159.762 45.4532 160.068 53.122 159.556C54.978 159.432 56.8299 159.258 58.6736 159.02C60.5731 158.778 62.4521 158.368 64.3502 158.134C66.2211 157.906 67.9411 158.534 69.7904 158.65C71.6761 158.767 73.6125 158.374 75.4807 158.148C76.0903 158.074 76.7003 158.002 77.3105 157.931C76.525 152.545 76.0783 147.117 75.6444 141.692C75.5884 140.992 76.6774 140.999 76.7328 141.692C77.1632 147.075 77.6 152.461 78.3845 157.805C81.6195 157.429 84.8577 157.048 88.059 156.462C88.9706 156.296 89.8768 156.025 90.4225 155.211C90.8265 154.608 90.9082 153.869 90.7136 153.175Z" fill="#CF6262"/>
<path fill-rule="evenodd" clip-rule="evenodd" d="M66.2674 38.94C65.9744 36.3654 66.3534 30.984 66.3789 30.6571C66.5394 28.5903 65.5714 20.4285 63.7412 21.1804C60.6711 18.7493 56.5822 18.2125 52.7587 17.9561C44.8166 17.4233 36.3678 18.6463 30.2351 23.9928C27.2023 26.7694 24.2498 30.8077 24.4872 35.0125C21.7315 38.9983 17.847 44.4655 21.2802 49.125C22.4472 50.6137 24.302 51.1681 25.7681 52.2955C28.7169 54.6749 30.5669 58.0894 33.5438 60.4544C41.4303 67.5436 54.8219 69.0245 62.5704 60.9611C68.5622 55.1214 67.5934 46.3848 66.5394 38.94C65.8309 33.9348 66.8387 43.9627 66.2674 38.94Z" fill="white"/>
<path fill-rule="evenodd" clip-rule="evenodd" d="M42.1492 7.03812C44.2733 6.60933 46.4543 6.34253 48.6234 6.42279L48.7906 6.4294C50.4227 6.49454 52.4895 6.63887 53.9131 7.5883C53.9952 7.50602 54.1268 7.4638 54.2463 7.52086C55.9381 8.32866 57.7991 8.91283 59.5805 9.49309C61.3537 10.0707 63.1934 10.452 65.0519 10.6056C65.7512 10.6635 66.3496 11.4188 65.9068 12.0962C65.8015 12.2576 65.699 12.4207 65.5967 12.5842C65.7676 12.5664 65.9385 12.5479 66.1094 12.5306C66.6719 12.474 67.2336 13.0745 67.2003 13.6222C67.1794 13.9667 67.1423 14.307 67.0873 14.6434C67.3015 14.639 67.5145 14.6711 67.7201 14.7581C68.762 15.198 68.6894 16.4394 68.6114 17.3837C68.5034 18.6942 68.0134 20.0822 67.1037 21.0631C67.783 21.7688 68.2639 22.6117 68.5506 23.6126C68.7587 24.3435 68.8745 25.1221 68.8173 25.8829L68.7991 26.1108C68.7284 26.9365 68.588 27.8506 67.9941 28.4446C67.6893 28.7509 67.3138 28.8625 66.9558 28.8271C67.1723 30.7299 67.3111 32.6437 67.4416 34.5507L67.503 35.4621C67.7943 39.8695 68.0132 44.3055 67.9561 48.72C67.9028 52.8456 67.088 56.8501 64.5584 60.1999C62.2546 63.2501 58.9469 65.4987 55.205 66.3536C53.1884 66.815 51.1297 66.8476 49.0887 66.5536C48.0994 66.4106 47.1035 66.1916 46.1645 65.8457C45.1251 65.462 44.378 64.8971 43.6786 64.0505C43.3479 63.6489 43.507 62.7942 44.1658 62.8744C45.1619 62.9953 46.0714 63.141 47.0265 63.4357L47.1633 63.4788C48.1145 63.7837 49.0996 64.0109 50.0941 64.1077C52.1312 64.305 54.1994 64.1063 56.1507 63.4883C59.328 62.4811 62.0643 60.2366 63.8182 57.4163C65.9001 54.0734 66.1354 50.2785 66.1054 46.4347C66.0731 42.2168 65.9359 37.9964 65.7122 33.7828L65.674 33.0806C65.5556 30.9124 65.4413 28.7427 65.3408 26.573C65.3094 25.8925 65.2618 25.2065 65.176 24.5272C64.391 24.0672 63.6876 23.433 63.229 22.6502C62.3078 23.0314 61.339 23.3063 60.4476 23.5255C58.3828 24.0334 56.2393 24.1567 54.1377 23.8387C53.5708 24.073 52.9927 24.2789 52.4057 24.456C52.247 24.5264 52.0883 24.5956 51.9299 24.6633C50.5145 25.2691 49.079 25.7822 47.5852 26.158L47.2182 26.2494C46.432 26.4434 45.578 26.6342 44.7413 26.6943C44.6039 26.7473 44.4555 26.7922 44.2935 26.8317C43.5317 27.0168 42.7409 27.0753 41.9601 27.01C41.1994 26.9461 40.6496 26.177 41.0687 25.457C41.3748 24.9315 41.6839 24.4075 41.9954 23.8848C40.911 24.3367 39.7912 24.7124 38.6618 25.0309C37.5215 25.3522 36.3649 25.623 35.2068 25.872C34.5877 26.0041 33.9661 26.1211 33.3483 26.2532C32.906 26.3471 32.2271 26.3962 31.8664 26.6874C31.4678 27.0073 31.3549 27.7532 31.2037 28.2133C31.005 28.8108 30.8186 29.411 30.6485 30.0181C30.3098 31.2295 30.0323 32.4585 29.8173 33.7C29.6023 34.9427 29.4579 36.1976 29.3777 37.4567C29.2976 38.7143 29.3328 39.9802 29.2037 41.2324C29.1341 41.8967 28.4212 42.2384 27.8947 41.7741C27.8329 41.7198 27.7706 41.6647 27.7089 41.609L27.6171 41.5251C27.1666 41.1167 26.7298 40.6839 26.3693 40.1967C26.304 40.1069 26.2414 40.0128 26.1829 39.9176C26.1734 39.9176 26.1652 39.9149 26.1558 39.908L26.0558 39.8328C24.9553 39.0135 23.1168 37.9453 22.0436 39.3065C21.7017 39.7401 21.5266 40.2923 21.3814 40.825L21.1264 41.7783C20.9615 42.4008 20.8064 43.0266 20.7156 43.6634C20.51 45.0899 20.6135 46.7341 21.5946 47.8775C21.9866 48.3349 22.5268 48.6614 23.1294 48.7472C23.4656 48.7935 23.7976 48.7363 24.1311 48.6942C24.4697 48.652 24.7963 48.72 25.1351 48.6873C25.674 48.6343 25.9095 49.2795 25.7081 49.6851C25.5991 49.9029 25.4711 50.0906 25.3257 50.2499C25.4425 50.3507 25.5543 50.4596 25.6618 50.5739C25.9802 50.676 26.2658 50.8951 26.4795 51.1851C26.6524 51.4192 26.742 51.6738 26.7571 51.9419C26.7761 52.0085 26.7924 52.0766 26.8075 52.146L27.0994 52.6199C27.1636 52.7239 27.2275 52.8266 27.2917 52.9273C28.0347 54.0978 28.8593 55.0888 29.884 56.0225C30.8705 56.9209 31.9412 57.7253 32.868 58.6889L32.9771 58.8035C33.8412 59.7142 34.7519 60.8166 34.4137 62.1408C34.3266 62.4811 33.8516 62.7261 33.5415 62.4961C32.5442 61.7556 32.0419 60.5823 31.1958 59.684C30.3247 58.7584 29.36 57.9267 28.4865 57.0039C27.6605 56.1328 27.0088 55.146 26.5177 54.0598C26.3215 54.2762 26.036 54.4301 25.64 54.4899C24.9596 54.5919 24.3254 54.1932 24.029 53.6038C23.8384 53.6882 23.6439 53.7644 23.4478 53.8243C22.4165 54.1401 21.7675 52.9926 22.1567 52.1446C22.3647 51.6901 22.6246 51.2953 22.9472 50.9632C21.9388 50.8244 20.9128 50.3031 20.2501 49.6524C18.5876 48.0177 18.3589 45.5608 18.7331 43.3763C18.9318 42.2179 19.2745 41.046 19.7196 39.9585C19.7971 39.7693 19.8803 39.5787 19.9712 39.3908C19.9209 39.3894 19.8692 39.3677 19.8366 39.3255C19.5358 38.9145 19.17 38.5782 18.9466 38.1182C18.7412 37.6963 18.5127 37.2688 18.3507 36.8292C18.0174 35.9294 17.8541 34.9141 17.7452 33.9626C17.5208 32.0149 17.6078 30.0794 17.9059 28.1438C18.4133 24.8472 19.639 21.6923 21.4448 18.924C21.3464 18.8723 21.2522 18.81 21.1643 18.7362L21.1211 18.6983L21.0505 18.6347C20.5353 18.1683 20.5798 17.294 21.0505 16.8215L21.1993 16.6724C21.3876 16.4853 21.5498 16.337 21.854 16.1333C21.8989 16.1032 21.9448 16.0749 21.9912 16.0485C21.832 15.7543 21.7767 15.4101 21.8876 15.0305C22.274 13.708 24.1762 13.7548 25.382 14.3316C26.7159 13.1407 28.1949 12.107 29.7981 11.2699C33.6163 9.27715 37.9336 7.88747 42.1492 7.03812ZM22.4125 41.8695C23.1255 41.6367 24.0725 42.1254 24.7133 42.4194C25.5257 42.7924 26.217 43.3436 26.8864 43.9262C27.2198 44.2174 27.2796 44.6938 27.1966 45.1008C27.1884 45.1416 27.1803 45.1838 27.1706 45.226C27.0823 45.6602 26.5978 46.0019 26.1693 45.9896C25.2726 45.9652 24.8454 45.1907 24.3377 44.5346C24.2779 44.6408 24.2031 44.7387 24.1104 44.8122L24.048 44.8612C23.8373 45.0217 23.605 45.1499 23.3268 45.1375C23.1294 45.128 22.9405 45.0776 22.7662 44.9865C22.3307 44.7564 22.139 44.193 22.2573 43.7342C22.3307 43.4457 22.4994 43.2197 22.7199 43.0632L22.6377 43.0069C22.4619 42.8846 22.3015 42.7555 22.1766 42.5651L22.1484 42.52H22.1592C22.0231 42.286 22.1117 41.9674 22.4125 41.8695Z" fill="#CF6262"/>
<path fill-rule="evenodd" clip-rule="evenodd" d="M55.996 55.5671C54.9935 55.8575 53.9176 55.8834 52.8959 55.5835C51.9692 55.3115 51.0176 54.7128 50.3355 53.9205C49.7296 53.2166 49.3373 52.3615 49.3527 51.4485C49.3544 51.3442 49.3916 51.2572 49.449 51.1897C49.5107 51.117 49.5969 51.067 49.6893 51.0453C49.7843 51.0231 49.8846 51.0309 49.9701 51.0697C50.0476 51.1049 50.1138 51.1647 50.1553 51.252C50.2601 51.3897 50.3645 51.5255 50.4693 51.6574C51.3122 52.6984 52.1284 53.4764 53.3957 53.7555C54.0834 53.9068 54.77 53.8397 55.4002 53.6088C56.0746 53.3614 56.6844 52.9265 57.1622 52.3701C57.3781 52.1186 57.633 52.0159 57.8823 52.0142C58.1649 52.0123 58.4441 52.1435 58.6544 52.3534C58.8611 52.5598 58.9996 52.8401 59.0122 53.1333C59.0231 53.3906 58.9392 53.6595 58.716 53.8994C57.9805 54.6894 57.0273 55.2682 55.996 55.5671ZM55.9649 42.5285C56.9925 43.1533 58.558 44.6101 57.4527 46.159C56.1516 47.5247 54.2783 45.9588 53.3551 45.2507C52.4992 44.7018 51.5375 46.1134 52.3316 46.7542C59.0022 51.6945 61.7093 42.6918 56.4846 41.7939C55.9094 41.6949 55.6957 42.3352 55.9649 42.5285ZM46.3532 39.7795C46.023 39.5681 45.6344 39.4957 45.2038 39.6915C44.8674 39.8446 44.2773 40.3549 43.8666 41.0255C43.5857 41.4844 43.3864 42.0227 43.428 42.5835C43.4376 42.7137 43.3895 42.8097 43.3136 42.8807C43.2537 42.9368 43.1671 42.9779 43.0654 42.9909C42.9791 43.0018 42.8825 42.992 42.804 42.9674C42.6546 42.9207 42.5755 42.8238 42.5457 42.7446C42.2582 41.9808 42.382 41.1283 42.7044 40.3592C43.1392 39.3213 43.9291 38.452 44.4465 38.1717C45.332 37.6919 46.3766 37.6698 47.2633 38.1586C48.0181 38.5746 48.4902 39.2463 48.9596 39.931C49.0594 40.0765 49.1584 40.221 49.2608 40.3628C49.466 40.6473 49.4863 40.9294 49.4069 41.1712C49.3189 41.4392 49.0945 41.6653 48.8138 41.7837C48.5546 41.8931 48.2535 41.9085 47.9871 41.7961C47.7621 41.7011 47.5556 41.5161 47.4249 41.2021C47.2048 40.6732 46.8382 40.0897 46.3532 39.7795ZM63.1258 40.9561C62.8996 41.0739 62.7226 41.1094 62.4718 41.0343C62.333 40.9926 62.1959 40.9126 62.0886 40.8053C61.9821 40.6988 61.9054 40.5665 61.8756 40.4196C61.8022 40.0573 61.6039 39.7181 61.3215 39.4969C61.0801 39.3079 60.7754 39.2077 60.4373 39.2642C60.0726 39.3252 59.7252 39.5592 59.4859 39.8351C59.4058 39.9273 59.3432 40.0321 59.2801 40.1364C59.1622 40.331 59.0475 40.512 58.885 40.6551C58.8234 40.7095 58.7304 40.7471 58.6405 40.7471C58.6039 40.7471 58.5668 40.7412 58.5313 40.7301C58.1684 40.3657 58.0986 40.0892 58.1102 39.815C58.1225 39.5274 58.2359 39.2362 58.4191 38.9645C58.8487 38.3274 59.6645 37.8048 60.2149 37.6864C60.9688 37.5244 61.7175 37.7189 62.3179 38.1401C62.9355 38.5735 63.3931 39.2464 63.5358 40.0047C63.5701 40.1874 63.5555 40.3844 63.4861 40.5553C63.4181 40.7224 63.2997 40.8654 63.1258 40.9561ZM48.0158 32.985C47.5635 33.4259 47.028 33.4943 46.4862 33.555C46.1852 33.5891 45.9449 33.6165 45.7084 33.6699C45.0586 33.8167 44.4161 34.0377 43.8301 34.356C43.2173 34.6888 42.5496 35.0901 42.0693 35.6042C41.9551 35.7266 41.8474 35.8548 41.7397 35.9835C41.6413 36.1009 41.5467 36.2138 41.4469 36.3227C41.3322 36.4478 41.2234 36.5789 41.115 36.7096C41.0481 36.8199 41.0349 36.847 41.0214 36.8754C41.0011 36.9178 40.9775 36.9653 40.9505 37.0163C40.9137 37.086 40.8704 37.1624 40.825 37.2317C40.7498 37.3584 40.7093 37.3932 40.6744 37.4088C40.6164 37.4346 40.5615 37.4474 40.5081 37.4404C40.458 37.434 40.411 37.4099 40.3644 37.3706C40.1322 37.1743 40.0636 36.8522 40.0707 36.5101C40.0813 35.9912 40.2727 35.4166 40.4491 35.0634C40.8593 34.2426 41.4281 33.3895 42.1121 32.7769C42.8925 32.0778 43.7464 31.5484 44.7273 31.1836C45.3367 30.9569 46.0424 30.7488 46.7064 30.7751C47.1844 30.794 47.6407 30.9361 48.0175 31.291C48.2489 31.5088 48.3599 31.8188 48.3599 32.1285C48.3599 32.4444 48.2446 32.762 48.0158 32.985ZM64.046 37.0228C64.0171 37.07 63.9773 37.1025 63.9331 37.1221C63.8865 37.1424 63.8347 37.1484 63.785 37.14C63.7353 37.1316 63.6883 37.1091 63.6509 37.0748C63.6152 37.0419 63.5879 36.9982 63.5756 36.9448C63.2753 35.6251 62.692 34.6432 61.4472 34.0101C60.8348 33.6986 60.1306 33.5008 59.464 33.3429C59.2704 33.2971 59.0656 33.2673 58.8595 33.2372C58.2134 33.1429 57.5628 33.0347 57.1417 32.5125C56.8878 32.1978 56.7814 31.7953 56.8415 31.4274C56.8982 31.0809 57.1007 30.7631 57.4686 30.5728C58.3847 30.0989 59.5231 30.5639 60.4483 30.9599C60.5168 30.9893 60.5842 31.0181 60.6501 31.0459C61.5548 31.4279 62.3799 31.9321 63.0581 32.6532C63.5963 33.2253 64.0949 34.071 64.2958 34.941C64.4628 35.6648 64.4235 36.4037 64.046 37.0228Z" fill="#CF6262"/>
<path fill-rule="evenodd" clip-rule="evenodd" d="M58.847 57.7655C57.5798 56.6362 56.1593 54.3657 54.3388 56.1622C53.8886 56.6698 53.7062 57.8076 53.0178 58.0308C52.1034 58.3276 51.1972 57.3598 50.8856 56.6166C49.6106 52.4873 54.8811 51.3548 57.8835 52.0219C59.3504 52.6245 60.4307 55.05 60.496 56.3158C60.5382 57.1665 59.8185 58.4174 58.847 57.7655ZM68.4071 51.4009C68.3947 51.346 68.3774 51.2965 68.3567 51.2513C67.7962 51.0394 67.3527 51.2556 67.0786 51.6593C67.0877 51.7597 67.1176 51.8612 67.1365 51.9608C66.925 52.4064 66.7343 52.9578 66.4477 53.3429C66.3912 53.3472 66.3325 53.3413 66.2761 53.325C61.5256 53.8212 63.8449 48.8491 59.0265 47.6141C55.3019 46.9994 48.5701 47.7035 46.813 51.5816C45.4274 57.7758 38.3813 53.4597 36.0678 50.2383C33.5993 47.3066 32.0033 43.724 30.4644 40.2477C30.1392 39.512 29.1242 40.0381 29.2346 40.7439C27.8121 43.5984 27.8595 47.0271 27.5071 50.1542C26.908 56.3928 26.3241 65.1419 32.1189 68.9514C39.6689 77.488 58.5223 80.5005 67.2304 72.6568C70.2449 66.1738 69.8733 58.2646 68.4071 51.4009Z" fill="#CF6262"/>
<path fill-rule="evenodd" clip-rule="evenodd" d="M63.4479 32.4062C66.6417 32.4062 68.4642 33.0932 69.1322 33.1467L69.1523 33.1482C69.43 33.166 69.6793 33.1892 69.9407 33.2904C70.9021 33.6608 71.0587 34.6694 70.4977 35.3051C70.4583 36.6205 70.6313 38.1573 70.3345 39.477C69.9684 45.0401 67.3531 45.9788 65.8664 46.3214C65.1201 46.4935 64.2354 46.5621 63.4427 46.3804C62.0902 46.3299 60.7531 45.9064 59.609 45.1689C58.0158 44.1409 56.8325 42.5611 56.4485 40.6859C56.2664 39.7922 56.1814 38.8619 56.2804 37.9534L56.2951 37.8282C55.7772 37.5804 55.1771 37.5336 54.5585 37.5116C54.263 37.5011 53.9716 37.4917 53.6887 37.5044C53.4122 37.5353 53.1389 37.5764 52.8647 37.6324C52.5654 37.7227 52.2827 37.8718 52.0217 38.108L52.0037 38.4527C51.9546 39.3138 51.8416 40.1774 51.6673 41.0222C51.41 42.2686 50.996 43.4591 50.115 44.3433C49.8168 44.7888 49.4477 45.1865 48.9996 45.531C47.3722 46.7843 45.1612 47.2446 43.1319 47.0712C39.0121 46.7196 36.6309 43.4482 36.082 42.0499L36.0493 41.9652C35.6529 40.9256 35.3368 39.5768 34.0842 39.3535L33.8178 39.3056C33.2462 39.1982 32.7186 39.0488 32.3835 38.4909C32.2366 38.2473 32.161 37.9748 32.1424 37.6971C31.947 37.7122 31.7517 37.7265 31.557 37.7405C30.0047 38.0688 20.6938 38.3474 19.9508 38.3474C19.9508 38.3474 18.5221 38.9488 17.9189 38.4828C17.5009 38.1587 17.3633 37.7268 17.5934 37.2376C17.9408 36.5014 19.5428 36.0586 20.2541 35.9183C20.2541 35.9183 31.7335 36.0137 32.5597 35.8569C33.0709 35.3297 33.9853 35.4018 34.7494 35.3185C35.382 34.8673 36.2668 34.5652 36.9658 34.3628C37.1082 34.3089 37.2493 34.2567 37.3865 34.2075C38.6679 33.751 39.9998 33.5092 41.352 33.3793C42.7464 33.2468 44.145 33.3067 45.5313 33.4968C46.1155 33.5761 46.6942 33.6786 47.2688 33.8127C48.2979 33.9483 49.3208 34.1718 50.3502 34.4369L50.5562 34.4906C51.6401 34.7748 52.7541 35.0207 53.8761 34.8279C54.7896 34.6721 55.668 34.3204 56.5104 33.9401L56.62 33.8903C58.472 33.0445 61.3642 32.4062 63.4479 32.4062ZM47.1574 35.4991C46.4741 35.3487 46.1824 36.4027 46.8678 36.5533C47.3533 36.6601 47.7647 36.905 48.0427 37.3198L48.0719 37.3649C48.4449 37.9586 49.388 37.4106 49.0125 36.813C48.5899 36.1406 47.9333 35.6696 47.1574 35.4991ZM67.1713 34.8456C66.9304 34.6759 66.5659 34.8019 66.4261 35.0417C66.2722 35.3058 66.3729 35.6 66.5986 35.7728L66.6215 35.7896C66.8285 35.9356 67.0301 36.1971 67.0554 36.465L67.0576 36.4986C67.0847 37.1998 68.1742 37.2033 68.147 36.4986C68.1204 35.809 67.7213 35.233 67.1713 34.8456Z" fill="#CF6262"/>
</g>
</svg>
