<svg width="90" height="90" viewBox="0 0 90 90" fill="none" xmlns="http://www.w3.org/2000/svg">
<circle cx="44.78" cy="44.78" r="44.78" fill="#FF5678"/>
<mask id="mask0_1_26" style="mask-type:alpha" maskUnits="userSpaceOnUse" x="0" y="0" width="90" height="90">
<circle cx="44.78" cy="44.78" r="44.78" fill="#C4C4C4"/>
</mask>
<g mask="url(#mask0_1_26)">
<path fill-rule="evenodd" clip-rule="evenodd" d="M31.2258 58.8202C29.2936 60.221 29.6011 62.9772 30.1829 64.9797C31.0394 67.9284 32.7455 70.6579 34.6917 73.0107C38.1444 77.1847 44.0058 81.8715 49.4088 78.2071C54.2202 74.9436 57.2553 68.3585 58.3029 62.8118C58.6267 61.0977 59.058 58.5435 57.5366 57.2549C55.2876 55.3501 51.3202 55.6966 48.6051 55.9418C46.8171 56.1032 45.0919 56.6512 43.3249 56.3941C39.2195 55.7958 34.6503 56.3376 31.2258 58.8202Z" fill="#FF5678"/>
<path fill-rule="evenodd" clip-rule="evenodd" d="M114.466 80.6627C110.551 85.628 103.896 86.4126 97.9857 86.364C94.4366 86.3344 90.8805 86.0673 87.401 85.3441C85.5251 84.9541 83.6619 84.4375 81.8494 83.8168C80.6521 83.4068 78.8698 83.2019 78.3602 81.919C77.0163 78.5345 78.0051 74.2897 78.5585 70.8542C78.84 69.1067 79.0515 67.3489 79.3252 65.6001C79.5004 64.4811 79.5843 63.2432 80.0533 62.1964C80.6022 60.9702 81.2957 61.215 82.4571 61.5537C84.0568 62.0208 85.6996 62.2149 87.3443 62.4661C91.3589 63.0791 94.8613 64.3153 98.5098 66.0674C102.117 67.7996 105.617 69.5098 108.835 71.9184C110.465 73.1393 111.87 74.4643 113.178 76.02C114.19 77.222 115.698 79.0984 114.466 80.6627ZM97.3549 102.717C97.3235 103.252 91.1888 101.638 90.3815 101.457C85.0845 100.269 79.6826 98.9155 74.682 96.7688C70.0143 94.7653 65.9016 92.4729 62.2285 88.9132C60.5165 87.2538 58.9765 85.5066 57.5029 83.6457C56.7644 82.7129 55.7554 82.8212 54.9318 82.0322C54.1909 81.3219 53.6228 80.7673 53.8544 79.7057C55.7055 80.1934 59.1236 83.2595 61.0427 81.7111C62.1364 80.8287 60.6195 79.9068 59.919 79.3955C58.6026 78.4338 57.4768 77.2475 56.4302 76.0024C58.2271 76.3508 59.8997 77.0237 61.4635 77.9605C62.1582 78.3767 64.5398 79.8857 65.0942 78.4472C65.4354 77.5616 63.8206 76.4487 63.3171 75.9587C62.0807 74.7558 60.7462 73.3515 60.0899 71.7341C61.7128 71.3577 63.2424 72.6119 64.3476 73.6334C65.5742 74.7677 67.078 75.958 68.1067 77.2649C68.6373 77.9389 68.7528 78.7351 69.1673 79.4621C69.6338 80.28 70.3799 80.9812 71.0929 81.5863C72.4669 82.7526 74.0738 83.6113 75.7232 84.3215C79.4923 85.9442 83.5321 87.0927 87.5496 87.8983C89.5207 88.2936 91.4432 88.4756 93.4437 88.5427C94.9984 88.5949 95.6864 89.0599 96.2801 90.4923C97.8863 94.3686 97.5948 98.6327 97.3549 102.717ZM51.2194 73.182C50.3204 74.0231 49.1523 74.5507 48.2128 75.3593C47.3859 76.0708 46.4324 76.8299 45.5096 77.4053C44.5244 78.0193 43.7884 77.5887 42.9015 77.0331C41.8602 76.3812 40.6631 76.1169 39.5906 75.5336C35.8827 73.5154 31.3465 68.5704 32.0387 64.0299C32.3319 62.1056 33.3269 60.212 35.1336 59.3387C36.7745 58.546 39.1596 58.1059 40.9152 58.7688C41.9053 59.1427 42.6138 59.968 43.2483 60.7795C43.988 61.7255 44.2713 61.5764 45.0246 60.664C46.3729 59.0319 48.596 57.5999 50.7939 57.6343C51.8861 57.6517 52.9711 57.8819 53.9551 58.3352C54.0884 58.3968 54.1625 58.5828 54.2965 58.6458C54.4608 58.7233 54.7307 58.5622 54.8449 58.6346C55.1331 58.817 55.4208 59.3867 55.5868 59.6758C56.2535 60.8358 57.454 63.1107 56.2444 64.0875C56.2436 64.0879 56.2981 65.409 56.2816 65.5595C56.1962 66.3477 55.9238 66.9983 55.5728 67.7192C54.5186 69.8843 52.9626 71.5513 51.2194 73.182ZM53.0117 91.5019C52.1602 91.7665 51.2429 89.0979 52.0598 88.672C52.8386 88.2658 53.7826 91.2624 53.0117 91.5019ZM39.6374 88.3112C39.3424 89.3192 39.2178 90.4632 38.4967 91.2837C37.8364 90.5002 37.7712 89.0544 38.4116 88.2488C38.7772 87.7893 39.9599 87.2097 39.6374 88.3112ZM66.8869 70.6493C66.8822 70.6748 67.9116 71.1672 67.4094 71.7055C66.7232 72.4408 66.8174 71.0097 66.8869 70.6493ZM71.1409 62.4338C71.1292 63.453 68.9715 63.2069 68.9868 62.1818C69.0057 60.9201 71.1536 61.3533 71.1409 62.4338ZM68.5653 53.9153C68.7789 52.9821 72.5321 51.6839 72.4298 53.3104C72.3786 54.1257 68.1124 55.8993 68.5653 53.9153ZM30.0899 85.562C29.6693 86.0678 29.0715 86.2671 28.5675 86.6555C28.0386 87.0623 27.6606 87.5902 27.1988 88.0679C25.9303 89.3793 24.4035 90.4569 23.035 91.6616C20.5193 93.876 18.1093 96.2569 15.3201 98.1349C10.3357 101.491 4.55538 103.326 -1.18266 104.934C-1.65807 105.067 -3.02739 105.604 -3.49771 105.204C-4.00497 104.772 -3.74698 103.253 -3.72363 102.679C-3.6285 100.324 -3.35395 97.9411 -3.38368 95.5897C-3.396 94.6238 -3.67882 93.2509 -3.17496 92.3672C-2.61228 91.3803 -1.04124 91.0915 -0.0696182 90.7201C2.88412 89.5912 5.72935 87.6868 8.33848 85.9232C11.5457 83.7548 14.7849 81.5506 18.0855 79.5267C21.3191 77.5437 24.8861 76.2158 28.4932 75.0832C28.6603 75.4344 26.9391 76.5645 26.7423 76.7229C25.7987 77.4826 24.772 78.2701 24.0716 79.2729C23.5756 79.983 23.067 81.5895 24.4364 81.6307C25.1001 81.6506 26.0815 81.0085 26.6835 80.8009C27.6776 80.4578 28.7021 80.217 29.7421 80.0603C28.848 81.0446 25.8176 82.8129 26.369 84.45C26.9039 86.0387 29.9982 84.1848 31.0632 84.1848C30.8887 84.7388 30.4498 85.1297 30.0899 85.562ZM-6.46589 89.9961C-8.44757 90.693 -10.4787 91.0892 -12.5239 91.5391C-14.4733 91.968 -16.2752 92.2912 -18.2719 92.04C-21.0286 91.6935 -24.0794 90.5516 -24.4289 87.419C-24.8433 83.7075 -22.2221 80.2968 -19.9714 77.634C-17.2321 74.3942 -14.1563 71.4978 -10.8227 68.8753C-7.49292 66.2551 -3.8988 63.9454 -0.133533 61.9954C2.73103 60.5118 5.96632 59.6111 8.99522 58.4976C9.57148 58.2859 11.1652 57.5417 11.7041 58.1585C12.1398 58.6573 11.547 59.4881 11.3485 59.9512C10.9612 60.8541 10.9079 61.7631 10.8079 62.7324C10.3614 67.0614 9.82373 71.3891 9.57637 75.7368C9.50757 76.9483 9.38612 78.216 9.45683 79.4284C9.4959 80.1 9.84539 80.9552 9.61267 81.6109C9.16529 82.8713 7.11651 83.7056 6.03065 84.2687C4.08697 85.2766 2.02864 86.0287 0.0647888 86.9927C-2.09186 88.0516 -4.19182 89.196 -6.46589 89.9961ZM21.0166 61.8675C21.5605 61.7928 22.3753 61.6446 22.8602 61.9971C23.4925 62.4565 23.3267 63.0959 22.7426 63.4292C22.2814 63.6927 21.2019 63.7647 20.7463 63.5256C19.97 63.1186 20.1014 61.9934 21.0166 61.8675ZM24.0289 71.8917C23.5894 72.6238 21.9831 73.1039 22.123 71.7377C22.243 70.568 24.8385 70.5436 24.0289 71.8917ZM23.4327 51.2682C24.1393 51.5419 25.4216 51.7761 25.6311 52.6851C25.8261 53.531 25.0245 53.4751 24.4459 53.2422C23.9701 53.0511 21.8504 51.2535 23.4327 51.2682ZM134.141 83.5402C133.728 81.9341 134.043 80.1562 133.815 78.5113C133.594 76.9167 133.196 75.4514 132.626 73.9487C131.363 70.6219 129.915 67.6272 127.868 64.7075C124.012 59.2092 119.538 54.3661 114.135 50.3501C108.802 46.3854 102.896 43.1633 96.6395 40.9051C90.0055 38.5103 83.3274 37.6769 76.3313 37.2178C74.242 37.0808 72.1548 36.9184 70.0773 36.6545C68.559 36.4617 66.6556 36.2241 65.1544 36.6891C64.2115 36.9815 63.6845 37.8038 64.712 38.3436C65.4403 38.7262 66.394 38.7721 67.1986 38.8738C66.2267 41.9611 64.6455 45.0592 62.1396 47.185C59.6931 49.2606 56.4194 49.9721 53.3319 50.4985C51.6576 50.7836 49.783 51.0045 48.0828 50.8813C47.0078 50.8038 46.1691 50.3061 45.7353 51.4132C45.4344 52.1825 45.2919 53.0265 44.8951 51.865C44.4258 50.4919 44.1955 50.5006 42.7357 50.1105C39.7501 49.313 36.3273 48.5854 33.7227 46.8604C31.0205 45.0709 30.0808 42.1759 28.5721 39.4802C28.1991 38.8139 27.0737 37.4654 27.6487 36.7018C28.1747 36.0037 29.8846 36.0733 30.6676 36.0005C31.494 35.9236 32.3255 35.9205 33.1547 35.8882C33.635 35.8697 34.6013 36.0665 34.4078 35.3491C34.1163 34.2677 30.9925 34.4063 30.2169 34.3887C28.7743 34.3564 27.3117 34.3898 25.8764 34.5484C18.7597 35.3355 11.5789 36.7908 4.69212 38.7315C-8.66945 42.4966 -21.6102 49.4343 -31.3613 59.4291C-40.7215 69.0233 -43.6869 84.9887 -37.9327 97.2387C-34.9422 103.605 -28.4525 106.221 -22.1616 108.333C-18.8433 109.447 -15.3296 110.318 -11.8022 110.108C-10.1095 110.007 -8.50341 109.551 -6.85254 109.208C-6.13252 109.058 -5.31313 108.819 -4.57359 108.88C-4.01388 108.925 -3.47605 109.439 -2.95095 109.166C-2.57831 108.972 -2.4163 108.416 -1.96085 108.179C-1.41389 107.895 -0.750988 107.792 -0.160282 107.648C1.48125 107.25 3.07076 106.603 4.67534 106.073C6.33471 105.524 7.90065 104.818 9.49271 104.104C10.2966 103.743 12.1568 102.278 12.6809 103.349C12.9195 103.839 12.8178 104.782 12.876 105.295C12.9779 106.192 13.0977 107.088 13.2287 107.981C13.517 109.948 13.8623 111.907 14.216 113.864C14.8545 117.394 15.6775 120.773 17.0534 124.094C18.152 126.745 19.1164 129.751 21.1565 131.86C22.047 132.781 23.262 133.195 24.5393 132.906C25.9921 132.577 26.7153 131.257 27.5973 130.19C29.5378 127.842 32.7417 126.043 35.7001 125.395C39.3227 124.602 42.8516 125.762 46.3094 126.748C49.9673 127.791 53.6907 128.785 57.281 130.038C60.6265 131.207 64.2389 132.932 67.867 132.782C71.0311 132.651 73.9864 130.076 76.2683 128.113C78.56 126.142 81.4256 123.255 84.721 123.488C86.3572 123.603 87.8484 124.392 89.4422 124.713C91.192 125.066 93.0539 125.115 94.8332 125.247C97.0419 125.41 101.983 124.834 102.801 122.177C102.922 121.782 102.922 120.971 102.402 120.813C101.923 120.668 101.678 121.228 101.225 121.202C100.302 121.15 99.5805 119.541 99.0735 118.918C97.0273 116.403 94.2204 114.527 91.9243 112.255C89.3315 109.689 87.118 106.581 85.1643 103.515C86.0476 103.286 87.0003 103.667 87.8552 103.848C88.8939 104.068 89.9061 104.334 90.9295 104.616C92.0576 104.927 93.2019 105.14 94.3468 105.377C95.201 105.553 96.3349 105.606 97.1058 106.035C97.7789 106.409 98.1547 106.811 98.9903 106.919C99.84 107.03 100.712 106.937 101.566 106.931C103.875 106.915 106.179 106.872 108.477 106.628C116.598 105.766 125.206 102.331 130.088 95.5144C131.416 93.6603 132.486 91.6064 133.163 89.4268C133.69 87.725 134.6 85.3269 134.141 83.5402Z" fill="black"/>
<path fill-rule="evenodd" clip-rule="evenodd" d="M40.1673 24.585C38.7222 25.0334 37.0142 24.5058 36.1836 23.2159C35.3389 21.9043 34.761 20.3866 34.6446 18.8242C34.5333 17.3273 34.8733 15.8117 35.7561 14.5827C36.6955 13.2754 38.6103 11.8101 40.3268 12.2641C40.6884 12.3598 41.0154 12.5902 41.3398 12.8189C41.6838 13.0614 42.025 13.3019 42.4015 13.3771C42.4983 13.3964 42.566 13.4147 42.6166 13.4281C42.6847 13.4463 42.721 13.4561 42.7533 13.4487C42.7905 13.4402 42.8223 13.4094 42.8907 13.3433C42.9295 13.3055 42.9805 13.2563 43.051 13.1932C43.1962 13.0635 43.3366 12.8681 43.4738 12.677H43.474C43.5661 12.5486 43.6572 12.4218 43.7472 12.3184C43.9207 12.1195 44.0938 11.9184 44.2674 11.7169C45.3839 10.4217 46.5216 9.10161 47.886 8.07717C50.7132 5.9545 54.4708 4.95193 57.9783 5.00177C60.1122 5.03198 62.1124 5.66477 64.1009 6.38417C64.2678 6.44454 64.4357 6.50446 64.6041 6.56459L64.6047 6.5648C66.2017 7.13472 67.8487 7.72256 69.1276 8.86443C71.6709 11.1357 72.3334 14.8963 72.7495 18.1136C73.2001 21.5977 71.9584 24.5952 70.6721 27.7005V27.701L70.6717 27.7016V27.7018C70.4759 28.1745 70.2791 28.6494 70.0871 29.1289C68.7274 32.526 66.2314 35.278 63.2647 37.375C61.7102 38.4734 59.9925 39.1365 58.1953 39.7178C57.8224 39.8384 57.4519 39.9675 57.0818 40.0964H57.0816H57.0814C55.6395 40.5984 54.2026 41.0986 52.6484 41.0963C49.6821 41.092 45.8848 39.6832 44.6212 36.7609C44.046 35.4302 44.6061 35.1914 45.7572 35.9146C45.9584 36.0409 46.1587 36.1685 46.3589 36.2959V36.2961H46.3591L46.3598 36.2968C47.8208 37.2272 49.2725 38.1521 50.9886 38.5613C54.7732 39.4641 59.306 38.0655 62.6245 36.2199C65.9418 34.375 68.1689 31.6032 69.6574 28.1522C71.159 24.6704 71.7425 21.2395 71.1632 17.4861C70.6727 14.3052 69.6962 11.3997 66.83 9.67299C60.642 5.94594 52.3048 6.24624 46.802 11.0899C46.0472 11.7538 45.3013 12.4 44.5237 13.0342C44.0292 13.4372 43.447 13.9207 43.519 14.6175C43.5347 14.7713 43.6309 15.0382 43.7387 15.3373C44.0496 16.2003 44.4581 17.3335 43.3204 16.8088C42.8514 16.5924 42.4633 16.2979 42.0806 16.0077C41.4502 15.5295 40.8351 15.0628 39.8985 14.9766C38.2969 14.8288 36.3866 16.0591 35.9073 17.6076C35.4504 19.0852 36.2653 21.1068 37.5416 21.9542C38.2597 22.4311 39.0435 22.4078 39.8539 22.3836C39.9355 22.3812 40.0174 22.3787 40.0994 22.3768C40.1618 22.3753 40.2399 22.3712 40.3287 22.3666C40.874 22.3377 41.8263 22.2876 42.0798 22.6925C42.6015 23.5255 40.7612 24.4009 40.1673 24.585ZM59.4464 31.1764C59.7177 30.6432 59.9861 30.116 60.2897 29.6395C60.4305 29.4185 60.6602 29.2658 60.8804 29.1195H60.8807C60.9439 29.0775 61.0064 29.0359 61.0658 28.9934C61.8079 30.1498 61.0747 31.3885 60.4433 32.4553C60.37 32.5791 60.298 32.7005 60.2301 32.8192C60.0303 33.1674 59.8353 33.5301 59.6385 33.8959C59.2181 34.6775 58.79 35.4731 58.2938 36.1725C57.084 37.8771 54.4519 36.033 54.3738 34.2811C54.3139 32.94 55.2639 33.5237 55.8737 34.0246C56.5013 34.5406 56.7986 34.669 57.4566 34.1055C58.341 33.3479 58.8998 32.2499 59.4464 31.1764ZM52.3214 26.4527C52.5876 24.6937 51.3833 26.0596 51.1257 26.8686C50.8077 27.8668 50.5446 29.2767 51.0255 30.2672C51.9086 32.0854 54.3982 31.2189 55.5964 30.253C56.158 29.8001 56.9451 28.8567 56.9183 28.0704C56.8718 26.7024 55.818 27.5226 55.1698 28.0271H55.1696C55.087 28.0914 55.011 28.1507 54.9443 28.1995C54.9175 28.2193 54.8889 28.2403 54.8589 28.2624C54.2576 28.7066 53.0626 29.5892 52.3623 29.1525C51.7188 28.7514 51.9768 27.7986 52.1797 27.0491C52.2405 26.8255 52.2961 26.62 52.3214 26.4527ZM55.8832 19.3589C57.3048 19.0759 59.1357 19.2217 60.3725 20.0277C61.9663 21.066 59.8708 21.8137 58.9631 21.9067C57.8643 22.0188 56.4595 22.0931 55.4503 21.554C54.0198 20.7898 54.4967 19.6354 55.8832 19.3589ZM39.6522 16.7224C38.5653 16.5111 37.0484 17.0598 37.7967 18.3524C38.3551 19.3173 39.731 19.6419 40.8077 19.8961C40.9385 19.9269 41.0651 19.9568 41.185 19.9865C42.3822 20.2838 42.9743 19.8456 42.5622 18.5251C42.163 17.2471 40.8243 16.9504 39.6522 16.7224ZM62.3491 30.2434C62.4491 29.8258 63.0324 28.2558 63.4265 29.4083C63.487 29.5854 63.4944 29.8453 63.5023 30.1228C63.5223 30.8241 63.5452 31.6393 64.4374 31.5208C64.8977 31.4599 65.1158 30.9978 65.318 30.5698C65.4182 30.3576 65.5144 30.1538 65.6341 30.0111C66.8508 28.5624 66.4777 31.3025 66.1598 31.9883C65.4591 33.4997 63.4981 34.5412 62.5254 32.6236C62.1636 31.9104 62.1653 31.0101 62.3491 30.2434ZM66.9293 24.1504H66.9295C67.4939 24.8058 68.4345 25.8987 69.0516 25.1071C69.6538 24.3345 68.6176 23.1371 68.101 22.5403C68.0785 22.5143 68.057 22.4895 68.0366 22.4659C68.022 22.4487 68.0063 22.4305 67.9897 22.4112C67.5226 21.8663 66.3248 20.4694 65.7167 21.5158C65.3364 22.1708 66.2284 23.4055 66.6525 23.8391C66.7278 23.9162 66.8217 24.0253 66.9293 24.1504ZM50.3518 37.0081C49.7694 36.3392 49.8303 35.0996 50.1603 34.3257C50.4291 33.6955 50.8786 34.4756 51.1391 34.9272C51.2026 35.0374 51.2548 35.1279 51.2905 35.1737C51.4071 35.3239 51.5746 35.4629 51.7468 35.6058C52.1054 35.9035 52.4836 36.2173 52.459 36.6783C52.3987 37.8045 50.8637 37.5956 50.3518 37.0081Z" fill="black"/>
<path fill-rule="evenodd" clip-rule="evenodd" d="M101.096 28.6845C100.457 28.511 99.8182 28.3376 99.1829 28.159C97.705 27.7432 99.1013 26.8077 99.9795 26.8735C100.659 26.9243 101.323 27.1625 101.976 27.3967C102.264 27.5001 102.551 27.6029 102.835 27.6885C105.676 28.5414 108.309 29.4742 110.963 30.7981C111.359 30.9957 113.102 31.9328 111.949 32.3476C111.343 32.5655 110.124 31.9098 109.271 31.4508C108.998 31.304 108.763 31.1775 108.597 31.1057C106.187 30.067 103.635 29.3739 101.096 28.6845ZM125.219 49.7359C115.717 43.8409 106.255 38.067 95.5076 34.6899C94.9475 34.5141 94.7734 34.0144 95.0672 33.5195C95.3768 32.9978 95.972 33.0169 96.4996 33.0339L96.5446 33.0354C97.9352 33.0793 99.2933 33.5184 100.608 33.9437L100.776 33.9979C103.782 34.9689 106.646 36.3159 109.47 37.7239C114.421 40.1916 119.186 43.1774 123.553 46.5723C124.466 47.2817 125.402 47.8567 126.395 48.4368C126.457 48.4729 126.521 48.5097 126.587 48.5475C127.2 48.8993 127.96 49.3354 128.181 50.0195C128.803 51.945 125.664 50.0123 125.219 49.7359ZM-28.2168 47.9837C-31.6893 50.6852 -35.0826 53.4979 -38.2219 56.581C-39.3396 57.6787 -40.2711 58.9343 -41.2017 60.1891C-41.6279 60.7637 -42.054 61.3381 -42.4978 61.8969C-42.5454 61.9568 -42.5978 62.0269 -42.6549 62.1031C-43.0121 62.5791 -43.5465 63.2915 -44.1295 63.2127C-44.8714 63.1129 -45.0213 61.8351 -44.9977 61.2771C-44.9166 59.3742 -43.1787 57.5365 -41.9394 56.2262C-40.5452 54.7528 -39.0547 53.317 -37.5324 51.9755C-35.8565 50.4986 -34.0377 49.229 -32.1843 47.9863C-31.5069 47.5321 -30.8402 47.0516 -30.172 46.5702C-29.0452 45.7585 -27.9151 44.9444 -26.7267 44.2503C-25.8351 43.7297 -24.3548 43.5316 -24.8399 45.0988C-25.1234 46.0143 -26.2366 46.7076 -27.2081 47.3125C-27.5845 47.5469 -27.9395 47.768 -28.2168 47.9837ZM-40.6544 44.2384C-38.6996 43.6299 -36.8872 42.6852 -35.0747 41.7405C-33.8937 41.125 -32.7125 40.5094 -31.4923 39.9871C-30.6147 39.6113 -29.7244 39.2675 -28.8343 38.9238C-28.0336 38.6144 -27.2331 38.3052 -26.4418 37.9729C-26.3672 37.9415 -26.2865 37.9118 -26.2035 37.881C-25.7891 37.7277 -25.3187 37.5536 -25.2627 37.0652C-25.1858 36.3892 -25.5805 36.4093 -26.0627 36.434H-26.063C-26.094 36.4354 -26.1254 36.4371 -26.1572 36.4384C-27.2563 36.4879 -28.4184 36.975 -29.5165 37.4353C-29.9699 37.6256 -30.4126 37.8111 -30.8353 37.9593C-31.2118 38.0914 -31.5887 38.2203 -31.9653 38.349C-33.1451 38.7524 -34.3214 39.1548 -35.472 39.648C-37.0029 40.3041 -38.5663 40.9829 -39.945 41.9274C-39.9938 41.9609 -40.0447 41.9951 -40.097 42.0304C-40.5535 42.3376 -41.106 42.7096 -41.3034 43.2171C-41.5011 43.7237 -41.3922 44.4684 -40.6544 44.2384Z" fill="black"/>
<path fill-rule="evenodd" clip-rule="evenodd" d="M40.2739 31.187C40.4586 30.6451 42.7433 24.7207 41.849 24.5421C40.9018 24.3525 39.6356 27.7899 39.3609 28.411C38.3462 30.7046 37.7452 33.1655 37.2745 35.6258C36.9465 37.3389 36.6583 39.0938 36.7732 40.8451C36.8615 42.1911 37.4174 42.3949 38.3334 43.2196C38.3334 39.1314 38.9547 35.0565 40.2739 31.187Z" fill="black"/>
</g>
</svg>
